999
dxfrw 0.6.3
  0
SECTION
  2
HEADER
  9
$ACADVER
  1
AC1021
  9
$DWGCODEPAGE
  3
ANSI_1252
  9
$INSBASE
 10
0
 20
0
 30
0
  9
$EXTMIN
 10
156.7214576585449
 20
12.38624149999993
 30
0
  9
$EXTMAX
 10
378.7576151287501
 20
154.1844350415502
 30
0
  9
$LIMMIN
 10
0
 20
0
  9
$LIMMAX
 10
420
 20
297
  9
$ORTHOMODE
 70
    0
  9
$REGENMODE
 70
    1
  9
$FILLMODE
 70
    1
  9
$QTEXTMODE
 70
    0
  9
$MIRRTEXT
 70
    0
  9
$LTSCALE
 40
1
  9
$ATTMODE
 70
    0
  9
$TEXTSIZE
 40
2.5
  9
$TRACEWID
 40
15.68
  9
$TEXTSTYLE
  7
STANDARD
  9
$CLAYER
  8
0
  9
$CELTYPE
  6
BYLAYER
  9
$CECOLOR
 62
  256
  9
$CELTSCALE
 40
1
  9
$DISPSILH
 70
    0
  9
$DIMSCALE
 40
1
  9
$DIMASZ
 40
2.5
  9
$DIMEXO
 40
0.625
  9
$DIMDLI
 40
3.75
  9
$DIMRND
 40
0
  9
$DIMDLE
 40
0
  9
$DIMEXE
 40
1.25
  9
$DIMTP
 40
0
  9
$DIMTM
 40
0
  9
$DIMTXT
 40
2.5
  9
$DIMCEN
 40
2.5
  9
$DIMTSZ
 40
0
  9
$DIMTOL
 70
    0
  9
$DIMLIM
 70
    0
  9
$DIMTIH
 70
    0
  9
$DIMTOH
 70
    0
  9
$DIMSE1
 70
    0
  9
$DIMSE2
 70
    0
  9
$DIMTAD
 70
    1
  9
$DIMZIN
 70
    8
  9
$DIMBLK
  1

  9
$DIMASO
 70
    1
  9
$DIMSHO
 70
    1
  9
$DIMPOST
  1

  9
$DIMAPOST
  1

  9
$DIMALT
 70
    0
  9
$DIMALTD
 70
    3
  9
$DIMALTF
 40
0.03937
  9
$DIMLFAC
 40
1
  9
$DIMTOFL
 70
    1
  9
$DIMTVP
 40
0
  9
$DIMTIX
 70
    0
  9
$DIMSOXD
 70
    0
  9
$DIMSAH
 70
    0
  9
$DIMBLK1
  1

  9
$DIMBLK2
  1

  9
$DIMSTYLE
  2
STANDARD
  9
$DIMCLRD
 70
    0
  9
$DIMCLRE
 70
    0
  9
$DIMCLRT
 70
    0
  9
$DIMTFAC
 40
1
  9
$DIMGAP
 40
0.625
  9
$DIMJUST
 70
    0
  9
$DIMSD1
 70
    0
  9
$DIMSD2
 70
    0
  9
$DIMTOLJ
 70
    0
  9
$DIMTZIN
 70
    8
  9
$DIMALTZ
 70
    0
  9
$DIMALTTZ
 70
    0
  9
$DIMUPT
 70
    0
  9
$DIMDEC
 70
    2
  9
$DIMTDEC
 70
    2
  9
$DIMALTU
 70
    2
  9
$DIMALTTD
 70
    3
  9
$DIMTXSTY
  7
STANDARD
  9
$DIMAUNIT
 70
    0
  9
$DIMADEC
 70
    0
  9
$DIMALTRND
 40
0
  9
$DIMAZIN
 70
    0
  9
$DIMDSEP
 70
   44
  9
$DIMATFIT
 70
    3
  9
$DIMFRAC
 70
    0
  9
$DIMLDRBLK
  1
STANDARD
  9
$DIMLUNIT
 70
    2
  9
$DIMLWD
 70
   -2
  9
$DIMLWE
 70
   -2
  9
$DIMTMOVE
 70
    0
  9
$DIMFXL
 40
1
  9
$DIMFXLON
 70
    0
  9
$DIMJOGANG
 40
0.7854
  9
$DIMTFILL
 70
    0
  9
$DIMTFILLCLR
 70
    0
  9
$DIMARCSYM
 70
    0
  9
$DIMLTYPE
  6

  9
$DIMLTEX1
  6

  9
$DIMLTEX2
  6

  9
$LUNITS
 70
    2
  9
$LUPREC
 70
    4
  9
$SKETCHINC
 40
1
  9
$FILLETRAD
 40
0
  9
$AUNITS
 70
    0
  9
$AUPREC
 70
    2
  9
$MENU
  1
.
  9
$ELEVATION
 40
0
  9
$PELEVATION
 40
0
  9
$THICKNESS
 40
0
  9
$LIMCHECK
 70
    0
  9
$CHAMFERA
 40
0
  9
$CHAMFERB
 40
0
  9
$CHAMFERC
 40
0
  9
$CHAMFERD
 40
0
  9
$SKPOLY
 70
    0
  9
$USRTIMER
 70
    1
  9
$ANGBASE
 50
0
  9
$ANGDIR
 70
    0
  9
$PDMODE
 70
   34
  9
$PDSIZE
 40
0
  9
$PLINEWID
 40
0
  9
$SPLFRAME
 70
    0
  9
$SPLINETYPE
 70
    2
  9
$SPLINESEGS
 70
    8
  9
$HANDSEED
  5
20000
  9
$SURFTAB1
 70
    6
  9
$SURFTAB2
 70
    6
  9
$SURFTYPE
 70
    6
  9
$SURFU
 70
    6
  9
$SURFV
 70
    6
  9
$UCSBASE
  2

  9
$UCSNAME
  2

  9
$UCSORG
 10
0
 20
0
 30
0
  9
$UCSXDIR
 10
1
 20
0
 30
0
  9
$UCSYDIR
 10
0
 20
1
 30
0
  9
$UCSORTHOREF
  2

  9
$UCSORTHOVIEW
 70
    0
  9
$UCSORGTOP
 10
0
 20
0
 30
0
  9
$UCSORGBOTTOM
 10
0
 20
0
 30
0
  9
$UCSORGLEFT
 10
0
 20
0
 30
0
  9
$UCSORGRIGHT
 10
0
 20
0
 30
0
  9
$UCSORGFRONT
 10
0
 20
0
 30
0
  9
$UCSORGBACK
 10
0
 20
0
 30
0
  9
$PUCSBASE
  2

  9
$PUCSNAME
  2

  9
$PUCSORG
 10
0
 20
0
 30
0
  9
$PUCSXDIR
 10
1
 20
0
 30
0
  9
$PUCSYDIR
 10
0
 20
1
 30
0
  9
$PUCSORTHOREF
  2

  9
$PUCSORTHOVIEW
 70
    0
  9
$PUCSORGTOP
 10
0
 20
0
 30
0
  9
$PUCSORGBOTTOM
 10
0
 20
0
 30
0
  9
$PUCSORGLEFT
 10
0
 20
0
 30
0
  9
$PUCSORGRIGHT
 10
0
 20
0
 30
0
  9
$PUCSORGFRONT
 10
0
 20
0
 30
0
  9
$PUCSORGBACK
 10
0
 20
0
 30
0
  9
$USERI1
 70
    0
  9
$USERI2
 70
    0
  9
$USERI3
 70
    0
  9
$USERI4
 70
    0
  9
$USERI5
 70
    0
  9
$USERR1
 40
0
  9
$USERR2
 40
0
  9
$USERR3
 40
0
  9
$USERR4
 40
0
  9
$USERR5
 40
0
  9
$WORLDVIEW
 70
    1
  9
$SHADEDGE
 70
    3
  9
$SHADEDIF
 70
   70
  9
$TILEMODE
 70
    1
  9
$MAXACTVP
 70
   64
  9
$PINSBASE
 10
0
 20
0
 30
0
  9
$PLIMCHECK
 70
    0
  9
$PEXTMIN
 10
0
 20
0
 30
0
  9
$PEXTMAX
 10
0
 20
0
 30
0
  9
$GRIDMODE
 70
    1
  9
$SNAPSTYLE
 70
    0
  9
$PLIMMIN
 10
0
 20
0
  9
$PLIMMAX
 10
210
 20
297
  9
$UNITMODE
 70
    0
  9
$VISRETAIN
 70
    1
  9
$PLINEGEN
 70
    0
  9
$PSLTSCALE
 70
    1
  9
$TREEDEPTH
 70
 3020
  9
$CMLSTYLE
  2
Standard
  9
$CMLJUST
 70
    0
  9
$CMLSCALE
 40
20
  9
$PROXYGRAPHICS
 70
    1
  9
$MEASUREMENT
 70
    1
  9
$CELWEIGHT
370
   -1
  9
$ENDCAPS
280
    0
  9
$JOINSTYLE
280
    0
  9
$LWDISPLAY
290
    0
  9
$INSUNITS
 70
    4
  9
$HYPERLINKBASE
  1

  9
$STYLESHEET
  1

  9
$XEDIT
290
    1
  9
$CEPSNTYPE
380
    0
  9
$PSTYLEMODE
290
    1
  9
$EXTNAMES
290
    1
  9
$PSVPSCALE
 40
1
  9
$OLESTARTUP
290
    0
  9
$SORTENTS
280
  127
  9
$INDEXCTL
280
    0
  9
$HIDETEXT
280
    1
  9
$XCLIPFRAME
290
    0
  9
$HALOGAP
280
    0
  9
$OBSCOLOR
 70
  257
  9
$OBSLTYPE
280
    0
  9
$INTERSECTIONDISPLAY
280
    0
  9
$INTERSECTIONCOLOR
 70
  257
  9
$DIMASSOC
280
    1
  9
$PROJECTNAME
  1

  9
$CAMERADISPLAY
290
    0
  9
$LENSLENGTH
 40
50
  9
$CAMERAHEIGHT
 40
0
  9
$STEPSPERSEC
 40
2
  9
$STEPSIZE
 40
50
  9
$3DDWFPREC
 40
2
  9
$PSOLWIDTH
 40
5
  9
$PSOLHEIGHT
 40
80
  9
$LOFTANG1
 40
1.570796326794897
  9
$LOFTANG2
 40
1.570796326794897
  9
$LOFTMAG1
 40
0
  9
$LOFTMAG2
 40
0
  9
$LOFTPARAM
 70
    7
  9
$LOFTNORMALS
280
    1
  9
$LATITUDE
 40
1
  9
$LONGITUDE
 40
1
  9
$NORTHDIRECTION
 40
0
  9
$TIMEZONE
 70
-8000
  9
$LIGHTGLYPHDISPLAY
280
    1
  9
$TILEMODELIGHTSYNCH
280
    1
  9
$SOLIDHIST
280
    1
  9
$SHOWHIST
280
    1
  9
$DWFFRAME
280
    2
  9
$DGNFRAME
280
    0
  9
$REALWORLDSCALE
290
    1
  9
$INTERFERECOLOR
 62
    1
  9
$CSHADOW
280
    0
  9
$SHADOWPLANELOCATION
 40
0
  0
ENDSEC
  0
SECTION
  2
CLASSES
  0
ENDSEC
  0
SECTION
  2
TABLES
  0
TABLE
  2
VPORT
  5
8
330
0
100
AcDbSymbolTable
 70
    1
  0
VPORT
  5
31
330
2
100
AcDbSymbolTableRecord
100
AcDbViewportTableRecord
  2
*ACTIVE
 70
    0
 10
0
 20
0
 11
1
 21
1
 12
295.2618141588821
 22
122.734842475503
 13
0
 23
0
 14
10
 24
10
 15
10
 25
10
 16
0
 26
0
 36
1
 17
0
 27
0
 37
0
 40
326.3129943660079
 41
1.804054054054054
 42
50
 43
0
 44
0
 50
0
 51
0
 71
    0
 72
  100
 73
    1
 74
    3
 75
    0
 76
    1
 77
    0
 78
    0
281
    0
 65
    1
110
0
120
0
130
0
111
1
121
0
131
0
112
0
122
1
132
0
 79
    0
146
0
348
10020
 60
    7
 61
    5
292
1
282
    1
141
0
142
0
 63
  250
421
3358443
  0
ENDTAB
  0
TABLE
  2
LTYPE
  5
5
330
0
100
AcDbSymbolTable
 70
    4
  0
LTYPE
  5
14
330
5
100
AcDbSymbolTableRecord
100
AcDbLinetypeTableRecord
  2
ByBlock
 70
    0
  3

 72
   65
 73
    0
 40
0
  0
LTYPE
  5
15
330
5
100
AcDbSymbolTableRecord
100
AcDbLinetypeTableRecord
  2
ByLayer
 70
    0
  3

 72
   65
 73
    0
 40
0
  0
LTYPE
  5
16
330
5
100
AcDbSymbolTableRecord
100
AcDbLinetypeTableRecord
  2
Continuous
 70
    0
  3
Solid line
 72
   65
 73
    0
 40
0
  0
LTYPE
  5
32
330
5
100
AcDbSymbolTableRecord
100
AcDbLinetypeTableRecord
  2
DOT
 70
    0
  3
Dot . . . . . . . . . . . . . . . . . . . . . .
 72
   65
 73
    2
 40
6.35
 49
0
 74
    0
 49
-6.35
 74
    0
  0
LTYPE
  5
33
330
5
100
AcDbSymbolTableRecord
100
AcDbLinetypeTableRecord
  2
DOTTINY
 70
    0
  3
Dot (.15x) .....................................
 72
   65
 73
    2
 40
0.9525
 49
0
 74
    0
 49
-0.9525
 74
    0
  0
LTYPE
  5
34
330
5
100
AcDbSymbolTableRecord
100
AcDbLinetypeTableRecord
  2
DOT2
 70
    0
  3
Dot (.5x) .....................................
 72
   65
 73
    2
 40
3.175
 49
0
 74
    0
 49
-3.175
 74
    0
  0
LTYPE
  5
35
330
5
100
AcDbSymbolTableRecord
100
AcDbLinetypeTableRecord
  2
DOTX2
 70
    0
  3
Dot (2x) .  .  .  .  .  .  .  .  .  .  .  .  .
 72
   65
 73
    2
 40
12.7
 49
0
 74
    0
 49
-12.7
 74
    0
  0
LTYPE
  5
36
330
5
100
AcDbSymbolTableRecord
100
AcDbLinetypeTableRecord
  2
DASHED
 70
    0
  3
Dashed _ _ _ _ _ _ _ _ _ _ _ _ _ _ _ _ _
 72
   65
 73
    2
 40
19.05
 49
12.7
 74
    0
 49
-6.35
 74
    0
  0
LTYPE
  5
37
330
5
100
AcDbSymbolTableRecord
100
AcDbLinetypeTableRecord
  2
DASHEDTINY
 70
    0
  3
Dashed (.15x) _ _ _ _ _ _ _ _ _ _ _ _ _ _ _ _ _
 72
   65
 73
    2
 40
2.8575
 49
1.905
 74
    0
 49
-0.9525
 74
    0
  0
LTYPE
  5
38
330
5
100
AcDbSymbolTableRecord
100
AcDbLinetypeTableRecord
  2
DASHED2
 70
    0
  3
Dashed (.5x) _ _ _ _ _ _ _ _ _ _ _ _ _ _ _ _ _
 72
   65
 73
    2
 40
9.524999999999999
 49
6.35
 74
    0
 49
-3.175
 74
    0
  0
LTYPE
  5
39
330
5
100
AcDbSymbolTableRecord
100
AcDbLinetypeTableRecord
  2
DASHEDX2
 70
    0
  3
Dashed (2x) ____  ____  ____  ____  ____  ___
 72
   65
 73
    2
 40
38.09999999999999
 49
25.4
 74
    0
 49
-12.7
 74
    0
  0
LTYPE
  5
3A
330
5
100
AcDbSymbolTableRecord
100
AcDbLinetypeTableRecord
  2
DASHDOT
 70
    0
  3
Dash dot __ . __ . __ . __ . __ . __ . __ . __
 72
   65
 73
    4
 40
25.4
 49
12.7
 74
    0
 49
-6.35
 74
    0
 49
0
 74
    0
 49
-6.35
 74
    0
  0
LTYPE
  5
3B
330
5
100
AcDbSymbolTableRecord
100
AcDbLinetypeTableRecord
  2
DASHDOTTINY
 70
    0
  3
Dash dot (.15x) _._._._._._._._._._._._._._._.
 72
   65
 73
    4
 40
3.81
 49
1.905
 74
    0
 49
-0.9525
 74
    0
 49
0
 74
    0
 49
-0.9525
 74
    0
  0
LTYPE
  5
3C
330
5
100
AcDbSymbolTableRecord
100
AcDbLinetypeTableRecord
  2
DASHDOT2
 70
    0
  3
Dash dot (.5x) _._._._._._._._._._._._._._._.
 72
   65
 73
    4
 40
12.7
 49
6.35
 74
    0
 49
-3.175
 74
    0
 49
0
 74
    0
 49
-3.175
 74
    0
  0
LTYPE
  5
3D
330
5
100
AcDbSymbolTableRecord
100
AcDbLinetypeTableRecord
  2
DASHDOTX2
 70
    0
  3
Dash dot (2x) ____  .  ____  .  ____  .  ___
 72
   65
 73
    4
 40
50.8
 49
25.4
 74
    0
 49
-12.7
 74
    0
 49
0
 74
    0
 49
-12.7
 74
    0
  0
LTYPE
  5
3E
330
5
100
AcDbSymbolTableRecord
100
AcDbLinetypeTableRecord
  2
DIVIDE
 70
    0
  3
Divide ____ . . ____ . . ____ . . ____ . . ____
 72
   65
 73
    6
 40
31.75
 49
12.7
 74
    0
 49
-6.35
 74
    0
 49
0
 74
    0
 49
-6.35
 74
    0
 49
0
 74
    0
 49
-6.35
 74
    0
  0
LTYPE
  5
3F
330
5
100
AcDbSymbolTableRecord
100
AcDbLinetypeTableRecord
  2
DIVIDETINY
 70
    0
  3
Divide (.15x) __..__..__..__..__..__..__..__.._
 72
   65
 73
    6
 40
4.7625
 49
1.905
 74
    0
 49
-0.9525
 74
    0
 49
0
 74
    0
 49
-0.9525
 74
    0
 49
0
 74
    0
 49
-0.9525
 74
    0
  0
LTYPE
  5
40
330
5
100
AcDbSymbolTableRecord
100
AcDbLinetypeTableRecord
  2
DIVIDE2
 70
    0
  3
Divide (.5x) __..__..__..__..__..__..__..__.._
 72
   65
 73
    6
 40
15.875
 49
6.35
 74
    0
 49
-3.175
 74
    0
 49
0
 74
    0
 49
-3.175
 74
    0
 49
0
 74
    0
 49
-3.175
 74
    0
  0
LTYPE
  5
41
330
5
100
AcDbSymbolTableRecord
100
AcDbLinetypeTableRecord
  2
DIVIDEX2
 70
    0
  3
Divide (2x) ________  .  .  ________  .  .  _
 72
   65
 73
    6
 40
63.5
 49
25.4
 74
    0
 49
-12.7
 74
    0
 49
0
 74
    0
 49
-12.7
 74
    0
 49
0
 74
    0
 49
-12.7
 74
    0
  0
LTYPE
  5
42
330
5
100
AcDbSymbolTableRecord
100
AcDbLinetypeTableRecord
  2
BORDER
 70
    0
  3
Border __ __ . __ __ . __ __ . __ __ . __ __ .
 72
   65
 73
    6
 40
44.45
 49
12.7
 74
    0
 49
-6.35
 74
    0
 49
12.7
 74
    0
 49
-6.35
 74
    0
 49
0
 74
    0
 49
-6.35
 74
    0
  0
LTYPE
  5
43
330
5
100
AcDbSymbolTableRecord
100
AcDbLinetypeTableRecord
  2
BORDERTINY
 70
    0
  3
Border (.15x) __.__.__.__.__.__.__.__.__.__.__.
 72
   65
 73
    6
 40
6.6675
 49
1.905
 74
    0
 49
-0.9525
 74
    0
 49
1.905
 74
    0
 49
-0.9525
 74
    0
 49
0
 74
    0
 49
-0.9525
 74
    0
  0
LTYPE
  5
44
330
5
100
AcDbSymbolTableRecord
100
AcDbLinetypeTableRecord
  2
BORDER2
 70
    0
  3
Border (.5x) __.__.__.__.__.__.__.__.__.__.__.
 72
   65
 73
    6
 40
22.225
 49
6.35
 74
    0
 49
-3.175
 74
    0
 49
6.35
 74
    0
 49
-3.175
 74
    0
 49
0
 74
    0
 49
-3.175
 74
    0
  0
LTYPE
  5
45
330
5
100
AcDbSymbolTableRecord
100
AcDbLinetypeTableRecord
  2
BORDERX2
 70
    0
  3
Border (2x) ____  ____  .  ____  ____  .  ___
 72
   65
 73
    6
 40
88.89999999999999
 49
25.4
 74
    0
 49
-12.7
 74
    0
 49
25.4
 74
    0
 49
-12.7
 74
    0
 49
0
 74
    0
 49
-12.7
 74
    0
  0
LTYPE
  5
46
330
5
100
AcDbSymbolTableRecord
100
AcDbLinetypeTableRecord
  2
CENTER
 70
    0
  3
Center ____ _ ____ _ ____ _ ____ _ ____ _ ____
 72
   65
 73
    4
 40
50.8
 49
31.75
 74
    0
 49
-6.35
 74
    0
 49
6.35
 74
    0
 49
-6.35
 74
    0
  0
LTYPE
  5
47
330
5
100
AcDbSymbolTableRecord
100
AcDbLinetypeTableRecord
  2
CENTERTINY
 70
    0
  3
Center (.15x) ___ _ ___ _ ___ _ ___ _ ___ _ ___
 72
   65
 73
    4
 40
7.62
 49
4.7625
 74
    0
 49
-0.9525
 74
    0
 49
0.9525
 74
    0
 49
-0.9525
 74
    0
  0
LTYPE
  5
48
330
5
100
AcDbSymbolTableRecord
100
AcDbLinetypeTableRecord
  2
CENTER2
 70
    0
  3
Center (.5x) ___ _ ___ _ ___ _ ___ _ ___ _ ___
 72
   65
 73
    4
 40
28.575
 49
19.05
 74
    0
 49
-3.175
 74
    0
 49
3.175
 74
    0
 49
-3.175
 74
    0
  0
LTYPE
  5
49
330
5
100
AcDbSymbolTableRecord
100
AcDbLinetypeTableRecord
  2
CENTERX2
 70
    0
  3
Center (2x) ________  __  ________  __  _____
 72
   65
 73
    4
 40
101.6
 49
63.5
 74
    0
 49
-12.7
 74
    0
 49
12.7
 74
    0
 49
-12.7
 74
    0
  0
ENDTAB
  0
TABLE
  2
LAYER
  5
2
330
0
100
AcDbSymbolTable
 70
    1
  0
LAYER
  5
10
330
2
100
AcDbSymbolTableRecord
100
AcDbLayerTableRecord
  2
0
 70
    0
 62
    7
  6
CONTINUOUS
370
    0
390
F
  0
ENDTAB
  0
TABLE
  2
STYLE
  5
3
330
0
100
AcDbSymbolTable
 70
    3
  0
STYLE
  5
4A
330
2
100
AcDbSymbolTableRecord
100
AcDbTextStyleTableRecord
  2
Standard
 70
    0
 40
0
 41
1
 50
0
 71
    0
 42
1
  3
txt
  4

  0
ENDTAB
  0
TABLE
  2
VIEW
  5
6
330
0
100
AcDbSymbolTable
 70
    0
  0
ENDTAB
  0
TABLE
  2
UCS
  5
7
330
0
100
AcDbSymbolTable
 70
    0
  0
ENDTAB
  0
TABLE
  2
APPID
  5
9
330
0
100
AcDbSymbolTable
 70
    1
  0
APPID
  5
12
330
9
100
AcDbSymbolTableRecord
100
AcDbRegAppTableRecord
  2
ACAD
 70
    0
  0
APPID
  5
4B
330
9
100
AcDbSymbolTableRecord
100
AcDbRegAppTableRecord
  2
LibreCad
 70
    0
  0
ENDTAB
  0
TABLE
  2
DIMSTYLE
  5
A
330
0
100
AcDbSymbolTable
 70
    1
100
AcDbDimStyleTable
 71
    1
  0
DIMSTYLE
105
4C
330
A
100
AcDbSymbolTableRecord
100
AcDbDimStyleTableRecord
  2
Standard
 70
    0
 40
1
 41
2.5
 42
0.625
 43
0.38
 44
1.25
 45
0
 46
0
 47
0
 48
0
 49
1
140
2.5
141
0.09
142
0
143
25.4
144
1
145
0
146
1
147
0.625
148
0
 71
    0
 72
    0
 73
    0
 74
    1
 75
    0
 76
    0
 77
    0
 78
    1
 79
    0
170
    0
171
    2
172
    0
173
    0
174
    0
175
    0
176
    0
177
    0
178
    0
179
    0
271
    2
272
    4
273
    2
274
    2
275
    0
276
    0
277
    2
278
    0
279
    0
280
    0
281
    0
282
    0
283
    1
284
    0
285
    0
286
    0
288
    0
289
    3
340
standard
341

371
   -2
372
   -2
  0
ENDTAB
  0
TABLE
  2
BLOCK_RECORD
  5
1
330
0
100
AcDbSymbolTable
 70
    2
  0
BLOCK_RECORD
  5
1F
330
1
100
AcDbSymbolTableRecord
100
AcDbBlockTableRecord
  2
*Model_Space
 70
    0
280
    1
281
    0
  0
BLOCK_RECORD
  5
1E
330
1
100
AcDbSymbolTableRecord
100
AcDbBlockTableRecord
  2
*Paper_Space
 70
    0
280
    1
281
    0
  0
BLOCK_RECORD
  5
4D
330
1
100
AcDbSymbolTableRecord
100
AcDbBlockTableRecord
  2
(2.5mm)Gimbal_yaw_supp
 70
    0
280
    1
281
    0
  0
BLOCK_RECORD
  5
50
330
1
100
AcDbSymbolTableRecord
100
AcDbBlockTableRecord
  2
(2.5mm)Rear_Plate
 70
    0
280
    1
281
    0
  0
BLOCK_RECORD
  5
53
330
1
100
AcDbSymbolTableRecord
100
AcDbBlockTableRecord
  2
(2.5mm)Top_Plate_w_Gimbal
 70
    0
280
    1
281
    0
  0
BLOCK_RECORD
  5
56
330
1
100
AcDbSymbolTableRecord
100
AcDbBlockTableRecord
  2
FC_Pitch
 70
    0
280
    1
281
    0
  0
BLOCK_RECORD
  5
59
330
1
100
AcDbSymbolTableRecord
100
AcDbBlockTableRecord
  2
FC_Roll_2_Pitch
 70
    0
280
    1
281
    0
  0
BLOCK_RECORD
  5
5C
330
1
100
AcDbSymbolTableRecord
100
AcDbBlockTableRecord
  2
FC_Roll_2_Yaw
 70
    0
280
    1
281
    0
  0
BLOCK_RECORD
  5
5F
330
1
100
AcDbSymbolTableRecord
100
AcDbBlockTableRecord
  2
FC_Yaw(V2)
 70
    0
280
    1
281
    0
  0
BLOCK_RECORD
  5
62
330
1
100
AcDbSymbolTableRecord
100
AcDbBlockTableRecord
  2
FC_Yaw_2_Roll
 70
    0
280
    1
281
    0
  0
BLOCK_RECORD
  5
65
330
1
100
AcDbSymbolTableRecord
100
AcDbBlockTableRecord
  2
FC_Yaw(V2)(1)-0
 70
    0
280
    1
281
    0
  0
BLOCK_RECORD
  5
68
330
1
100
AcDbSymbolTableRecord
100
AcDbBlockTableRecord
  2
FC_Yaw(V2)(1)-1
 70
    0
280
    1
281
    0
  0
ENDTAB
  0
ENDSEC
  0
SECTION
  2
BLOCKS
  0
BLOCK
  5
20
330
1F
100
AcDbEntity
  8
0
100
AcDbBlockBegin
  2
*Model_Space
 70
    0
 10
0
 20
0
 30
0
  3
*Model_Space
  1

  0
ENDBLK
  5
21
330
1F
100
AcDbEntity
  8
0
100
AcDbBlockEnd
  0
BLOCK
  5
1C
330
1B
100
AcDbEntity
  8
0
100
AcDbBlockBegin
  2
*Paper_Space
 70
    0
 10
0
 20
0
 30
0
  3
*Paper_Space
  1

  0
ENDBLK
  5
1D
330
1F
100
AcDbEntity
  8
0
100
AcDbBlockEnd
  0
BLOCK
  5
4E
330
4D
100
AcDbEntity
  8
0
100
AcDbBlockBegin
  2
(2.5mm)Gimbal_yaw_supp
 70
    0
 10
0
 20
0
  3
(2.5mm)Gimbal_yaw_supp
  1

  0
CIRCLE
  5
6B
100
AcDbEntity
  8
0
  6
CONTINUOUS
 62
    7
370
   25
100
AcDbCircle
 10
0
 20
0
 40
28.00000000000001
  0
CIRCLE
  5
6C
100
AcDbEntity
  8
0
  6
CONTINUOUS
 62
    7
370
   25
100
AcDbCircle
 10
-6.7175144213
 20
-6.7175144213
 40
0.9999999999999982
  0
CIRCLE
  5
6D
100
AcDbEntity
  8
0
  6
CONTINUOUS
 62
    7
370
   25
100
AcDbCircle
 10
-6.7175144213
 20
6.7175144213
 40
1
  0
CIRCLE
  5
6E
100
AcDbEntity
  8
0
  6
CONTINUOUS
 62
    7
370
   25
100
AcDbCircle
 10
0
 20
0
 40
4.999999999999999
  0
CIRCLE
  5
6F
100
AcDbEntity
  8
0
  6
CONTINUOUS
 62
    7
370
   25
100
AcDbCircle
 10
6.7175144213
 20
6.7175144213
 40
1
  0
CIRCLE
  5
70
100
AcDbEntity
  8
0
  6
CONTINUOUS
 62
    7
370
   25
100
AcDbCircle
 10
6.7175144213
 20
-6.7175144213
 40
1
  0
CIRCLE
  5
71
100
AcDbEntity
  8
0
  6
CONTINUOUS
 62
    7
370
   25
100
AcDbCircle
 10
0
 20
-25.2
 40
1.000000000000004
  0
CIRCLE
  5
72
100
AcDbEntity
  8
0
  6
CONTINUOUS
 62
    7
370
   25
100
AcDbCircle
 10
25.2
 20
0
 40
1.000000000000001
  0
CIRCLE
  5
73
100
AcDbEntity
  8
0
  6
CONTINUOUS
 62
    7
370
   25
100
AcDbCircle
 10
0
 20
25.2
 40
1.000000000000004
  0
CIRCLE
  5
74
100
AcDbEntity
  8
0
  6
CONTINUOUS
 62
    7
370
   25
100
AcDbCircle
 10
-25.2
 20
0
 40
1.000000000000001
  0
ENDBLK
  5
4F
330
4D
100
AcDbEntity
  8
0
100
AcDbBlockEnd
  0
BLOCK
  5
51
330
50
100
AcDbEntity
  8
0
100
AcDbBlockBegin
  2
(2.5mm)Rear_Plate
 70
    0
 10
0
 20
0
  3
(2.5mm)Rear_Plate
  1

  0
CIRCLE
  5
75
100
AcDbEntity
  8
0
  6
CONTINUOUS
 62
    7
370
   25
100
AcDbCircle
 10
25.371621
 20
27.641642
 40
1.5
  0
CIRCLE
  5
76
100
AcDbEntity
  8
0
  6
CONTINUOUS
 62
    7
370
   25
100
AcDbCircle
 10
25.371621
 20
-27.641642
 40
1.5
  0
CIRCLE
  5
77
100
AcDbEntity
  8
0
  6
CONTINUOUS
 62
    7
370
   25
100
AcDbCircle
 10
90.24999988
 20
15.2500002087
 40
1.499999999999986
  0
CIRCLE
  5
78
100
AcDbEntity
  8
0
  6
CONTINUOUS
 62
    7
370
   25
100
AcDbCircle
 10
-35.4932416594
 20
40.0332834917
 40
1.499999659440469
  0
CIRCLE
  5
79
100
AcDbEntity
  8
0
  6
CONTINUOUS
 62
    7
370
   25
100
AcDbCircle
 10
35.4932442031
 20
40.0332868523
 40
1.499997566926055
  0
CIRCLE
  5
7A
100
AcDbEntity
  8
0
  6
CONTINUOUS
 62
    7
370
   25
100
AcDbCircle
 10
-25.371621
 20
-27.641642
 40
1.5
  0
CIRCLE
  5
7B
100
AcDbEntity
  8
0
  6
CONTINUOUS
 62
    7
370
   25
100
AcDbCircle
 10
15.25
 20
15.25
 40
1.5
  0
CIRCLE
  5
7C
100
AcDbEntity
  8
0
  6
CONTINUOUS
 62
    7
370
   25
100
AcDbCircle
 10
107.612588
 20
-15.5
 40
1.500000000000014
  0
CIRCLE
  5
7D
100
AcDbEntity
  8
0
  6
CONTINUOUS
 62
    7
370
   25
100
AcDbCircle
 10
-15.25
 20
-15.25
 40
1.5
  0
CIRCLE
  5
7E
100
AcDbEntity
  8
0
  6
CONTINUOUS
 62
    7
370
   25
100
AcDbCircle
 10
59.75
 20
-15.25
 40
1.500000000000007
  0
CIRCLE
  5
7F
100
AcDbEntity
  8
0
  6
CONTINUOUS
 62
    7
370
   25
100
AcDbCircle
 10
35.4932420843
 20
-40.0332836894
 40
1.500000000000007
  0
CIRCLE
  5
80
100
AcDbEntity
  8
0
  6
CONTINUOUS
 62
    7
370
   25
100
AcDbCircle
 10
-35.4932418373
 20
-40.0332838967
 40
1.500000000000021
  0
CIRCLE
  5
81
100
AcDbEntity
  8
0
  6
CONTINUOUS
 62
    7
370
   25
100
AcDbCircle
 10
59.75
 20
15.25
 40
1.500000000000007
  0
CIRCLE
  5
82
100
AcDbEntity
  8
0
  6
CONTINUOUS
 62
    7
370
   25
100
AcDbCircle
 10
-25.371621
 20
27.641642
 40
1.5
  0
CIRCLE
  5
83
100
AcDbEntity
  8
0
  6
CONTINUOUS
 62
    7
370
   25
100
AcDbCircle
 10
107.612588
 20
15.5
 40
1.500000000000014
  0
CIRCLE
  5
84
100
AcDbEntity
  8
0
  6
CONTINUOUS
 62
    7
370
   25
100
AcDbCircle
 10
90.24999989369999
 20
-15.2499998387
 40
1.500000000000014
  0
CIRCLE
  5
85
100
AcDbEntity
  8
0
  6
CONTINUOUS
 62
    7
370
   25
100
AcDbCircle
 10
-15.25
 20
15.25
 40
1.5
  0
CIRCLE
  5
86
100
AcDbEntity
  8
0
  6
CONTINUOUS
 62
    7
370
   25
100
AcDbCircle
 10
15.25
 20
-15.25
 40
1.5
  0
LINE
  5
87
100
AcDbEntity
  8
0
  6
CONTINUOUS
 62
    7
370
   25
100
AcDbLine
 10
98.47392384290001
 20
-4.165983
 11
66.62957900000001
 21
-4.165983
  0
LINE
  5
88
100
AcDbEntity
  8
0
  6
CONTINUOUS
 62
    7
370
   25
100
AcDbLine
 10
45.596686
 20
20
 11
66.59668600000001
 21
20
  0
LINE
  5
89
100
AcDbEntity
  8
0
  6
CONTINUOUS
 62
    7
370
   25
100
AcDbLine
 10
66.59668600000001
 20
22
 11
45.596686
 21
22
  0
LINE
  5
8A
100
AcDbEntity
  8
0
  6
CONTINUOUS
 62
    7
370
   25
100
AcDbLine
 10
45.596686
 20
-22
 11
66.59668600000001
 21
-22
  0
LINE
  5
8B
100
AcDbEntity
  8
0
  6
CONTINUOUS
 62
    7
370
   25
100
AcDbLine
 10
66.59668600000001
 20
-20
 11
45.596686
 21
-20
  0
LINE
  5
8C
100
AcDbEntity
  8
0
  6
CONTINUOUS
 62
    7
370
   25
100
AcDbLine
 10
66.62957900000001
 20
4.165983
 11
98.473924
 21
4.165983
  0
LINE
  5
8D
100
AcDbEntity
  8
0
  6
CONTINUOUS
 62
    7
370
   25
100
AcDbLine
 10
-23.177926
 20
37.243794
 11
-29.502526
 21
44.949972
  0
LINE
  5
8E
100
AcDbEntity
  8
0
  6
CONTINUOUS
 62
    7
370
   25
100
AcDbLine
 10
5.826392
 20
24.195533
 11
-5.826392
 21
24.1955331115
  0
LINE
  5
8F
100
AcDbEntity
  8
0
  6
CONTINUOUS
 62
    7
370
   25
100
AcDbLine
 10
29.5025260867
 20
44.9499723669
 11
23.1777440376
 21
37.2437932322
  0
LINE
  5
90
100
AcDbEntity
  8
0
  6
CONTINUOUS
 62
    7
370
   25
100
AcDbLine
 10
40.7426397701
 20
33.9447528878
 11
41.9317397701
 21
35.7195558878
  0
LINE
  5
91
100
AcDbEntity
  8
0
  6
CONTINUOUS
 62
    7
370
   25
100
AcDbLine
 10
66.59668600000001
 20
24
 11
45.596686
 21
24
  0
LINE
  5
92
100
AcDbEntity
  8
0
  6
CONTINUOUS
 62
    7
370
   25
100
AcDbLine
 10
107.612588
 20
20
 11
72.92124099999999
 21
20
  0
LINE
  5
93
100
AcDbEntity
  8
0
  6
CONTINUOUS
 62
    7
370
   25
100
AcDbLine
 10
72.9212411307
 20
-20.000000062
 11
107.6125881307
 21
-20.000000062
  0
LINE
  5
94
100
AcDbEntity
  8
0
  6
CONTINUOUS
 62
    7
370
   25
100
AcDbLine
 10
45.596686
 20
-23.9999998553
 11
66.59668600000001
 21
-23.9999998553
  0
LINE
  5
95
100
AcDbEntity
  8
0
  6
CONTINUOUS
 62
    7
370
   25
100
AcDbLine
 10
41.9317399055
 20
-35.7195558092
 11
40.7426399055
 21
-33.9447528092
  0
LINE
  5
96
100
AcDbEntity
  8
0
  6
CONTINUOUS
 62
    7
370
   25
100
AcDbLine
 10
23.1779259179
 20
-37.2437938259
 11
29.5025259179
 21
-44.9499718259
  0
LINE
  5
97
100
AcDbEntity
  8
0
  6
CONTINUOUS
 62
    7
370
   25
100
AcDbLine
 10
-5.8263920821
 20
-24.1955328259
 11
5.8263919179
 21
-24.1955329374
  0
LINE
  5
98
100
AcDbEntity
  8
0
  6
CONTINUOUS
 62
    7
370
   25
100
AcDbLine
 10
-29.5025260105
 20
-44.9499724936
 11
-23.1777441197
 21
-37.2437930581
  0
LINE
  5
99
100
AcDbEntity
  8
0
  6
CONTINUOUS
 62
    7
370
   25
100
AcDbLine
 10
-21.7292306831
 20
-5.566101
 11
-41.9317396831
 21
-35.719556
  0
LINE
  5
9A
100
AcDbEntity
  8
0
  6
CONTINUOUS
 62
    7
370
   25
100
AcDbLine
 10
-41.9317395366
 20
35.7195559753
 11
-21.729231
 21
5.566101
  0
ARC
  5
9B
100
AcDbEntity
  8
0
  6
CONTINUOUS
 62
    7
370
   25
100
AcDbCircle
 10
66.6295812317
 20
-6.9965452614
 40
2.830562261390319
100
AcDbArc
 50
90.0000451743
 51
265.5307262395
  0
ARC
  5
9C
100
AcDbEntity
  8
0
  6
CONTINUOUS
 62
    7
370
   25
100
AcDbCircle
 10
40.5006270068
 20
-341.2912270004
 40
332.4837030001748
100
AcDbArc
 50
82.23084900000001
 51
85.530766
  0
ARC
  5
9D
100
AcDbEntity
  8
0
  6
CONTINUOUS
 62
    7
370
   25
100
AcDbCircle
 10
85.0911712373
 20
-7.8752805385
 40
4.000000000000177
100
AcDbArc
 50
275.0961121266
 51
304.9739074502
  0
ARC
  5
9E
100
AcDbEntity
  8
0
  6
CONTINUOUS
 62
    7
370
   25
100
AcDbCircle
 10
90.24999989369999
 20
-15.2499998387
 40
4.999999881227989
100
AcDbArc
 50
44.6767083398
 51
124.9738894901
  0
ARC
  5
9F
100
AcDbEntity
  8
0
  6
CONTINUOUS
 62
    7
370
   25
100
AcDbCircle
 10
96.649768034
 20
-8.922048699999999
 40
4.000000000000018
100
AcDbArc
 50
224.676708
 51
305.900903
  0
ARC
  5
A0
100
AcDbEntity
  8
0
  6
CONTINUOUS
 62
    7
370
   25
100
AcDbCircle
 10
95.47699803499999
 20
-7.301983723
 40
6.000000000000035
100
AcDbArc
 50
305.9009000834
 51
2.5982902203
  0
ARC
  5
A1
100
AcDbEntity
  8
0
  6
CONTINUOUS
 62
    7
370
   25
100
AcDbCircle
 10
98.4739137501
 20
-7.165983
 40
3.000000000000017
100
AcDbArc
 50
2.5982674613
 51
89.9998072413
  0
ARC
  5
A2
100
AcDbEntity
  8
0
  6
CONTINUOUS
 62
    7
370
   25
100
AcDbCircle
 10
45.596686
 20
21
 40
1
100
AcDbArc
 50
90
 51
270
  0
ARC
  5
A3
100
AcDbEntity
  8
0
  6
CONTINUOUS
 62
    7
370
   25
100
AcDbCircle
 10
66.59668600000001
 20
21
 40
1.000000000000028
100
AcDbArc
 50
270
 51
90
  0
ARC
  5
A4
100
AcDbEntity
  8
0
  6
CONTINUOUS
 62
    7
370
   25
100
AcDbCircle
 10
45.596686
 20
-21
 40
1
100
AcDbArc
 50
90
 51
270
  0
ARC
  5
A5
100
AcDbEntity
  8
0
  6
CONTINUOUS
 62
    7
370
   25
100
AcDbCircle
 10
66.59668600000001
 20
-21
 40
1.000000000000032
100
AcDbArc
 50
270
 51
90
  0
ARC
  5
A6
100
AcDbEntity
  8
0
  6
CONTINUOUS
 62
    7
370
   25
100
AcDbCircle
 10
96.6497679786
 20
8.922049083799999
 40
4.000000000000002
100
AcDbArc
 50
54.099092401
 51
135.3232917205
  0
ARC
  5
A7
100
AcDbEntity
  8
0
  6
CONTINUOUS
 62
    7
370
   25
100
AcDbCircle
 10
90.24999988
 20
15.2500002087
 40
4.999999842006256
100
AcDbArc
 50
235.026106
 51
315.3232916602
  0
ARC
  5
A8
100
AcDbEntity
  8
0
  6
CONTINUOUS
 62
    7
370
   25
100
AcDbCircle
 10
85.0911721274
 20
7.8752803242
 40
4.000000000000551
100
AcDbArc
 50
55.0261135932
 51
84.9039092556
  0
ARC
  5
A9
100
AcDbEntity
  8
0
  6
CONTINUOUS
 62
    7
370
   25
100
AcDbCircle
 10
40.5006240001
 20
341.2912267611
 40
332.4837031698033
100
AcDbArc
 50
274.4692344725
 51
277.7691514151
  0
ARC
  5
AA
100
AcDbEntity
  8
0
  6
CONTINUOUS
 62
    7
370
   25
100
AcDbCircle
 10
66.62957900000001
 20
6.9965450872
 40
2.830562087218522
100
AcDbArc
 50
94.469234
 51
270
  0
ARC
  5
AB
100
AcDbEntity
  8
0
  6
CONTINUOUS
 62
    7
370
   25
100
AcDbCircle
 10
98.47392398789999
 20
7.165983
 40
3.00000000000004
100
AcDbArc
 50
270.0000002307
 51
357.4017308666
  0
ARC
  5
AC
100
AcDbEntity
  8
0
  6
CONTINUOUS
 62
    7
370
   25
100
AcDbCircle
 10
95.47700796229999
 20
7.3019768804
 40
6.000000000000043
100
AcDbArc
 50
357.4017743539
 51
54.0992145337
  0
ARC
  5
AD
100
AcDbEntity
  8
0
  6
CONTINUOUS
 62
    7
370
   25
100
AcDbCircle
 10
27.1523876205
 20
78.3760141058
 40
64.99999999977973
100
AcDbArc
 50
219.2572554692
 51
233.6731591443
  0
ARC
  5
AE
100
AcDbEntity
  8
0
  6
CONTINUOUS
 62
    7
370
   25
100
AcDbCircle
 10
-5.8263925375
 20
33.524762
 40
9.329228888504009
100
AcDbArc
 50
233.6726660405
 51
270.0000033012
  0
ARC
  5
AF
100
AcDbEntity
  8
0
  6
CONTINUOUS
 62
    7
370
   25
100
AcDbCircle
 10
5.8263918484
 20
33.5247618885
 40
9.329228888504238
100
AcDbArc
 50
270.0000009313
 51
306.3273391559
  0
ARC
  5
B0
100
AcDbEntity
  8
0
  6
CONTINUOUS
 62
    7
370
   25
100
AcDbCircle
 10
-27.1528411906
 20
78.3756809904
 40
64.99999999977905
100
AcDbArc
 50
306.3273371062
 51
320.7431228725
  0
ARC
  5
B1
100
AcDbEntity
  8
0
  6
CONTINUOUS
 62
    7
370
   25
100
AcDbCircle
 10
35.4932442031
 20
40.0332868523
 40
7.749999999999988
100
AcDbArc
 50
326.1782898384
 51
140.6236843534
  0
ARC
  5
B2
100
AcDbEntity
  8
0
  6
CONTINUOUS
 62
    7
370
   25
100
AcDbCircle
 10
46.0591562219
 20
30.3827417286
 40
6.399474250307582
100
AcDbArc
 50
146.1783228606
 51
265.8557985904
  0
ARC
  5
B3
100
AcDbEntity
  8
0
  6
CONTINUOUS
 62
    7
370
   25
100
AcDbCircle
 10
66.59668600000001
 20
21
 40
3.000000000000076
100
AcDbArc
 50
25.376934
 51
90
  0
ARC
  5
B4
100
AcDbEntity
  8
0
  6
CONTINUOUS
 62
    7
370
   25
100
AcDbCircle
 10
72.9212413203
 20
24
 40
4.000000000000012
100
AcDbArc
 50
205.376933169
 51
269.9999954115
  0
ARC
  5
B5
100
AcDbEntity
  8
0
  6
CONTINUOUS
 62
    7
370
   25
100
AcDbCircle
 10
107.6125878209
 20
15.804
 40
4.19599999999997
100
AcDbArc
 50
20.4129079326
 51
89.99999755419999
  0
ARC
  5
B6
100
AcDbEntity
  8
0
  6
CONTINUOUS
 62
    7
370
   25
100
AcDbCircle
 10
67.8433981517
 20
0.9727648817
 40
46.64071587965461
100
AcDbArc
 50
358.8049197642
 51
20.4486060738
  0
ARC
  5
B7
100
AcDbEntity
  8
0
  6
CONTINUOUS
 62
    7
370
   25
100
AcDbCircle
 10
67.8433981459
 20
-0.9727657897
 40
46.64071587965577
100
AcDbArc
 50
339.5513954792
 51
1.1950798941
  0
ARC
  5
B8
100
AcDbEntity
  8
0
  6
CONTINUOUS
 62
    7
370
   25
100
AcDbCircle
 10
107.6125881307
 20
-15.804000062
 40
4.195999999999964
100
AcDbArc
 50
270
 51
339.587097
  0
ARC
  5
B9
100
AcDbEntity
  8
0
  6
CONTINUOUS
 62
    7
370
   25
100
AcDbCircle
 10
72.9212411307
 20
-24.000000062
 40
4.000000000000124
100
AcDbArc
 50
90
 51
154.623066
  0
ARC
  5
BA
100
AcDbEntity
  8
0
  6
CONTINUOUS
 62
    7
370
   25
100
AcDbCircle
 10
66.59668600000001
 20
-21
 40
2.999999855286575
100
AcDbArc
 50
270
 51
334.623064486
  0
ARC
  5
BB
100
AcDbEntity
  8
0
  6
CONTINUOUS
 62
    7
370
   25
100
AcDbCircle
 10
46.0591556662
 20
-30.3827412639
 40
6.399473891016779
100
AcDbArc
 50
94.1441966543
 51
213.8216834554
  0
ARC
  5
BC
100
AcDbEntity
  8
0
  6
CONTINUOUS
 62
    7
370
   25
100
AcDbCircle
 10
35.4932420843
 20
-40.0332836894
 40
7.750000155999616
100
AcDbArc
 50
219.3763397764
 51
33.8216819413
  0
ARC
  5
BD
100
AcDbEntity
  8
0
  6
CONTINUOUS
 62
    7
370
   25
100
AcDbCircle
 10
-27.1523877026
 20
-78.3760139317
 40
64.9999999997778
100
AcDbArc
 50
39.2572554692
 51
53.6731591443
  0
ARC
  5
BE
100
AcDbEntity
  8
0
  6
CONTINUOUS
 62
    7
370
   25
100
AcDbCircle
 10
5.8263924555
 20
-33.5247618259
 40
9.329228888504071
100
AcDbArc
 50
53.6726660405
 51
90.0000033012
  0
ARC
  5
BF
100
AcDbEntity
  8
0
  6
CONTINUOUS
 62
    7
370
   25
100
AcDbCircle
 10
-5.8263919304
 20
-33.5247617144
 40
9.329228888504138
100
AcDbArc
 50
90.00000093129999
 51
126.3273391559
  0
ARC
  5
C0
100
AcDbEntity
  8
0
  6
CONTINUOUS
 62
    7
370
   25
100
AcDbCircle
 10
27.1528411085
 20
-78.3756808163
 40
64.99999999977726
100
AcDbArc
 50
126.3273371062
 51
140.7431228725
  0
ARC
  5
C1
100
AcDbEntity
  8
0
  6
CONTINUOUS
 62
    7
370
   25
100
AcDbCircle
 10
-35.4932418373
 20
-40.0332838967
 40
7.750000185611533
100
AcDbArc
 50
146.1783180587
 51
320.623656
  0
ARC
  5
C2
100
AcDbEntity
  8
0
  6
CONTINUOUS
 62
    7
370
   25
100
AcDbCircle
 10
-30.036969612
 20
-2.365000000004169e-007
 40
10.00000019100255
100
AcDbArc
 50
326.1783161369
 51
33.821687125
  0
ARC
  5
C3
100
AcDbEntity
  8
0
  6
CONTINUOUS
 62
    7
370
   25
100
AcDbCircle
 10
-35.4932416594
 20
40.0332834917
 40
7.749999999998026
100
AcDbArc
 50
39.3763442785
 51
213.8216794766
  0
ENDBLK
  5
52
330
50
100
AcDbEntity
  8
0
100
AcDbBlockEnd
  0
BLOCK
  5
54
330
53
100
AcDbEntity
  8
0
100
AcDbBlockBegin
  2
(2.5mm)Top_Plate_w_Gimbal
 70
    0
 10
0
 20
0
  3
(2.5mm)Top_Plate_w_Gimbal
  1

  0
CIRCLE
  5
C4
100
AcDbEntity
  8
0
  6
CONTINUOUS
 62
    7
370
   25
100
AcDbCircle
 10
-97.318076
 20
-15.5
 40
1.499999999999972
  0
CIRCLE
  5
C5
100
AcDbEntity
  8
0
  6
CONTINUOUS
 62
    7
370
   25
100
AcDbCircle
 10
-30.318076
 20
15.5
 40
1.499999999999993
  0
CIRCLE
  5
C6
100
AcDbEntity
  8
0
  6
CONTINUOUS
 62
    7
370
   25
100
AcDbCircle
 10
-97.318076
 20
15.5
 40
1.499999999999972
  0
CIRCLE
  5
C7
100
AcDbEntity
  8
0
  6
CONTINUOUS
 62
    7
370
   25
100
AcDbCircle
 10
-30.318076
 20
-15.5
 40
1.500000000000011
  0
LINE
  5
C8
100
AcDbEntity
  8
0
  6
CONTINUOUS
 62
    7
370
   25
100
AcDbLine
 10
-101.318076
 20
15.5
 11
-101.318076
 21
-15.5
  0
LINE
  5
C9
100
AcDbEntity
  8
0
  6
CONTINUOUS
 62
    7
370
   25
100
AcDbLine
 10
-66.95148713029999
 20
3.4166292643
 11
-49.727286086
 21
11.6974951509
  0
LINE
  5
CA
100
AcDbEntity
  8
0
  6
CONTINUOUS
 62
    7
370
   25
100
AcDbLine
 10
-50.5938749558
 20
15.5
 11
-85.04227704420001
 21
15.5
  0
LINE
  5
CB
100
AcDbEntity
  8
0
  6
CONTINUOUS
 62
    7
370
   25
100
AcDbLine
 10
-85.908865914
 20
11.6974951509
 11
-68.6846648697
 21
3.4166292643
  0
LINE
  5
CC
100
AcDbEntity
  8
0
  6
CONTINUOUS
 62
    7
370
   25
100
AcDbLine
 10
-74.567286086
 20
1.8025048491
 11
-92.3621095992
 21
10.3577084611
  0
LINE
  5
CD
100
AcDbEntity
  8
0
  6
CONTINUOUS
 62
    7
370
   25
100
AcDbLine
 10
-95.22869846890001
 20
8.5552036121
 11
-95.22869846890001
 21
-8.5552036121
  0
LINE
  5
CE
100
AcDbEntity
  8
0
  6
CONTINUOUS
 62
    7
370
   25
100
AcDbLine
 10
-92.3621095992
 20
-10.3577084611
 11
-74.567286086
 21
-1.8025048491
  0
LINE
  5
CF
100
AcDbEntity
  8
0
  6
CONTINUOUS
 62
    7
370
   25
100
AcDbLine
 10
-68.6846648697
 20
-3.4166292643
 11
-85.908865914
 21
-11.6974951509
  0
LINE
  5
D0
100
AcDbEntity
  8
0
  6
CONTINUOUS
 62
    7
370
   25
100
AcDbLine
 10
-85.04227704420001
 20
-15.5
 11
-50.5938749558
 21
-15.5
  0
LINE
  5
D1
100
AcDbEntity
  8
0
  6
CONTINUOUS
 62
    7
370
   25
100
AcDbLine
 10
-49.727286086
 20
-11.6974951509
 11
-66.95148713029999
 21
-3.4166292643
  0
ARC
  5
D2
100
AcDbEntity
  8
0
  6
CONTINUOUS
 62
    7
370
   25
100
AcDbCircle
 10
-63.818076
 20
-46.640625
 40
74.14062499999969
100
AcDbArc
 50
63.13794225859999
 51
116.8620577414
  0
ARC
  5
D3
100
AcDbEntity
  8
0
  6
CONTINUOUS
 62
    7
370
   25
100
AcDbCircle
 10
-30.318076
 20
15.5
 40
4
100
AcDbArc
 50
270
 51
90
  0
ARC
  5
D4
100
AcDbEntity
  8
0
  6
CONTINUOUS
 62
    7
370
   25
100
AcDbCircle
 10
-30.318076
 20
0
 40
11.5
100
AcDbArc
 50
90
 51
270
  0
ARC
  5
D5
100
AcDbEntity
  8
0
  6
CONTINUOUS
 62
    7
370
   25
100
AcDbCircle
 10
-30.318076
 20
-15.5
 40
4
100
AcDbArc
 50
270
 51
90
  0
ARC
  5
D6
100
AcDbEntity
  8
0
  6
CONTINUOUS
 62
    7
370
   25
100
AcDbCircle
 10
-63.818076
 20
46.640625
 40
74.14062499999969
100
AcDbArc
 50
243.1379422586
 51
296.8620577414
  0
ARC
  5
D7
100
AcDbEntity
  8
0
  6
CONTINUOUS
 62
    7
370
   25
100
AcDbCircle
 10
-97.318076
 20
-15.5
 40
4.000000000000028
100
AcDbArc
 50
180
 51
270
  0
ARC
  5
D8
100
AcDbEntity
  8
0
  6
CONTINUOUS
 62
    7
370
   25
100
AcDbCircle
 10
-97.318076
 20
15.5
 40
4
100
AcDbArc
 50
90
 51
180
  0
ARC
  5
D9
100
AcDbEntity
  8
0
  6
CONTINUOUS
 62
    7
370
   25
100
AcDbCircle
 10
-67.818076
 20
5.2191341133
 40
1.999999999999995
100
AcDbArc
 50
244.3231843182
 51
295.6768156818
  0
ARC
  5
DA
100
AcDbEntity
  8
0
  6
CONTINUOUS
 62
    7
370
   25
100
AcDbCircle
 10
-50.5938749558
 20
13.5
 40
2.000000000000004
100
AcDbArc
 50
295.6768156818
 51
90
  0
ARC
  5
DB
100
AcDbEntity
  8
0
  6
CONTINUOUS
 62
    7
370
   25
100
AcDbCircle
 10
-85.04227704420001
 20
13.5
 40
2
100
AcDbArc
 50
90
 51
244.3231843182
  0
ARC
  5
DC
100
AcDbEntity
  8
0
  6
CONTINUOUS
 62
    7
370
   25
100
AcDbCircle
 10
-75.43387495579999
 20
0
 40
2.000000000000002
100
AcDbArc
 50
295.6768156818
 51
64.32318431820001
  0
ARC
  5
DD
100
AcDbEntity
  8
0
  6
CONTINUOUS
 62
    7
370
   25
100
AcDbCircle
 10
-93.22869846890001
 20
8.5552036121
 40
2
100
AcDbArc
 50
64.32318431820001
 51
180
  0
ARC
  5
DE
100
AcDbEntity
  8
0
  6
CONTINUOUS
 62
    7
370
   25
100
AcDbCircle
 10
-93.22869846890001
 20
-8.5552036121
 40
1.99999999999999
100
AcDbArc
 50
180
 51
295.6768156818
  0
ARC
  5
DF
100
AcDbEntity
  8
0
  6
CONTINUOUS
 62
    7
370
   25
100
AcDbCircle
 10
-67.818076
 20
-5.2191341133
 40
1.999999999999977
100
AcDbArc
 50
64.32318431820001
 51
115.6768156818
  0
ARC
  5
E0
100
AcDbEntity
  8
0
  6
CONTINUOUS
 62
    7
370
   25
100
AcDbCircle
 10
-85.04227704420001
 20
-13.5
 40
2.000000000000004
100
AcDbArc
 50
115.6768156818
 51
270
  0
ARC
  5
E1
100
AcDbEntity
  8
0
  6
CONTINUOUS
 62
    7
370
   25
100
AcDbCircle
 10
-50.5938749558
 20
-13.5
 40
2
100
AcDbArc
 50
270
 51
64.32318431820001
  0
ENDBLK
  5
55
330
53
100
AcDbEntity
  8
0
100
AcDbBlockEnd
  0
BLOCK
  5
57
330
56
100
AcDbEntity
  8
0
100
AcDbBlockBegin
  2
FC_Pitch
 70
    0
 10
0
 20
0
  3
FC_Pitch
  1

  0
CIRCLE
  5
E2
100
AcDbEntity
  8
0
  6
CONTINUOUS
 62
    7
370
   25
100
AcDbCircle
 10
-106.8271118551
 20
58.3501976778
 40
1.500000000000028
  0
LINE
  5
E3
100
AcDbEntity
  8
0
  6
CONTINUOUS
 62
    7
370
   25
100
AcDbLine
 10
-117.3271118551
 20
46.2001976778
 11
-96.3271118551
 21
46.2001976778
  0
LINE
  5
E4
100
AcDbEntity
  8
0
  6
CONTINUOUS
 62
    7
370
   25
100
AcDbLine
 10
-118.9771118551
 20
68.8501976778
 11
-118.9771118551
 21
47.8501976778
  0
LINE
  5
E5
100
AcDbEntity
  8
0
  6
CONTINUOUS
 62
    7
370
   25
100
AcDbLine
 10
-96.3271118551
 20
70.5001976778
 11
-117.3271118551
 21
70.5001976778
  0
LINE
  5
E6
100
AcDbEntity
  8
0
  6
CONTINUOUS
 62
    7
370
   25
100
AcDbLine
 10
-94.67711185509999
 20
47.8501976778
 11
-94.67711185509999
 21
68.8501976778
  0
LINE
  5
E7
100
AcDbEntity
  8
0
  6
CONTINUOUS
 62
    7
370
   25
100
AcDbLine
 10
-99.0095974338
 20
48.3501976778
 11
-99.0095974338
 21
68.3501976778
  0
LINE
  5
E8
100
AcDbEntity
  8
0
  6
CONTINUOUS
 62
    7
370
   25
100
AcDbLine
 10
-101.2095974338
 20
68.3501976778
 11
-101.2095974338
 21
48.3501976778
  0
LINE
  5
E9
100
AcDbEntity
  8
0
  6
CONTINUOUS
 62
    7
370
   25
100
AcDbLine
 10
-112.4446262764
 20
48.3501976778
 11
-112.4446262764
 21
68.3501976778
  0
LINE
  5
EA
100
AcDbEntity
  8
0
  6
CONTINUOUS
 62
    7
370
   25
100
AcDbLine
 10
-114.6446262764
 20
68.3501976778
 11
-114.6446262764
 21
48.3501976778
  0
ARC
  5
EB
100
AcDbEntity
  8
0
  6
CONTINUOUS
 62
    7
370
   25
100
AcDbCircle
 10
-96.3271118551
 20
47.8501976778
 40
1.649999999999977
100
AcDbArc
 50
270
 51
0
  0
ARC
  5
EC
100
AcDbEntity
  8
0
  6
CONTINUOUS
 62
    7
370
   25
100
AcDbCircle
 10
-117.3271118551
 20
47.8501976778
 40
1.650000000000006
100
AcDbArc
 50
180
 51
270
  0
ARC
  5
ED
100
AcDbEntity
  8
0
  6
CONTINUOUS
 62
    7
370
   25
100
AcDbCircle
 10
-117.3271118551
 20
68.8501976778
 40
1.65000000000002
100
AcDbArc
 50
90
 51
180
  0
ARC
  5
EE
100
AcDbEntity
  8
0
  6
CONTINUOUS
 62
    7
370
   25
100
AcDbCircle
 10
-96.3271118551
 20
68.8501976778
 40
1.650000000000034
100
AcDbArc
 50
0
 51
90
  0
ARC
  5
EF
100
AcDbEntity
  8
0
  6
CONTINUOUS
 62
    7
370
   25
100
AcDbCircle
 10
-100.1095974338
 20
48.3501976778
 40
1.099999999999994
100
AcDbArc
 50
180
 51
0
  0
ARC
  5
F0
100
AcDbEntity
  8
0
  6
CONTINUOUS
 62
    7
370
   25
100
AcDbCircle
 10
-100.1095974338
 20
68.3501976778
 40
1.100000000000009
100
AcDbArc
 50
0
 51
180
  0
ARC
  5
F1
100
AcDbEntity
  8
0
  6
CONTINUOUS
 62
    7
370
   25
100
AcDbCircle
 10
-113.5446262764
 20
48.3501976778
 40
1.100000000000009
100
AcDbArc
 50
180
 51
0
  0
ARC
  5
F2
100
AcDbEntity
  8
0
  6
CONTINUOUS
 62
    7
370
   25
100
AcDbCircle
 10
-113.5446262764
 20
68.3501976778
 40
1.100000000000009
100
AcDbArc
 50
0
 51
180
  0
ENDBLK
  5
58
330
56
100
AcDbEntity
  8
0
100
AcDbBlockEnd
  0
BLOCK
  5
5A
330
59
100
AcDbEntity
  8
0
100
AcDbBlockBegin
  2
FC_Roll_2_Pitch
 70
    0
 10
0
 20
0
  3
FC_Roll_2_Pitch
  1

  0
CIRCLE
  5
F3
100
AcDbEntity
  8
0
  6
CONTINUOUS
 62
    7
370
   25
100
AcDbCircle
 10
-59.3115412433
 20
15.8607991042
 40
1.100000000000023
  0
CIRCLE
  5
F4
100
AcDbEntity
  8
0
  6
CONTINUOUS
 62
    7
370
   25
100
AcDbCircle
 10
-52.2404734315
 20
22.9318669161
 40
2.999999999999979
  0
CIRCLE
  5
F5
100
AcDbEntity
  8
0
  6
CONTINUOUS
 62
    7
370
   25
100
AcDbCircle
 10
-45.1694056196
 20
30.002934728
 40
1.099999999999994
  0
CIRCLE
  5
F6
100
AcDbEntity
  8
0
  6
CONTINUOUS
 62
    7
370
   25
100
AcDbCircle
 10
-45.1694056196
 20
15.8607991042
 40
1.100000000000009
  0
CIRCLE
  5
F7
100
AcDbEntity
  8
0
  6
CONTINUOUS
 62
    7
370
   25
100
AcDbCircle
 10
-59.3115412433
 20
30.002934728
 40
1.100000000000009
  0
LINE
  5
F8
100
AcDbEntity
  8
0
  6
CONTINUOUS
 62
    7
370
   25
100
AcDbLine
 10
-40.0904734315
 20
13.1318669161
 11
-40.0904734315
 21
32.7318669161
  0
LINE
  5
F9
100
AcDbEntity
  8
0
  6
CONTINUOUS
 62
    7
370
   25
100
AcDbLine
 10
-62.0404734315
 20
10.7818669161
 11
-42.4404734315
 21
10.7818669161
  0
LINE
  5
FA
100
AcDbEntity
  8
0
  6
CONTINUOUS
 62
    7
370
   25
100
AcDbLine
 10
-64.3904734315
 20
32.7318669161
 11
-64.3904734315
 21
13.1318669161
  0
LINE
  5
FB
100
AcDbEntity
  8
0
  6
CONTINUOUS
 62
    7
370
   25
100
AcDbLine
 10
-42.4404734315
 20
35.0818669161
 11
-62.0404734315
 21
35.0818669161
  0
ARC
  5
FC
100
AcDbEntity
  8
0
  6
CONTINUOUS
 62
    7
370
   25
100
AcDbCircle
 10
-42.4404734315
 20
32.7318669161
 40
2.350000000000023
100
AcDbArc
 50
0
 51
90
  0
ARC
  5
FD
100
AcDbEntity
  8
0
  6
CONTINUOUS
 62
    7
370
   25
100
AcDbCircle
 10
-42.4404734315
 20
13.1318669161
 40
2.350000000000007
100
AcDbArc
 50
270
 51
0
  0
ARC
  5
FE
100
AcDbEntity
  8
0
  6
CONTINUOUS
 62
    7
370
   25
100
AcDbCircle
 10
-62.0404734315
 20
13.1318669161
 40
2.350000000000037
100
AcDbArc
 50
180
 51
270
  0
ARC
  5
FF
100
AcDbEntity
  8
0
  6
CONTINUOUS
 62
    7
370
   25
100
AcDbCircle
 10
-62.0404734315
 20
32.7318669161
 40
2.350000000000037
100
AcDbArc
 50
90
 51
180
  0
ENDBLK
  5
5B
330
59
100
AcDbEntity
  8
0
100
AcDbBlockEnd
  0
BLOCK
  5
5D
330
5C
100
AcDbEntity
  8
0
100
AcDbBlockBegin
  2
FC_Roll_2_Yaw
 70
    0
 10
0
 20
0
  3
FC_Roll_2_Yaw
  1

  0
LINE
  5
100
100
AcDbEntity
  8
0
  6
CONTINUOUS
 62
    7
370
   25
100
AcDbLine
 10
-9.9043968552
 20
1.2824296098
 11
-9.9043968552
 21
20.8824296098
  0
LINE
  5
101
100
AcDbEntity
  8
0
  6
CONTINUOUS
 62
    7
370
   25
100
AcDbLine
 10
-36.8543968552
 20
-1.0675703902
 11
-12.2543968552
 21
-1.0675703902
  0
LINE
  5
102
100
AcDbEntity
  8
0
  6
CONTINUOUS
 62
    7
370
   25
100
AcDbLine
 10
-39.2043968552
 20
20.8824296098
 11
-39.2043968552
 21
1.2824296098
  0
LINE
  5
103
100
AcDbEntity
  8
0
  6
CONTINUOUS
 62
    7
370
   25
100
AcDbLine
 10
-12.2543968552
 20
23.2324296098
 11
-36.8543968552
 21
23.2324296098
  0
LINE
  5
104
100
AcDbEntity
  8
0
  6
CONTINUOUS
 62
    7
370
   25
100
AcDbLine
 10
-14.5543968552
 20
5.4624296098
 11
-34.5543968552
 21
5.4624296098
  0
LINE
  5
105
100
AcDbEntity
  8
0
  6
CONTINUOUS
 62
    7
370
   25
100
AcDbLine
 10
-34.5543968552
 20
3.2624296098
 11
-14.5543968552
 21
3.2624296098
  0
LINE
  5
106
100
AcDbEntity
  8
0
  6
CONTINUOUS
 62
    7
370
   25
100
AcDbLine
 10
-14.5543968552
 20
18.9024296098
 11
-34.5543968552
 21
18.9024296098
  0
LINE
  5
107
100
AcDbEntity
  8
0
  6
CONTINUOUS
 62
    7
370
   25
100
AcDbLine
 10
-34.5543968552
 20
16.7024296098
 11
-14.5543968552
 21
16.7024296098
  0
ARC
  5
108
100
AcDbEntity
  8
0
  6
CONTINUOUS
 62
    7
370
   25
100
AcDbCircle
 10
-12.2543968552
 20
20.8824296098
 40
2.349999999999998
100
AcDbArc
 50
0
 51
90
  0
ARC
  5
109
100
AcDbEntity
  8
0
  6
CONTINUOUS
 62
    7
370
   25
100
AcDbCircle
 10
-12.2543968552
 20
1.2824296098
 40
2.349999999999998
100
AcDbArc
 50
270
 51
0
  0
ARC
  5
10A
100
AcDbEntity
  8
0
  6
CONTINUOUS
 62
    7
370
   25
100
AcDbCircle
 10
-36.8543968552
 20
1.2824296098
 40
2.34999999999999
100
AcDbArc
 50
180
 51
270
  0
ARC
  5
10B
100
AcDbEntity
  8
0
  6
CONTINUOUS
 62
    7
370
   25
100
AcDbCircle
 10
-36.8543968552
 20
20.8824296098
 40
2.349999999999994
100
AcDbArc
 50
90
 51
180
  0
ARC
  5
10C
100
AcDbEntity
  8
0
  6
CONTINUOUS
 62
    7
370
   25
100
AcDbCircle
 10
-14.5543968552
 20
4.3624296098
 40
1.1
100
AcDbArc
 50
270
 51
90
  0
ARC
  5
10D
100
AcDbEntity
  8
0
  6
CONTINUOUS
 62
    7
370
   25
100
AcDbCircle
 10
-34.5543968552
 20
4.3624296098
 40
1.100000000000001
100
AcDbArc
 50
90
 51
270
  0
ARC
  5
10E
100
AcDbEntity
  8
0
  6
CONTINUOUS
 62
    7
370
   25
100
AcDbCircle
 10
-14.5543968552
 20
17.8024296098
 40
1.100000000000001
100
AcDbArc
 50
270
 51
90
  0
ARC
  5
10F
100
AcDbEntity
  8
0
  6
CONTINUOUS
 62
    7
370
   25
100
AcDbCircle
 10
-34.5543968552
 20
17.8024296098
 40
1.099999999999998
100
AcDbArc
 50
90
 51
270
  0
ENDBLK
  5
5E
330
5C
100
AcDbEntity
  8
0
100
AcDbBlockEnd
  0
BLOCK
  5
60
330
5F
100
AcDbEntity
  8
0
100
AcDbBlockBegin
  2
FC_Yaw(V2)
 70
    0
 10
0
 20
0
  3
FC_Yaw(V2)
  1

  0
LINE
  5
110
100
AcDbEntity
  8
0
  6
CONTINUOUS
 62
    7
370
   25
100
AcDbLine
 10
-28.1675692714
 20
22.7839479499
 11
-28.1675692714
 21
-3.2160520501
  0
LINE
  5
111
100
AcDbEntity
  8
0
  6
CONTINUOUS
 62
    7
370
   25
100
AcDbLine
 10
-21.0175692714
 20
24.4339479499
 11
-26.5175692714
 21
24.4339479499
  0
LINE
  5
112
100
AcDbEntity
  8
0
  6
CONTINUOUS
 62
    7
370
   25
100
AcDbLine
 10
-19.3675692714
 20
-3.2160520501
 11
-19.3675692714
 21
22.7839479499
  0
LINE
  5
113
100
AcDbEntity
  8
0
  6
CONTINUOUS
 62
    7
370
   25
100
AcDbLine
 10
-26.5175692714
 20
-4.8660520501
 11
-21.0175692714
 21
-4.8660520501
  0
LINE
  5
114
100
AcDbEntity
  8
0
  6
CONTINUOUS
 62
    7
370
   25
100
AcDbLine
 10
-21.9875692714
 20
-0.2160529409
 11
-21.9875692714
 21
19.7839488407
  0
LINE
  5
115
100
AcDbEntity
  8
0
  6
CONTINUOUS
 62
    7
370
   25
100
AcDbLine
 10
-24.1875692714
 20
19.7839470591
 11
-24.1875692714
 21
-0.2160529409
  0
LINE
  5
116
100
AcDbEntity
  8
0
  6
CONTINUOUS
 62
    7
370
   25
100
AcDbLine
 10
-3.8675692714
 20
-3.2160520501
 11
-3.8675692714
 21
22.7839479499
  0
LINE
  5
117
100
AcDbEntity
  8
0
  6
CONTINUOUS
 62
    7
370
   25
100
AcDbLine
 10
-11.0175692714
 20
-4.8660520501
 11
-5.5175692714
 21
-4.8660520501
  0
LINE
  5
118
100
AcDbEntity
  8
0
  6
CONTINUOUS
 62
    7
370
   25
100
AcDbLine
 10
-5.5175692714
 20
24.4339479499
 11
-11.0175692714
 21
24.4339479499
  0
LINE
  5
119
100
AcDbEntity
  8
0
  6
CONTINUOUS
 62
    7
370
   25
100
AcDbLine
 10
-7.8475692714
 20
-0.2160529409
 11
-7.8475692714
 21
19.7839470591
  0
LINE
  5
11A
100
AcDbEntity
  8
0
  6
CONTINUOUS
 62
    7
370
   25
100
AcDbLine
 10
-10.0475692714
 20
19.7839488407
 11
-10.0475692714
 21
-0.2160529409
  0
LINE
  5
11B
100
AcDbEntity
  8
0
  6
CONTINUOUS
 62
    7
370
   25
100
AcDbLine
 10
-12.6675692714
 20
22.7839479499
 11
-12.6675692714
 21
-3.2160520501
  0
ARC
  5
11C
100
AcDbEntity
  8
0
  6
CONTINUOUS
 62
    7
370
   25
100
AcDbCircle
 10
-26.5175692714
 20
22.7839479499
 40
1.650000000000006
100
AcDbArc
 50
90
 51
180
  0
ARC
  5
11D
100
AcDbEntity
  8
0
  6
CONTINUOUS
 62
    7
370
   25
100
AcDbCircle
 10
-21.0175692714
 20
22.7839479499
 40
1.650000000000002
100
AcDbArc
 50
0
 51
90
  0
ARC
  5
11E
100
AcDbEntity
  8
0
  6
CONTINUOUS
 62
    7
370
   25
100
AcDbCircle
 10
-21.0175692714
 20
-3.2160520501
 40
1.649999999999999
100
AcDbArc
 50
270
 51
0
  0
ARC
  5
11F
100
AcDbEntity
  8
0
  6
CONTINUOUS
 62
    7
370
   25
100
AcDbCircle
 10
-26.5175692714
 20
-3.2160520501
 40
1.65
100
AcDbArc
 50
180
 51
270
  0
ARC
  5
120
100
AcDbEntity
  8
0
  6
CONTINUOUS
 62
    7
370
   25
100
AcDbCircle
 10
-23.0875692714
 20
-0.2160529409
 40
1.100000000000001
100
AcDbArc
 50
180
 51
0
  0
ARC
  5
121
100
AcDbEntity
  8
0
  6
CONTINUOUS
 62
    7
370
   25
100
AcDbCircle
 10
-23.0875692714
 20
19.7839479542
 40
1.100000000000362
100
AcDbArc
 50
4.6175e-005
 51
180.0000466214
  0
ARC
  5
122
100
AcDbEntity
  8
0
  6
CONTINUOUS
 62
    7
370
   25
100
AcDbCircle
 10
-5.5175692714
 20
-3.2160520501
 40
1.649999999999999
100
AcDbArc
 50
270
 51
0
  0
ARC
  5
123
100
AcDbEntity
  8
0
  6
CONTINUOUS
 62
    7
370
   25
100
AcDbCircle
 10
-11.0175692714
 20
-3.2160520501
 40
1.650000000000007
100
AcDbArc
 50
180
 51
270
  0
ARC
  5
124
100
AcDbEntity
  8
0
  6
CONTINUOUS
 62
    7
370
   25
100
AcDbCircle
 10
-11.0175692714
 20
22.7839479499
 40
1.650000000000006
100
AcDbArc
 50
90
 51
180
  0
ARC
  5
125
100
AcDbEntity
  8
0
  6
CONTINUOUS
 62
    7
370
   25
100
AcDbCircle
 10
-5.5175692714
 20
22.7839479499
 40
1.649999999999999
100
AcDbArc
 50
0
 51
90
  0
ARC
  5
126
100
AcDbEntity
  8
0
  6
CONTINUOUS
 62
    7
370
   25
100
AcDbCircle
 10
-8.947569271400001
 20
-0.2160529409
 40
1.100000000000001
100
AcDbArc
 50
180
 51
0
  0
ARC
  5
127
100
AcDbEntity
  8
0
  6
CONTINUOUS
 62
    7
370
   25
100
AcDbCircle
 10
-8.947569271400001
 20
19.7839479542
 40
1.100000000000364
100
AcDbArc
 50
359.9999533786
 51
179.999953825
  0
ENDBLK
  5
61
330
5F
100
AcDbEntity
  8
0
100
AcDbBlockEnd
  0
BLOCK
  5
63
330
62
100
AcDbEntity
  8
0
100
AcDbBlockBegin
  2
FC_Yaw_2_Roll
 70
    0
 10
0
 20
0
  3
FC_Yaw_2_Roll
  1

  0
CIRCLE
  5
128
100
AcDbEntity
  8
0
  6
CONTINUOUS
 62
    7
370
   25
100
AcDbCircle
 10
-6.0432189846
 20
-11.4883252987
 40
2.499999999999993
  0
CIRCLE
  5
129
100
AcDbEntity
  8
0
  6
CONTINUOUS
 62
    7
370
   25
100
AcDbCircle
 10
-13.1142867964
 20
-18.5593931105
 40
1.100000000000001
  0
CIRCLE
  5
12A
100
AcDbEntity
  8
0
  6
CONTINUOUS
 62
    7
370
   25
100
AcDbCircle
 10
1.0278488273
 20
-4.4172574868
 40
1.099999999999997
  0
CIRCLE
  5
12B
100
AcDbEntity
  8
0
  6
CONTINUOUS
 62
    7
370
   25
100
AcDbCircle
 10
1.0278488273
 20
-18.5593931105
 40
1.1
  0
CIRCLE
  5
12C
100
AcDbEntity
  8
0
  6
CONTINUOUS
 62
    7
370
   25
100
AcDbCircle
 10
-13.1142867964
 20
-4.4172574868
 40
1.100000000000001
  0
LINE
  5
12D
100
AcDbEntity
  8
0
  6
CONTINUOUS
 62
    7
370
   25
100
AcDbLine
 10
4.4567810154
 20
0.6616747012999999
 11
-16.5432189846
 21
0.6616747012999999
  0
LINE
  5
12E
100
AcDbEntity
  8
0
  6
CONTINUOUS
 62
    7
370
   25
100
AcDbLine
 10
6.1067810154
 20
-21.9883252987
 11
6.1067810154
 21
-0.9883252987
  0
LINE
  5
12F
100
AcDbEntity
  8
0
  6
CONTINUOUS
 62
    7
370
   25
100
AcDbLine
 10
-16.5432189846
 20
-23.6383252987
 11
4.4567810154
 21
-23.6383252987
  0
LINE
  5
130
100
AcDbEntity
  8
0
  6
CONTINUOUS
 62
    7
370
   25
100
AcDbLine
 10
-18.1932189846
 20
-0.9883252987
 11
-18.1932189846
 21
-21.9883252987
  0
ARC
  5
131
100
AcDbEntity
  8
0
  6
CONTINUOUS
 62
    7
370
   25
100
AcDbCircle
 10
4.4567810154
 20
-0.9883252987
 40
1.650000000000003
100
AcDbArc
 50
0
 51
90
  0
ARC
  5
132
100
AcDbEntity
  8
0
  6
CONTINUOUS
 62
    7
370
   25
100
AcDbCircle
 10
4.4567810154
 20
-21.9883252987
 40
1.650000000000002
100
AcDbArc
 50
270
 51
0
  0
ARC
  5
133
100
AcDbEntity
  8
0
  6
CONTINUOUS
 62
    7
370
   25
100
AcDbCircle
 10
-16.5432189846
 20
-21.9883252987
 40
1.650000000000006
100
AcDbArc
 50
180
 51
270
  0
ARC
  5
134
100
AcDbEntity
  8
0
  6
CONTINUOUS
 62
    7
370
   25
100
AcDbCircle
 10
-16.5432189846
 20
-0.9883252987
 40
1.650000000000002
100
AcDbArc
 50
90
 51
180
  0
ENDBLK
  5
64
330
62
100
AcDbEntity
  8
0
100
AcDbBlockEnd
  0
BLOCK
  5
66
330
65
100
AcDbEntity
  8
0
100
AcDbBlockBegin
  2
FC_Yaw(V2)(1)-0
 70
    0
 10
0
 20
0
  3
FC_Yaw(V2)(1)-0
  1

  0
LINE
  5
135
100
AcDbEntity
  8
0
  6
CONTINUOUS
 62
    7
370
   25
100
AcDbLine
 10
-3.8675692714
 20
-3.2160520501
 11
-3.8675692714
 21
22.7839479499
  0
LINE
  5
136
100
AcDbEntity
  8
0
  6
CONTINUOUS
 62
    7
370
   25
100
AcDbLine
 10
-11.0175692714
 20
-4.8660520501
 11
-5.5175692714
 21
-4.8660520501
  0
LINE
  5
137
100
AcDbEntity
  8
0
  6
CONTINUOUS
 62
    7
370
   25
100
AcDbLine
 10
-12.6675692714
 20
22.7839479499
 11
-12.6675692714
 21
-3.2160520501
  0
LINE
  5
138
100
AcDbEntity
  8
0
  6
CONTINUOUS
 62
    7
370
   25
100
AcDbLine
 10
-5.5175692714
 20
24.4339479499
 11
-11.0175692714
 21
24.4339479499
  0
LINE
  5
139
100
AcDbEntity
  8
0
  6
CONTINUOUS
 62
    7
370
   25
100
AcDbLine
 10
-7.8475692714
 20
-0.2160529409
 11
-7.8475692714
 21
19.7839470591
  0
LINE
  5
13A
100
AcDbEntity
  8
0
  6
CONTINUOUS
 62
    7
370
   25
100
AcDbLine
 10
-10.0475692714
 20
19.7839488407
 11
-10.0475692714
 21
-0.2160529409
  0
ARC
  5
13B
100
AcDbEntity
  8
0
  6
CONTINUOUS
 62
    7
370
   25
100
AcDbCircle
 10
-5.5175692714
 20
-3.2160520501
 40
1.650000000000003
100
AcDbArc
 50
270
 51
0
  0
ARC
  5
13C
100
AcDbEntity
  8
0
  6
CONTINUOUS
 62
    7
370
   25
100
AcDbCircle
 10
-11.0175692714
 20
-3.2160520501
 40
1.650000000000001
100
AcDbArc
 50
180
 51
270
  0
ARC
  5
13D
100
AcDbEntity
  8
0
  6
CONTINUOUS
 62
    7
370
   25
100
AcDbCircle
 10
-11.0175692714
 20
22.7839479499
 40
1.650000000000009
100
AcDbArc
 50
90
 51
180
  0
ARC
  5
13E
100
AcDbEntity
  8
0
  6
CONTINUOUS
 62
    7
370
   25
100
AcDbCircle
 10
-5.5175692714
 20
22.7839479499
 40
1.649999999999996
100
AcDbArc
 50
0
 51
90
  0
ARC
  5
13F
100
AcDbEntity
  8
0
  6
CONTINUOUS
 62
    7
370
   25
100
AcDbCircle
 10
-8.947569271400001
 20
-0.2160529409
 40
1.100000000000001
100
AcDbArc
 50
180
 51
0
  0
ARC
  5
140
100
AcDbEntity
  8
0
  6
CONTINUOUS
 62
    7
370
   25
100
AcDbCircle
 10
-8.947569271400001
 20
19.7839479542
 40
1.100000000000364
100
AcDbArc
 50
359.9999533786
 51
179.999953825
  0
ENDBLK
  5
67
330
65
100
AcDbEntity
  8
0
100
AcDbBlockEnd
  0
BLOCK
  5
69
330
68
100
AcDbEntity
  8
0
100
AcDbBlockBegin
  2
FC_Yaw(V2)(1)-1
 70
    0
 10
0
 20
0
  3
FC_Yaw(V2)(1)-1
  1

  0
LINE
  5
141
100
AcDbEntity
  8
0
  6
CONTINUOUS
 62
    7
370
   25
100
AcDbLine
 10
-3.8675692714
 20
-3.2160520501
 11
-3.8675692714
 21
22.7839479499
  0
LINE
  5
142
100
AcDbEntity
  8
0
  6
CONTINUOUS
 62
    7
370
   25
100
AcDbLine
 10
-11.0175692714
 20
-4.8660520501
 11
-5.5175692714
 21
-4.8660520501
  0
LINE
  5
143
100
AcDbEntity
  8
0
  6
CONTINUOUS
 62
    7
370
   25
100
AcDbLine
 10
-12.6675692714
 20
22.7839479499
 11
-12.6675692714
 21
-3.2160520501
  0
LINE
  5
144
100
AcDbEntity
  8
0
  6
CONTINUOUS
 62
    7
370
   25
100
AcDbLine
 10
-5.5175692714
 20
24.4339479499
 11
-11.0175692714
 21
24.4339479499
  0
LINE
  5
145
100
AcDbEntity
  8
0
  6
CONTINUOUS
 62
    7
370
   25
100
AcDbLine
 10
-7.8475692714
 20
-0.2160529409
 11
-7.8475692714
 21
19.7839470591
  0
LINE
  5
146
100
AcDbEntity
  8
0
  6
CONTINUOUS
 62
    7
370
   25
100
AcDbLine
 10
-10.0475692714
 20
19.7839488407
 11
-10.0475692714
 21
-0.2160529409
  0
ARC
  5
147
100
AcDbEntity
  8
0
  6
CONTINUOUS
 62
    7
370
   25
100
AcDbCircle
 10
-5.5175692714
 20
-3.2160520501
 40
1.650000000000003
100
AcDbArc
 50
270
 51
0
  0
ARC
  5
148
100
AcDbEntity
  8
0
  6
CONTINUOUS
 62
    7
370
   25
100
AcDbCircle
 10
-11.0175692714
 20
-3.2160520501
 40
1.650000000000001
100
AcDbArc
 50
180
 51
270
  0
ARC
  5
149
100
AcDbEntity
  8
0
  6
CONTINUOUS
 62
    7
370
   25
100
AcDbCircle
 10
-11.0175692714
 20
22.7839479499
 40
1.650000000000009
100
AcDbArc
 50
90
 51
180
  0
ARC
  5
14A
100
AcDbEntity
  8
0
  6
CONTINUOUS
 62
    7
370
   25
100
AcDbCircle
 10
-5.5175692714
 20
22.7839479499
 40
1.649999999999996
100
AcDbArc
 50
0
 51
90
  0
ARC
  5
14B
100
AcDbEntity
  8
0
  6
CONTINUOUS
 62
    7
370
   25
100
AcDbCircle
 10
-8.947569271400001
 20
-0.2160529409
 40
1.100000000000001
100
AcDbArc
 50
180
 51
0
  0
ARC
  5
14C
100
AcDbEntity
  8
0
  6
CONTINUOUS
 62
    7
370
   25
100
AcDbCircle
 10
-8.947569271400001
 20
19.7839479542
 40
1.100000000000364
100
AcDbArc
 50
359.9999533786
 51
179.999953825
  0
ENDBLK
  5
6A
330
68
100
AcDbEntity
  8
0
100
AcDbBlockEnd
  0
ENDSEC
  0
SECTION
  2
ENTITIES
  0
INSERT
  5
14D
100
AcDbEntity
  8
0
  6
ByLayer
 62
  256
370
   -1
100
AcDbBlockReference
  2
(2.5mm)Rear_Plate
 10
258.33112053975
 20
99.95172800400002
 30
0
 41
1
 42
1
 43
0
 50
0
 70
    1
 71
    1
 44
0
 45
0
  0
INSERT
  5
14E
100
AcDbEntity
  8
0
  6
ByLayer
 62
  256
370
   -1
100
AcDbBlockReference
  2
(2.5mm)Top_Plate_w_Gimbal
 10
277.43953912875
 20
45.56622894300003
 30
0
 41
1
 42
1
 43
0
 50
180
 70
    1
 71
    1
 44
0
 45
0
  0
INSERT
  5
14F
100
AcDbEntity
  8
0
  6
ByLayer
 62
  256
370
   -1
100
AcDbBlockReference
  2
(2.5mm)Gimbal_yaw_supp
 10
258.8552987999143
 20
40.38624149999994
 30
0
 41
1
 42
1
 43
0
 50
0
 70
    1
 71
    1
 44
0
 45
0
  0
INSERT
  5
150
100
AcDbEntity
  8
0
  6
ByLayer
 62
  256
370
   -1
100
AcDbBlockReference
  2
FC_Yaw_2_Roll
 10
363.6058249012504
 20
146.7531977265002
 30
0
 41
1
 42
1
 43
0
 50
0
 70
    1
 71
    1
 44
0
 45
0
  0
INSERT
  5
151
100
AcDbEntity
  8
0
  6
ByLayer
 62
  256
370
   -1
100
AcDbBlockReference
  2
FC_Roll_2_Pitch
 10
381.9793043137504
 20
115.5182827252501
 30
0
 41
1
 42
1
 43
0
 50
0
 70
    1
 71
    1
 44
0
 45
0
  0
INSERT
  5
152
100
AcDbEntity
  8
0
  6
ByLayer
 62
  256
370
   -1
100
AcDbBlockReference
  2
FC_Yaw(V2)(1)-0
 10
303.7500000000066
 20
23.50000000000051
 30
0
 41
1
 42
1
 43
0
 50
0
 70
    1
 71
    1
 44
0
 45
0
  0
INSERT
  5
153
100
AcDbEntity
  8
0
  6
ByLayer
 62
  256
370
   -1
100
AcDbBlockReference
  2
FC_Yaw(V2)(1)-1
 10
230.250000000005
 20
24.75000000000054
 30
0
 41
1
 42
1
 43
0
 50
0
 70
    1
 71
    1
 44
0
 45
0
  0
INSERT
  5
154
100
AcDbEntity
  8
0
  6
ByLayer
 62
  256
370
   -1
100
AcDbBlockReference
  2
FC_Pitch
 10
365.2085623870812
 20
81.40215025950035
 30
0
 41
1
 42
1
 43
0
 50
0
 70
    1
 71
    1
 44
0
 45
0
  0
INSERT
  5
155
100
AcDbEntity
  8
0
  6
ByLayer
 62
  256
370
   -1
100
AcDbBlockReference
  2
FC_Roll_2_Yaw
 10
227.4472909622774
 20
124.5987625591053
 30
0
 41
1
 42
1
 43
0
 50
90
 70
    1
 71
    1
 44
0
 45
0
  0
ENDSEC
  0
SECTION
  2
OBJECTS
  0
DICTIONARY
  5
C
330
0
100
AcDbDictionary
281
    1
  3
ACAD_GROUP
350
D
  0
DICTIONARY
  5
D
330
C
100
AcDbDictionary
281
    1
  0
ENDSEC
  0
EOF
