  0
SECTION
  2
HEADER
  9
$ACADVER
  1
AC1015
  9
$ACADMAINTVER
 70
     6
  9
$DWGCODEPAGE
  3
ANSI_1252
  9
$INSBASE
 10
0.0
 20
0.0
 30
0.0
  9
$EXTMIN
 10
-41.8870776109
 20
-255.446795616
 30
0.0
  9
$EXTMAX
 10
281.5042243741
 20
111.0912410485
 30
0.0
  9
$LIMMIN
 10
0.0
 20
0.0
  9
$LIMMAX
 10
420.0
 20
297.0
  9
$ORTHOMODE
 70
     0
  9
$REGENMODE
 70
     1
  9
$FILLMODE
 70
     1
  9
$QTEXTMODE
 70
     0
  9
$MIRRTEXT
 70
     1
  9
$LTSCALE
 40
1.0
  9
$ATTMODE
 70
     1
  9
$TEXTSIZE
 40
3.5
  9
$TRACEWID
 40
1.0
  9
$TEXTSTYLE
  7
Standard
  9
$CLAYER
  8
0
  9
$CELTYPE
  6
ByLayer
  9
$CECOLOR
 62
   256
  9
$CELTSCALE
 40
1.0
  9
$DISPSILH
 70
     0
  9
$DIMSCALE
 40
1.0
  9
$DIMASZ
 40
3.302
  9
$DIMEXO
 40
1.0
  9
$DIMDLI
 40
3.75
  9
$DIMRND
 40
0.0
  9
$DIMDLE
 40
0.0
  9
$DIMEXE
 40
1.0
  9
$DIMTP
 40
0.0
  9
$DIMTM
 40
0.0
  9
$DIMTXT
 40
3.5
  9
$DIMCEN
 40
2.5
  9
$DIMTSZ
 40
0.0
  9
$DIMTOL
 70
     0
  9
$DIMLIM
 70
     0
  9
$DIMTIH
 70
     1
  9
$DIMTOH
 70
     1
  9
$DIMSE1
 70
     0
  9
$DIMSE2
 70
     0
  9
$DIMTAD
 70
     1
  9
$DIMZIN
 70
     1
  9
$DIMBLK
  1

  9
$DIMASO
 70
     1
  9
$DIMSHO
 70
     1
  9
$DIMPOST
  1

  9
$DIMAPOST
  1

  9
$DIMALT
 70
     0
  9
$DIMALTD
 70
     3
  9
$DIMALTF
 40
0.0393700787
  9
$DIMLFAC
 40
1.0
  9
$DIMTOFL
 70
     1
  9
$DIMTVP
 40
0.0
  9
$DIMTIX
 70
     0
  9
$DIMSOXD
 70
     0
  9
$DIMSAH
 70
     0
  9
$DIMBLK1
  1

  9
$DIMBLK2
  1

  9
$DIMSTYLE
  2
ISO-25
  9
$DIMCLRD
 70
     0
  9
$DIMCLRE
 70
     0
  9
$DIMCLRT
 70
     0
  9
$DIMTFAC
 40
1.0
  9
$DIMGAP
 40
1.524
  9
$DIMJUST
 70
     0
  9
$DIMSD1
 70
     0
  9
$DIMSD2
 70
     0
  9
$DIMTOLJ
 70
     0
  9
$DIMTZIN
 70
     1
  9
$DIMALTZ
 70
     0
  9
$DIMALTTZ
 70
     0
  9
$DIMUPT
 70
     0
  9
$DIMDEC
 70
     2
  9
$DIMTDEC
 70
     2
  9
$DIMALTU
 70
     2
  9
$DIMALTTD
 70
     3
  9
$DIMTXSTY
  7
Standard
  9
$DIMAUNIT
 70
     0
  9
$DIMADEC
 70
     2
  9
$DIMALTRND
 40
0.0
  9
$DIMAZIN
 70
     0
  9
$DIMDSEP
 70
    44
  9
$DIMATFIT
 70
     3
  9
$DIMFRAC
 70
     0
  9
$DIMLDRBLK
  1

  9
$DIMLUNIT
 70
     2
  9
$DIMLWD
 70
    -2
  9
$DIMLWE
 70
    -2
  9
$DIMTMOVE
 70
     0
  9
$LUNITS
 70
     2
  9
$LUPREC
 70
     2
  9
$SKETCHINC
 40
1.0
  9
$FILLETRAD
 40
10.0
  9
$AUNITS
 70
     0
  9
$AUPREC
 70
     2
  9
$MENU
  1
.
  9
$ELEVATION
 40
0.0
  9
$PELEVATION
 40
0.0
  9
$THICKNESS
 40
0.0
  9
$LIMCHECK
 70
     0
  9
$CHAMFERA
 40
0.0
  9
$CHAMFERB
 40
0.0
  9
$CHAMFERC
 40
0.0
  9
$CHAMFERD
 40
0.0
  9
$SKPOLY
 70
     0
  9
$TDCREATE
 40
2458458.009488866
  9
$TDUCREATE
 40
2458457.967822199
  9
$TDUPDATE
 40
2458458.009604143
  9
$TDUUPDATE
 40
2458457.967937477
  9
$TDINDWG
 40
0.0000000116
  9
$TDUSRTIMER
 40
0.0000000116
  9
$USRTIMER
 70
     1
  9
$ANGBASE
 50
0.0
  9
$ANGDIR
 70
     0
  9
$PDMODE
 70
     0
  9
$PDSIZE
 40
-1.0
  9
$PLINEWID
 40
0.0
  9
$SPLFRAME
 70
     0
  9
$SPLINETYPE
 70
     6
  9
$SPLINESEGS
 70
     8
  9
$HANDSEED
  5
6C7
  9
$SURFTAB1
 70
     6
  9
$SURFTAB2
 70
     6
  9
$SURFTYPE
 70
     6
  9
$SURFU
 70
     6
  9
$SURFV
 70
     6
  9
$UCSBASE
  2

  9
$UCSNAME
  2

  9
$UCSORG
 10
0.0
 20
0.0
 30
0.0
  9
$UCSXDIR
 10
1.0
 20
0.0
 30
0.0
  9
$UCSYDIR
 10
0.0
 20
1.0
 30
0.0
  9
$UCSORTHOREF
  2

  9
$UCSORTHOVIEW
 70
     0
  9
$UCSORGTOP
 10
0.0
 20
0.0
 30
0.0
  9
$UCSORGBOTTOM
 10
0.0
 20
0.0
 30
0.0
  9
$UCSORGLEFT
 10
0.0
 20
0.0
 30
0.0
  9
$UCSORGRIGHT
 10
0.0
 20
0.0
 30
0.0
  9
$UCSORGFRONT
 10
0.0
 20
0.0
 30
0.0
  9
$UCSORGBACK
 10
0.0
 20
0.0
 30
0.0
  9
$PUCSBASE
  2

  9
$PUCSNAME
  2

  9
$PUCSORG
 10
0.0
 20
0.0
 30
0.0
  9
$PUCSXDIR
 10
1.0
 20
0.0
 30
0.0
  9
$PUCSYDIR
 10
0.0
 20
1.0
 30
0.0
  9
$PUCSORTHOREF
  2

  9
$PUCSORTHOVIEW
 70
     0
  9
$PUCSORGTOP
 10
0.0
 20
0.0
 30
0.0
  9
$PUCSORGBOTTOM
 10
0.0
 20
0.0
 30
0.0
  9
$PUCSORGLEFT
 10
0.0
 20
0.0
 30
0.0
  9
$PUCSORGRIGHT
 10
0.0
 20
0.0
 30
0.0
  9
$PUCSORGFRONT
 10
0.0
 20
0.0
 30
0.0
  9
$PUCSORGBACK
 10
0.0
 20
0.0
 30
0.0
  9
$USERI1
 70
     0
  9
$USERI2
 70
     0
  9
$USERI3
 70
     0
  9
$USERI4
 70
     0
  9
$USERI5
 70
     0
  9
$USERR1
 40
0.0
  9
$USERR2
 40
0.0
  9
$USERR3
 40
0.0
  9
$USERR4
 40
0.0
  9
$USERR5
 40
0.0
  9
$WORLDVIEW
 70
     1
  9
$SHADEDGE
 70
     3
  9
$SHADEDIF
 70
    70
  9
$TILEMODE
 70
     1
  9
$MAXACTVP
 70
    64
  9
$PINSBASE
 10
0.0
 20
0.0
 30
0.0
  9
$PLIMCHECK
 70
     0
  9
$PEXTMIN
 10
1.0000000000E+20
 20
1.0000000000E+20
 30
1.0000000000E+20
  9
$PEXTMAX
 10
-1.0000000000E+20
 20
-1.0000000000E+20
 30
-1.0000000000E+20
  9
$PLIMMIN
 10
0.0
 20
0.0
  9
$PLIMMAX
 10
420.0
 20
297.0
  9
$UNITMODE
 70
     0
  9
$VISRETAIN
 70
     1
  9
$PLINEGEN
 70
     0
  9
$PSLTSCALE
 70
     1
  9
$TREEDEPTH
 70
  3020
  9
$CMLSTYLE
  2
Standard
  9
$CMLJUST
 70
     0
  9
$CMLSCALE
 40
20.0
  9
$PROXYGRAPHICS
 70
     1
  9
$MEASUREMENT
 70
     1
  9
$CELWEIGHT
370
    -1
  9
$ENDCAPS
280
     0
  9
$JOINSTYLE
280
     0
  9
$LWDISPLAY
290
     1
  9
$INSUNITS
 70
     4
  9
$HYPERLINKBASE
  1

  9
$STYLESHEET
  1

  9
$XEDIT
290
     1
  9
$CEPSNTYPE
380
     0
  9
$PSTYLEMODE
290
     1
  9
$FINGERPRINTGUID
  2
{ED92B8B0-7BF7-4196-9C7B-8CBF22311161}
  9
$VERSIONGUID
  2
{FAEB1C32-E019-11D5-929B-00C0DF256EC4}
  9
$EXTNAMES
290
     1
  9
$PSVPSCALE
 40
0.0
  9
$OLESTARTUP
290
     0
  0
ENDSEC
  0
SECTION
  2
CLASSES
  0
CLASS
  1
ACDBDICTIONARYWDFLT
  2
AcDbDictionaryWithDefault
  3
ObjectDBX Classes
 90
        0
280
     0
281
     0
  0
CLASS
  1
VISUALSTYLE
  2
AcDbVisualStyle
  3
ObjectDBX Classes
 90
     4095
280
     0
281
     0
  0
CLASS
  1
MATERIAL
  2
AcDbMaterial
  3
ObjectDBX Classes
 90
     1153
280
     0
281
     0
  0
CLASS
  1
SCALE
  2
AcDbScale
  3
ObjectDBX Classes
 90
     1153
280
     0
281
     0
  0
CLASS
  1
TABLESTYLE
  2
AcDbTableStyle
  3
ObjectDBX Classes
 90
     4095
280
     0
281
     0
  0
CLASS
  1
MLEADERSTYLE
  2
AcDbMLeaderStyle
  3
ACDB_MLEADERSTYLE_CLASS
 90
     4095
280
     0
281
     0
  0
CLASS
  1
SUN
  2
AcDbSun
  3
SCENEOE
 90
     1153
280
     0
281
     0
  0
CLASS
  1
ACDBPLACEHOLDER
  2
AcDbPlaceHolder
  3
ObjectDBX Classes
 90
        0
280
     0
281
     0
  0
CLASS
  1
LAYOUT
  2
AcDbLayout
  3
ObjectDBX Classes
 90
        0
280
     0
281
     0
  0
ENDSEC
  0
SECTION
  2
TABLES
  0
TABLE
  2
VPORT
  5
8
330
0
100
AcDbSymbolTable
 70
     1
  0
VPORT
  5
29
330
8
100
AcDbSymbolTableRecord
100
AcDbViewportTableRecord
  2
*Active
 70
     0
 10
0.0
 20
0.0
 11
1.0
 21
1.0
 12
119.8085733816
 22
-72.1777772837
 13
0.0
 23
0.0
 14
10.0
 24
10.0
 15
10.0
 25
10.0
 16
0.0
 26
0.0
 36
1.0
 17
0.0
 27
0.0
 37
0.0
 40
373.8687973978
 41
0.882285792
 42
50.0
 43
0.0
 44
0.0
 50
0.0
 51
0.0
 71
     0
 72
   100
 73
     1
 74
     3
 75
     0
 76
     0
 77
     0
 78
     0
281
     0
 65
     1
110
0.0
120
0.0
130
0.0
111
1.0
121
0.0
131
0.0
112
0.0
122
1.0
132
0.0
 79
     0
146
0.0
  0
ENDTAB
  0
TABLE
  2
LTYPE
  5
5
330
0
100
AcDbSymbolTable
 70
     6
  0
LTYPE
  5
14
330
5
100
AcDbSymbolTableRecord
100
AcDbLinetypeTableRecord
  2
ByBlock
 70
     0
  3

 72
    65
 73
     0
 40
0.0
  0
LTYPE
  5
15
330
5
100
AcDbSymbolTableRecord
100
AcDbLinetypeTableRecord
  2
ByLayer
 70
     0
  3

 72
    65
 73
     0
 40
0.0
  0
LTYPE
  5
16
330
5
100
AcDbSymbolTableRecord
100
AcDbLinetypeTableRecord
  2
Continuous
 70
     0
  3
Solid line
 72
    65
 73
     0
 40
0.0
  0
LTYPE
  5
6E
330
5
100
AcDbSymbolTableRecord
100
AcDbLinetypeTableRecord
  2
HIDDEN
 70
     0
  3
Hidden __ __ __ __ __ __ __ __ __ __ __ __ __ __
 72
    65
 73
     2
 40
1.905
 49
1.27
 74
     0
 49
-0.635
 74
     0
  0
LTYPE
  5
6F
330
5
100
AcDbSymbolTableRecord
100
AcDbLinetypeTableRecord
  2
PHANTOM
 70
     0
  3
Phantom ______  __  __  ______  __  __  ______
 72
    65
 73
     6
 40
12.7
 49
6.35
 74
     0
 49
-1.27
 74
     0
 49
1.27
 74
     0
 49
-1.27
 74
     0
 49
1.27
 74
     0
 49
-1.27
 74
     0
  0
LTYPE
  5
70
330
5
100
AcDbSymbolTableRecord
100
AcDbLinetypeTableRecord
  2
CENTER
 70
     0
  3
Center ____ _ ____ _ ____ _ ____ _ ____ _ ____
 72
    65
 73
     4
 40
10.16
 49
6.35
 74
     0
 49
-1.27
 74
     0
 49
1.27
 74
     0
 49
-1.27
 74
     0
  0
LTYPE
  5
71
330
5
100
AcDbSymbolTableRecord
100
AcDbLinetypeTableRecord
  2
CENTERX2
 70
     0
  3
Center (2x) ________  __  ________  __  _____
 72
    65
 73
     4
 40
20.32
 49
12.7
 74
     0
 49
-2.54
 74
     0
 49
2.54
 74
     0
 49
-2.54
 74
     0
  0
LTYPE
  5
72
330
5
100
AcDbSymbolTableRecord
100
AcDbLinetypeTableRecord
  2
DOT2
 70
     0
  3
Dot (.5x) ........................................
 72
    65
 73
     2
 40
0.635
 49
0.0
 74
     0
 49
-0.635
 74
     0
  0
ENDTAB
  0
TABLE
  2
LAYER
  5
2
330
0
100
AcDbSymbolTable
 70
     1
  0
LAYER
  5
10
330
2
100
AcDbSymbolTableRecord
100
AcDbLayerTableRecord
  2
0
 70
     0
 62
     7
  6
Continuous
370
    -3
390
F
  0
ENDTAB
  0
TABLE
  2
STYLE
  5
3
330
0
100
AcDbSymbolTable
 70
     1
  0
STYLE
  5
11
330
3
100
AcDbSymbolTableRecord
100
AcDbTextStyleTableRecord
  2
Standard
 70
     0
 40
0.0
 41
1.0
 50
0.0
 71
     0
 42
3.5
  3
txt
  4

  0
ENDTAB
  0
TABLE
  2
VIEW
  5
6
330
0
100
AcDbSymbolTable
 70
     0
  0
ENDTAB
  0
TABLE
  2
UCS
  5
7
330
0
100
AcDbSymbolTable
 70
     0
  0
ENDTAB
  0
TABLE
  2
APPID
  5
9
330
0
100
AcDbSymbolTable
 70
     1
  0
APPID
  5
12
330
9
100
AcDbSymbolTableRecord
100
AcDbRegAppTableRecord
  2
ACAD
 70
     0
  0
ENDTAB
  0
TABLE
  2
DIMSTYLE
  5
A
330
0
100
AcDbSymbolTable
 70
     1
100
AcDbDimStyleTable
  0
DIMSTYLE
105
27
330
A
100
AcDbSymbolTableRecord
100
AcDbDimStyleTableRecord
  2
ISO-25
 70
     0
 41
2.5
 42
0.625
 43
3.75
 44
1.25
 73
     0
 74
     0
 77
     1
 78
     8
140
2.5
141
2.5
143
0.0393700787
147
0.625
171
     3
172
     1
178
     0
271
     2
272
     2
274
     3
278
    44
283
     0
284
     8
340
11
  0
ENDTAB
  0
TABLE
  2
BLOCK_RECORD
  5
1
330
0
100
AcDbSymbolTable
 70
     1
  0
BLOCK_RECORD
  5
1F
330
1
100
AcDbSymbolTableRecord
100
AcDbBlockTableRecord
  2
*Model_Space
340
22
  0
BLOCK_RECORD
  5
1B
330
1
100
AcDbSymbolTableRecord
100
AcDbBlockTableRecord
  2
*Paper_Space
340
1E
  0
BLOCK_RECORD
  5
23
330
1
100
AcDbSymbolTableRecord
100
AcDbBlockTableRecord
  2
*Paper_Space0
340
26
  0
ENDTAB
  0
ENDSEC
  0
SECTION
  2
BLOCKS
  0
BLOCK
  5
20
330
1F
100
AcDbEntity
  8
0
100
AcDbBlockBegin
  2
*Model_Space
 70
     0
 10
0.0
 20
0.0
 30
0.0
  3
*Model_Space
  1

  0
ENDBLK
  5
21
330
1F
100
AcDbEntity
  8
0
100
AcDbBlockEnd
  0
BLOCK
  5
1C
330
1B
100
AcDbEntity
 67
     1
  8
0
100
AcDbBlockBegin
  2
*Paper_Space
 70
     0
 10
0.0
 20
0.0
 30
0.0
  3
*Paper_Space
  1

  0
ENDBLK
  5
1D
330
1B
100
AcDbEntity
 67
     1
  8
0
100
AcDbBlockEnd
  0
BLOCK
  5
24
330
23
100
AcDbEntity
  8
0
100
AcDbBlockBegin
  2
*Paper_Space0
 70
     0
 10
0.0
 20
0.0
 30
0.0
  3
*Paper_Space0
  1

  0
ENDBLK
  5
25
330
23
100
AcDbEntity
  8
0
100
AcDbBlockEnd
  0
ENDSEC
  0
SECTION
  2
ENTITIES
  0
CIRCLE
  5
7B
330
1F
100
AcDbEntity
  8
0
  6
Continuous
 62
     7
370
    25
100
AcDbCircle
 10
203.6848247319
 20
-21.0738596256
 30
0.0
 40
4.500000000000054
  0
CIRCLE
  5
7C
330
1F
100
AcDbEntity
  8
0
  6
Continuous
 62
     7
370
    25
100
AcDbCircle
 10
207.3489416204
 20
-33.5468002343
 30
0.0
 40
4.0
  0
CIRCLE
  5
7D
330
1F
100
AcDbEntity
  8
0
  6
Continuous
 62
     7
370
    25
100
AcDbCircle
 10
167.5775927706
 20
90.9436169698
 30
0.0
 40
1.500000000000006
  0
CIRCLE
  5
7E
330
1F
100
AcDbEntity
  8
0
  6
Continuous
 62
     7
370
    25
100
AcDbCircle
 10
167.3162365782
 20
102.6933698583
 30
0.0
 40
1.499999999999992
  0
CIRCLE
  5
7F
330
1F
100
AcDbEntity
  8
0
  6
Continuous
 62
     7
370
    25
100
AcDbCircle
 10
173.255747335
 20
82.509100935
 30
0.0
 40
1.499999999999978
  0
CIRCLE
  5
A6
330
1F
100
AcDbEntity
  8
0
  6
Continuous
 62
     7
370
    25
100
AcDbCircle
 10
248.7816479747
 20
-174.5869748093
 30
0.0
 40
4.500000000000024
  0
CIRCLE
  5
A7
330
1F
100
AcDbEntity
  8
0
  6
Continuous
 62
     7
370
    25
100
AcDbCircle
 10
252.4457648632
 20
-187.059915418
 30
0.0
 40
3.999999999999996
  0
CIRCLE
  5
A8
330
1F
100
AcDbEntity
  8
0
  6
Continuous
 62
     7
370
    25
100
AcDbCircle
 10
212.6744160133
 20
-62.5694982139
 30
0.0
 40
1.500000000000006
  0
CIRCLE
  5
A9
330
1F
100
AcDbEntity
  8
0
  6
Continuous
 62
     7
370
    25
100
AcDbCircle
 10
212.413059821
 20
-50.8197453254
 30
0.0
 40
1.500000000000026
  0
CIRCLE
  5
AA
330
1F
100
AcDbEntity
  8
0
  6
Continuous
 62
     7
370
    25
100
AcDbCircle
 10
218.3525705778
 20
-71.0040142487
 30
0.0
 40
1.500000000000015
  0
CIRCLE
  5
D1
330
1F
100
AcDbEntity
  8
0
  6
Continuous
 62
     7
370
    25
100
AcDbCircle
 10
193.4893968788
 20
-84.7536324564
 30
0.0
 40
4.499999999999931
  0
CIRCLE
  5
D2
330
1F
100
AcDbEntity
  8
0
  6
Continuous
 62
     7
370
    25
100
AcDbCircle
 10
189.8252799904
 20
-72.2806918477
 30
0.0
 40
4.00000000000001
  0
CIRCLE
  5
D3
330
1F
100
AcDbEntity
  8
0
  6
Continuous
 62
     7
370
    25
100
AcDbCircle
 10
221.1409744822
 20
-167.9873999549
 30
0.0
 40
1.500000000000034
  0
CIRCLE
  5
D4
330
1F
100
AcDbEntity
  8
0
  6
Continuous
 62
     7
370
    25
100
AcDbCircle
 10
221.4023306745
 20
-179.7371528434
 30
0.0
 40
1.50000000000004
  0
CIRCLE
  5
D5
330
1F
100
AcDbEntity
  8
0
  6
Continuous
 62
     7
370
    25
100
AcDbCircle
 10
215.4628199177
 20
-159.55288392
 30
0.0
 40
1.500000000000052
  0
CIRCLE
  5
FC
330
1F
100
AcDbEntity
  8
0
  6
Continuous
 62
     7
370
    25
100
AcDbCircle
 10
198.0930471326
 20
84.0520604768
 30
0.0
 40
4.500000000000019
  0
CIRCLE
  5
FD
330
1F
100
AcDbEntity
  8
0
  6
Continuous
 62
     7
370
    25
100
AcDbCircle
 10
194.4289302441
 20
96.5250010855
 30
0.0
 40
3.999999999999981
  0
CIRCLE
  5
FE
330
1F
100
AcDbEntity
  8
0
  6
Continuous
 62
     7
370
    25
100
AcDbCircle
 10
225.7446247359
 20
0.8182929783
 30
0.0
 40
1.499999999999998
  0
CIRCLE
  5
FF
330
1F
100
AcDbEntity
  8
0
  6
Continuous
 62
     7
370
    25
100
AcDbCircle
 10
226.0059809283
 20
-10.9314599102
 30
0.0
 40
1.499999999999946
  0
CIRCLE
  5
100
330
1F
100
AcDbEntity
  8
0
  6
Continuous
 62
     7
370
    25
100
AcDbCircle
 10
220.0664701714
 20
9.2528090132
 30
0.0
 40
1.500000000000009
  0
CIRCLE
  5
127
330
1F
100
AcDbEntity
  8
0
  6
Continuous
 62
     7
370
    25
100
AcDbCircle
 10
243.1898703753
 20
-69.4610547069
 30
0.0
 40
4.500000000000044
  0
CIRCLE
  5
128
330
1F
100
AcDbEntity
  8
0
  6
Continuous
 62
     7
370
    25
100
AcDbCircle
 10
239.5257534869
 20
-56.9881140983
 30
0.0
 40
3.999999999999972
  0
CIRCLE
  5
129
330
1F
100
AcDbEntity
  8
0
  6
Continuous
 62
     7
370
    25
100
AcDbCircle
 10
270.8414479787
 20
-152.6948222054
 30
0.0
 40
1.499999999999961
  0
CIRCLE
  5
12A
330
1F
100
AcDbEntity
  8
0
  6
Continuous
 62
     7
370
    25
100
AcDbCircle
 10
271.1028041711
 20
-164.4445750939
 30
0.0
 40
1.500000000000012
  0
CIRCLE
  5
12B
330
1F
100
AcDbEntity
  8
0
  6
Continuous
 62
     7
370
    25
100
AcDbCircle
 10
265.1632934142
 20
-144.2603061706
 30
0.0
 40
1.499999999999978
  0
CIRCLE
  5
152
330
1F
100
AcDbEntity
  8
0
  6
Continuous
 62
     7
370
    25
100
AcDbCircle
 10
199.0811744782
 20
-189.8795525588
 30
0.0
 40
4.500000000000007
  0
CIRCLE
  5
153
330
1F
100
AcDbEntity
  8
0
  6
Continuous
 62
     7
370
    25
100
AcDbCircle
 10
202.7452913667
 20
-202.3524931675
 30
0.0
 40
4.000000000000012
  0
CIRCLE
  5
154
330
1F
100
AcDbEntity
  8
0
  6
Continuous
 62
     7
370
    25
100
AcDbCircle
 10
162.9739425168
 20
-77.8620759634
 30
0.0
 40
1.499999999999989
  0
CIRCLE
  5
155
330
1F
100
AcDbEntity
  8
0
  6
Continuous
 62
     7
370
    25
100
AcDbCircle
 10
162.7125863245
 20
-66.1123230749
 30
0.0
 40
1.50000000000002
  0
CIRCLE
  5
156
330
1F
100
AcDbEntity
  8
0
  6
Continuous
 62
     7
370
    25
100
AcDbCircle
 10
168.6520970813
 20
-86.2965919982
 30
0.0
 40
1.499999999999983
  0
CIRCLE
  5
17D
330
1F
100
AcDbEntity
  8
0
  6
Continuous
 62
     7
370
    25
100
AcDbCircle
 10
148.3925736361
 20
68.7594827273
 30
0.0
 40
4.499999999999984
  0
CIRCLE
  5
17E
330
1F
100
AcDbEntity
  8
0
  6
Continuous
 62
     7
370
    25
100
AcDbCircle
 10
144.7284567476
 20
81.232423336
 30
0.0
 40
4.000000000000029
  0
CIRCLE
  5
17F
330
1F
100
AcDbEntity
  8
0
  6
Continuous
 62
     7
370
    25
100
AcDbCircle
 10
176.0441512394
 20
-14.4742847711
 30
0.0
 40
1.500000000000002
  0
CIRCLE
  5
180
330
1F
100
AcDbEntity
  8
0
  6
Continuous
 62
     7
370
    25
100
AcDbCircle
 10
176.3055074318
 20
-26.2240376596
 30
0.0
 40
1.500000000000032
  0
CIRCLE
  5
181
330
1F
100
AcDbEntity
  8
0
  6
Continuous
 62
     7
370
    25
100
AcDbCircle
 10
170.3659966749
 20
-6.0397687363
 30
0.0
 40
1.500000000000006
  0
CIRCLE
  5
1A8
330
1F
100
AcDbEntity
  8
0
  6
Continuous
 62
     7
370
    25
100
AcDbCircle
 10
98.6921001396
 20
53.4669049778
 30
0.0
 40
4.500000000000011
  0
CIRCLE
  5
1A9
330
1F
100
AcDbEntity
  8
0
  6
Continuous
 62
     7
370
    25
100
AcDbCircle
 10
95.0279832511
 20
65.9398455865
 30
0.0
 40
3.999999999999973
  0
CIRCLE
  5
1AA
330
1F
100
AcDbEntity
  8
0
  6
Continuous
 62
     7
370
    25
100
AcDbCircle
 10
126.3436777429
 20
-29.7668625206
 30
0.0
 40
1.500000000000015
  0
CIRCLE
  5
1AB
330
1F
100
AcDbEntity
  8
0
  6
Continuous
 62
     7
370
    25
100
AcDbCircle
 10
126.6050339353
 20
-41.5166154091
 30
0.0
 40
1.499999999999999
  0
CIRCLE
  5
1AC
330
1F
100
AcDbEntity
  8
0
  6
Continuous
 62
     7
370
    25
100
AcDbCircle
 10
120.6655231784
 20
-21.3323464858
 30
0.0
 40
1.499999999999998
  0
CIRCLE
  5
1D3
330
1F
100
AcDbEntity
  8
0
  6
Continuous
 62
     7
370
    25
100
AcDbCircle
 10
149.3807009817
 20
-205.1721303083
 30
0.0
 40
4.500000000000052
  0
CIRCLE
  5
1D4
330
1F
100
AcDbEntity
  8
0
  6
Continuous
 62
     7
370
    25
100
AcDbCircle
 10
153.0448178702
 20
-217.6450709169
 30
0.0
 40
4.000000000000041
  0
CIRCLE
  5
1D5
330
1F
100
AcDbEntity
  8
0
  6
Continuous
 62
     7
370
    25
100
AcDbCircle
 10
113.2734690203
 20
-93.1546537129
 30
0.0
 40
1.500000000000023
  0
CIRCLE
  5
1D6
330
1F
100
AcDbEntity
  8
0
  6
Continuous
 62
     7
370
    25
100
AcDbCircle
 10
113.012112828
 20
-81.4049008244
 30
0.0
 40
1.499999999999992
  0
CIRCLE
  5
1D7
330
1F
100
AcDbEntity
  8
0
  6
Continuous
 62
     7
370
    25
100
AcDbCircle
 10
118.9516235848
 20
-101.5891697477
 30
0.0
 40
1.499999999999995
  0
CIRCLE
  5
1FE
330
1F
100
AcDbEntity
  8
0
  6
Continuous
 62
     7
370
    25
100
AcDbCircle
 10
48.9916266431
 20
38.1743272284
 30
0.0
 40
4.499999999999983
  0
CIRCLE
  5
1FF
330
1F
100
AcDbEntity
  8
0
  6
Continuous
 62
     7
370
    25
100
AcDbCircle
 10
45.3275097546
 20
50.6472678371
 30
0.0
 40
3.99999999999999
  0
CIRCLE
  5
200
330
1F
100
AcDbEntity
  8
0
  6
Continuous
 62
     7
370
    25
100
AcDbCircle
 10
76.6432042464
 20
-45.0594402701
 30
0.0
 40
1.500000000000016
  0
CIRCLE
  5
201
330
1F
100
AcDbEntity
  8
0
  6
Continuous
 62
     7
370
    25
100
AcDbCircle
 10
76.9045604388
 20
-56.8091931586
 30
0.0
 40
1.499999999999998
  0
CIRCLE
  5
202
330
1F
100
AcDbEntity
  8
0
  6
Continuous
 62
     7
370
    25
100
AcDbCircle
 10
70.9650496819
 20
-36.6249242352
 30
0.0
 40
1.500000000000009
  0
CIRCLE
  5
229
330
1F
100
AcDbEntity
  8
0
  6
Continuous
 62
     7
370
    25
100
AcDbCircle
 10
99.6802274852
 20
-220.4647080577
 30
0.0
 40
4.49999999999999
  0
CIRCLE
  5
22A
330
1F
100
AcDbEntity
  8
0
  6
Continuous
 62
     7
370
    25
100
AcDbCircle
 10
103.3443443737
 20
-232.9376486664
 30
0.0
 40
3.999999999999928
  0
CIRCLE
  5
22B
330
1F
100
AcDbEntity
  8
0
  6
Continuous
 62
     7
370
    25
100
AcDbCircle
 10
63.5729955238
 20
-108.4472314623
 30
0.0
 40
1.499999999999983
  0
CIRCLE
  5
22C
330
1F
100
AcDbEntity
  8
0
  6
Continuous
 62
     7
370
    25
100
AcDbCircle
 10
63.3116393315
 20
-96.6974785738
 30
0.0
 40
1.500000000000009
  0
CIRCLE
  5
22D
330
1F
100
AcDbEntity
  8
0
  6
Continuous
 62
     7
370
    25
100
AcDbCircle
 10
69.2511500883
 20
-116.8817474972
 30
0.0
 40
1.499999999999986
  0
CIRCLE
  5
254
330
1F
100
AcDbEntity
  8
0
  6
Continuous
 62
     7
370
    25
100
AcDbCircle
 10
4.8829307459
 20
-82.2441706235
 30
0.0
 40
4.500000000000012
  0
CIRCLE
  5
255
330
1F
100
AcDbEntity
  8
0
  6
Continuous
 62
     7
370
    25
100
AcDbCircle
 10
8.5470476344
 20
-94.7171112321
 30
0.0
 40
3.999999999999986
  0
CIRCLE
  5
256
330
1F
100
AcDbEntity
  8
0
  6
Continuous
 62
     7
370
    25
100
AcDbCircle
 10
-31.2243012155
 20
29.7733059719
 30
0.0
 40
1.500000000000004
  0
CIRCLE
  5
257
330
1F
100
AcDbEntity
  8
0
  6
Continuous
 62
     7
370
    25
100
AcDbCircle
 10
-31.4856574078
 20
41.5230588604
 30
0.0
 40
1.499999999999995
  0
CIRCLE
  5
258
330
1F
100
AcDbEntity
  8
0
  6
Continuous
 62
     7
370
    25
100
AcDbCircle
 10
-25.546146651
 20
21.3387899371
 30
0.0
 40
1.499999999999993
  0
CIRCLE
  5
27F
330
1F
100
AcDbEntity
  8
0
  6
Continuous
 62
     7
370
    25
100
AcDbCircle
 10
94.0884498858
 20
-115.3387879553
 30
0.0
 40
4.499999999999993
  0
CIRCLE
  5
280
330
1F
100
AcDbEntity
  8
0
  6
Continuous
 62
     7
370
    25
100
AcDbCircle
 10
90.4243329974
 20
-102.8658473467
 30
0.0
 40
4.000000000000001
  0
CIRCLE
  5
281
330
1F
100
AcDbEntity
  8
0
  6
Continuous
 62
     7
370
    25
100
AcDbCircle
 10
121.7400274892
 20
-198.5725554538
 30
0.0
 40
1.499999999999972
  0
CIRCLE
  5
282
330
1F
100
AcDbEntity
  8
0
  6
Continuous
 62
     7
370
    25
100
AcDbCircle
 10
122.0013836815
 20
-210.3223083423
 30
0.0
 40
1.499999999999972
  0
CIRCLE
  5
283
330
1F
100
AcDbEntity
  8
0
  6
Continuous
 62
     7
370
    25
100
AcDbCircle
 10
116.0618729247
 20
-190.138039419
 30
0.0
 40
1.500000000000012
  0
CIRCLE
  5
2AA
330
1F
100
AcDbEntity
  8
0
  6
Continuous
 62
     7
370
    25
100
AcDbCircle
 10
143.7889233823
 20
-100.0462102059
 30
0.0
 40
4.499999999999962
  0
CIRCLE
  5
2AB
330
1F
100
AcDbEntity
  8
0
  6
Continuous
 62
     7
370
    25
100
AcDbCircle
 10
140.1248064939
 20
-87.5732695972
 30
0.0
 40
3.99999999999997
  0
CIRCLE
  5
2AC
330
1F
100
AcDbEntity
  8
0
  6
Continuous
 62
     7
370
    25
100
AcDbCircle
 10
171.4405009857
 20
-183.2799777043
 30
0.0
 40
1.499999999999915
  0
CIRCLE
  5
2AD
330
1F
100
AcDbEntity
  8
0
  6
Continuous
 62
     7
370
    25
100
AcDbCircle
 10
171.701857178
 20
-195.0297305928
 30
0.0
 40
1.499999999999989
  0
CIRCLE
  5
2AE
330
1F
100
AcDbEntity
  8
0
  6
Continuous
 62
     7
370
    25
100
AcDbCircle
 10
165.7623464212
 20
-174.8454616695
 30
0.0
 40
1.499999999999955
  0
CIRCLE
  5
2D5
330
1F
100
AcDbEntity
  8
0
  6
Continuous
 62
     7
370
    25
100
AcDbCircle
 10
104.2838777389
 20
-51.6590151245
 30
0.0
 40
4.500000000000018
  0
CIRCLE
  5
2D6
330
1F
100
AcDbEntity
  8
0
  6
Continuous
 62
     7
370
    25
100
AcDbCircle
 10
107.9479946274
 20
-64.1319557332
 30
0.0
 40
3.99999999999999
  0
CIRCLE
  5
2D7
330
1F
100
AcDbEntity
  8
0
  6
Continuous
 62
     7
370
    25
100
AcDbCircle
 10
68.1766457776
 20
60.3584614709
 30
0.0
 40
1.49999999999999
  0
CIRCLE
  5
2D8
330
1F
100
AcDbEntity
  8
0
  6
Continuous
 62
     7
370
    25
100
AcDbCircle
 10
67.9152895852
 20
72.1082143594
 30
0.0
 40
1.500000000000009
  0
CIRCLE
  5
2D9
330
1F
100
AcDbEntity
  8
0
  6
Continuous
 62
     7
370
    25
100
AcDbCircle
 10
73.854800342
 20
51.923945436
 30
0.0
 40
1.500000000000009
  0
CIRCLE
  5
300
330
1F
100
AcDbEntity
  8
0
  6
Continuous
 62
     7
370
    25
100
AcDbCircle
 10
153.9843512354
 20
-36.3664373751
 30
0.0
 40
4.500000000000062
  0
CIRCLE
  5
301
330
1F
100
AcDbEntity
  8
0
  6
Continuous
 62
     7
370
    25
100
AcDbCircle
 10
157.6484681239
 20
-48.8393779837
 30
0.0
 40
4.000000000000001
  0
CIRCLE
  5
302
330
1F
100
AcDbEntity
  8
0
  6
Continuous
 62
     7
370
    25
100
AcDbCircle
 10
117.8771192741
 20
75.6510392203
 30
0.0
 40
1.499999999999975
  0
CIRCLE
  5
303
330
1F
100
AcDbEntity
  8
0
  6
Continuous
 62
     7
370
    25
100
AcDbCircle
 10
117.6157630817
 20
87.4007921088
 30
0.0
 40
1.500000000000006
  0
CIRCLE
  5
304
330
1F
100
AcDbEntity
  8
0
  6
Continuous
 62
     7
370
    25
100
AcDbCircle
 10
123.5552738385
 20
67.2165231855
 30
0.0
 40
1.500000000000003
  0
CIRCLE
  5
32B
330
1F
100
AcDbEntity
  8
0
  6
Continuous
 62
     7
370
    25
100
AcDbCircle
 10
44.3879763893
 20
-130.6313657048
 30
0.0
 40
4.500000000000012
  0
CIRCLE
  5
32C
330
1F
100
AcDbEntity
  8
0
  6
Continuous
 62
     7
370
    25
100
AcDbCircle
 10
40.7238595009
 20
-118.1584250961
 30
0.0
 40
3.999999999999984
  0
CIRCLE
  5
32D
330
1F
100
AcDbEntity
  8
0
  6
Continuous
 62
     7
370
    25
100
AcDbCircle
 10
72.0395539927
 20
-213.8651332033
 30
0.0
 40
1.500000000000023
  0
CIRCLE
  5
32E
330
1F
100
AcDbEntity
  8
0
  6
Continuous
 62
     7
370
    25
100
AcDbCircle
 10
72.300910185
 20
-225.6148860918
 30
0.0
 40
1.499999999999983
  0
CIRCLE
  5
32F
330
1F
100
AcDbEntity
  8
0
  6
Continuous
 62
     7
370
    25
100
AcDbCircle
 10
66.3613994282
 20
-205.4306171684
 30
0.0
 40
1.500000000000046
  0
CIRCLE
  5
356
330
1F
100
AcDbEntity
  8
0
  6
Continuous
 62
     7
370
    25
100
AcDbCircle
 10
54.5834042424
 20
-66.951592874
 30
0.0
 40
4.499999999999975
  0
CIRCLE
  5
357
330
1F
100
AcDbEntity
  8
0
  6
Continuous
 62
     7
370
    25
100
AcDbCircle
 10
58.2475211309
 20
-79.4245334827
 30
0.0
 40
4.000000000000004
  0
CIRCLE
  5
358
330
1F
100
AcDbEntity
  8
0
  6
Continuous
 62
     7
370
    25
100
AcDbCircle
 10
18.476172281
 20
45.0658837214
 30
0.0
 40
1.499999999999999
  0
CIRCLE
  5
359
330
1F
100
AcDbEntity
  8
0
  6
Continuous
 62
     7
370
    25
100
AcDbCircle
 10
18.2148160887
 20
56.8156366099
 30
0.0
 40
1.500000000000015
  0
CIRCLE
  5
35A
330
1F
100
AcDbEntity
  8
0
  6
Continuous
 62
     7
370
    25
100
AcDbCircle
 10
24.1543268455
 20
36.6313676866
 30
0.0
 40
1.500000000000006
  0
CIRCLE
  5
381
330
1F
100
AcDbEntity
  8
0
  6
Continuous
 62
     7
370
    25
100
AcDbCircle
 10
-0.7088468534
 20
22.8817494789
 30
0.0
 40
4.49999999999999
  0
CIRCLE
  5
382
330
1F
100
AcDbEntity
  8
0
  6
Continuous
 62
     7
370
    25
100
AcDbCircle
 10
-4.3729637419
 20
35.3546900876
 30
0.0
 40
3.999999999999975
  0
CIRCLE
  5
383
330
1F
100
AcDbEntity
  8
0
  6
Continuous
 62
     7
370
    25
100
AcDbCircle
 10
26.9427307499
 20
-60.3520180196
 30
0.0
 40
1.499999999999995
  0
CIRCLE
  5
384
330
1F
100
AcDbEntity
  8
0
  6
Continuous
 62
     7
370
    25
100
AcDbCircle
 10
27.2040869423
 20
-72.101770908
 30
0.0
 40
1.500000000000012
  0
CIRCLE
  5
385
330
1F
100
AcDbEntity
  8
0
  6
Continuous
 62
     7
370
    25
100
AcDbCircle
 10
21.2645761854
 20
-51.9175019847
 30
0.0
 40
1.49999999999999
  0
CIRCLE
  5
3AC
330
1F
100
AcDbEntity
  8
0
  6
Continuous
 62
     7
370
    25
100
AcDbCircle
 10
49.9797539887
 20
-235.7572858072
 30
0.0
 40
4.500000000000041
  0
CIRCLE
  5
3AD
330
1F
100
AcDbEntity
  8
0
  6
Continuous
 62
     7
370
    25
100
AcDbCircle
 10
53.6438708772
 20
-248.2302264159
 30
0.0
 40
3.999999999999984
  0
CIRCLE
  5
3AE
330
1F
100
AcDbEntity
  8
0
  6
Continuous
 62
     7
370
    25
100
AcDbCircle
 10
13.8725220273
 20
-123.7398092118
 30
0.0
 40
1.500000000000015
  0
CIRCLE
  5
3AF
330
1F
100
AcDbEntity
  8
0
  6
Continuous
 62
     7
370
    25
100
AcDbCircle
 10
13.611165835
 20
-111.9900563233
 30
0.0
 40
1.499999999999976
  0
CIRCLE
  5
3B0
330
1F
100
AcDbEntity
  8
0
  6
Continuous
 62
     7
370
    25
100
AcDbCircle
 10
19.5506765918
 20
-132.1743252466
 30
0.0
 40
1.499999999999981
  0
LINE
  5
3CF
330
1F
100
AcDbEntity
  8
0
  6
Continuous
 62
     7
370
    25
100
AcDbLine
 10
213.4003671952
 20
-24.668401967
 30
0.0
 11
210.9426945954
 21
-23.3268188006
 31
0.0
  0
LINE
  5
3D0
330
1F
100
AcDbEntity
  8
0
  6
Continuous
 62
     7
370
    25
100
AcDbLine
 10
209.50528406
 20
-25.9600394432
 30
0.0
 11
211.9629566598
 21
-27.3016226096
 31
0.0
  0
LINE
  5
3D1
330
1F
100
AcDbEntity
  8
0
  6
Continuous
 62
     7
370
    25
100
AcDbLine
 10
193.9692822686
 20
-17.4793172842
 30
0.0
 11
196.4269548684
 21
-18.8209004506
 31
0.0
  0
LINE
  5
3D2
330
1F
100
AcDbEntity
  8
0
  6
Continuous
 62
     7
370
    25
100
AcDbLine
 10
197.8643654038
 20
-16.187679808
 30
0.0
 11
195.4066928041
 21
-14.8460966416
 31
0.0
  0
LINE
  5
3D3
330
1F
100
AcDbEntity
  8
0
  6
Continuous
 62
     7
370
    25
100
AcDbLine
 10
216.4568928314
 20
-14.8451074725
 30
0.0
 11
202.9759778785
 21
1.8078898533
 31
0.0
  0
LINE
  5
3D4
330
1F
100
AcDbEntity
  8
0
  6
Continuous
 62
     7
370
    25
100
AcDbLine
 10
212.5611639456
 20
-37.8119369871
 30
0.0
 11
216.850927945
 21
-28.2609123027
 31
0.0
  0
LINE
  5
3D5
330
1F
100
AcDbEntity
  8
0
  6
Continuous
 62
     7
370
    25
100
AcDbLine
 10
196.4977720548
 20
-34.2399628386
 30
0.0
 11
205.2716852042
 21
-39.9533327495
 31
0.0
  0
LINE
  5
3D6
330
1F
100
AcDbEntity
  8
0
  6
Continuous
 62
     7
370
    25
100
AcDbLine
 10
191.9053205335
 20
-1.4442848998
 30
0.0
 11
189.5731856241
 21
-22.7426072437
 31
0.0
  0
LINE
  5
3D7
330
1F
100
AcDbEntity
  8
0
  6
Continuous
 62
     7
370
    25
100
AcDbLine
 10
171.2645892174
 20
71.5475502315
 30
0.0
 11
191.5593061055
 21
2.4627458654
 31
0.0
  0
LINE
  5
3D8
330
1F
100
AcDbEntity
  8
0
  6
Continuous
 62
     7
370
    25
100
AcDbLine
 10
157.4897153961
 20
98.1556470992
 30
0.0
 11
170.5202214763
 21
73.3845250975
 31
0.0
  0
LINE
  5
3D9
330
1F
100
AcDbEntity
  8
0
  6
Continuous
 62
     7
370
    25
100
AcDbLine
 10
162.709279967
 20
109.8889206213
 30
0.0
 11
157.9119187601
 21
103.4795428799
 31
0.0
  0
LINE
  5
3DA
330
1F
100
AcDbEntity
  8
0
  6
Continuous
 62
     7
370
    25
100
AcDbLine
 10
175.0461145568
 20
104.4021970849
 30
0.0
 11
166.9086981087
 21
110.4929796175
 31
0.0
  0
LINE
  5
3DB
330
1F
100
AcDbEntity
  8
0
  6
Continuous
 62
     7
370
    25
100
AcDbLine
 10
180.4766603166
 20
76.0550623543
 30
0.0
 11
177.0025096143
 21
101.086663705
 31
0.0
  0
LINE
  5
3DC
330
1F
100
AcDbEntity
  8
0
  6
Continuous
 62
     7
370
    25
100
AcDbLine
 10
201.1538758045
 20
5.2812973181
 30
0.0
 11
180.787145975
 21
74.6112393716
 31
0.0
  0
LINE
  5
3DD
330
1F
100
AcDbEntity
  8
0
  6
Continuous
 62
     7
370
    25
100
AcDbLine
 10
200.0902823905
 20
-30.7894020889
 30
0.0
 11
201.4318655569
 21
-28.3317294891
 31
0.0
  0
LINE
  5
3DE
330
1F
100
AcDbEntity
  8
0
  6
Continuous
 62
     7
370
    25
100
AcDbLine
 10
198.7986449143
 20
-26.8943189537
 30
0.0
 11
197.4570617479
 21
-29.3519915535
 31
0.0
  0
LINE
  5
3DF
330
1F
100
AcDbEntity
  8
0
  6
Continuous
 62
     7
370
    25
100
AcDbLine
 10
207.2793670733
 20
-11.3583171623
 30
0.0
 11
205.9377839069
 21
-13.8159897621
 31
0.0
  0
LINE
  5
3E0
330
1F
100
AcDbEntity
  8
0
  6
Continuous
 62
     7
370
    25
100
AcDbLine
 10
208.5710045495
 20
-15.2534002975
 30
0.0
 11
209.9125877159
 21
-12.7957276977
 31
0.0
  0
LINE
  5
3E1
330
1F
100
AcDbEntity
  8
0
  6
Continuous
 62
     7
370
    25
100
AcDbLine
 10
258.497190438
 20
-178.1815171507
 30
0.0
 11
256.0395178382
 21
-176.8399339843
 31
0.0
  0
LINE
  5
3E2
330
1F
100
AcDbEntity
  8
0
  6
Continuous
 62
     7
370
    25
100
AcDbLine
 10
254.6021073028
 20
-179.4731546269
 30
0.0
 11
257.0597799025
 21
-180.8147377933
 31
0.0
  0
LINE
  5
3E3
330
1F
100
AcDbEntity
  8
0
  6
Continuous
 62
     7
370
    25
100
AcDbLine
 10
239.0661055114
 20
-170.9924324679
 30
0.0
 11
241.5237781112
 21
-172.3340156343
 31
0.0
  0
LINE
  5
3E4
330
1F
100
AcDbEntity
  8
0
  6
Continuous
 62
     7
370
    25
100
AcDbLine
 10
242.9611886466
 20
-169.7007949917
 30
0.0
 11
240.5035160468
 21
-168.3592118253
 31
0.0
  0
LINE
  5
3E5
330
1F
100
AcDbEntity
  8
0
  6
Continuous
 62
     7
370
    25
100
AcDbLine
 10
261.5537160742
 20
-168.3582226562
 30
0.0
 11
248.0728011213
 21
-151.7052253304
 31
0.0
  0
LINE
  5
3E6
330
1F
100
AcDbEntity
  8
0
  6
Continuous
 62
     7
370
    25
100
AcDbLine
 10
257.6579871883
 20
-191.3250521708
 30
0.0
 11
261.9477511877
 21
-181.7740274864
 31
0.0
  0
LINE
  5
3E7
330
1F
100
AcDbEntity
  8
0
  6
Continuous
 62
     7
370
    25
100
AcDbLine
 10
241.5945952976
 20
-187.7530780224
 30
0.0
 11
250.368508447
 21
-193.4664479332
 31
0.0
  0
LINE
  5
3E8
330
1F
100
AcDbEntity
  8
0
  6
Continuous
 62
     7
370
    25
100
AcDbLine
 10
237.0021437763
 20
-154.9574000835
 30
0.0
 11
234.6700088668
 21
-176.2557224274
 31
0.0
  0
LINE
  5
3E9
330
1F
100
AcDbEntity
  8
0
  6
Continuous
 62
     7
370
    25
100
AcDbLine
 10
216.3614124602
 20
-81.9655649523
 30
0.0
 11
236.6561293482
 21
-151.0503693183
 31
0.0
  0
LINE
  5
3EA
330
1F
100
AcDbEntity
  8
0
  6
Continuous
 62
     7
370
    25
100
AcDbLine
 10
202.5865386389
 20
-55.3574680845
 30
0.0
 11
215.6170447191
 21
-80.1285900862
 31
0.0
  0
LINE
  5
3EB
330
1F
100
AcDbEntity
  8
0
  6
Continuous
 62
     7
370
    25
100
AcDbLine
 10
207.8061032098
 20
-43.6241945624
 30
0.0
 11
203.0087420029
 21
-50.0335723039
 31
0.0
  0
LINE
  5
3EC
330
1F
100
AcDbEntity
  8
0
  6
Continuous
 62
     7
370
    25
100
AcDbLine
 10
220.1429377996
 20
-49.1109180988
 30
0.0
 11
212.0055213515
 21
-43.0201355662
 31
0.0
  0
LINE
  5
3ED
330
1F
100
AcDbEntity
  8
0
  6
Continuous
 62
     7
370
    25
100
AcDbLine
 10
225.5734835594
 20
-77.4580528294
 30
0.0
 11
222.0993328571
 21
-52.4264514788
 31
0.0
  0
LINE
  5
3EE
330
1F
100
AcDbEntity
  8
0
  6
Continuous
 62
     7
370
    25
100
AcDbLine
 10
246.2506990472
 20
-148.2318178656
 30
0.0
 11
225.8839692178
 21
-78.9018758121
 31
0.0
  0
LINE
  5
3EF
330
1F
100
AcDbEntity
  8
0
  6
Continuous
 62
     7
370
    25
100
AcDbLine
 10
245.1871056333
 20
-184.3025172726
 30
0.0
 11
246.5286887997
 21
-181.8448446728
 31
0.0
  0
LINE
  5
3F0
330
1F
100
AcDbEntity
  8
0
  6
Continuous
 62
     7
370
    25
100
AcDbLine
 10
243.8954681571
 20
-180.4074341374
 30
0.0
 11
242.5538849907
 21
-182.8651067372
 31
0.0
  0
LINE
  5
3F1
330
1F
100
AcDbEntity
  8
0
  6
Continuous
 62
     7
370
    25
100
AcDbLine
 10
252.3761903161
 20
-164.871432346
 30
0.0
 11
251.0346071497
 21
-167.3291049458
 31
0.0
  0
LINE
  5
3F2
330
1F
100
AcDbEntity
  8
0
  6
Continuous
 62
     7
370
    25
100
AcDbLine
 10
253.6678277923
 20
-168.7665154812
 30
0.0
 11
255.0094109587
 21
-166.3088428814
 31
0.0
  0
LINE
  5
3F3
330
1F
100
AcDbEntity
  8
0
  6
Continuous
 62
     7
370
    25
100
AcDbLine
 10
183.7738544156
 20
-81.159090115
 30
0.0
 11
186.2315270153
 21
-82.5006732814
 31
0.0
  0
LINE
  5
3F4
330
1F
100
AcDbEntity
  8
0
  6
Continuous
 62
     7
370
    25
100
AcDbLine
 10
187.6689375507
 20
-79.8674526388
 30
0.0
 11
185.211264951
 21
-78.5258694724
 31
0.0
  0
LINE
  5
3F5
330
1F
100
AcDbEntity
  8
0
  6
Continuous
 62
     7
370
    25
100
AcDbLine
 10
203.2049393421
 20
-88.3481747978
 30
0.0
 11
200.7472667424
 21
-87.0065916314
 31
0.0
  0
LINE
  5
3F6
330
1F
100
AcDbEntity
  8
0
  6
Continuous
 62
     7
370
    25
100
AcDbLine
 10
199.3098562069
 20
-89.639812274
 30
0.0
 11
201.7675288067
 21
-90.9813954404
 31
0.0
  0
LINE
  5
3F7
330
1F
100
AcDbEntity
  8
0
  6
Continuous
 62
     7
370
    25
100
AcDbLine
 10
184.6130576652
 20
-68.0155550949
 30
0.0
 11
180.3232936658
 21
-77.5665797793
 31
0.0
  0
LINE
  5
3F8
330
1F
100
AcDbEntity
  8
0
  6
Continuous
 62
     7
370
    25
100
AcDbLine
 10
200.676449556
 20
-71.5875292434
 30
0.0
 11
191.9025364065
 21
-65.8741593325
 31
0.0
  0
LINE
  5
3F9
330
1F
100
AcDbEntity
  8
0
  6
Continuous
 62
     7
370
    25
100
AcDbLine
 10
205.2689010773
 20
-104.3832071822
 30
0.0
 11
207.6010359867
 21
-83.0848848383
 31
0.0
  0
LINE
  5
3FA
330
1F
100
AcDbEntity
  8
0
  6
Continuous
 62
     7
370
    25
100
AcDbLine
 10
217.4539780353
 20
-148.5913332165
 30
0.0
 11
205.6149155053
 21
-108.2902379474
 31
0.0
  0
LINE
  5
3FB
330
1F
100
AcDbEntity
  8
0
  6
Continuous
 62
     7
370
    25
100
AcDbLine
 10
231.2288518566
 20
-175.1994300843
 30
0.0
 11
218.1983457764
 21
-150.4283080826
 31
0.0
  0
LINE
  5
3FC
330
1F
100
AcDbEntity
  8
0
  6
Continuous
 62
     7
370
    25
100
AcDbLine
 10
226.0092872857
 20
-186.9327036063
 30
0.0
 11
230.8066484926
 21
-180.5233258649
 31
0.0
  0
LINE
  5
3FD
330
1F
100
AcDbEntity
  8
0
  6
Continuous
 62
     7
370
    25
100
AcDbLine
 10
213.6724526959
 20
-181.44598007
 30
0.0
 11
221.809869144
 21
-187.5367626026
 31
0.0
  0
LINE
  5
3FE
330
1F
100
AcDbEntity
  8
0
  6
Continuous
 62
     7
370
    25
100
AcDbLine
 10
208.2419069361
 20
-153.0988453394
 30
0.0
 11
211.7160576384
 21
-178.13044669
 31
0.0
  0
LINE
  5
3FF
330
1F
100
AcDbEntity
  8
0
  6
Continuous
 62
     7
370
    25
100
AcDbLine
 10
196.0203458063
 20
-111.1087894001
 30
0.0
 11
207.9314212777
 21
-151.6550223567
 31
0.0
  0
LINE
  5
400
330
1F
100
AcDbEntity
  8
0
  6
Continuous
 62
     7
370
    25
100
AcDbLine
 10
197.0839392202
 20
-75.0380899931
 30
0.0
 11
195.7423560538
 21
-77.4957625929
 31
0.0
  0
LINE
  5
401
330
1F
100
AcDbEntity
  8
0
  6
Continuous
 62
     7
370
    25
100
AcDbLine
 10
198.3755766964
 20
-78.9331731283
 30
0.0
 11
199.7171598628
 21
-76.4755005285
 31
0.0
  0
LINE
  5
402
330
1F
100
AcDbEntity
  8
0
  6
Continuous
 62
     7
370
    25
100
AcDbLine
 10
189.8948545374
 20
-94.4691749197
 30
0.0
 11
191.2364377038
 21
-92.0115023199
 31
0.0
  0
LINE
  5
403
330
1F
100
AcDbEntity
  8
0
  6
Continuous
 62
     7
370
    25
100
AcDbLine
 10
188.6032170612
 20
-90.5740917845
 30
0.0
 11
187.2616338948
 21
-93.0317643843
 31
0.0
  0
LINE
  5
404
330
1F
100
AcDbEntity
  8
0
  6
Continuous
 62
     7
370
    25
100
AcDbLine
 10
180.7173287794
 20
-90.9823846095
 30
0.0
 11
194.1982437323
 21
-107.6353819353
 31
0.0
  0
LINE
  5
405
330
1F
100
AcDbEntity
  8
0
  6
Continuous
 62
     7
370
    25
100
AcDbLine
 10
188.3775046693
 20
87.6466028182
 30
0.0
 11
190.8351772691
 21
86.3050196518
 31
0.0
  0
LINE
  5
406
330
1F
100
AcDbEntity
  8
0
  6
Continuous
 62
     7
370
    25
100
AcDbLine
 10
192.2725878045
 20
88.9382402944
 30
0.0
 11
189.8149152047
 21
90.2798234608
 31
0.0
  0
LINE
  5
407
330
1F
100
AcDbEntity
  8
0
  6
Continuous
 62
     7
370
    25
100
AcDbLine
 10
207.8085895959
 20
80.4575181354
 30
0.0
 11
205.3509169961
 21
81.7991013018
 31
0.0
  0
LINE
  5
408
330
1F
100
AcDbEntity
  8
0
  6
Continuous
 62
     7
370
    25
100
AcDbLine
 10
203.9135064607
 20
79.1658806592
 30
0.0
 11
206.3711790604
 21
77.8242974928
 31
0.0
  0
LINE
  5
409
330
1F
100
AcDbEntity
  8
0
  6
Continuous
 62
     7
370
    25
100
AcDbLine
 10
189.2167079189
 20
100.7901378383
 30
0.0
 11
184.9269439195
 21
91.2391131539
 31
0.0
  0
LINE
  5
40A
330
1F
100
AcDbEntity
  8
0
  6
Continuous
 62
     7
370
    25
100
AcDbLine
 10
205.2800998097
 20
97.2181636898
 30
0.0
 11
196.5061866603
 21
102.9315336007
 31
0.0
  0
LINE
  5
40B
330
1F
100
AcDbEntity
  8
0
  6
Continuous
 62
     7
370
    25
100
AcDbLine
 10
209.872551331
 20
64.422485751
 30
0.0
 11
212.2046862404
 21
85.7208080949
 31
0.0
  0
LINE
  5
40C
330
1F
100
AcDbEntity
  8
0
  6
Continuous
 62
     7
370
    25
100
AcDbLine
 10
222.057628289
 20
20.2143597167
 30
0.0
 11
210.218565759
 21
60.5154549858
 31
0.0
  0
LINE
  5
40D
330
1F
100
AcDbEntity
  8
0
  6
Continuous
 62
     7
370
    25
100
AcDbLine
 10
235.8325021103
 20
-6.3937371511
 30
0.0
 11
222.8019960301
 21
18.3773848506
 31
0.0
  0
LINE
  5
40E
330
1F
100
AcDbEntity
  8
0
  6
Continuous
 62
     7
370
    25
100
AcDbLine
 10
230.6129375395
 20
-18.1270106732
 30
0.0
 11
235.4102987463
 21
-11.7176329317
 31
0.0
  0
LINE
  5
40F
330
1F
100
AcDbEntity
  8
0
  6
Continuous
 62
     7
370
    25
100
AcDbLine
 10
218.2761029496
 20
-12.6402871368
 30
0.0
 11
226.4135193977
 21
-18.7310696694
 31
0.0
  0
LINE
  5
410
330
1F
100
AcDbEntity
  8
0
  6
Continuous
 62
     7
370
    25
100
AcDbLine
 10
212.8455571899
 20
15.7068475938
 30
0.0
 11
216.3197078922
 21
-9.3247537568
 31
0.0
  0
LINE
  5
411
330
1F
100
AcDbEntity
  8
0
  6
Continuous
 62
     7
370
    25
100
AcDbLine
 10
200.62399606
 20
57.6969035331
 30
0.0
 11
212.5350715314
 21
17.1506705765
 31
0.0
  0
LINE
  5
412
330
1F
100
AcDbEntity
  8
0
  6
Continuous
 62
     7
370
    25
100
AcDbLine
 10
201.687589474
 20
93.7676029401
 30
0.0
 11
200.3460063076
 21
91.3099303403
 31
0.0
  0
LINE
  5
413
330
1F
100
AcDbEntity
  8
0
  6
Continuous
 62
     7
370
    25
100
AcDbLine
 10
202.9792269502
 20
89.8725198049
 30
0.0
 11
204.3208101166
 21
92.3301924046
 31
0.0
  0
LINE
  5
414
330
1F
100
AcDbEntity
  8
0
  6
Continuous
 62
     7
370
    25
100
AcDbLine
 10
194.4985047912
 20
74.3365180135
 30
0.0
 11
195.8400879576
 21
76.7941906133
 31
0.0
  0
LINE
  5
415
330
1F
100
AcDbEntity
  8
0
  6
Continuous
 62
     7
370
    25
100
AcDbLine
 10
193.206867315
 20
78.2316011487
 30
0.0
 11
191.8652841486
 21
75.7739285489
 31
0.0
  0
LINE
  5
416
330
1F
100
AcDbEntity
  8
0
  6
Continuous
 62
     7
370
    25
100
AcDbLine
 10
185.3209790331
 20
77.8233083237
 30
0.0
 11
198.801893986
 21
61.1703109979
 31
0.0
  0
LINE
  5
417
330
1F
100
AcDbEntity
  8
0
  6
Continuous
 62
     7
370
    25
100
AcDbLine
 10
233.4743279121
 20
-65.8665123655
 30
0.0
 11
235.9320005118
 21
-67.2080955319
 31
0.0
  0
LINE
  5
418
330
1F
100
AcDbEntity
  8
0
  6
Continuous
 62
     7
370
    25
100
AcDbLine
 10
237.3694110472
 20
-64.5748748893
 30
0.0
 11
234.9117384475
 21
-63.2332917229
 31
0.0
  0
LINE
  5
419
330
1F
100
AcDbEntity
  8
0
  6
Continuous
 62
     7
370
    25
100
AcDbLine
 10
252.9054128386
 20
-73.0555970483
 30
0.0
 11
250.4477402389
 21
-71.7140138819
 31
0.0
  0
LINE
  5
41A
330
1F
100
AcDbEntity
  8
0
  6
Continuous
 62
     7
370
    25
100
AcDbLine
 10
249.0103297034
 20
-74.3472345245
 30
0.0
 11
251.4680023032
 21
-75.6888176909
 31
0.0
  0
LINE
  5
41B
330
1F
100
AcDbEntity
  8
0
  6
Continuous
 62
     7
370
    25
100
AcDbLine
 10
234.3135311617
 20
-52.7229773455
 30
0.0
 11
230.0237671623
 21
-62.2740020298
 31
0.0
  0
LINE
  5
41C
330
1F
100
AcDbEntity
  8
0
  6
Continuous
 62
     7
370
    25
100
AcDbLine
 10
250.3769230525
 20
-56.2949514939
 30
0.0
 11
241.603009903
 21
-50.581581583
 31
0.0
  0
LINE
  5
41D
330
1F
100
AcDbEntity
  8
0
  6
Continuous
 62
     7
370
    25
100
AcDbLine
 10
254.9693745738
 20
-89.0906294328
 30
0.0
 11
257.3015094832
 21
-67.7923070889
 31
0.0
  0
LINE
  5
41E
330
1F
100
AcDbEntity
  8
0
  6
Continuous
 62
     7
370
    25
100
AcDbLine
 10
267.1544515318
 20
-133.298755467
 30
0.0
 11
255.3153890018
 21
-92.997660198
 31
0.0
  0
LINE
  5
41F
330
1F
100
AcDbEntity
  8
0
  6
Continuous
 62
     7
370
    25
100
AcDbLine
 10
280.9293253531
 20
-159.9068523348
 30
0.0
 11
267.8988192729
 21
-135.1357303331
 31
0.0
  0
LINE
  5
420
330
1F
100
AcDbEntity
  8
0
  6
Continuous
 62
     7
370
    25
100
AcDbLine
 10
275.7097607822
 20
-171.6401258569
 30
0.0
 11
280.5071219891
 21
-165.2307481154
 31
0.0
  0
LINE
  5
421
330
1F
100
AcDbEntity
  8
0
  6
Continuous
 62
     7
370
    25
100
AcDbLine
 10
263.3729261924
 20
-166.1534023205
 30
0.0
 11
271.5103426405
 21
-172.2441848531
 31
0.0
  0
LINE
  5
422
330
1F
100
AcDbEntity
  8
0
  6
Continuous
 62
     7
370
    25
100
AcDbLine
 10
257.9423804326
 20
-137.8062675899
 30
0.0
 11
261.4165311349
 21
-162.8378689406
 31
0.0
  0
LINE
  5
423
330
1F
100
AcDbEntity
  8
0
  6
Continuous
 62
     7
370
    25
100
AcDbLine
 10
245.7208193028
 20
-95.8162116506
 30
0.0
 11
257.6318947742
 21
-136.3624446072
 31
0.0
  0
LINE
  5
424
330
1F
100
AcDbEntity
  8
0
  6
Continuous
 62
     7
370
    25
100
AcDbLine
 10
246.7844127167
 20
-59.7455122437
 30
0.0
 11
245.4428295503
 21
-62.2031848434
 31
0.0
  0
LINE
  5
425
330
1F
100
AcDbEntity
  8
0
  6
Continuous
 62
     7
370
    25
100
AcDbLine
 10
248.0760501929
 20
-63.6405953788
 30
0.0
 11
249.4176333593
 21
-61.1829227791
 31
0.0
  0
LINE
  5
426
330
1F
100
AcDbEntity
  8
0
  6
Continuous
 62
     7
370
    25
100
AcDbLine
 10
239.5953280339
 20
-79.1765971702
 30
0.0
 11
240.9369112003
 21
-76.7189245705
 31
0.0
  0
LINE
  5
427
330
1F
100
AcDbEntity
  8
0
  6
Continuous
 62
     7
370
    25
100
AcDbLine
 10
238.3036905577
 20
-75.281514035
 30
0.0
 11
236.9621073913
 21
-77.7391866348
 31
0.0
  0
LINE
  5
428
330
1F
100
AcDbEntity
  8
0
  6
Continuous
 62
     7
370
    25
100
AcDbLine
 10
230.4178022759
 20
-75.6898068601
 30
0.0
 11
243.8987172288
 21
-92.3428041858
 31
0.0
  0
LINE
  5
429
330
1F
100
AcDbEntity
  8
0
  6
Continuous
 62
     7
370
    25
100
AcDbLine
 10
208.7967169415
 20
-193.4740949002
 30
0.0
 11
206.3390443417
 21
-192.1325117338
 31
0.0
  0
LINE
  5
42A
330
1F
100
AcDbEntity
  8
0
  6
Continuous
 62
     7
370
    25
100
AcDbLine
 10
204.9016338063
 20
-194.7657323764
 30
0.0
 11
207.359306406
 21
-196.1073155428
 31
0.0
  0
LINE
  5
42B
330
1F
100
AcDbEntity
  8
0
  6
Continuous
 62
     7
370
    25
100
AcDbLine
 10
189.3656320149
 20
-186.2850102174
 30
0.0
 11
191.8233046147
 21
-187.6265933838
 31
0.0
  0
LINE
  5
42C
330
1F
100
AcDbEntity
  8
0
  6
Continuous
 62
     7
370
    25
100
AcDbLine
 10
193.2607151501
 20
-184.9933727412
 30
0.0
 11
190.8030425503
 21
-183.6517895748
 31
0.0
  0
LINE
  5
42D
330
1F
100
AcDbEntity
  8
0
  6
Continuous
 62
     7
370
    25
100
AcDbLine
 10
211.8532425777
 20
-183.6508004057
 30
0.0
 11
198.3723276248
 21
-166.9978030799
 31
0.0
  0
LINE
  5
42E
330
1F
100
AcDbEntity
  8
0
  6
Continuous
 62
     7
370
    25
100
AcDbLine
 10
207.9575136918
 20
-206.6176299203
 30
0.0
 11
212.2472776912
 21
-197.0666052359
 31
0.0
  0
LINE
  5
42F
330
1F
100
AcDbEntity
  8
0
  6
Continuous
 62
     7
370
    25
100
AcDbLine
 10
191.8941218011
 20
-203.0456557718
 30
0.0
 11
200.6680349505
 21
-208.7590256827
 31
0.0
  0
LINE
  5
430
330
1F
100
AcDbEntity
  8
0
  6
Continuous
 62
     7
370
    25
100
AcDbLine
 10
187.3016702798
 20
-170.249977833
 30
0.0
 11
184.9695353703
 21
-191.5483001769
 31
0.0
  0
LINE
  5
431
330
1F
100
AcDbEntity
  8
0
  6
Continuous
 62
     7
370
    25
100
AcDbLine
 10
166.6609389637
 20
-97.2581427017
 30
0.0
 11
186.9556558517
 21
-166.3429470678
 31
0.0
  0
LINE
  5
432
330
1F
100
AcDbEntity
  8
0
  6
Continuous
 62
     7
370
    25
100
AcDbLine
 10
152.8860651424
 20
-70.650045834
 30
0.0
 11
165.9165712226
 21
-95.4211678357
 31
0.0
  0
LINE
  5
433
330
1F
100
AcDbEntity
  8
0
  6
Continuous
 62
     7
370
    25
100
AcDbLine
 10
158.1056297133
 20
-58.9167723119
 30
0.0
 11
153.3082685064
 21
-65.3261500533
 31
0.0
  0
LINE
  5
434
330
1F
100
AcDbEntity
  8
0
  6
Continuous
 62
     7
370
    25
100
AcDbLine
 10
170.4424643031
 20
-64.4034958483
 30
0.0
 11
162.305047855
 21
-58.3127133157
 31
0.0
  0
LINE
  5
435
330
1F
100
AcDbEntity
  8
0
  6
Continuous
 62
     7
370
    25
100
AcDbLine
 10
175.8730100629
 20
-92.7506305789
 30
0.0
 11
172.3988593606
 21
-67.7190292282
 31
0.0
  0
LINE
  5
436
330
1F
100
AcDbEntity
  8
0
  6
Continuous
 62
     7
370
    25
100
AcDbLine
 10
196.5502255507
 20
-163.5243956151
 30
0.0
 11
176.1834957213
 21
-94.1944535616
 31
0.0
  0
LINE
  5
437
330
1F
100
AcDbEntity
  8
0
  6
Continuous
 62
     7
370
    25
100
AcDbLine
 10
195.4866321368
 20
-199.5950950221
 30
0.0
 11
196.8282153032
 21
-197.1374224223
 31
0.0
  0
LINE
  5
438
330
1F
100
AcDbEntity
  8
0
  6
Continuous
 62
     7
370
    25
100
AcDbLine
 10
194.1949946606
 20
-195.7000118869
 30
0.0
 11
192.8534114942
 21
-198.1576844866
 31
0.0
  0
LINE
  5
439
330
1F
100
AcDbEntity
  8
0
  6
Continuous
 62
     7
370
    25
100
AcDbLine
 10
202.6757168196
 20
-180.1640100955
 30
0.0
 11
201.3341336532
 21
-182.6216826953
 31
0.0
  0
LINE
  5
43A
330
1F
100
AcDbEntity
  8
0
  6
Continuous
 62
     7
370
    25
100
AcDbLine
 10
203.9673542958
 20
-184.0590932307
 30
0.0
 11
205.3089374622
 21
-181.6014206309
 31
0.0
  0
LINE
  5
43B
330
1F
100
AcDbEntity
  8
0
  6
Continuous
 62
     7
370
    25
100
AcDbLine
 10
138.6770311728
 20
72.3540250687
 30
0.0
 11
141.1347037726
 21
71.0124419023
 31
0.0
  0
LINE
  5
43C
330
1F
100
AcDbEntity
  8
0
  6
Continuous
 62
     7
370
    25
100
AcDbLine
 10
142.572114308
 20
73.6456625449
 30
0.0
 11
140.1144417082
 21
74.9872457113
 31
0.0
  0
LINE
  5
43D
330
1F
100
AcDbEntity
  8
0
  6
Continuous
 62
     7
370
    25
100
AcDbLine
 10
158.1081160994
 20
65.1649403859
 30
0.0
 11
155.6504434996
 21
66.5065235523
 31
0.0
  0
LINE
  5
43E
330
1F
100
AcDbEntity
  8
0
  6
Continuous
 62
     7
370
    25
100
AcDbLine
 10
154.2130329642
 20
63.8733029097
 30
0.0
 11
156.6707055639
 21
62.5317197433
 31
0.0
  0
LINE
  5
43F
330
1F
100
AcDbEntity
  8
0
  6
Continuous
 62
     7
370
    25
100
AcDbLine
 10
135.6205055366
 20
62.5307305742
 30
0.0
 11
149.1014204895
 21
45.8777332484
 31
0.0
  0
LINE
  5
440
330
1F
100
AcDbEntity
  8
0
  6
Continuous
 62
     7
370
    25
100
AcDbLine
 10
139.5162344224
 20
85.4975600888
 30
0.0
 11
135.226470423
 21
75.9465354044
 31
0.0
  0
LINE
  5
441
330
1F
100
AcDbEntity
  8
0
  6
Continuous
 62
     7
370
    25
100
AcDbLine
 10
155.5796263132
 20
81.9255859404
 30
0.0
 11
146.8057131638
 21
87.6389558512
 31
0.0
  0
LINE
  5
442
330
1F
100
AcDbEntity
  8
0
  6
Continuous
 62
     7
370
    25
100
AcDbLine
 10
160.1720778345
 20
49.1299080015
 30
0.0
 11
162.5042127439
 21
70.4282303454
 31
0.0
  0
LINE
  5
443
330
1F
100
AcDbEntity
  8
0
  6
Continuous
 62
     7
370
    25
100
AcDbLine
 10
172.3571547925
 20
4.9217819672
 30
0.0
 11
160.5180922625
 21
45.2228772363
 31
0.0
  0
LINE
  5
444
330
1F
100
AcDbEntity
  8
0
  6
Continuous
 62
     7
370
    25
100
AcDbLine
 10
186.1320286138
 20
-21.6863149006
 30
0.0
 11
173.1015225336
 21
3.0848071012
 31
0.0
  0
LINE
  5
445
330
1F
100
AcDbEntity
  8
0
  6
Continuous
 62
     7
370
    25
100
AcDbLine
 10
180.912464043
 20
-33.4195884226
 30
0.0
 11
185.7098252498
 21
-27.0102106812
 31
0.0
  0
LINE
  5
446
330
1F
100
AcDbEntity
  8
0
  6
Continuous
 62
     7
370
    25
100
AcDbLine
 10
168.5756294531
 20
-27.9328648863
 30
0.0
 11
176.7130459012
 21
-34.0236474188
 31
0.0
  0
LINE
  5
447
330
1F
100
AcDbEntity
  8
0
  6
Continuous
 62
     7
370
    25
100
AcDbLine
 10
163.1450836934
 20
0.4142698444
 30
0.0
 11
166.6192343957
 21
-24.6173315063
 31
0.0
  0
LINE
  5
448
330
1F
100
AcDbEntity
  8
0
  6
Continuous
 62
     7
370
    25
100
AcDbLine
 10
150.9235225635
 20
42.4043257836
 30
0.0
 11
162.8345980349
 21
1.858092827
 31
0.0
  0
LINE
  5
449
330
1F
100
AcDbEntity
  8
0
  6
Continuous
 62
     7
370
    25
100
AcDbLine
 10
151.9871159775
 20
78.4750251906
 30
0.0
 11
150.6455328111
 21
76.0173525908
 31
0.0
  0
LINE
  5
44A
330
1F
100
AcDbEntity
  8
0
  6
Continuous
 62
     7
370
    25
100
AcDbLine
 10
153.2787534537
 20
74.5799420554
 30
0.0
 11
154.6203366201
 21
77.0376146552
 31
0.0
  0
LINE
  5
44B
330
1F
100
AcDbEntity
  8
0
  6
Continuous
 62
     7
370
    25
100
AcDbLine
 10
144.7980312947
 20
59.043940264
 30
0.0
 11
146.1396144611
 21
61.5016128638
 31
0.0
  0
LINE
  5
44C
330
1F
100
AcDbEntity
  8
0
  6
Continuous
 62
     7
370
    25
100
AcDbLine
 10
143.5063938185
 20
62.9390233992
 30
0.0
 11
142.1648106521
 21
60.4813507994
 31
0.0
  0
LINE
  5
44D
330
1F
100
AcDbEntity
  8
0
  6
Continuous
 62
     7
370
    25
100
AcDbLine
 10
88.9765576763
 20
57.0614473192
 30
0.0
 11
91.4342302761
 21
55.7198641528
 31
0.0
  0
LINE
  5
44E
330
1F
100
AcDbEntity
  8
0
  6
Continuous
 62
     7
370
    25
100
AcDbLine
 10
92.8716408115
 20
58.3530847954
 30
0.0
 11
90.4139682117
 21
59.6946679618
 31
0.0
  0
LINE
  5
44F
330
1F
100
AcDbEntity
  8
0
  6
Continuous
 62
     7
370
    25
100
AcDbLine
 10
108.4076426029
 20
49.8723626365
 30
0.0
 11
105.9499700031
 21
51.2139458028
 31
0.0
  0
LINE
  5
450
330
1F
100
AcDbEntity
  8
0
  6
Continuous
 62
     7
370
    25
100
AcDbLine
 10
104.5125594677
 20
48.5807251602
 30
0.0
 11
106.9702320674
 21
47.2391419938
 31
0.0
  0
LINE
  5
451
330
1F
100
AcDbEntity
  8
0
  6
Continuous
 62
     7
370
    25
100
AcDbLine
 10
85.9200320401
 20
47.2381528247
 30
0.0
 11
99.400946993
 21
30.5851554989
 31
0.0
  0
LINE
  5
452
330
1F
100
AcDbEntity
  8
0
  6
Continuous
 62
     7
370
    25
100
AcDbLine
 10
89.8157609259
 20
70.2049823393
 30
0.0
 11
85.5259969265
 21
60.653957655
 31
0.0
  0
LINE
  5
453
330
1F
100
AcDbEntity
  8
0
  6
Continuous
 62
     7
370
    25
100
AcDbLine
 10
105.8791528167
 20
66.6330081909
 30
0.0
 11
97.1052396673
 21
72.3463781018
 31
0.0
  0
LINE
  5
454
330
1F
100
AcDbEntity
  8
0
  6
Continuous
 62
     7
370
    25
100
AcDbLine
 10
110.471604338
 20
33.837330252
 30
0.0
 11
112.8037392474
 21
55.1356525959
 31
0.0
  0
LINE
  5
455
330
1F
100
AcDbEntity
  8
0
  6
Continuous
 62
     7
370
    25
100
AcDbLine
 10
122.656681296
 20
-10.3707957823
 30
0.0
 11
110.817618766
 21
29.9302994868
 31
0.0
  0
LINE
  5
456
330
1F
100
AcDbEntity
  8
0
  6
Continuous
 62
     7
370
    25
100
AcDbLine
 10
136.4315551173
 20
-36.97889265
 30
0.0
 11
123.4010490371
 21
-12.2077706483
 31
0.0
  0
LINE
  5
457
330
1F
100
AcDbEntity
  8
0
  6
Continuous
 62
     7
370
    25
100
AcDbLine
 10
131.2119905465
 20
-48.7121661721
 30
0.0
 11
136.0093517533
 21
-42.3027884307
 31
0.0
  0
LINE
  5
458
330
1F
100
AcDbEntity
  8
0
  6
Continuous
 62
     7
370
    25
100
AcDbLine
 10
118.8751559566
 20
-43.2254426357
 30
0.0
 11
127.0125724047
 21
-49.3162251683
 31
0.0
  0
LINE
  5
459
330
1F
100
AcDbEntity
  8
0
  6
Continuous
 62
     7
370
    25
100
AcDbLine
 10
113.4446101969
 20
-14.8783079051
 30
0.0
 11
116.9187608992
 21
-39.9099092558
 31
0.0
  0
LINE
  5
45A
330
1F
100
AcDbEntity
  8
0
  6
Continuous
 62
     7
370
    25
100
AcDbLine
 10
101.223049067
 20
27.1117480342
 30
0.0
 11
113.1341245384
 21
-13.4344849224
 31
0.0
  0
LINE
  5
45B
330
1F
100
AcDbEntity
  8
0
  6
Continuous
 62
     7
370
    25
100
AcDbLine
 10
102.286642481
 20
63.1824474411
 30
0.0
 11
100.9450593146
 21
60.7247748414
 31
0.0
  0
LINE
  5
45C
330
1F
100
AcDbEntity
  8
0
  6
Continuous
 62
     7
370
    25
100
AcDbLine
 10
103.5782799572
 20
59.2873643059
 30
0.0
 11
104.9198631236
 21
61.7450369057
 31
0.0
  0
LINE
  5
45D
330
1F
100
AcDbEntity
  8
0
  6
Continuous
 62
     7
370
    25
100
AcDbLine
 10
95.0975577982
 20
43.7513625146
 30
0.0
 11
96.4391409646
 21
46.2090351143
 31
0.0
  0
LINE
  5
45E
330
1F
100
AcDbEntity
  8
0
  6
Continuous
 62
     7
370
    25
100
AcDbLine
 10
93.805920322
 20
47.6464456497
 30
0.0
 11
92.4643371556
 21
45.18877305
 31
0.0
  0
LINE
  5
45F
330
1F
100
AcDbEntity
  8
0
  6
Continuous
 62
     7
370
    25
100
AcDbLine
 10
159.096243445
 20
-208.7666726496
 30
0.0
 11
156.6385708452
 21
-207.4250894832
 31
0.0
  0
LINE
  5
460
330
1F
100
AcDbEntity
  8
0
  6
Continuous
 62
     7
370
    25
100
AcDbLine
 10
155.2011603098
 20
-210.0583101259
 30
0.0
 11
157.6588329095
 21
-211.3998932923
 31
0.0
  0
LINE
  5
461
330
1F
100
AcDbEntity
  8
0
  6
Continuous
 62
     7
370
    25
100
AcDbLine
 10
139.6651585184
 20
-201.5775879669
 30
0.0
 11
142.1228311182
 21
-202.9191711333
 31
0.0
  0
LINE
  5
462
330
1F
100
AcDbEntity
  8
0
  6
Continuous
 62
     7
370
    25
100
AcDbLine
 10
143.5602416536
 20
-200.2859504906
 30
0.0
 11
141.1025690538
 21
-198.9443673243
 31
0.0
  0
LINE
  5
463
330
1F
100
AcDbEntity
  8
0
  6
Continuous
 62
     7
370
    25
100
AcDbLine
 10
162.1527690812
 20
-198.9433781551
 30
0.0
 11
148.6718541282
 21
-182.2903808293
 31
0.0
  0
LINE
  5
464
330
1F
100
AcDbEntity
  8
0
  6
Continuous
 62
     7
370
    25
100
AcDbLine
 10
158.2570401953
 20
-221.9102076697
 30
0.0
 11
162.5468041947
 21
-212.3591829854
 31
0.0
  0
LINE
  5
465
330
1F
100
AcDbEntity
  8
0
  6
Continuous
 62
     7
370
    25
100
AcDbLine
 10
142.1936483046
 20
-218.3382335213
 30
0.0
 11
150.967561454
 21
-224.0516034322
 31
0.0
  0
LINE
  5
466
330
1F
100
AcDbEntity
  8
0
  6
Continuous
 62
     7
370
    25
100
AcDbLine
 10
137.6011967833
 20
-185.5425555824
 30
0.0
 11
135.2690618738
 21
-206.8408779263
 31
0.0
  0
LINE
  5
467
330
1F
100
AcDbEntity
  8
0
  6
Continuous
 62
     7
370
    25
100
AcDbLine
 10
116.9604654672
 20
-112.5507204512
 30
0.0
 11
137.2551823552
 21
-181.6355248172
 31
0.0
  0
LINE
  5
468
330
1F
100
AcDbEntity
  8
0
  6
Continuous
 62
     7
370
    25
100
AcDbLine
 10
103.1855916459
 20
-85.9426235834
 30
0.0
 11
116.2160977261
 21
-110.7137455851
 31
0.0
  0
LINE
  5
469
330
1F
100
AcDbEntity
  8
0
  6
Continuous
 62
     7
370
    25
100
AcDbLine
 10
108.4051562168
 20
-74.2093500614
 30
0.0
 11
103.6077950099
 21
-80.6187278028
 31
0.0
  0
LINE
  5
46A
330
1F
100
AcDbEntity
  8
0
  6
Continuous
 62
     7
370
    25
100
AcDbLine
 10
120.7419908066
 20
-79.6960735977
 30
0.0
 11
112.6045743585
 21
-73.6052910651
 31
0.0
  0
LINE
  5
46B
330
1F
100
AcDbEntity
  8
0
  6
Continuous
 62
     7
370
    25
100
AcDbLine
 10
126.1725365664
 20
-108.0432083284
 30
0.0
 11
122.6983858641
 21
-83.0116069777
 31
0.0
  0
LINE
  5
46C
330
1F
100
AcDbEntity
  8
0
  6
Continuous
 62
     7
370
    25
100
AcDbLine
 10
146.8497520542
 20
-178.8169733646
 30
0.0
 11
126.4830222248
 21
-109.487031311
 31
0.0
  0
LINE
  5
46D
330
1F
100
AcDbEntity
  8
0
  6
Continuous
 62
     7
370
    25
100
AcDbLine
 10
145.7861586403
 20
-214.8876727715
 30
0.0
 11
147.1277418067
 21
-212.4300001718
 31
0.0
  0
LINE
  5
46E
330
1F
100
AcDbEntity
  8
0
  6
Continuous
 62
     7
370
    25
100
AcDbLine
 10
144.4945211641
 20
-210.9925896364
 30
0.0
 11
143.1529379977
 21
-213.4502622361
 31
0.0
  0
LINE
  5
46F
330
1F
100
AcDbEntity
  8
0
  6
Continuous
 62
     7
370
    25
100
AcDbLine
 10
152.9752433231
 20
-195.456587845
 30
0.0
 11
151.6336601567
 21
-197.9142604447
 31
0.0
  0
LINE
  5
470
330
1F
100
AcDbEntity
  8
0
  6
Continuous
 62
     7
370
    25
100
AcDbLine
 10
154.2668807993
 20
-199.3516709802
 30
0.0
 11
155.6084639657
 21
-196.8939983804
 31
0.0
  0
LINE
  5
471
330
1F
100
AcDbEntity
  8
0
  6
Continuous
 62
     7
370
    25
100
AcDbLine
 10
39.2760841798
 20
41.7688695698
 30
0.0
 11
41.7337567795
 21
40.4272864034
 31
0.0
  0
LINE
  5
472
330
1F
100
AcDbEntity
  8
0
  6
Continuous
 62
     7
370
    25
100
AcDbLine
 10
43.171167315
 20
43.060507046
 30
0.0
 11
40.7134947152
 21
44.4020902124
 31
0.0
  0
LINE
  5
473
330
1F
100
AcDbEntity
  8
0
  6
Continuous
 62
     7
370
    25
100
AcDbLine
 10
58.7071691064
 20
34.579784887
 30
0.0
 11
56.2494965066
 21
35.9213680534
 31
0.0
  0
LINE
  5
474
330
1F
100
AcDbEntity
  8
0
  6
Continuous
 62
     7
370
    25
100
AcDbLine
 10
54.8120859712
 20
33.2881474108
 30
0.0
 11
57.2697585709
 21
31.9465642444
 31
0.0
  0
LINE
  5
475
330
1F
100
AcDbEntity
  8
0
  6
Continuous
 62
     7
370
    25
100
AcDbLine
 10
36.2195585436
 20
31.9455750752
 30
0.0
 11
49.7004734965
 21
15.2925777495
 31
0.0
  0
LINE
  5
476
330
1F
100
AcDbEntity
  8
0
  6
Continuous
 62
     7
370
    25
100
AcDbLine
 10
40.1152874294
 20
54.9124045899
 30
0.0
 11
35.82552343
 21
45.3613799055
 31
0.0
  0
LINE
  5
477
330
1F
100
AcDbEntity
  8
0
  6
Continuous
 62
     7
370
    25
100
AcDbLine
 10
56.1786793202
 20
51.3404304414
 30
0.0
 11
47.4047661708
 21
57.0538003523
 31
0.0
  0
LINE
  5
478
330
1F
100
AcDbEntity
  8
0
  6
Continuous
 62
     7
370
    25
100
AcDbLine
 10
60.7711308415
 20
18.5447525026
 30
0.0
 11
63.1032657509
 21
39.8430748464
 31
0.0
  0
LINE
  5
479
330
1F
100
AcDbEntity
  8
0
  6
Continuous
 62
     7
370
    25
100
AcDbLine
 10
72.9562077995
 20
-25.6633735317
 30
0.0
 11
61.1171452695
 21
14.6377217374
 31
0.0
  0
LINE
  5
47A
330
1F
100
AcDbEntity
  8
0
  6
Continuous
 62
     7
370
    25
100
AcDbLine
 10
86.7310816208
 20
-52.2714703995
 30
0.0
 11
73.7005755406
 21
-27.5003483978
 31
0.0
  0
LINE
  5
47B
330
1F
100
AcDbEntity
  8
0
  6
Continuous
 62
     7
370
    25
100
AcDbLine
 10
81.51151705
 20
-64.0047439216
 30
0.0
 11
86.3088782568
 21
-57.5953661801
 31
0.0
  0
LINE
  5
47C
330
1F
100
AcDbEntity
  8
0
  6
Continuous
 62
     7
370
    25
100
AcDbLine
 10
69.1746824601
 20
-58.5180203852
 30
0.0
 11
77.3120989082
 21
-64.6088029178
 31
0.0
  0
LINE
  5
47D
330
1F
100
AcDbEntity
  8
0
  6
Continuous
 62
     7
370
    25
100
AcDbLine
 10
63.7441367004
 20
-30.1708856546
 30
0.0
 11
67.2182874027
 21
-55.2024870052
 31
0.0
  0
LINE
  5
47E
330
1F
100
AcDbEntity
  8
0
  6
Continuous
 62
     7
370
    25
100
AcDbLine
 10
51.5225755705
 20
11.8191702847
 30
0.0
 11
63.4336510419
 21
-28.7270626719
 31
0.0
  0
LINE
  5
47F
330
1F
100
AcDbEntity
  8
0
  6
Continuous
 62
     7
370
    25
100
AcDbLine
 10
52.5861689845
 20
47.8898696917
 30
0.0
 11
51.2445858181
 21
45.4321970919
 31
0.0
  0
LINE
  5
480
330
1F
100
AcDbEntity
  8
0
  6
Continuous
 62
     7
370
    25
100
AcDbLine
 10
53.8778064607
 20
43.9947865565
 30
0.0
 11
55.2193896271
 21
46.4524591562
 31
0.0
  0
LINE
  5
481
330
1F
100
AcDbEntity
  8
0
  6
Continuous
 62
     7
370
    25
100
AcDbLine
 10
45.3970843017
 20
28.4587847651
 30
0.0
 11
46.7386674681
 21
30.9164573649
 31
0.0
  0
LINE
  5
482
330
1F
100
AcDbEntity
  8
0
  6
Continuous
 62
     7
370
    25
100
AcDbLine
 10
44.1054468255
 20
32.3538679003
 30
0.0
 11
42.7638636591
 21
29.8961953005
 31
0.0
  0
LINE
  5
483
330
1F
100
AcDbEntity
  8
0
  6
Continuous
 62
     7
370
    25
100
AcDbLine
 10
109.3957699485
 20
-224.0592503991
 30
0.0
 11
106.9380973487
 21
-222.7176672327
 31
0.0
  0
LINE
  5
484
330
1F
100
AcDbEntity
  8
0
  6
Continuous
 62
     7
370
    25
100
AcDbLine
 10
105.5006868133
 20
-225.3508878753
 30
0.0
 11
107.958359413
 21
-226.6924710417
 31
0.0
  0
LINE
  5
485
330
1F
100
AcDbEntity
  8
0
  6
Continuous
 62
     7
370
    25
100
AcDbLine
 10
89.9646850219
 20
-216.8701657163
 30
0.0
 11
92.4223576217
 21
-218.2117488827
 31
0.0
  0
LINE
  5
486
330
1F
100
AcDbEntity
  8
0
  6
Continuous
 62
     7
370
    25
100
AcDbLine
 10
93.8597681571
 20
-215.5785282401
 30
0.0
 11
91.4020955573
 21
-214.2369450737
 31
0.0
  0
LINE
  5
487
330
1F
100
AcDbEntity
  8
0
  6
Continuous
 62
     7
370
    25
100
AcDbLine
 10
112.4522955847
 20
-214.2359559046
 30
0.0
 11
98.9713806317
 21
-197.5829585788
 31
0.0
  0
LINE
  5
488
330
1F
100
AcDbEntity
  8
0
  6
Continuous
 62
     7
370
    25
100
AcDbLine
 10
108.5565666988
 20
-237.2027854192
 30
0.0
 11
112.8463306982
 21
-227.6517607348
 31
0.0
  0
LINE
  5
489
330
1F
100
AcDbEntity
  8
0
  6
Continuous
 62
     7
370
    25
100
AcDbLine
 10
92.4931748081
 20
-233.6308112708
 30
0.0
 11
101.2670879575
 21
-239.3441811816
 31
0.0
  0
LINE
  5
48A
330
1F
100
AcDbEntity
  8
0
  6
Continuous
 62
     7
370
    25
100
AcDbLine
 10
87.9007232868
 20
-200.8351333319
 30
0.0
 11
85.5685883773
 21
-222.1334556758
 31
0.0
  0
LINE
  5
48B
330
1F
100
AcDbEntity
  8
0
  6
Continuous
 62
     7
370
    25
100
AcDbLine
 10
67.2599919707
 20
-127.8432982007
 30
0.0
 11
87.5547088587
 21
-196.9281025667
 31
0.0
  0
LINE
  5
48C
330
1F
100
AcDbEntity
  8
0
  6
Continuous
 62
     7
370
    25
100
AcDbLine
 10
53.4851181494
 20
-101.2352013329
 30
0.0
 11
66.5156242296
 21
-126.0063233346
 31
0.0
  0
LINE
  5
48D
330
1F
100
AcDbEntity
  8
0
  6
Continuous
 62
     7
370
    25
100
AcDbLine
 10
58.7046827203
 20
-89.5019278108
 30
0.0
 11
53.9073215134
 21
-95.9113055523
 31
0.0
  0
LINE
  5
48E
330
1F
100
AcDbEntity
  8
0
  6
Continuous
 62
     7
370
    25
100
AcDbLine
 10
71.0415173101
 20
-94.9886513472
 30
0.0
 11
62.904100862
 21
-88.8978688146
 31
0.0
  0
LINE
  5
48F
330
1F
100
AcDbEntity
  8
0
  6
Continuous
 62
     7
370
    25
100
AcDbLine
 10
76.4720630699
 20
-123.3357860778
 30
0.0
 11
72.9979123676
 21
-98.3041847272
 31
0.0
  0
LINE
  5
490
330
1F
100
AcDbEntity
  8
0
  6
Continuous
 62
     7
370
    25
100
AcDbLine
 10
97.1492785577
 20
-194.109551114
 30
0.0
 11
76.7825487283
 21
-124.7796090605
 31
0.0
  0
LINE
  5
491
330
1F
100
AcDbEntity
  8
0
  6
Continuous
 62
     7
370
    25
100
AcDbLine
 10
96.0856851438
 20
-230.180250521
 30
0.0
 11
97.4272683102
 21
-227.7225779212
 31
0.0
  0
LINE
  5
492
330
1F
100
AcDbEntity
  8
0
  6
Continuous
 62
     7
370
    25
100
AcDbLine
 10
94.7940476676
 20
-226.2851673858
 30
0.0
 11
93.4524645012
 21
-228.7428399856
 31
0.0
  0
LINE
  5
493
330
1F
100
AcDbEntity
  8
0
  6
Continuous
 62
     7
370
    25
100
AcDbLine
 10
103.2747698266
 20
-210.7491655944
 30
0.0
 11
101.9331866602
 21
-213.2068381942
 31
0.0
  0
LINE
  5
494
330
1F
100
AcDbEntity
  8
0
  6
Continuous
 62
     7
370
    25
100
AcDbLine
 10
104.5664073028
 20
-214.6442487296
 30
0.0
 11
105.9079904692
 21
-212.1865761299
 31
0.0
  0
LINE
  5
495
330
1F
100
AcDbEntity
  8
0
  6
Continuous
 62
     7
370
    25
100
AcDbLine
 10
14.5984732092
 20
-85.8387129649
 30
0.0
 11
12.1408006094
 21
-84.4971297985
 31
0.0
  0
LINE
  5
496
330
1F
100
AcDbEntity
  8
0
  6
Continuous
 62
     7
370
    25
100
AcDbLine
 10
10.703390074
 20
-87.1303504411
 30
0.0
 11
13.1610626738
 21
-88.4719336075
 31
0.0
  0
LINE
  5
497
330
1F
100
AcDbEntity
  8
0
  6
Continuous
 62
     7
370
    25
100
AcDbLine
 10
-4.8326117174
 20
-78.6496282821
 30
0.0
 11
-2.3749391176
 21
-79.9912114485
 31
0.0
  0
LINE
  5
498
330
1F
100
AcDbEntity
  8
0
  6
Continuous
 62
     7
370
    25
100
AcDbLine
 10
-0.9375285822
 20
-77.3579908059
 30
0.0
 11
-3.395201182
 21
-76.0164076395
 31
0.0
  0
LINE
  5
499
330
1F
100
AcDbEntity
  8
0
  6
Continuous
 62
     7
370
    25
100
AcDbLine
 10
17.6549988454
 20
-76.0154184703
 30
0.0
 11
4.1740838925
 21
-59.3624211446
 31
0.0
  0
LINE
  5
49A
330
1F
100
AcDbEntity
  8
0
  6
Continuous
 62
     7
370
    25
100
AcDbLine
 10
13.7592699596
 20
-98.982247985
 30
0.0
 11
18.0490339589
 21
-89.4312233006
 31
0.0
  0
LINE
  5
49B
330
1F
100
AcDbEntity
  8
0
  6
Continuous
 62
     7
370
    25
100
AcDbLine
 10
-2.3041219312
 20
-95.4102738365
 30
0.0
 11
6.4697912182
 21
-101.1236437474
 31
0.0
  0
LINE
  5
49C
330
1F
100
AcDbEntity
  8
0
  6
Continuous
 62
     7
370
    25
100
AcDbLine
 10
-6.8965734525
 20
-62.6145958977
 30
0.0
 11
-9.2287083619
 21
-83.9129182415
 31
0.0
  0
LINE
  5
49D
330
1F
100
AcDbEntity
  8
0
  6
Continuous
 62
     7
370
    25
100
AcDbLine
 10
-27.5373047686
 20
10.3772392336
 30
0.0
 11
-7.2425878805
 21
-58.7075651325
 31
0.0
  0
LINE
  5
49E
330
1F
100
AcDbEntity
  8
0
  6
Continuous
 62
     7
370
    25
100
AcDbLine
 10
-41.3121785899
 20
36.9853361014
 30
0.0
 11
-28.2816725097
 21
12.2142140996
 31
0.0
  0
LINE
  5
49F
330
1F
100
AcDbEntity
  8
0
  6
Continuous
 62
     7
370
    25
100
AcDbLine
 10
-36.092614019
 20
48.7186096234
 30
0.0
 11
-40.8899752259
 21
42.309231882
 31
0.0
  0
LINE
  5
4A0
330
1F
100
AcDbEntity
  8
0
  6
Continuous
 62
     7
370
    25
100
AcDbLine
 10
-23.7557794292
 20
43.2318860871
 30
0.0
 11
-31.8931958773
 21
49.3226686196
 31
0.0
  0
LINE
  5
4A1
330
1F
100
AcDbEntity
  8
0
  6
Continuous
 62
     7
370
    25
100
AcDbLine
 10
-18.3252336694
 20
14.8847513564
 30
0.0
 11
-21.7993843717
 21
39.9163527071
 31
0.0
  0
LINE
  5
4A2
330
1F
100
AcDbEntity
  8
0
  6
Continuous
 62
     7
370
    25
100
AcDbLine
 10
2.3519818185
 20
-55.8890136798
 30
0.0
 11
-18.014748011
 21
13.4409283737
 31
0.0
  0
LINE
  5
4A3
330
1F
100
AcDbEntity
  8
0
  6
Continuous
 62
     7
370
    25
100
AcDbLine
 10
1.2883884045
 20
-91.9597130868
 30
0.0
 11
2.6299715709
 21
-89.502040487
 31
0.0
  0
LINE
  5
4A4
330
1F
100
AcDbEntity
  8
0
  6
Continuous
 62
     7
370
    25
100
AcDbLine
 10
-0.0032490717
 20
-88.0646299516
 30
0.0
 11
-1.3448322381
 21
-90.5223025513
 31
0.0
  0
LINE
  5
4A5
330
1F
100
AcDbEntity
  8
0
  6
Continuous
 62
     7
370
    25
100
AcDbLine
 10
8.4774730873
 20
-72.5286281602
 30
0.0
 11
7.1358899209
 21
-74.9863007599
 31
0.0
  0
LINE
  5
4A6
330
1F
100
AcDbEntity
  8
0
  6
Continuous
 62
     7
370
    25
100
AcDbLine
 10
9.7691105635
 20
-76.4237112954
 30
0.0
 11
11.1106937299
 21
-73.9660386956
 31
0.0
  0
LINE
  5
4A7
330
1F
100
AcDbEntity
  8
0
  6
Continuous
 62
     7
370
    25
100
AcDbLine
 10
84.3729074225
 20
-111.744245614
 30
0.0
 11
86.8305800223
 21
-113.0858287804
 31
0.0
  0
LINE
  5
4A8
330
1F
100
AcDbEntity
  8
0
  6
Continuous
 62
     7
370
    25
100
AcDbLine
 10
88.2679905577
 20
-110.4526081377
 30
0.0
 11
85.810317958
 21
-109.1110249714
 31
0.0
  0
LINE
  5
4A9
330
1F
100
AcDbEntity
  8
0
  6
Continuous
 62
     7
370
    25
100
AcDbLine
 10
103.8039923491
 20
-118.9333302967
 30
0.0
 11
101.3463197494
 21
-117.5917471303
 31
0.0
  0
LINE
  5
4AA
330
1F
100
AcDbEntity
  8
0
  6
Continuous
 62
     7
370
    25
100
AcDbLine
 10
99.9089092139
 20
-120.224967773
 30
0.0
 11
102.3665818137
 21
-121.5665509393
 31
0.0
  0
LINE
  5
4AB
330
1F
100
AcDbEntity
  8
0
  6
Continuous
 62
     7
370
    25
100
AcDbLine
 10
81.3163817863
 20
-121.5675401085
 30
0.0
 11
94.7972967393
 21
-138.2205374343
 31
0.0
  0
LINE
  5
4AC
330
1F
100
AcDbEntity
  8
0
  6
Continuous
 62
     7
370
    25
100
AcDbLine
 10
85.2121106722
 20
-98.6007105939
 30
0.0
 11
80.9223466728
 21
-108.1517352782
 31
0.0
  0
LINE
  5
4AD
330
1F
100
AcDbEntity
  8
0
  6
Continuous
 62
     7
370
    25
100
AcDbLine
 10
101.275502563
 20
-102.1726847423
 30
0.0
 11
92.5015894135
 21
-96.4593148314
 31
0.0
  0
LINE
  5
4AE
330
1F
100
AcDbEntity
  8
0
  6
Continuous
 62
     7
370
    25
100
AcDbLine
 10
105.8679540842
 20
-134.9683626812
 30
0.0
 11
108.2000889937
 21
-113.6700403373
 31
0.0
  0
LINE
  5
4AF
330
1F
100
AcDbEntity
  8
0
  6
Continuous
 62
     7
370
    25
100
AcDbLine
 10
118.0530310423
 20
-179.1764887155
 30
0.0
 11
106.2139685123
 21
-138.8753934464
 31
0.0
  0
LINE
  5
4B0
330
1F
100
AcDbEntity
  8
0
  6
Continuous
 62
     7
370
    25
100
AcDbLine
 10
131.8279048636
 20
-205.7845855832
 30
0.0
 11
118.7973987834
 21
-181.0134635815
 31
0.0
  0
LINE
  5
4B1
330
1F
100
AcDbEntity
  8
0
  6
Continuous
 62
     7
370
    25
100
AcDbLine
 10
126.6083402927
 20
-217.5178591053
 30
0.0
 11
131.4057014996
 21
-211.1084813638
 31
0.0
  0
LINE
  5
4B2
330
1F
100
AcDbEntity
  8
0
  6
Continuous
 62
     7
370
    25
100
AcDbLine
 10
114.2715057029
 20
-212.0311355689
 30
0.0
 11
122.408922151
 21
-218.1219181015
 31
0.0
  0
LINE
  5
4B3
330
1F
100
AcDbEntity
  8
0
  6
Continuous
 62
     7
370
    25
100
AcDbLine
 10
108.8409599431
 20
-183.6840008383
 30
0.0
 11
112.3151106454
 21
-208.715602189
 31
0.0
  0
LINE
  5
4B4
330
1F
100
AcDbEntity
  8
0
  6
Continuous
 62
     7
370
    25
100
AcDbLine
 10
96.6193988133
 20
-141.693944899
 30
0.0
 11
108.5304742847
 21
-182.2401778556
 31
0.0
  0
LINE
  5
4B5
330
1F
100
AcDbEntity
  8
0
  6
Continuous
 62
     7
370
    25
100
AcDbLine
 10
97.6829922272
 20
-105.6232454921
 30
0.0
 11
96.3414090608
 21
-108.0809180918
 31
0.0
  0
LINE
  5
4B6
330
1F
100
AcDbEntity
  8
0
  6
Continuous
 62
     7
370
    25
100
AcDbLine
 10
98.9746297034
 20
-109.5183286273
 30
0.0
 11
100.3162128698
 21
-107.0606560275
 31
0.0
  0
LINE
  5
4B7
330
1F
100
AcDbEntity
  8
0
  6
Continuous
 62
     7
370
    25
100
AcDbLine
 10
90.4939075444
 20
-125.0543304186
 30
0.0
 11
91.8354907108
 21
-122.5966578189
 31
0.0
  0
LINE
  5
4B8
330
1F
100
AcDbEntity
  8
0
  6
Continuous
 62
     7
370
    25
100
AcDbLine
 10
89.2022700682
 20
-121.1592472834
 30
0.0
 11
87.8606869018
 21
-123.6169198832
 31
0.0
  0
LINE
  5
4B9
330
1F
100
AcDbEntity
  8
0
  6
Continuous
 62
     7
370
    25
100
AcDbLine
 10
134.073380919
 20
-96.4516678645
 30
0.0
 11
136.5310535188
 21
-97.7932510309
 31
0.0
  0
LINE
  5
4BA
330
1F
100
AcDbEntity
  8
0
  6
Continuous
 62
     7
370
    25
100
AcDbLine
 10
137.9684640542
 20
-95.1600303883
 30
0.0
 11
135.5107914545
 21
-93.8184472219
 31
0.0
  0
LINE
  5
4BB
330
1F
100
AcDbEntity
  8
0
  6
Continuous
 62
     7
370
    25
100
AcDbLine
 10
153.5044658456
 20
-103.6407525473
 30
0.0
 11
151.0467932459
 21
-102.2991693809
 31
0.0
  0
LINE
  5
4BC
330
1F
100
AcDbEntity
  8
0
  6
Continuous
 62
     7
370
    25
100
AcDbLine
 10
149.6093827104
 20
-104.9323900235
 30
0.0
 11
152.0670553102
 21
-106.2739731899
 31
0.0
  0
LINE
  5
4BD
330
1F
100
AcDbEntity
  8
0
  6
Continuous
 62
     7
370
    25
100
AcDbLine
 10
131.0168552828
 20
-106.274962359
 30
0.0
 11
144.4977702358
 21
-122.9279596848
 31
0.0
  0
LINE
  5
4BE
330
1F
100
AcDbEntity
  8
0
  6
Continuous
 62
     7
370
    25
100
AcDbLine
 10
134.9125841687
 20
-83.3081328444
 30
0.0
 11
130.6228201693
 21
-92.8591575288
 31
0.0
  0
LINE
  5
4BF
330
1F
100
AcDbEntity
  8
0
  6
Continuous
 62
     7
370
    25
100
AcDbLine
 10
150.9759760595
 20
-86.8801069928
 30
0.0
 11
142.20206291
 21
-81.166737082
 31
0.0
  0
LINE
  5
4C0
330
1F
100
AcDbEntity
  8
0
  6
Continuous
 62
     7
370
    25
100
AcDbLine
 10
155.5684275807
 20
-119.6757849317
 30
0.0
 11
157.9005624902
 21
-98.3774625878
 31
0.0
  0
LINE
  5
4C1
330
1F
100
AcDbEntity
  8
0
  6
Continuous
 62
     7
370
    25
100
AcDbLine
 10
167.7535045388
 20
-163.883910966
 30
0.0
 11
155.9144420088
 21
-123.5828156969
 31
0.0
  0
LINE
  5
4C2
330
1F
100
AcDbEntity
  8
0
  6
Continuous
 62
     7
370
    25
100
AcDbLine
 10
181.5283783601
 20
-190.4920078338
 30
0.0
 11
168.4978722799
 21
-165.720885832
 31
0.0
  0
LINE
  5
4C3
330
1F
100
AcDbEntity
  8
0
  6
Continuous
 62
     7
370
    25
100
AcDbLine
 10
176.3088137892
 20
-202.2252813558
 30
0.0
 11
181.1061749961
 21
-195.8159036144
 31
0.0
  0
LINE
  5
4C4
330
1F
100
AcDbEntity
  8
0
  6
Continuous
 62
     7
370
    25
100
AcDbLine
 10
163.9719791994
 20
-196.7385578195
 30
0.0
 11
172.1093956475
 21
-202.829340352
 31
0.0
  0
LINE
  5
4C5
330
1F
100
AcDbEntity
  8
0
  6
Continuous
 62
     7
370
    25
100
AcDbLine
 10
158.5414334396
 20
-168.3914230888
 30
0.0
 11
162.0155841419
 21
-193.4230244395
 31
0.0
  0
LINE
  5
4C6
330
1F
100
AcDbEntity
  8
0
  6
Continuous
 62
     7
370
    25
100
AcDbLine
 10
146.3198723098
 20
-126.4013671496
 30
0.0
 11
158.2309477812
 21
-166.9476001061
 31
0.0
  0
LINE
  5
4C7
330
1F
100
AcDbEntity
  8
0
  6
Continuous
 62
     7
370
    25
100
AcDbLine
 10
147.3834657237
 20
-90.3306677426
 30
0.0
 11
146.0418825573
 21
-92.7883403424
 31
0.0
  0
LINE
  5
4C8
330
1F
100
AcDbEntity
  8
0
  6
Continuous
 62
     7
370
    25
100
AcDbLine
 10
148.6751031999
 20
-94.2257508778
 30
0.0
 11
150.0166863663
 21
-91.768078278
 31
0.0
  0
LINE
  5
4C9
330
1F
100
AcDbEntity
  8
0
  6
Continuous
 62
     7
370
    25
100
AcDbLine
 10
140.1943810409
 20
-109.7617526692
 30
0.0
 11
141.5359642073
 21
-107.3040800694
 31
0.0
  0
LINE
  5
4CA
330
1F
100
AcDbEntity
  8
0
  6
Continuous
 62
     7
370
    25
100
AcDbLine
 10
138.9027435647
 20
-105.866669534
 30
0.0
 11
137.5611603983
 21
-108.3243421337
 31
0.0
  0
LINE
  5
4CB
330
1F
100
AcDbEntity
  8
0
  6
Continuous
 62
     7
370
    25
100
AcDbLine
 10
113.9994202022
 20
-55.2535574659
 30
0.0
 11
111.5417476024
 21
-53.9119742995
 31
0.0
  0
LINE
  5
4CC
330
1F
100
AcDbEntity
  8
0
  6
Continuous
 62
     7
370
    25
100
AcDbLine
 10
110.104337067
 20
-56.5451949421
 30
0.0
 11
112.5620096668
 21
-57.8867781085
 31
0.0
  0
LINE
  5
4CD
330
1F
100
AcDbEntity
  8
0
  6
Continuous
 62
     7
370
    25
100
AcDbLine
 10
94.5683352756
 20
-48.0644727831
 30
0.0
 11
97.0260078754
 21
-49.4060559495
 31
0.0
  0
LINE
  5
4CE
330
1F
100
AcDbEntity
  8
0
  6
Continuous
 62
     7
370
    25
100
AcDbLine
 10
98.4634184108
 20
-46.7728353069
 30
0.0
 11
96.005745811
 21
-45.4312521405
 31
0.0
  0
LINE
  5
4CF
330
1F
100
AcDbEntity
  8
0
  6
Continuous
 62
     7
370
    25
100
AcDbLine
 10
117.0559458384
 20
-45.4302629714
 30
0.0
 11
103.5750308855
 21
-28.7772656456
 31
0.0
  0
LINE
  5
4D0
330
1F
100
AcDbEntity
  8
0
  6
Continuous
 62
     7
370
    25
100
AcDbLine
 10
113.1602169526
 20
-68.397092486
 30
0.0
 11
117.449980952
 21
-58.8460678016
 31
0.0
  0
LINE
  5
4D1
330
1F
100
AcDbEntity
  8
0
  6
Continuous
 62
     7
370
    25
100
AcDbLine
 10
97.0968250618
 20
-64.8251183376
 30
0.0
 11
105.8707382112
 21
-70.5384882484
 31
0.0
  0
LINE
  5
4D2
330
1F
100
AcDbEntity
  8
0
  6
Continuous
 62
     7
370
    25
100
AcDbLine
 10
92.5043735405
 20
-32.0294403987
 30
0.0
 11
90.1722386311
 21
-53.3277627426
 31
0.0
  0
LINE
  5
4D3
330
1F
100
AcDbEntity
  8
0
  6
Continuous
 62
     7
370
    25
100
AcDbLine
 10
71.8636422244
 20
40.9623947325
 30
0.0
 11
92.1583591125
 21
-28.1224096335
 31
0.0
  0
LINE
  5
4D4
330
1F
100
AcDbEntity
  8
0
  6
Continuous
 62
     7
370
    25
100
AcDbLine
 10
58.0887684031
 20
67.5704916003
 30
0.0
 11
71.1192744833
 21
42.7993695986
 31
0.0
  0
LINE
  5
4D5
330
1F
100
AcDbEntity
  8
0
  6
Continuous
 62
     7
370
    25
100
AcDbLine
 10
63.308332974
 20
79.3037651224
 30
0.0
 11
58.5109717671
 21
72.8943873809
 31
0.0
  0
LINE
  5
4D6
330
1F
100
AcDbEntity
  8
0
  6
Continuous
 62
     7
370
    25
100
AcDbLine
 10
75.6451675638
 20
73.817041586
 30
0.0
 11
67.5077511157
 21
79.9078241186
 31
0.0
  0
LINE
  5
4D7
330
1F
100
AcDbEntity
  8
0
  6
Continuous
 62
     7
370
    25
100
AcDbLine
 10
81.0757133236
 20
45.4699068554
 30
0.0
 11
77.6015626213
 21
70.501508206
 31
0.0
  0
LINE
  5
4D8
330
1F
100
AcDbEntity
  8
0
  6
Continuous
 62
     7
370
    25
100
AcDbLine
 10
101.7529288115
 20
-25.3038581808
 30
0.0
 11
81.386198982
 21
44.0260838727
 31
0.0
  0
LINE
  5
4D9
330
1F
100
AcDbEntity
  8
0
  6
Continuous
 62
     7
370
    25
100
AcDbLine
 10
100.6893353975
 20
-61.3745575878
 30
0.0
 11
102.0309185639
 21
-58.9168849881
 31
0.0
  0
LINE
  5
4DA
330
1F
100
AcDbEntity
  8
0
  6
Continuous
 62
     7
370
    25
100
AcDbLine
 10
99.3976979213
 20
-57.4794744526
 30
0.0
 11
98.0561147549
 21
-59.9371470524
 31
0.0
  0
LINE
  5
4DB
330
1F
100
AcDbEntity
  8
0
  6
Continuous
 62
     7
370
    25
100
AcDbLine
 10
107.8784200803
 20
-41.9434726612
 30
0.0
 11
106.5368369139
 21
-44.401145261
 31
0.0
  0
LINE
  5
4DC
330
1F
100
AcDbEntity
  8
0
  6
Continuous
 62
     7
370
    25
100
AcDbLine
 10
109.1700575565
 20
-45.8385557964
 30
0.0
 11
110.5116407229
 21
-43.3808831967
 31
0.0
  0
LINE
  5
4DD
330
1F
100
AcDbEntity
  8
0
  6
Continuous
 62
     7
370
    25
100
AcDbLine
 10
163.6998936987
 20
-39.9609797165
 30
0.0
 11
161.2422210989
 21
-38.6193965501
 31
0.0
  0
LINE
  5
4DE
330
1F
100
AcDbEntity
  8
0
  6
Continuous
 62
     7
370
    25
100
AcDbLine
 10
159.8048105635
 20
-41.2526171927
 30
0.0
 11
162.2624831633
 21
-42.5942003591
 31
0.0
  0
LINE
  5
4DF
330
1F
100
AcDbEntity
  8
0
  6
Continuous
 62
     7
370
    25
100
AcDbLine
 10
144.2688087721
 20
-32.7718950337
 30
0.0
 11
146.7264813719
 21
-34.1134782001
 31
0.0
  0
LINE
  5
4E0
330
1F
100
AcDbEntity
  8
0
  6
Continuous
 62
     7
370
    25
100
AcDbLine
 10
148.1638919073
 20
-31.4802575575
 30
0.0
 11
145.7062193076
 21
-30.1386743911
 31
0.0
  0
LINE
  5
4E1
330
1F
100
AcDbEntity
  8
0
  6
Continuous
 62
     7
370
    25
100
AcDbLine
 10
166.7564193349
 20
-30.1376852219
 30
0.0
 11
153.275504382
 21
-13.4846878962
 31
0.0
  0
LINE
  5
4E2
330
1F
100
AcDbEntity
  8
0
  6
Continuous
 62
     7
370
    25
100
AcDbLine
 10
162.8606904491
 20
-53.1045147366
 30
0.0
 11
167.1504544485
 21
-43.5534900522
 31
0.0
  0
LINE
  5
4E3
330
1F
100
AcDbEntity
  8
0
  6
Continuous
 62
     7
370
    25
100
AcDbLine
 10
146.7972985583
 20
-49.5325405881
 30
0.0
 11
155.5712117077
 21
-55.245910499
 31
0.0
  0
LINE
  5
4E4
330
1F
100
AcDbEntity
  8
0
  6
Continuous
 62
     7
370
    25
100
AcDbLine
 10
142.204847037
 20
-16.7368626492
 30
0.0
 11
139.8727121276
 21
-38.0351849931
 31
0.0
  0
LINE
  5
4E5
330
1F
100
AcDbEntity
  8
0
  6
Continuous
 62
     7
370
    25
100
AcDbLine
 10
121.5641157209
 20
56.254972482
 30
0.0
 11
141.858832609
 21
-12.829831884
 31
0.0
  0
LINE
  5
4E6
330
1F
100
AcDbEntity
  8
0
  6
Continuous
 62
     7
370
    25
100
AcDbLine
 10
107.7892418996
 20
82.8630693498
 30
0.0
 11
120.8197479798
 21
58.091947348
 31
0.0
  0
LINE
  5
4E7
330
1F
100
AcDbEntity
  8
0
  6
Continuous
 62
     7
370
    25
100
AcDbLine
 10
113.0088064705
 20
94.5963428718
 30
0.0
 11
108.2114452636
 21
88.1869651304
 31
0.0
  0
LINE
  5
4E8
330
1F
100
AcDbEntity
  8
0
  6
Continuous
 62
     7
370
    25
100
AcDbLine
 10
125.3456410603
 20
89.1096193355
 30
0.0
 11
117.2082246122
 21
95.200401868
 31
0.0
  0
LINE
  5
4E9
330
1F
100
AcDbEntity
  8
0
  6
Continuous
 62
     7
370
    25
100
AcDbLine
 10
130.7761868201
 20
60.7624846048
 30
0.0
 11
127.3020361178
 21
85.7940859555
 31
0.0
  0
LINE
  5
4EA
330
1F
100
AcDbEntity
  8
0
  6
Continuous
 62
     7
370
    25
100
AcDbLine
 10
151.453402308
 20
-10.0112804314
 30
0.0
 11
131.0866724785
 21
59.3186616222
 31
0.0
  0
LINE
  5
4EB
330
1F
100
AcDbEntity
  8
0
  6
Continuous
 62
     7
370
    25
100
AcDbLine
 10
150.389808894
 20
-46.0819798383
 30
0.0
 11
151.7313920604
 21
-43.6243072386
 31
0.0
  0
LINE
  5
4EC
330
1F
100
AcDbEntity
  8
0
  6
Continuous
 62
     7
370
    25
100
AcDbLine
 10
149.0981714178
 20
-42.1868967032
 30
0.0
 11
147.7565882514
 21
-44.6445693029
 31
0.0
  0
LINE
  5
4ED
330
1F
100
AcDbEntity
  8
0
  6
Continuous
 62
     7
370
    25
100
AcDbLine
 10
157.5788935768
 20
-26.6508949118
 30
0.0
 11
156.2373104104
 21
-29.1085675115
 31
0.0
  0
LINE
  5
4EE
330
1F
100
AcDbEntity
  8
0
  6
Continuous
 62
     7
370
    25
100
AcDbLine
 10
158.870531053
 20
-30.545978047
 30
0.0
 11
160.2121142194
 21
-28.0883054472
 31
0.0
  0
LINE
  5
4EF
330
1F
100
AcDbEntity
  8
0
  6
Continuous
 62
     7
370
    25
100
AcDbLine
 10
34.672433926
 20
-127.0368233634
 30
0.0
 11
37.1301065258
 21
-128.3784065298
 31
0.0
  0
LINE
  5
4F0
330
1F
100
AcDbEntity
  8
0
  6
Continuous
 62
     7
370
    25
100
AcDbLine
 10
38.5675170612
 20
-125.7451858872
 30
0.0
 11
36.1098444615
 21
-124.4036027208
 31
0.0
  0
LINE
  5
4F1
330
1F
100
AcDbEntity
  8
0
  6
Continuous
 62
     7
370
    25
100
AcDbLine
 10
54.1035188526
 20
-134.2259080462
 30
0.0
 11
51.6458462529
 21
-132.8843248798
 31
0.0
  0
LINE
  5
4F2
330
1F
100
AcDbEntity
  8
0
  6
Continuous
 62
     7
370
    25
100
AcDbLine
 10
50.2084357174
 20
-135.5175455224
 30
0.0
 11
52.6661083172
 21
-136.8591286888
 31
0.0
  0
LINE
  5
4F3
330
1F
100
AcDbEntity
  8
0
  6
Continuous
 62
     7
370
    25
100
AcDbLine
 10
31.6159082898
 20
-136.8601178579
 30
0.0
 11
45.0968232428
 21
-153.5131151837
 31
0.0
  0
LINE
  5
4F4
330
1F
100
AcDbEntity
  8
0
  6
Continuous
 62
     7
370
    25
100
AcDbLine
 10
35.5116371757
 20
-113.8932883433
 30
0.0
 11
31.2218731763
 21
-123.4443130277
 31
0.0
  0
LINE
  5
4F5
330
1F
100
AcDbEntity
  8
0
  6
Continuous
 62
     7
370
    25
100
AcDbLine
 10
51.5750290664
 20
-117.4652624918
 30
0.0
 11
42.801115917
 21
-111.7518925809
 31
0.0
  0
LINE
  5
4F6
330
1F
100
AcDbEntity
  8
0
  6
Continuous
 62
     7
370
    25
100
AcDbLine
 10
56.1674805877
 20
-150.2609404306
 30
0.0
 11
58.4996154972
 21
-128.9626180867
 31
0.0
  0
LINE
  5
4F7
330
1F
100
AcDbEntity
  8
0
  6
Continuous
 62
     7
370
    25
100
AcDbLine
 10
68.3525575458
 20
-194.4690664649
 30
0.0
 11
56.5134950158
 21
-154.1679711958
 31
0.0
  0
LINE
  5
4F8
330
1F
100
AcDbEntity
  8
0
  6
Continuous
 62
     7
370
    25
100
AcDbLine
 10
82.1274313671
 20
-221.0771633327
 30
0.0
 11
69.0969252869
 21
-196.306041331
 31
0.0
  0
LINE
  5
4F9
330
1F
100
AcDbEntity
  8
0
  6
Continuous
 62
     7
370
    25
100
AcDbLine
 10
76.9078667962
 20
-232.8104368548
 30
0.0
 11
81.7052280031
 21
-226.4010591133
 31
0.0
  0
LINE
  5
4FA
330
1F
100
AcDbEntity
  8
0
  6
Continuous
 62
     7
370
    25
100
AcDbLine
 10
64.5710322064
 20
-227.3237133184
 30
0.0
 11
72.7084486545
 21
-233.414495851
 31
0.0
  0
LINE
  5
4FB
330
1F
100
AcDbEntity
  8
0
  6
Continuous
 62
     7
370
    25
100
AcDbLine
 10
59.1404864466
 20
-198.9765785878
 30
0.0
 11
62.6146371489
 21
-224.0081799384
 31
0.0
  0
LINE
  5
4FC
330
1F
100
AcDbEntity
  8
0
  6
Continuous
 62
     7
370
    25
100
AcDbLine
 10
46.9189253168
 20
-156.9865226485
 30
0.0
 11
58.8300007882
 21
-197.5327556051
 31
0.0
  0
LINE
  5
4FD
330
1F
100
AcDbEntity
  8
0
  6
Continuous
 62
     7
370
    25
100
AcDbLine
 10
47.9825187307
 20
-120.9158232415
 30
0.0
 11
46.6409355643
 21
-123.3734958413
 31
0.0
  0
LINE
  5
4FE
330
1F
100
AcDbEntity
  8
0
  6
Continuous
 62
     7
370
    25
100
AcDbLine
 10
49.2741562069
 20
-124.8109063767
 30
0.0
 11
50.6157393733
 21
-122.353233777
 31
0.0
  0
LINE
  5
4FF
330
1F
100
AcDbEntity
  8
0
  6
Continuous
 62
     7
370
    25
100
AcDbLine
 10
40.7934340479
 20
-140.3469081681
 30
0.0
 11
42.1350172143
 21
-137.8892355683
 31
0.0
  0
LINE
  5
500
330
1F
100
AcDbEntity
  8
0
  6
Continuous
 62
     7
370
    25
100
AcDbLine
 10
39.5017965717
 20
-136.4518250329
 30
0.0
 11
38.1602134053
 21
-138.9094976327
 31
0.0
  0
LINE
  5
501
330
1F
100
AcDbEntity
  8
0
  6
Continuous
 62
     7
370
    25
100
AcDbLine
 10
64.2989467057
 20
-70.5461352154
 30
0.0
 11
61.8412741059
 21
-69.204552049
 31
0.0
  0
LINE
  5
502
330
1F
100
AcDbEntity
  8
0
  6
Continuous
 62
     7
370
    25
100
AcDbLine
 10
60.4038635705
 20
-71.8377726916
 30
0.0
 11
62.8615361703
 21
-73.179355858
 31
0.0
  0
LINE
  5
503
330
1F
100
AcDbEntity
  8
0
  6
Continuous
 62
     7
370
    25
100
AcDbLine
 10
44.8678617791
 20
-63.3570505326
 30
0.0
 11
47.3255343789
 21
-64.698633699
 31
0.0
  0
LINE
  5
504
330
1F
100
AcDbEntity
  8
0
  6
Continuous
 62
     7
370
    25
100
AcDbLine
 10
48.7629449143
 20
-62.0654130564
 30
0.0
 11
46.3052723145
 21
-60.72382989
 31
0.0
  0
LINE
  5
505
330
1F
100
AcDbEntity
  8
0
  6
Continuous
 62
     7
370
    25
100
AcDbLine
 10
67.3554723419
 20
-60.7228407209
 30
0.0
 11
53.874557389
 21
-44.0698433951
 31
0.0
  0
LINE
  5
506
330
1F
100
AcDbEntity
  8
0
  6
Continuous
 62
     7
370
    25
100
AcDbLine
 10
63.4597434561
 20
-83.6896702355
 30
0.0
 11
67.7495074555
 21
-74.1386455511
 31
0.0
  0
LINE
  5
507
330
1F
100
AcDbEntity
  8
0
  6
Continuous
 62
     7
370
    25
100
AcDbLine
 10
47.3963515653
 20
-80.117696087
 30
0.0
 11
56.1702647147
 21
-85.8310659979
 31
0.0
  0
LINE
  5
508
330
1F
100
AcDbEntity
  8
0
  6
Continuous
 62
     7
370
    25
100
AcDbLine
 10
42.803900044
 20
-47.3220181482
 30
0.0
 11
40.4717651346
 21
-68.6203404921
 31
0.0
  0
LINE
  5
509
330
1F
100
AcDbEntity
  8
0
  6
Continuous
 62
     7
370
    25
100
AcDbLine
 10
22.1631687279
 20
25.6698169831
 30
0.0
 11
42.457885616
 21
-43.414987383
 31
0.0
  0
LINE
  5
50A
330
1F
100
AcDbEntity
  8
0
  6
Continuous
 62
     7
370
    25
100
AcDbLine
 10
8.3882949066
 20
52.2779138508
 30
0.0
 11
21.4188009868
 21
27.5067918491
 31
0.0
  0
LINE
  5
50B
330
1F
100
AcDbEntity
  8
0
  6
Continuous
 62
     7
370
    25
100
AcDbLine
 10
13.6078594775
 20
64.0111873729
 30
0.0
 11
8.8104982706
 21
57.6018096314
 31
0.0
  0
LINE
  5
50C
330
1F
100
AcDbEntity
  8
0
  6
Continuous
 62
     7
370
    25
100
AcDbLine
 10
25.9446940673
 20
58.5244638365
 30
0.0
 11
17.8072776192
 21
64.6152463691
 31
0.0
  0
LINE
  5
50D
330
1F
100
AcDbEntity
  8
0
  6
Continuous
 62
     7
370
    25
100
AcDbLine
 10
31.3752398271
 20
30.1773291059
 30
0.0
 11
27.9010891248
 21
55.2089304566
 31
0.0
  0
LINE
  5
50E
330
1F
100
AcDbEntity
  8
0
  6
Continuous
 62
     7
370
    25
100
AcDbLine
 10
52.052455315
 20
-40.5964359303
 30
0.0
 11
31.6857254855
 21
28.7335061232
 31
0.0
  0
LINE
  5
50F
330
1F
100
AcDbEntity
  8
0
  6
Continuous
 62
     7
370
    25
100
AcDbLine
 10
50.988861901
 20
-76.6671353373
 30
0.0
 11
52.3304450674
 21
-74.2094627375
 31
0.0
  0
LINE
  5
510
330
1F
100
AcDbEntity
  8
0
  6
Continuous
 62
     7
370
    25
100
AcDbLine
 10
49.6972244248
 20
-72.7720522021
 30
0.0
 11
48.3556412584
 21
-75.2297248019
 31
0.0
  0
LINE
  5
511
330
1F
100
AcDbEntity
  8
0
  6
Continuous
 62
     7
370
    25
100
AcDbLine
 10
58.1779465838
 20
-57.2360504107
 30
0.0
 11
56.8363634174
 21
-59.6937230105
 31
0.0
  0
LINE
  5
512
330
1F
100
AcDbEntity
  8
0
  6
Continuous
 62
     7
370
    25
100
AcDbLine
 10
59.46958406
 20
-61.1311335459
 30
0.0
 11
60.8111672264
 21
-58.6734609461
 31
0.0
  0
LINE
  5
513
330
1F
100
AcDbEntity
  8
0
  6
Continuous
 62
     7
370
    25
100
AcDbLine
 10
-10.4243893167
 20
26.4762918203
 30
0.0
 11
-7.966716717
 21
25.1347086539
 31
0.0
  0
LINE
  5
514
330
1F
100
AcDbEntity
  8
0
  6
Continuous
 62
     7
370
    25
100
AcDbLine
 10
-6.5293061815
 20
27.7679292965
 30
0.0
 11
-8.9869787813
 21
29.1095124629
 31
0.0
  0
LINE
  5
515
330
1F
100
AcDbEntity
  8
0
  6
Continuous
 62
     7
370
    25
100
AcDbLine
 10
9.0066956099
 20
19.2872071375
 30
0.0
 11
6.5490230101
 21
20.6287903039
 31
0.0
  0
LINE
  5
516
330
1F
100
AcDbEntity
  8
0
  6
Continuous
 62
     7
370
    25
100
AcDbLine
 10
5.1116124747
 20
17.9955696613
 30
0.0
 11
7.5692850744
 21
16.6539864949
 31
0.0
  0
LINE
  5
517
330
1F
100
AcDbEntity
  8
0
  6
Continuous
 62
     7
370
    25
100
AcDbLine
 10
-13.4809149529
 20
16.6529973258
 30
0.0
 11
0.0
 21
0.0
 31
0.0
  0
LINE
  5
518
330
1F
100
AcDbEntity
  8
0
  6
Continuous
 62
     7
370
    25
100
AcDbLine
 10
-9.5851860671
 20
39.6198268404
 30
0.0
 11
-13.8749500665
 21
30.068802156
 31
0.0
  0
LINE
  5
519
330
1F
100
AcDbEntity
  8
0
  6
Continuous
 62
     7
370
    25
100
AcDbLine
 10
6.4782058237
 20
36.0478526919
 30
0.0
 11
-2.2957073257
 21
41.7612226028
 31
0.0
  0
LINE
  5
51A
330
1F
100
AcDbEntity
  8
0
  6
Continuous
 62
     7
370
    25
100
AcDbLine
 10
11.070657345
 20
3.2521747531
 30
0.0
 11
13.4027922544
 21
24.550497097
 31
0.0
  0
LINE
  5
51B
330
1F
100
AcDbEntity
  8
0
  6
Continuous
 62
     7
370
    25
100
AcDbLine
 10
23.255734303
 20
-40.9559512812
 30
0.0
 11
11.416671773
 21
-0.6548560121
 31
0.0
  0
LINE
  5
51C
330
1F
100
AcDbEntity
  8
0
  6
Continuous
 62
     7
370
    25
100
AcDbLine
 10
37.0306081243
 20
-67.564048149
 30
0.0
 11
24.0001020441
 21
-42.7929261473
 31
0.0
  0
LINE
  5
51D
330
1F
100
AcDbEntity
  8
0
  6
Continuous
 62
     7
370
    25
100
AcDbLine
 10
31.8110435535
 20
-79.297321671
 30
0.0
 11
36.6084047603
 21
-72.8879439296
 31
0.0
  0
LINE
  5
51E
330
1F
100
AcDbEntity
  8
0
  6
Continuous
 62
     7
370
    25
100
AcDbLine
 10
19.4742089636
 20
-73.8105981347
 30
0.0
 11
27.6116254117
 21
-79.9013806673
 31
0.0
  0
LINE
  5
51F
330
1F
100
AcDbEntity
  8
0
  6
Continuous
 62
     7
370
    25
100
AcDbLine
 10
14.0436632039
 20
-45.463463404
 30
0.0
 11
17.5178139062
 21
-70.4950647547
 31
0.0
  0
LINE
  5
520
330
1F
100
AcDbEntity
  8
0
  6
Continuous
 62
     7
370
    25
100
AcDbLine
 10
1.822102074
 20
-3.4734074648
 30
0.0
 11
13.7331775454
 21
-44.0196404214
 31
0.0
  0
LINE
  5
521
330
1F
100
AcDbEntity
  8
0
  6
Continuous
 62
     7
370
    25
100
AcDbLine
 10
2.885695488
 20
32.5972919422
 30
0.0
 11
1.5441123216
 21
30.1396193424
 31
0.0
  0
LINE
  5
522
330
1F
100
AcDbEntity
  8
0
  6
Continuous
 62
     7
370
    25
100
AcDbLine
 10
4.1773329642
 20
28.702208807
 30
0.0
 11
5.5189161306
 21
31.1598814068
 31
0.0
  0
LINE
  5
523
330
1F
100
AcDbEntity
  8
0
  6
Continuous
 62
     7
370
    25
100
AcDbLine
 10
-4.3033891948
 20
13.1662070156
 30
0.0
 11
-2.9618060284
 21
15.6238796154
 31
0.0
  0
LINE
  5
524
330
1F
100
AcDbEntity
  8
0
  6
Continuous
 62
     7
370
    25
100
AcDbLine
 10
-5.595026671
 20
17.0612901508
 30
0.0
 11
-6.9366098374
 21
14.603617551
 31
0.0
  0
LINE
  5
525
330
1F
100
AcDbEntity
  8
0
  6
Continuous
 62
     7
370
    25
100
AcDbLine
 10
59.695296452
 20
-239.3518281486
 30
0.0
 11
57.2376238522
 21
-238.0102449822
 31
0.0
  0
LINE
  5
526
330
1F
100
AcDbEntity
  8
0
  6
Continuous
 62
     7
370
    25
100
AcDbLine
 10
55.8002133168
 20
-240.6434656248
 30
0.0
 11
58.2578859165
 21
-241.9850487912
 31
0.0
  0
LINE
  5
527
330
1F
100
AcDbEntity
  8
0
  6
Continuous
 62
     7
370
    25
100
AcDbLine
 10
40.2642115254
 20
-232.1627434658
 30
0.0
 11
42.7218841252
 21
-233.5043266322
 31
0.0
  0
LINE
  5
528
330
1F
100
AcDbEntity
  8
0
  6
Continuous
 62
     7
370
    25
100
AcDbLine
 10
44.1592946606
 20
-230.8711059896
 30
0.0
 11
41.7016220608
 21
-229.5295228232
 31
0.0
  0
LINE
  5
529
330
1F
100
AcDbEntity
  8
0
  6
Continuous
 62
     7
370
    25
100
AcDbLine
 10
62.7518220882
 20
-229.5285336541
 30
0.0
 11
49.2709071352
 21
-212.8755363283
 31
0.0
  0
LINE
  5
52A
330
1F
100
AcDbEntity
  8
0
  6
Continuous
 62
     7
370
    25
100
AcDbLine
 10
58.8560932023
 20
-252.4953631687
 30
0.0
 11
63.1458572017
 21
-242.9443384843
 31
0.0
  0
LINE
  5
52B
330
1F
100
AcDbEntity
  8
0
  6
Continuous
 62
     7
370
    25
100
AcDbLine
 10
42.7927013116
 20
-248.9233890202
 30
0.0
 11
51.566614461
 21
-254.6367589311
 31
0.0
  0
LINE
  5
52C
330
1F
100
AcDbEntity
  8
0
  6
Continuous
 62
     7
370
    25
100
AcDbLine
 10
38.2002497903
 20
-216.1277110814
 30
0.0
 11
35.8681148808
 21
-237.4260334253
 31
0.0
  0
LINE
  5
52D
330
1F
100
AcDbEntity
  8
0
  6
Continuous
 62
     7
370
    25
100
AcDbLine
 10
17.5595184742
 20
-143.1358759501
 30
0.0
 11
37.8542353622
 21
-212.2206803162
 31
0.0
  0
LINE
  5
52E
330
1F
100
AcDbEntity
  8
0
  6
Continuous
 62
     7
370
    25
100
AcDbLine
 10
3.7846446529
 20
-116.5277790824
 30
0.0
 11
16.8151507331
 21
-141.2989010841
 31
0.0
  0
LINE
  5
52F
330
1F
100
AcDbEntity
  8
0
  6
Continuous
 62
     7
370
    25
100
AcDbLine
 10
9.0042092238
 20
-104.7945055603
 30
0.0
 11
4.2068480169
 21
-111.2038833017
 31
0.0
  0
LINE
  5
530
330
1F
100
AcDbEntity
  8
0
  6
Continuous
 62
     7
370
    25
100
AcDbLine
 10
21.3410438136
 20
-110.2812290967
 30
0.0
 11
13.2036273655
 21
-104.1904465641
 31
0.0
  0
LINE
  5
531
330
1F
100
AcDbEntity
  8
0
  6
Continuous
 62
     7
370
    25
100
AcDbLine
 10
26.7715895734
 20
-138.6283638273
 30
0.0
 11
23.2974388711
 21
-113.5967624766
 31
0.0
  0
LINE
  5
532
330
1F
100
AcDbEntity
  8
0
  6
Continuous
 62
     7
370
    25
100
AcDbLine
 10
47.4488050612
 20
-209.4021288635
 30
0.0
 11
27.0820752318
 21
-140.07218681
 31
0.0
  0
LINE
  5
533
330
1F
100
AcDbEntity
  8
0
  6
Continuous
 62
     7
370
    25
100
AcDbLine
 10
46.3852116473
 20
-245.4728282705
 30
0.0
 11
47.7267948137
 21
-243.0151556707
 31
0.0
  0
LINE
  5
534
330
1F
100
AcDbEntity
  8
0
  6
Continuous
 62
     7
370
    25
100
AcDbLine
 10
45.0935741711
 20
-241.5777451353
 30
0.0
 11
43.7519910047
 21
-244.0354177351
 31
0.0
  0
LINE
  5
535
330
1F
100
AcDbEntity
  8
0
  6
Continuous
 62
     7
370
    25
100
AcDbLine
 10
53.5742963301
 20
-226.0417433439
 30
0.0
 11
52.2327131637
 21
-228.4994159437
 31
0.0
  0
LINE
  5
536
330
1F
100
AcDbEntity
  8
0
  6
Continuous
 62
     7
370
    25
100
AcDbLine
 10
54.8659338063
 20
-229.9368264791
 30
0.0
 11
56.2075169727
 21
-227.4791538793
 31
0.0
  0
ARC
  5
537
330
1F
100
AcDbEntity
  8
0
  6
Continuous
 62
     7
370
    25
100
AcDbCircle
 10
210.2239893277
 20
-24.6434291219
 30
0.0
 40
1.500000000000026
100
AcDbArc
 50
61.3709568249
 51
241.3709568249
  0
ARC
  5
538
330
1F
100
AcDbEntity
  8
0
  6
Continuous
 62
     7
370
    25
100
AcDbCircle
 10
212.6816619275
 20
-25.9850122883
 30
0.0
 40
1.5
100
AcDbArc
 50
241.3709568249
 51
61.3709568249
  0
ARC
  5
539
330
1F
100
AcDbEntity
  8
0
  6
Continuous
 62
     7
370
    25
100
AcDbCircle
 10
197.1456601361
 20
-17.5042901293
 30
0.0
 40
1.50000000000001
100
AcDbArc
 50
241.3709568249
 51
61.3709568249
  0
ARC
  5
53A
330
1F
100
AcDbEntity
  8
0
  6
Continuous
 62
     7
370
    25
100
AcDbCircle
 10
194.6879875363
 20
-16.1627069629
 30
0.0
 40
1.499999999999973
100
AcDbArc
 50
61.3709568249
 51
241.3709568249
  0
ARC
  5
53B
330
1F
100
AcDbEntity
  8
0
  6
Continuous
 62
     7
370
    25
100
AcDbCircle
 10
208.6844252064
 20
-21.1370663899
 30
0.0
 40
9.999999999999911
100
AcDbArc
 50
359.2756845412
 51
38.990821773
  0
ARC
  5
53C
330
1F
100
AcDbEntity
  8
0
  6
Continuous
 62
     7
370
    25
100
AcDbCircle
 10
203.6848247319
 20
-21.0738596256
 30
0.0
 40
15.00000000000079
100
AcDbArc
 50
331.3709568249
 51
359.2756845412
  0
ARC
  5
53D
330
1F
100
AcDbEntity
  8
0
  6
Continuous
 62
     7
370
    25
100
AcDbCircle
 10
208.0000926918
 20
-35.7633694344
 30
0.0
 40
5.000000000000037
100
AcDbArc
 50
236.9287529032
 51
335.8131607467
  0
ARC
  5
53E
330
1F
100
AcDbEntity
  8
0
  6
Continuous
 62
     7
370
    25
100
AcDbCircle
 10
203.6848247319
 20
-21.0738596256
 30
0.0
 40
14.99999999999998
100
AcDbArc
 50
213.4662291087
 51
241.3709568249
  0
ARC
  5
53F
330
1F
100
AcDbEntity
  8
0
  6
Continuous
 62
     7
370
    25
100
AcDbCircle
 10
199.5137697511
 20
-23.8310865562
 30
0.0
 40
10.0000000000001
100
AcDbArc
 50
173.7510918769
 51
213.4662291087
  0
ARC
  5
540
330
1F
100
AcDbEntity
  8
0
  6
Continuous
 62
     7
370
    25
100
AcDbCircle
 10
181.9647364065
 20
-0.3558055872
 30
0.0
 40
9.99999999999796
100
AcDbArc
 50
353.7510918769
 51
16.3709568249
  0
ARC
  5
541
330
1F
100
AcDbEntity
  8
0
  6
Continuous
 62
     7
370
    25
100
AcDbCircle
 10
161.6700195184
 20
68.7289987788
 30
0.0
 40
9.999999999997327
100
AcDbArc
 50
16.3709568249
 51
27.7459932978
  0
ARC
  5
542
330
1F
100
AcDbEntity
  8
0
  6
Continuous
 62
     7
370
    25
100
AcDbCircle
 10
161.9148163751
 20
100.4834102586
 30
0.0
 40
4.999999999999936
100
AcDbArc
 50
143.1854784125
 51
207.7459932978
  0
ARC
  5
543
330
1F
100
AcDbEntity
  8
0
  6
Continuous
 62
     7
370
    25
100
AcDbCircle
 10
165.111018536
 20
108.0912410485
 30
0.0
 40
2.99999999999999
100
AcDbArc
 50
53.1854784125
 51
143.1854784125
  0
ARC
  5
544
330
1F
100
AcDbEntity
  8
0
  6
Continuous
 62
     7
370
    25
100
AcDbCircle
 10
172.0499819356
 20
100.39929947
 30
0.0
 40
4.999999999999837
100
AcDbArc
 50
7.9016370655
 51
53.1854784125
  0
ARC
  5
545
330
1F
100
AcDbEntity
  8
0
  6
Continuous
 62
     7
370
    25
100
AcDbCircle
 10
190.381715674
 20
77.4297908243
 30
0.0
 40
9.9999999999946
100
AcDbArc
 50
187.9016370655
 51
196.370956825
  0
ARC
  5
546
330
1F
100
AcDbEntity
  8
0
  6
Continuous
 62
     7
370
    25
100
AcDbCircle
 10
210.7484455034
 20
8.0998487708
 30
0.0
 40
10.00000000000036
100
AcDbArc
 50
196.3709568249
 51
218.990821773
  0
ARC
  5
547
330
1F
100
AcDbEntity
  8
0
  6
Continuous
 62
     7
370
    25
100
AcDbCircle
 10
200.1152552356
 20
-27.6130242214
 30
0.0
 40
1.500000000000016
100
AcDbArc
 50
331.3709568249
 51
151.3709568249
  0
ARC
  5
548
330
1F
100
AcDbEntity
  8
0
  6
Continuous
 62
     7
370
    25
100
AcDbCircle
 10
198.7736720692
 20
-30.0706968212
 30
0.0
 40
1.500000000000011
100
AcDbArc
 50
151.3709568249
 51
331.3709568249
  0
ARC
  5
549
330
1F
100
AcDbEntity
  8
0
  6
Continuous
 62
     7
370
    25
100
AcDbCircle
 10
207.2543942282
 20
-14.5346950298
 30
0.0
 40
1.499999999999992
100
AcDbArc
 50
151.3709568249
 51
331.3709568249
  0
ARC
  5
54A
330
1F
100
AcDbEntity
  8
0
  6
Continuous
 62
     7
370
    25
100
AcDbCircle
 10
208.5959773946
 20
-12.07702243
 30
0.0
 40
1.49999999999999
100
AcDbArc
 50
331.370956825
 51
151.3709568249
  0
ARC
  5
54B
330
1F
100
AcDbEntity
  8
0
  6
Continuous
 62
     7
370
    25
100
AcDbCircle
 10
255.3208125705
 20
-178.1565443056
 30
0.0
 40
1.500000000000032
100
AcDbArc
 50
61.3709568249
 51
241.3709568249
  0
ARC
  5
54C
330
1F
100
AcDbEntity
  8
0
  6
Continuous
 62
     7
370
    25
100
AcDbCircle
 10
257.7784851703
 20
-179.498127472
 30
0.0
 40
1.499999999999977
100
AcDbArc
 50
241.3709568249
 51
61.3709568249
  0
ARC
  5
54D
330
1F
100
AcDbEntity
  8
0
  6
Continuous
 62
     7
370
    25
100
AcDbCircle
 10
242.2424833789
 20
-171.017405313
 30
0.0
 40
1.500000000000005
100
AcDbArc
 50
241.3709568249
 51
61.3709568249
  0
ARC
  5
54E
330
1F
100
AcDbEntity
  8
0
  6
Continuous
 62
     7
370
    25
100
AcDbCircle
 10
239.7848107791
 20
-169.6758221466
 30
0.0
 40
1.499999999999991
100
AcDbArc
 50
61.3709568249
 51
241.3709568249
  0
ARC
  5
54F
330
1F
100
AcDbEntity
  8
0
  6
Continuous
 62
     7
370
    25
100
AcDbCircle
 10
253.7812484492
 20
-174.6501815736
 30
0.0
 40
9.999999999999712
100
AcDbArc
 50
359.2756845412
 51
38.990821773
  0
ARC
  5
550
330
1F
100
AcDbEntity
  8
0
  6
Continuous
 62
     7
370
    25
100
AcDbCircle
 10
248.7816479747
 20
-174.5869748093
 30
0.0
 40
15.00000000000045
100
AcDbArc
 50
331.3709568249
 51
359.2756845412
  0
ARC
  5
551
330
1F
100
AcDbEntity
  8
0
  6
Continuous
 62
     7
370
    25
100
AcDbCircle
 10
253.0969159345
 20
-189.2764846181
 30
0.0
 40
5.000000000000044
100
AcDbArc
 50
236.9287529032
 51
335.8131607467
  0
ARC
  5
552
330
1F
100
AcDbEntity
  8
0
  6
Continuous
 62
     7
370
    25
100
AcDbCircle
 10
248.7816479747
 20
-174.5869748093
 30
0.0
 40
15.00000000000059
100
AcDbArc
 50
213.4662291087
 51
241.3709568249
  0
ARC
  5
553
330
1F
100
AcDbEntity
  8
0
  6
Continuous
 62
     7
370
    25
100
AcDbCircle
 10
244.6105929938
 20
-177.3442017399
 30
0.0
 40
9.999999999999652
100
AcDbArc
 50
173.7510918769
 51
213.4662291087
  0
ARC
  5
554
330
1F
100
AcDbEntity
  8
0
  6
Continuous
 62
     7
370
    25
100
AcDbCircle
 10
227.0615596493
 20
-153.868920771
 30
0.0
 40
10.00000000000006
100
AcDbArc
 50
353.7510918769
 51
16.3709568249
  0
ARC
  5
555
330
1F
100
AcDbEntity
  8
0
  6
Continuous
 62
     7
370
    25
100
AcDbCircle
 10
206.7668427612
 20
-84.7841164049
 30
0.0
 40
10.00000000000033
100
AcDbArc
 50
16.3709568249
 51
27.7459932978
  0
ARC
  5
556
330
1F
100
AcDbEntity
  8
0
  6
Continuous
 62
     7
370
    25
100
AcDbCircle
 10
207.0116396179
 20
-53.0297049251
 30
0.0
 40
4.999999999999999
100
AcDbArc
 50
143.1854784125
 51
207.7459932978
  0
ARC
  5
557
330
1F
100
AcDbEntity
  8
0
  6
Continuous
 62
     7
370
    25
100
AcDbCircle
 10
210.2078417788
 20
-45.4218741352
 30
0.0
 40
3.000000000000018
100
AcDbArc
 50
53.1854784125
 51
143.1854784125
  0
ARC
  5
558
330
1F
100
AcDbEntity
  8
0
  6
Continuous
 62
     7
370
    25
100
AcDbCircle
 10
217.1468051784
 20
-53.1138157138
 30
0.0
 40
4.999999999999763
100
AcDbArc
 50
7.9016370655
 51
53.1854784125
  0
ARC
  5
559
330
1F
100
AcDbEntity
  8
0
  6
Continuous
 62
     7
370
    25
100
AcDbCircle
 10
235.4785389168
 20
-76.0833243594
 30
0.0
 40
10.00000000000337
100
AcDbArc
 50
187.9016370655
 51
196.3709568249
  0
ARC
  5
55A
330
1F
100
AcDbEntity
  8
0
  6
Continuous
 62
     7
370
    25
100
AcDbCircle
 10
255.8452687462
 20
-145.413266413
 30
0.0
 40
9.999999999998025
100
AcDbArc
 50
196.3709568249
 51
218.990821773
  0
ARC
  5
55B
330
1F
100
AcDbEntity
  8
0
  6
Continuous
 62
     7
370
    25
100
AcDbCircle
 10
245.2120784784
 20
-181.1261394051
 30
0.0
 40
1.50000000000003
100
AcDbArc
 50
331.3709568249
 51
151.3709568249
  0
ARC
  5
55C
330
1F
100
AcDbEntity
  8
0
  6
Continuous
 62
     7
370
    25
100
AcDbCircle
 10
243.870495312
 20
-183.5838120049
 30
0.0
 40
1.500000000000016
100
AcDbArc
 50
151.3709568249
 51
331.3709568249
  0
ARC
  5
55D
330
1F
100
AcDbEntity
  8
0
  6
Continuous
 62
     7
370
    25
100
AcDbCircle
 10
252.351217471
 20
-168.0478102135
 30
0.0
 40
1.500000000000032
100
AcDbArc
 50
151.3709568249
 51
331.3709568249
  0
ARC
  5
55E
330
1F
100
AcDbEntity
  8
0
  6
Continuous
 62
     7
370
    25
100
AcDbCircle
 10
253.6928006374
 20
-165.5901376137
 30
0.0
 40
1.499999999999977
100
AcDbArc
 50
331.3709568249
 51
151.3709568249
  0
ARC
  5
55F
330
1F
100
AcDbEntity
  8
0
  6
Continuous
 62
     7
370
    25
100
AcDbCircle
 10
186.950232283
 20
-81.1840629601
 30
0.0
 40
1.500000000000068
100
AcDbArc
 50
241.3709568249
 51
61.3709568249
  0
ARC
  5
560
330
1F
100
AcDbEntity
  8
0
  6
Continuous
 62
     7
370
    25
100
AcDbCircle
 10
184.4925596833
 20
-79.8424797937
 30
0.0
 40
1.500000000000043
100
AcDbArc
 50
61.3709568249
 51
241.370956825
  0
ARC
  5
561
330
1F
100
AcDbEntity
  8
0
  6
Continuous
 62
     7
370
    25
100
AcDbCircle
 10
200.0285614746
 20
-88.3232019527
 30
0.0
 40
1.500000000000102
100
AcDbArc
 50
61.370956825
 51
241.3709568249
  0
ARC
  5
562
330
1F
100
AcDbEntity
  8
0
  6
Continuous
 62
     7
370
    25
100
AcDbCircle
 10
202.4862340744
 20
-89.6647851191
 30
0.0
 40
1.500000000000043
100
AcDbArc
 50
241.3709568249
 51
61.3709568249
  0
ARC
  5
563
330
1F
100
AcDbEntity
  8
0
  6
Continuous
 62
     7
370
    25
100
AcDbCircle
 10
188.4897964043
 20
-84.6904256921
 30
0.0
 40
9.99999999999972
100
AcDbArc
 50
179.2756845412
 51
218.990821773
  0
ARC
  5
564
330
1F
100
AcDbEntity
  8
0
  6
Continuous
 62
     7
370
    25
100
AcDbCircle
 10
193.4893968788
 20
-84.7536324564
 30
0.0
 40
14.99999999999998
100
AcDbArc
 50
151.3709568249
 51
179.2756845412
  0
ARC
  5
565
330
1F
100
AcDbEntity
  8
0
  6
Continuous
 62
     7
370
    25
100
AcDbCircle
 10
189.174128919
 20
-70.0641226476
 30
0.0
 40
5.000000000000108
100
AcDbArc
 50
56.9287529032
 51
155.8131607467
  0
ARC
  5
566
330
1F
100
AcDbEntity
  8
0
  6
Continuous
 62
     7
370
    25
100
AcDbCircle
 10
193.4893968788
 20
-84.7536324564
 30
0.0
 40
14.99999999999996
100
AcDbArc
 50
33.4662291087
 51
61.3709568249
  0
ARC
  5
567
330
1F
100
AcDbEntity
  8
0
  6
Continuous
 62
     7
370
    25
100
AcDbCircle
 10
197.6604518597
 20
-81.9964055258
 30
0.0
 40
9.999999999999641
100
AcDbArc
 50
353.7510918769
 51
33.4662291087
  0
ARC
  5
568
330
1F
100
AcDbEntity
  8
0
  6
Continuous
 62
     7
370
    25
100
AcDbCircle
 10
215.2094852043
 20
-105.4716864948
 30
0.0
 40
10.00000000000017
100
AcDbArc
 50
173.7510918769
 51
196.3709568249
  0
ARC
  5
569
330
1F
100
AcDbEntity
  8
0
  6
Continuous
 62
     7
370
    25
100
AcDbCircle
 10
227.0485477343
 20
-145.7727817638
 30
0.0
 40
10.00000000000026
100
AcDbArc
 50
196.3709568249
 51
207.7459932978
  0
ARC
  5
56A
330
1F
100
AcDbEntity
  8
0
  6
Continuous
 62
     7
370
    25
100
AcDbCircle
 10
226.8037508776
 20
-177.5271932437
 30
0.0
 40
4.99999999999987
100
AcDbArc
 50
323.1854784125
 51
27.7459932978
  0
ARC
  5
56B
330
1F
100
AcDbEntity
  8
0
  6
Continuous
 62
     7
370
    25
100
AcDbCircle
 10
223.6075487168
 20
-185.1350240336
 30
0.0
 40
3.000000000000092
100
AcDbArc
 50
233.1854784125
 51
323.1854784125
  0
ARC
  5
56C
330
1F
100
AcDbEntity
  8
0
  6
Continuous
 62
     7
370
    25
100
AcDbCircle
 10
216.6685853172
 20
-177.443082455
 30
0.0
 40
5.00000000000006
100
AcDbArc
 50
187.9016370655
 51
233.1854784125
  0
ARC
  5
56D
330
1F
100
AcDbEntity
  8
0
  6
Continuous
 62
     7
370
    25
100
AcDbCircle
 10
198.3368515787
 20
-154.4735738093
 30
0.0
 40
10.00000000001453
100
AcDbArc
 50
7.9016370655
 51
16.3709568249
  0
ARC
  5
56E
330
1F
100
AcDbEntity
  8
0
  6
Continuous
 62
     7
370
    25
100
AcDbCircle
 10
186.4257761073
 20
-113.9273408528
 30
0.0
 40
10.00000000000339
100
AcDbArc
 50
16.370956825
 51
38.990821773
  0
ARC
  5
56F
330
1F
100
AcDbEntity
  8
0
  6
Continuous
 62
     7
370
    25
100
AcDbCircle
 10
197.0589663751
 20
-78.2144678606
 30
0.0
 40
1.500000000000054
100
AcDbArc
 50
151.3709568249
 51
331.3709568249
  0
ARC
  5
570
330
1F
100
AcDbEntity
  8
0
  6
Continuous
 62
     7
370
    25
100
AcDbCircle
 10
198.4005495415
 20
-75.7567952608
 30
0.0
 40
1.500000000000068
100
AcDbArc
 50
331.370956825
 51
151.3709568249
  0
ARC
  5
571
330
1F
100
AcDbEntity
  8
0
  6
Continuous
 62
     7
370
    25
100
AcDbCircle
 10
189.9198273825
 20
-91.2927970522
 30
0.0
 40
1.500000000000104
100
AcDbArc
 50
331.3709568249
 51
151.3709568249
  0
ARC
  5
572
330
1F
100
AcDbEntity
  8
0
  6
Continuous
 62
     7
370
    25
100
AcDbCircle
 10
188.5782442161
 20
-93.750469652
 30
0.0
 40
1.500000000000054
100
AcDbArc
 50
151.3709568249
 51
331.3709568249
  0
ARC
  5
573
330
1F
100
AcDbEntity
  8
0
  6
Continuous
 62
     7
370
    25
100
AcDbCircle
 10
191.5538825368
 20
87.6216299731
 30
0.0
 40
1.500000000000068
100
AcDbArc
 50
241.3709568249
 51
61.3709568249
  0
ARC
  5
574
330
1F
100
AcDbEntity
  8
0
  6
Continuous
 62
     7
370
    25
100
AcDbCircle
 10
189.096209937
 20
88.9632131395
 30
0.0
 40
1.50000000000003
100
AcDbArc
 50
61.3709568249
 51
241.3709568249
  0
ARC
  5
575
330
1F
100
AcDbEntity
  8
0
  6
Continuous
 62
     7
370
    25
100
AcDbCircle
 10
204.6322117284
 20
80.4824909805
 30
0.0
 40
1.500000000000079
100
AcDbArc
 50
61.3709568249
 51
241.3709568249
  0
ARC
  5
576
330
1F
100
AcDbEntity
  8
0
  6
Continuous
 62
     7
370
    25
100
AcDbCircle
 10
207.0898843282
 20
79.1409078141
 30
0.0
 40
1.500000000000068
100
AcDbArc
 50
241.3709568249
 51
61.3709568249
  0
ARC
  5
577
330
1F
100
AcDbEntity
  8
0
  6
Continuous
 62
     7
370
    25
100
AcDbCircle
 10
193.093446658
 20
84.1152672411
 30
0.0
 40
9.999999999999853
100
AcDbArc
 50
179.2756845412
 51
218.990821773
  0
ARC
  5
578
330
1F
100
AcDbEntity
  8
0
  6
Continuous
 62
     7
370
    25
100
AcDbCircle
 10
198.0930471326
 20
84.0520604768
 30
0.0
 40
14.99999999999932
100
AcDbArc
 50
151.3709568249
 51
179.2756845412
  0
ARC
  5
579
330
1F
100
AcDbEntity
  8
0
  6
Continuous
 62
     7
370
    25
100
AcDbCircle
 10
193.7777791727
 20
98.7415702856
 30
0.0
 40
5.000000000000056
100
AcDbArc
 50
56.9287529032
 51
155.8131607467
  0
ARC
  5
57A
330
1F
100
AcDbEntity
  8
0
  6
Continuous
 62
     7
370
    25
100
AcDbCircle
 10
198.0930471326
 20
84.0520604768
 30
0.0
 40
15.00000000000051
100
AcDbArc
 50
33.4662291087
 51
61.3709568249
  0
ARC
  5
57B
330
1F
100
AcDbEntity
  8
0
  6
Continuous
 62
     7
370
    25
100
AcDbCircle
 10
202.2641021134
 20
86.8092874074
 30
0.0
 40
9.99999999999975
100
AcDbArc
 50
353.7510918769
 51
33.4662291087
  0
ARC
  5
57C
330
1F
100
AcDbEntity
  8
0
  6
Continuous
 62
     7
370
    25
100
AcDbCircle
 10
219.813135458
 20
63.3340064384
 30
0.0
 40
9.999999999998252
100
AcDbArc
 50
173.7510918769
 51
196.370956825
  0
ARC
  5
57D
330
1F
100
AcDbEntity
  8
0
  6
Continuous
 62
     7
370
    25
100
AcDbCircle
 10
231.652197988
 20
23.0329111693
 30
0.0
 40
9.999999999992774
100
AcDbArc
 50
196.3709568249
 51
207.7459932978
  0
ARC
  5
57E
330
1F
100
AcDbEntity
  8
0
  6
Continuous
 62
     7
370
    25
100
AcDbCircle
 10
231.4074011314
 20
-8.7215003105
 30
0.0
 40
5.000000000000094
100
AcDbArc
 50
323.1854784125
 51
27.7459932978
  0
ARC
  5
57F
330
1F
100
AcDbEntity
  8
0
  6
Continuous
 62
     7
370
    25
100
AcDbCircle
 10
228.2111989705
 20
-16.3293311004
 30
0.0
 40
2.999999999999987
100
AcDbArc
 50
233.1854784125
 51
323.1854784125
  0
ARC
  5
580
330
1F
100
AcDbEntity
  8
0
  6
Continuous
 62
     7
370
    25
100
AcDbCircle
 10
221.2722355709
 20
-8.6373895218
 30
0.0
 40
4.999999999999926
100
AcDbArc
 50
187.9016370655
 51
233.1854784125
  0
ARC
  5
581
330
1F
100
AcDbEntity
  8
0
  6
Continuous
 62
     7
370
    25
100
AcDbCircle
 10
202.9405018324
 20
14.3321191238
 30
0.0
 40
9.99999999999779
100
AcDbArc
 50
7.9016370655
 51
16.3709568249
  0
ARC
  5
582
330
1F
100
AcDbEntity
  8
0
  6
Continuous
 62
     7
370
    25
100
AcDbCircle
 10
191.029426361
 20
54.8783520804
 30
0.0
 40
10.0000000000048
100
AcDbArc
 50
16.370956825
 51
38.990821773
  0
ARC
  5
583
330
1F
100
AcDbEntity
  8
0
  6
Continuous
 62
     7
370
    25
100
AcDbCircle
 10
201.6626166289
 20
90.5912250726
 30
0.0
 40
1.50000000000003
100
AcDbArc
 50
151.3709568249
 51
331.3709568249
  0
ARC
  5
584
330
1F
100
AcDbEntity
  8
0
  6
Continuous
 62
     7
370
    25
100
AcDbCircle
 10
203.0041997953
 20
93.0488976724
 30
0.0
 40
1.500000000000036
100
AcDbArc
 50
331.3709568249
 51
151.3709568249
  0
ARC
  5
585
330
1F
100
AcDbEntity
  8
0
  6
Continuous
 62
     7
370
    25
100
AcDbCircle
 10
194.5234776363
 20
77.512895881
 30
0.0
 40
1.500000000000075
100
AcDbArc
 50
331.3709568249
 51
151.3709568249
  0
ARC
  5
586
330
1F
100
AcDbEntity
  8
0
  6
Continuous
 62
     7
370
    25
100
AcDbCircle
 10
193.1818944699
 20
75.0552232812
 30
0.0
 40
1.500000000000059
100
AcDbArc
 50
151.3709568249
 51
331.370956825
  0
ARC
  5
587
330
1F
100
AcDbEntity
  8
0
  6
Continuous
 62
     7
370
    25
100
AcDbCircle
 10
236.6507057795
 20
-65.8914852106
 30
0.0
 40
1.500000000000083
100
AcDbArc
 50
241.370956825
 51
61.3709568249
  0
ARC
  5
588
330
1F
100
AcDbEntity
  8
0
  6
Continuous
 62
     7
370
    25
100
AcDbCircle
 10
234.1930331798
 20
-64.5499020442
 30
0.0
 40
1.500000000000048
100
AcDbArc
 50
61.3709568249
 51
241.370956825
  0
ARC
  5
589
330
1F
100
AcDbEntity
  8
0
  6
Continuous
 62
     7
370
    25
100
AcDbCircle
 10
249.7290349711
 20
-73.0306242032
 30
0.0
 40
1.500000000000054
100
AcDbArc
 50
61.3709568249
 51
241.370956825
  0
ARC
  5
58A
330
1F
100
AcDbEntity
  8
0
  6
Continuous
 62
     7
370
    25
100
AcDbCircle
 10
252.1867075709
 20
-74.3722073696
 30
0.0
 40
1.500000000000052
100
AcDbArc
 50
241.3709568249
 51
61.370956825
  0
ARC
  5
58B
330
1F
100
AcDbEntity
  8
0
  6
Continuous
 62
     7
370
    25
100
AcDbCircle
 10
238.1902699008
 20
-69.3978479426
 30
0.0
 40
9.999999999999607
100
AcDbArc
 50
179.2756845412
 51
218.990821773
  0
ARC
  5
58C
330
1F
100
AcDbEntity
  8
0
  6
Continuous
 62
     7
370
    25
100
AcDbCircle
 10
243.1898703753
 20
-69.4610547069
 30
0.0
 40
14.99999999999872
100
AcDbArc
 50
151.3709568249
 51
179.2756845412
  0
ARC
  5
58D
330
1F
100
AcDbEntity
  8
0
  6
Continuous
 62
     7
370
    25
100
AcDbCircle
 10
238.8746024155
 20
-54.7715448981
 30
0.0
 40
5.000000000000084
100
AcDbArc
 50
56.9287529032
 51
155.8131607467
  0
ARC
  5
58E
330
1F
100
AcDbEntity
  8
0
  6
Continuous
 62
     7
370
    25
100
AcDbCircle
 10
243.1898703753
 20
-69.4610547069
 30
0.0
 40
14.99999999999925
100
AcDbArc
 50
33.4662291087
 51
61.3709568249
  0
ARC
  5
58F
330
1F
100
AcDbEntity
  8
0
  6
Continuous
 62
     7
370
    25
100
AcDbCircle
 10
247.3609253562
 20
-66.7038277763
 30
0.0
 40
10.00000000000029
100
AcDbArc
 50
353.7510918769
 51
33.4662291087
  0
ARC
  5
590
330
1F
100
AcDbEntity
  8
0
  6
Continuous
 62
     7
370
    25
100
AcDbCircle
 10
264.9099587008
 20
-90.1791087453
 30
0.0
 40
10.00000000000078
100
AcDbArc
 50
173.7510918769
 51
196.3709568249
  0
ARC
  5
591
330
1F
100
AcDbEntity
  8
0
  6
Continuous
 62
     7
370
    25
100
AcDbCircle
 10
276.7490212308
 20
-130.4802040144
 30
0.0
 40
10.00000000000293
100
AcDbArc
 50
196.370956825
 51
207.7459932978
  0
ARC
  5
592
330
1F
100
AcDbEntity
  8
0
  6
Continuous
 62
     7
370
    25
100
AcDbCircle
 10
276.5042243741
 20
-162.2346154942
 30
0.0
 40
5.000000000000002
100
AcDbArc
 50
323.1854784125
 51
27.7459932978
  0
ARC
  5
593
330
1F
100
AcDbEntity
  8
0
  6
Continuous
 62
     7
370
    25
100
AcDbCircle
 10
273.3080222133
 20
-169.8424462841
 30
0.0
 40
3.000000000000012
100
AcDbArc
 50
233.1854784125
 51
323.1854784125
  0
ARC
  5
594
330
1F
100
AcDbEntity
  8
0
  6
Continuous
 62
     7
370
    25
100
AcDbCircle
 10
266.3690588137
 20
-162.1505047056
 30
0.0
 40
5.00000000000018
100
AcDbArc
 50
187.9016370655
 51
233.1854784125
  0
ARC
  5
595
330
1F
100
AcDbEntity
  8
0
  6
Continuous
 62
     7
370
    25
100
AcDbCircle
 10
248.0373250752
 20
-139.1809960599
 30
0.0
 40
9.99999999997775
100
AcDbArc
 50
7.9016370655
 51
16.370956825
  0
ARC
  5
596
330
1F
100
AcDbEntity
  8
0
  6
Continuous
 62
     7
370
    25
100
AcDbCircle
 10
236.1262496038
 20
-98.6347631033
 30
0.0
 40
10.00000000000346
100
AcDbArc
 50
16.370956825
 51
38.990821773
  0
ARC
  5
597
330
1F
100
AcDbEntity
  8
0
  6
Continuous
 62
     7
370
    25
100
AcDbCircle
 10
246.7594398716
 20
-62.9218901111
 30
0.0
 40
1.500000000000023
100
AcDbArc
 50
151.3709568249
 51
331.3709568249
  0
ARC
  5
598
330
1F
100
AcDbEntity
  8
0
  6
Continuous
 62
     7
370
    25
100
AcDbCircle
 10
248.101023038
 20
-60.4642175114
 30
0.0
 40
1.500000000000079
100
AcDbArc
 50
331.3709568249
 51
151.3709568249
  0
ARC
  5
599
330
1F
100
AcDbEntity
  8
0
  6
Continuous
 62
     7
370
    25
100
AcDbCircle
 10
239.620300879
 20
-76.0002193027
 30
0.0
 40
1.500000000000075
100
AcDbArc
 50
331.370956825
 51
151.3709568249
  0
ARC
  5
59A
330
1F
100
AcDbEntity
  8
0
  6
Continuous
 62
     7
370
    25
100
AcDbCircle
 10
238.2787177126
 20
-78.4578919025
 30
0.0
 40
1.500000000000061
100
AcDbArc
 50
151.3709568249
 51
331.3709568249
  0
ARC
  5
59B
330
1F
100
AcDbEntity
  8
0
  6
Continuous
 62
     7
370
    25
100
AcDbCircle
 10
205.620339074
 20
-193.4491220551
 30
0.0
 40
1.500000000000043
100
AcDbArc
 50
61.3709568249
 51
241.370956825
  0
ARC
  5
59C
330
1F
100
AcDbEntity
  8
0
  6
Continuous
 62
     7
370
    25
100
AcDbCircle
 10
208.0780116738
 20
-194.7907052215
 30
0.0
 40
1.500000000000016
100
AcDbArc
 50
241.3709568249
 51
61.3709568249
  0
ARC
  5
59D
330
1F
100
AcDbEntity
  8
0
  6
Continuous
 62
     7
370
    25
100
AcDbCircle
 10
192.5420098824
 20
-186.3099830625
 30
0.0
 40
1.499999999999991
100
AcDbArc
 50
241.3709568249
 51
61.3709568249
  0
ARC
  5
59E
330
1F
100
AcDbEntity
  8
0
  6
Continuous
 62
     7
370
    25
100
AcDbCircle
 10
190.0843372826
 20
-184.9683998961
 30
0.0
 40
1.50000000000003
100
AcDbArc
 50
61.3709568249
 51
241.3709568249
  0
ARC
  5
59F
330
1F
100
AcDbEntity
  8
0
  6
Continuous
 62
     7
370
    25
100
AcDbCircle
 10
204.0807749527
 20
-189.9427593231
 30
0.0
 40
10.00000000000028
100
AcDbArc
 50
359.2756845412
 51
38.990821773
  0
ARC
  5
5A0
330
1F
100
AcDbEntity
  8
0
  6
Continuous
 62
     7
370
    25
100
AcDbCircle
 10
199.0811744782
 20
-189.8795525588
 30
0.0
 40
15.00000000000009
100
AcDbArc
 50
331.3709568249
 51
359.2756845412
  0
ARC
  5
5A1
330
1F
100
AcDbEntity
  8
0
  6
Continuous
 62
     7
370
    25
100
AcDbCircle
 10
203.396442438
 20
-204.5690623676
 30
0.0
 40
4.999999999999919
100
AcDbArc
 50
236.9287529032
 51
335.8131607467
  0
ARC
  5
5A2
330
1F
100
AcDbEntity
  8
0
  6
Continuous
 62
     7
370
    25
100
AcDbCircle
 10
199.0811744782
 20
-189.8795525588
 30
0.0
 40
15.00000000000012
100
AcDbArc
 50
213.4662291087
 51
241.3709568249
  0
ARC
  5
5A3
330
1F
100
AcDbEntity
  8
0
  6
Continuous
 62
     7
370
    25
100
AcDbCircle
 10
194.9101194973
 20
-192.6367794894
 30
0.0
 40
10.00000000000069
100
AcDbArc
 50
173.7510918769
 51
213.4662291087
  0
ARC
  5
5A4
330
1F
100
AcDbEntity
  8
0
  6
Continuous
 62
     7
370
    25
100
AcDbCircle
 10
177.3610861528
 20
-169.1614985204
 30
0.0
 40
10.00000000000034
100
AcDbArc
 50
353.7510918769
 51
16.3709568249
  0
ARC
  5
5A5
330
1F
100
AcDbEntity
  8
0
  6
Continuous
 62
     7
370
    25
100
AcDbCircle
 10
157.0663692647
 20
-100.0766941544
 30
0.0
 40
9.999999999999519
100
AcDbArc
 50
16.3709568249
 51
27.7459932978
  0
ARC
  5
5A6
330
1F
100
AcDbEntity
  8
0
  6
Continuous
 62
     7
370
    25
100
AcDbCircle
 10
157.3111661214
 20
-68.3222826746
 30
0.0
 40
5.000000000000016
100
AcDbArc
 50
143.1854784125
 51
207.7459932978
  0
ARC
  5
5A7
330
1F
100
AcDbEntity
  8
0
  6
Continuous
 62
     7
370
    25
100
AcDbCircle
 10
160.5073682822
 20
-60.7144518847
 30
0.0
 40
3.000000000000024
100
AcDbArc
 50
53.1854784125
 51
143.1854784125
  0
ARC
  5
5A8
330
1F
100
AcDbEntity
  8
0
  6
Continuous
 62
     7
370
    25
100
AcDbCircle
 10
167.4463316819
 20
-68.4063934632
 30
0.0
 40
4.999999999999746
100
AcDbArc
 50
7.9016370655
 51
53.1854784125
  0
ARC
  5
5A9
330
1F
100
AcDbEntity
  8
0
  6
Continuous
 62
     7
370
    25
100
AcDbCircle
 10
185.7780654203
 20
-91.3759021089
 30
0.0
 40
9.999999999998236
100
AcDbArc
 50
187.9016370655
 51
196.370956825
  0
ARC
  5
5AA
330
1F
100
AcDbEntity
  8
0
  6
Continuous
 62
     7
370
    25
100
AcDbCircle
 10
206.1447952497
 20
-160.7058441624
 30
0.0
 40
10.00000000000295
100
AcDbArc
 50
196.370956825
 51
218.990821773
  0
ARC
  5
5AB
330
1F
100
AcDbEntity
  8
0
  6
Continuous
 62
     7
370
    25
100
AcDbCircle
 10
195.5116049819
 20
-196.4187171546
 30
0.0
 40
1.49999999999998
100
AcDbArc
 50
331.3709568249
 51
151.3709568249
  0
ARC
  5
5AC
330
1F
100
AcDbEntity
  8
0
  6
Continuous
 62
     7
370
    25
100
AcDbCircle
 10
194.1700218155
 20
-198.8763897544
 30
0.0
 40
1.500000000000032
100
AcDbArc
 50
151.3709568249
 51
331.370956825
  0
ARC
  5
5AD
330
1F
100
AcDbEntity
  8
0
  6
Continuous
 62
     7
370
    25
100
AcDbCircle
 10
202.6507439745
 20
-183.340387963
 30
0.0
 40
1.49999999999998
100
AcDbArc
 50
151.3709568249
 51
331.370956825
  0
ARC
  5
5AE
330
1F
100
AcDbEntity
  8
0
  6
Continuous
 62
     7
370
    25
100
AcDbCircle
 10
203.9923271409
 20
-180.8827153632
 30
0.0
 40
1.499999999999993
100
AcDbArc
 50
331.3709568249
 51
151.3709568249
  0
ARC
  5
5AF
330
1F
100
AcDbEntity
  8
0
  6
Continuous
 62
     7
370
    25
100
AcDbCircle
 10
141.8534090403
 20
72.3290522236
 30
0.0
 40
1.500000000000067
100
AcDbArc
 50
241.3709568249
 51
61.3709568249
  0
ARC
  5
5B0
330
1F
100
AcDbEntity
  8
0
  6
Continuous
 62
     7
370
    25
100
AcDbCircle
 10
139.3957364405
 20
73.67063539
 30
0.0
 40
1.500000000000041
100
AcDbArc
 50
61.3709568249
 51
241.3709568249
  0
ARC
  5
5B1
330
1F
100
AcDbEntity
  8
0
  6
Continuous
 62
     7
370
    25
100
AcDbCircle
 10
154.9317382319
 20
65.189913231
 30
0.0
 40
1.500000000000092
100
AcDbArc
 50
61.3709568249
 51
241.3709568249
  0
ARC
  5
5B2
330
1F
100
AcDbEntity
  8
0
  6
Continuous
 62
     7
370
    25
100
AcDbCircle
 10
157.3894108316
 20
63.8483300646
 30
0.0
 40
1.500000000000074
100
AcDbArc
 50
241.3709568249
 51
61.3709568249
  0
ARC
  5
5B3
330
1F
100
AcDbEntity
  8
0
  6
Continuous
 62
     7
370
    25
100
AcDbCircle
 10
143.3929731615
 20
68.8226894916
 30
0.0
 40
9.999999999999524
100
AcDbArc
 50
179.2756845412
 51
218.990821773
  0
ARC
  5
5B4
330
1F
100
AcDbEntity
  8
0
  6
Continuous
 62
     7
370
    25
100
AcDbCircle
 10
148.3925736361
 20
68.7594827273
 30
0.0
 40
14.99999999999923
100
AcDbArc
 50
151.3709568249
 51
179.2756845412
  0
ARC
  5
5B5
330
1F
100
AcDbEntity
  8
0
  6
Continuous
 62
     7
370
    25
100
AcDbCircle
 10
144.0773056762
 20
83.4489925361
 30
0.0
 40
4.999999999999991
100
AcDbArc
 50
56.9287529032
 51
155.8131607467
  0
ARC
  5
5B6
330
1F
100
AcDbEntity
  8
0
  6
Continuous
 62
     7
370
    25
100
AcDbCircle
 10
148.3925736361
 20
68.7594827273
 30
0.0
 40
15.00000000000012
100
AcDbArc
 50
33.4662291087
 51
61.3709568249
  0
ARC
  5
5B7
330
1F
100
AcDbEntity
  8
0
  6
Continuous
 62
     7
370
    25
100
AcDbCircle
 10
152.5636286169
 20
71.5167096579
 30
0.0
 40
10.00000000000011
100
AcDbArc
 50
353.7510918769
 51
33.4662291087
  0
ARC
  5
5B8
330
1F
100
AcDbEntity
  8
0
  6
Continuous
 62
     7
370
    25
100
AcDbCircle
 10
170.1126619615
 20
48.041428689
 30
0.0
 40
9.999999999998048
100
AcDbArc
 50
173.7510918769
 51
196.370956825
  0
ARC
  5
5B9
330
1F
100
AcDbEntity
  8
0
  6
Continuous
 62
     7
370
    25
100
AcDbCircle
 10
181.9517244915
 20
7.7403334199
 30
0.0
 40
9.999999999998677
100
AcDbArc
 50
196.3709568249
 51
207.7459932978
  0
ARC
  5
5BA
330
1F
100
AcDbEntity
  8
0
  6
Continuous
 62
     7
370
    25
100
AcDbCircle
 10
181.7069276349
 20
-24.0140780599
 30
0.0
 40
4.999999999999989
100
AcDbArc
 50
323.1854784125
 51
27.7459932978
  0
ARC
  5
5BB
330
1F
100
AcDbEntity
  8
0
  6
Continuous
 62
     7
370
    25
100
AcDbCircle
 10
178.510725474
 20
-31.6219088499
 30
0.0
 40
2.999999999999915
100
AcDbArc
 50
233.1854784125
 51
323.1854784125
  0
ARC
  5
5BC
330
1F
100
AcDbEntity
  8
0
  6
Continuous
 62
     7
370
    25
100
AcDbCircle
 10
171.5717620744
 20
-23.9299672713
 30
0.0
 40
5.000000000000005
100
AcDbArc
 50
187.9016370655
 51
233.1854784125
  0
ARC
  5
5BD
330
1F
100
AcDbEntity
  8
0
  6
Continuous
 62
     7
370
    25
100
AcDbCircle
 10
153.2400283359
 20
-0.9604586256
 30
0.0
 40
10.00000000000666
100
AcDbArc
 50
7.9016370655
 51
16.3709568249
  0
ARC
  5
5BE
330
1F
100
AcDbEntity
  8
0
  6
Continuous
 62
     7
370
    25
100
AcDbCircle
 10
141.3289528645
 20
39.5857743309
 30
0.0
 40
10.00000000000292
100
AcDbArc
 50
16.370956825
 51
38.990821773
  0
ARC
  5
5BF
330
1F
100
AcDbEntity
  8
0
  6
Continuous
 62
     7
370
    25
100
AcDbCircle
 10
151.9621431324
 20
75.2986473231
 30
0.0
 40
1.500000000000036
100
AcDbArc
 50
151.3709568249
 51
331.3709568249
  0
ARC
  5
5C0
330
1F
100
AcDbEntity
  8
0
  6
Continuous
 62
     7
370
    25
100
AcDbCircle
 10
153.3037262988
 20
77.7563199229
 30
0.0
 40
1.500000000000082
100
AcDbArc
 50
331.3709568249
 51
151.3709568249
  0
ARC
  5
5C1
330
1F
100
AcDbEntity
  8
0
  6
Continuous
 62
     7
370
    25
100
AcDbCircle
 10
144.8230041398
 20
62.2203181315
 30
0.0
 40
1.5000000000001
100
AcDbArc
 50
331.370956825
 51
151.3709568249
  0
ARC
  5
5C2
330
1F
100
AcDbEntity
  8
0
  6
Continuous
 62
     7
370
    25
100
AcDbCircle
 10
143.4814209734
 20
59.7626455317
 30
0.0
 40
1.500000000000066
100
AcDbArc
 50
151.3709568249
 51
331.370956825
  0
ARC
  5
5C3
330
1F
100
AcDbEntity
  8
0
  6
Continuous
 62
     7
370
    25
100
AcDbCircle
 10
92.1529355438
 20
57.0364744741
 30
0.0
 40
1.500000000000043
100
AcDbArc
 50
241.3709568249
 51
61.3709568249
  0
ARC
  5
5C4
330
1F
100
AcDbEntity
  8
0
  6
Continuous
 62
     7
370
    25
100
AcDbCircle
 10
89.695262944
 20
58.3780576405
 30
0.0
 40
1.500000000000042
100
AcDbArc
 50
61.3709568249
 51
241.3709568249
  0
ARC
  5
5C5
330
1F
100
AcDbEntity
  8
0
  6
Continuous
 62
     7
370
    25
100
AcDbCircle
 10
105.2312647354
 20
49.8973354815
 30
0.0
 40
1.500000000000061
100
AcDbArc
 50
61.3709568249
 51
241.3709568249
  0
ARC
  5
5C6
330
1F
100
AcDbEntity
  8
0
  6
Continuous
 62
     7
370
    25
100
AcDbCircle
 10
107.6889373351
 20
48.5557523151
 30
0.0
 40
1.500000000000068
100
AcDbArc
 50
241.3709568249
 51
61.3709568249
  0
ARC
  5
5C7
330
1F
100
AcDbEntity
  8
0
  6
Continuous
 62
     7
370
    25
100
AcDbCircle
 10
93.692499665
 20
53.5301117422
 30
0.0
 40
10.00000000000047
100
AcDbArc
 50
179.2756845412
 51
218.990821773
  0
ARC
  5
5C8
330
1F
100
AcDbEntity
  8
0
  6
Continuous
 62
     7
370
    25
100
AcDbCircle
 10
98.6921001396
 20
53.4669049778
 30
0.0
 40
14.99999999999913
100
AcDbArc
 50
151.3709568249
 51
179.2756845412
  0
ARC
  5
5C9
330
1F
100
AcDbEntity
  8
0
  6
Continuous
 62
     7
370
    25
100
AcDbCircle
 10
94.3768321797
 20
68.1564147867
 30
0.0
 40
5.000000000000012
100
AcDbArc
 50
56.9287529032
 51
155.8131607467
  0
ARC
  5
5CA
330
1F
100
AcDbEntity
  8
0
  6
Continuous
 62
     7
370
    25
100
AcDbCircle
 10
98.6921001396
 20
53.4669049778
 30
0.0
 40
15.00000000000056
100
AcDbArc
 50
33.4662291087
 51
61.3709568249
  0
ARC
  5
5CB
330
1F
100
AcDbEntity
  8
0
  6
Continuous
 62
     7
370
    25
100
AcDbCircle
 10
102.8631551204
 20
56.2241319084
 30
0.0
 40
9.999999999999694
100
AcDbArc
 50
353.7510918769
 51
33.4662291087
  0
ARC
  5
5CC
330
1F
100
AcDbEntity
  8
0
  6
Continuous
 62
     7
370
    25
100
AcDbCircle
 10
120.412188465
 20
32.7488509395
 30
0.0
 40
9.999999999999101
100
AcDbArc
 50
173.7510918769
 51
196.3709568249
  0
ARC
  5
5CD
330
1F
100
AcDbEntity
  8
0
  6
Continuous
 62
     7
370
    25
100
AcDbCircle
 10
132.251250995
 20
-7.5522443296
 30
0.0
 40
9.9999999999985
100
AcDbArc
 50
196.3709568249
 51
207.7459932978
  0
ARC
  5
5CE
330
1F
100
AcDbEntity
  8
0
  6
Continuous
 62
     7
370
    25
100
AcDbCircle
 10
132.0064541384
 20
-39.3066558094
 30
0.0
 40
4.999999999999967
100
AcDbArc
 50
323.1854784125
 51
27.7459932978
  0
ARC
  5
5CF
330
1F
100
AcDbEntity
  8
0
  6
Continuous
 62
     7
370
    25
100
AcDbCircle
 10
128.8102519775
 20
-46.9144865993
 30
0.0
 40
3.000000000000035
100
AcDbArc
 50
233.1854784125
 51
323.1854784125
  0
ARC
  5
5D0
330
1F
100
AcDbEntity
  8
0
  6
Continuous
 62
     7
370
    25
100
AcDbCircle
 10
121.8712885779
 20
-39.2225450208
 30
0.0
 40
5.000000000000018
100
AcDbArc
 50
187.9016370655
 51
233.1854784125
  0
ARC
  5
5D1
330
1F
100
AcDbEntity
  8
0
  6
Continuous
 62
     7
370
    25
100
AcDbCircle
 10
103.5395548394
 20
-16.2530363751
 30
0.0
 40
10.00000000000216
100
AcDbArc
 50
7.9016370655
 51
16.3709568249
  0
ARC
  5
5D2
330
1F
100
AcDbEntity
  8
0
  6
Continuous
 62
     7
370
    25
100
AcDbCircle
 10
91.628479368
 20
24.2931965815
 30
0.0
 40
10.00000000000268
100
AcDbArc
 50
16.370956825
 51
38.990821773
  0
ARC
  5
5D3
330
1F
100
AcDbEntity
  8
0
  6
Continuous
 62
     7
370
    25
100
AcDbCircle
 10
102.2616696359
 20
60.0060695737
 30
0.0
 40
1.500000000000038
100
AcDbArc
 50
151.3709568249
 51
331.3709568249
  0
ARC
  5
5D4
330
1F
100
AcDbEntity
  8
0
  6
Continuous
 62
     7
370
    25
100
AcDbCircle
 10
103.6032528023
 20
62.4637421734
 30
0.0
 40
1.500000000000056
100
AcDbArc
 50
331.3709568249
 51
151.3709568249
  0
ARC
  5
5D5
330
1F
100
AcDbEntity
  8
0
  6
Continuous
 62
     7
370
    25
100
AcDbCircle
 10
95.1225306433
 20
46.927740382
 30
0.0
 40
1.500000000000085
100
AcDbArc
 50
331.370956825
 51
151.3709568249
  0
ARC
  5
5D6
330
1F
100
AcDbEntity
  8
0
  6
Continuous
 62
     7
370
    25
100
AcDbCircle
 10
93.7809474769
 20
44.4700677823
 30
0.0
 40
1.500000000000064
100
AcDbArc
 50
151.3709568249
 51
331.3709568249
  0
ARC
  5
5D7
330
1F
100
AcDbEntity
  8
0
  6
Continuous
 62
     7
370
    25
100
AcDbCircle
 10
155.9198655775
 20
-208.7416998046
 30
0.0
 40
1.500000000000005
100
AcDbArc
 50
61.3709568249
 51
241.3709568249
  0
ARC
  5
5D8
330
1F
100
AcDbEntity
  8
0
  6
Continuous
 62
     7
370
    25
100
AcDbCircle
 10
158.3775381773
 20
-210.0832829709
 30
0.0
 40
1.499999999999993
100
AcDbArc
 50
241.3709568249
 51
61.3709568249
  0
ARC
  5
5D9
330
1F
100
AcDbEntity
  8
0
  6
Continuous
 62
     7
370
    25
100
AcDbCircle
 10
142.8415363859
 20
-201.602560812
 30
0.0
 40
1.50000000000003
100
AcDbArc
 50
241.3709568249
 51
61.3709568249
  0
ARC
  5
5DA
330
1F
100
AcDbEntity
  8
0
  6
Continuous
 62
     7
370
    25
100
AcDbCircle
 10
140.3838637861
 20
-200.2609776456
 30
0.0
 40
1.499999999999991
100
AcDbArc
 50
61.3709568249
 51
241.3709568249
  0
ARC
  5
5DB
330
1F
100
AcDbEntity
  8
0
  6
Continuous
 62
     7
370
    25
100
AcDbCircle
 10
154.3803014562
 20
-205.2353370726
 30
0.0
 40
10.00000000000062
100
AcDbArc
 50
359.2756845412
 51
38.990821773
  0
ARC
  5
5DC
330
1F
100
AcDbEntity
  8
0
  6
Continuous
 62
     7
370
    25
100
AcDbCircle
 10
149.3807009817
 20
-205.1721303083
 30
0.0
 40
15.00000000000112
100
AcDbArc
 50
331.3709568249
 51
359.2756845412
  0
ARC
  5
5DD
330
1F
100
AcDbEntity
  8
0
  6
Continuous
 62
     7
370
    25
100
AcDbCircle
 10
153.6959689415
 20
-219.8616401171
 30
0.0
 40
5.000000000000078
100
AcDbArc
 50
236.9287529032
 51
335.8131607467
  0
ARC
  5
5DE
330
1F
100
AcDbEntity
  8
0
  6
Continuous
 62
     7
370
    25
100
AcDbCircle
 10
149.3807009817
 20
-205.1721303083
 30
0.0
 40
15.00000000000004
100
AcDbArc
 50
213.4662291087
 51
241.3709568249
  0
ARC
  5
5DF
330
1F
100
AcDbEntity
  8
0
  6
Continuous
 62
     7
370
    25
100
AcDbCircle
 10
145.2096460008
 20
-207.9293572388
 30
0.0
 40
9.999999999999963
100
AcDbArc
 50
173.7510918769
 51
213.4662291087
  0
ARC
  5
5E0
330
1F
100
AcDbEntity
  8
0
  6
Continuous
 62
     7
370
    25
100
AcDbCircle
 10
127.6606126563
 20
-184.4540762699
 30
0.0
 40
10.00000000000009
100
AcDbArc
 50
353.7510918769
 51
16.3709568249
  0
ARC
  5
5E1
330
1F
100
AcDbEntity
  8
0
  6
Continuous
 62
     7
370
    25
100
AcDbCircle
 10
107.3658957682
 20
-115.3692719039
 30
0.0
 40
9.999999999999194
100
AcDbArc
 50
16.3709568249
 51
27.7459932978
  0
ARC
  5
5E2
330
1F
100
AcDbEntity
  8
0
  6
Continuous
 62
     7
370
    25
100
AcDbCircle
 10
107.6106926249
 20
-83.6148604241
 30
0.0
 40
4.999999999999927
100
AcDbArc
 50
143.1854784125
 51
207.7459932978
  0
ARC
  5
5E3
330
1F
100
AcDbEntity
  8
0
  6
Continuous
 62
     7
370
    25
100
AcDbCircle
 10
110.8068947857
 20
-76.0070296341
 30
0.0
 40
3.000000000000061
100
AcDbArc
 50
53.1854784125
 51
143.1854784125
  0
ARC
  5
5E4
330
1F
100
AcDbEntity
  8
0
  6
Continuous
 62
     7
370
    25
100
AcDbCircle
 10
117.7458581853
 20
-83.6989712127
 30
0.0
 40
4.999999999999866
100
AcDbArc
 50
7.9016370655
 51
53.1854784125
  0
ARC
  5
5E5
330
1F
100
AcDbEntity
  8
0
  6
Continuous
 62
     7
370
    25
100
AcDbCircle
 10
136.0775919238
 20
-106.6684798584
 30
0.0
 40
10.00000000000159
100
AcDbArc
 50
187.9016370655
 51
196.3709568249
  0
ARC
  5
5E6
330
1F
100
AcDbEntity
  8
0
  6
Continuous
 62
     7
370
    25
100
AcDbCircle
 10
156.4443217532
 20
-175.9984219119
 30
0.0
 40
9.999999999999401
100
AcDbArc
 50
196.3709568249
 51
218.990821773
  0
ARC
  5
5E7
330
1F
100
AcDbEntity
  8
0
  6
Continuous
 62
     7
370
    25
100
AcDbCircle
 10
145.8111314854
 20
-211.7112949041
 30
0.0
 40
1.500000000000054
100
AcDbArc
 50
331.3709568249
 51
151.3709568249
  0
ARC
  5
5E8
330
1F
100
AcDbEntity
  8
0
  6
Continuous
 62
     7
370
    25
100
AcDbCircle
 10
144.469548319
 20
-214.1689675038
 30
0.0
 40
1.500000000000005
100
AcDbArc
 50
151.3709568249
 51
331.3709568249
  0
ARC
  5
5E9
330
1F
100
AcDbEntity
  8
0
  6
Continuous
 62
     7
370
    25
100
AcDbCircle
 10
152.950270478
 20
-198.6329657124
 30
0.0
 40
1.500000000000014
100
AcDbArc
 50
151.370956825
 51
331.3709568249
  0
ARC
  5
5EA
330
1F
100
AcDbEntity
  8
0
  6
Continuous
 62
     7
370
    25
100
AcDbCircle
 10
154.2918536444
 20
-196.1752931127
 30
0.0
 40
1.499999999999993
100
AcDbArc
 50
331.370956825
 51
151.3709568249
  0
ARC
  5
5EB
330
1F
100
AcDbEntity
  8
0
  6
Continuous
 62
     7
370
    25
100
AcDbCircle
 10
42.4524620473
 20
41.7438967247
 30
0.0
 40
1.500000000000056
100
AcDbArc
 50
241.3709568249
 51
61.3709568249
  0
ARC
  5
5EC
330
1F
100
AcDbEntity
  8
0
  6
Continuous
 62
     7
370
    25
100
AcDbCircle
 10
39.9947894475
 20
43.0854798911
 30
0.0
 40
1.50000000000004
100
AcDbArc
 50
61.3709568249
 51
241.370956825
  0
ARC
  5
5ED
330
1F
100
AcDbEntity
  8
0
  6
Continuous
 62
     7
370
    25
100
AcDbCircle
 10
55.5307912389
 20
34.6047577321
 30
0.0
 40
1.500000000000058
100
AcDbArc
 50
61.3709568249
 51
241.3709568249
  0
ARC
  5
5EE
330
1F
100
AcDbEntity
  8
0
  6
Continuous
 62
     7
370
    25
100
AcDbCircle
 10
57.9884638386
 20
33.2631745657
 30
0.0
 40
1.500000000000048
100
AcDbArc
 50
241.3709568249
 51
61.3709568249
  0
ARC
  5
5EF
330
1F
100
AcDbEntity
  8
0
  6
Continuous
 62
     7
370
    25
100
AcDbCircle
 10
43.9920261685
 20
38.2375339927
 30
0.0
 40
9.999999999999961
100
AcDbArc
 50
179.2756845412
 51
218.990821773
  0
ARC
  5
5F0
330
1F
100
AcDbEntity
  8
0
  6
Continuous
 62
     7
370
    25
100
AcDbCircle
 10
48.9916266431
 20
38.1743272284
 30
0.0
 40
14.99999999999943
100
AcDbArc
 50
151.3709568249
 51
179.2756845412
  0
ARC
  5
5F1
330
1F
100
AcDbEntity
  8
0
  6
Continuous
 62
     7
370
    25
100
AcDbCircle
 10
44.6763586832
 20
52.8638370372
 30
0.0
 40
5.00000000000002
100
AcDbArc
 50
56.9287529032
 51
155.8131607467
  0
ARC
  5
5F2
330
1F
100
AcDbEntity
  8
0
  6
Continuous
 62
     7
370
    25
100
AcDbCircle
 10
48.9916266431
 20
38.1743272284
 30
0.0
 40
15.00000000000051
100
AcDbArc
 50
33.4662291087
 51
61.3709568249
  0
ARC
  5
5F3
330
1F
100
AcDbEntity
  8
0
  6
Continuous
 62
     7
370
    25
100
AcDbCircle
 10
53.1626816239
 20
40.931554159
 30
0.0
 40
9.999999999999915
100
AcDbArc
 50
353.7510918769
 51
33.4662291087
  0
ARC
  5
5F4
330
1F
100
AcDbEntity
  8
0
  6
Continuous
 62
     7
370
    25
100
AcDbCircle
 10
70.7117149685
 20
17.45627319
 30
0.0
 40
9.999999999999543
100
AcDbArc
 50
173.7510918769
 51
196.3709568249
  0
ARC
  5
5F5
330
1F
100
AcDbEntity
  8
0
  6
Continuous
 62
     7
370
    25
100
AcDbCircle
 10
82.5507774985
 20
-22.8448220791
 30
0.0
 40
10.00000000000054
100
AcDbArc
 50
196.3709568249
 51
207.7459932978
  0
ARC
  5
5F6
330
1F
100
AcDbEntity
  8
0
  6
Continuous
 62
     7
370
    25
100
AcDbCircle
 10
82.3059806419
 20
-54.5992335589
 30
0.0
 40
5.000000000000073
100
AcDbArc
 50
323.1854784125
 51
27.7459932978
  0
ARC
  5
5F7
330
1F
100
AcDbEntity
  8
0
  6
Continuous
 62
     7
370
    25
100
AcDbCircle
 10
79.109778481
 20
-62.2070643488
 30
0.0
 40
2.999999999999976
100
AcDbArc
 50
233.1854784125
 51
323.1854784125
  0
ARC
  5
5F8
330
1F
100
AcDbEntity
  8
0
  6
Continuous
 62
     7
370
    25
100
AcDbCircle
 10
72.1708150814
 20
-54.5151227702
 30
0.0
 40
5.00000000000002
100
AcDbArc
 50
187.9016370655
 51
233.1854784125
  0
ARC
  5
5F9
330
1F
100
AcDbEntity
  8
0
  6
Continuous
 62
     7
370
    25
100
AcDbCircle
 10
53.8390813429
 20
-31.5456141246
 30
0.0
 40
10.00000000000063
100
AcDbArc
 50
7.9016370655
 51
16.3709568249
  0
ARC
  5
5FA
330
1F
100
AcDbEntity
  8
0
  6
Continuous
 62
     7
370
    25
100
AcDbCircle
 10
41.9280058715
 20
9.000618832
 30
0.0
 40
10.00000000000295
100
AcDbArc
 50
16.370956825
 51
38.990821773
  0
ARC
  5
5FB
330
1F
100
AcDbEntity
  8
0
  6
Continuous
 62
     7
370
    25
100
AcDbCircle
 10
52.5611961394
 20
44.7134918242
 30
0.0
 40
1.500000000000043
100
AcDbArc
 50
151.3709568249
 51
331.3709568249
  0
ARC
  5
5FC
330
1F
100
AcDbEntity
  8
0
  6
Continuous
 62
     7
370
    25
100
AcDbCircle
 10
53.9027793058
 20
47.1711644239
 30
0.0
 40
1.500000000000058
100
AcDbArc
 50
331.3709568249
 51
151.3709568249
  0
ARC
  5
5FD
330
1F
100
AcDbEntity
  8
0
  6
Continuous
 62
     7
370
    25
100
AcDbCircle
 10
45.4220571468
 20
31.6351626326
 30
0.0
 40
1.500000000000079
100
AcDbArc
 50
331.3709568249
 51
151.3709568249
  0
ARC
  5
5FE
330
1F
100
AcDbEntity
  8
0
  6
Continuous
 62
     7
370
    25
100
AcDbCircle
 10
44.0804739804
 20
29.1774900328
 30
0.0
 40
1.500000000000045
100
AcDbArc
 50
151.3709568249
 51
331.3709568249
  0
ARC
  5
5FF
330
1F
100
AcDbEntity
  8
0
  6
Continuous
 62
     7
370
    25
100
AcDbCircle
 10
106.219392081
 20
-224.034277554
 30
0.0
 40
1.500000000000054
100
AcDbArc
 50
61.3709568249
 51
241.3709568249
  0
ARC
  5
600
330
1F
100
AcDbEntity
  8
0
  6
Continuous
 62
     7
370
    25
100
AcDbCircle
 10
108.6770646808
 20
-225.3758607204
 30
0.0
 40
1.500000000000002
100
AcDbArc
 50
241.370956825
 51
61.3709568249
  0
ARC
  5
601
330
1F
100
AcDbEntity
  8
0
  6
Continuous
 62
     7
370
    25
100
AcDbCircle
 10
93.1410628894
 20
-216.8951385614
 30
0.0
 40
1.50000000000003
100
AcDbArc
 50
241.3709568249
 51
61.3709568249
  0
ARC
  5
602
330
1F
100
AcDbEntity
  8
0
  6
Continuous
 62
     7
370
    25
100
AcDbCircle
 10
90.6833902896
 20
-215.553555395
 30
0.0
 40
1.499999999999991
100
AcDbArc
 50
61.3709568249
 51
241.3709568249
  0
ARC
  5
603
330
1F
100
AcDbEntity
  8
0
  6
Continuous
 62
     7
370
    25
100
AcDbCircle
 10
104.6798279597
 20
-220.5279148221
 30
0.0
 40
10.0000000000002
100
AcDbArc
 50
359.2756845412
 51
38.990821773
  0
ARC
  5
604
330
1F
100
AcDbEntity
  8
0
  6
Continuous
 62
     7
370
    25
100
AcDbCircle
 10
99.6802274852
 20
-220.4647080577
 30
0.0
 40
15.00000000000127
100
AcDbArc
 50
331.3709568249
 51
359.2756845412
  0
ARC
  5
605
330
1F
100
AcDbEntity
  8
0
  6
Continuous
 62
     7
370
    25
100
AcDbCircle
 10
103.995495445
 20
-235.1542178665
 30
0.0
 40
4.999999999999944
100
AcDbArc
 50
236.9287529032
 51
335.8131607467
  0
ARC
  5
606
330
1F
100
AcDbEntity
  8
0
  6
Continuous
 62
     7
370
    25
100
AcDbCircle
 10
99.6802274852
 20
-220.4647080577
 30
0.0
 40
14.99999999999981
100
AcDbArc
 50
213.4662291087
 51
241.3709568249
  0
ARC
  5
607
330
1F
100
AcDbEntity
  8
0
  6
Continuous
 62
     7
370
    25
100
AcDbCircle
 10
95.5091725043
 20
-223.2219349883
 30
0.0
 40
10.0000000000001
100
AcDbArc
 50
173.7510918769
 51
213.4662291087
  0
ARC
  5
608
330
1F
100
AcDbEntity
  8
0
  6
Continuous
 62
     7
370
    25
100
AcDbCircle
 10
77.9601391598
 20
-199.7466540194
 30
0.0
 40
9.999999999999098
100
AcDbArc
 50
353.7510918769
 51
16.3709568249
  0
ARC
  5
609
330
1F
100
AcDbEntity
  8
0
  6
Continuous
 62
     7
370
    25
100
AcDbCircle
 10
57.6654222717
 20
-130.6618496533
 30
0.0
 40
9.999999999997275
100
AcDbArc
 50
16.3709568249
 51
27.7459932978
  0
ARC
  5
60A
330
1F
100
AcDbEntity
  8
0
  6
Continuous
 62
     7
370
    25
100
AcDbCircle
 10
57.9102191284
 20
-98.9074381735
 30
0.0
 40
4.999999999999972
100
AcDbArc
 50
143.1854784125
 51
207.7459932978
  0
ARC
  5
60B
330
1F
100
AcDbEntity
  8
0
  6
Continuous
 62
     7
370
    25
100
AcDbCircle
 10
61.1064212892
 20
-91.2996073836
 30
0.0
 40
3.000000000000009
100
AcDbArc
 50
53.1854784125
 51
143.1854784125
  0
ARC
  5
60C
330
1F
100
AcDbEntity
  8
0
  6
Continuous
 62
     7
370
    25
100
AcDbCircle
 10
68.0453846888
 20
-98.9915489622
 30
0.0
 40
4.999999999999902
100
AcDbArc
 50
7.9016370655
 51
53.1854784125
  0
ARC
  5
60D
330
1F
100
AcDbEntity
  8
0
  6
Continuous
 62
     7
370
    25
100
AcDbCircle
 10
86.3771184273
 20
-121.9610576078
 30
0.0
 40
9.999999999998638
100
AcDbArc
 50
187.9016370655
 51
196.370956825
  0
ARC
  5
60E
330
1F
100
AcDbEntity
  8
0
  6
Continuous
 62
     7
370
    25
100
AcDbCircle
 10
106.7438482567
 20
-191.2909996614
 30
0.0
 40
10.00000000000186
100
AcDbArc
 50
196.370956825
 51
218.990821773
  0
ARC
  5
60F
330
1F
100
AcDbEntity
  8
0
  6
Continuous
 62
     7
370
    25
100
AcDbCircle
 10
96.1106579889
 20
-227.0038726535
 30
0.0
 40
1.50000000000003
100
AcDbArc
 50
331.3709568249
 51
151.3709568249
  0
ARC
  5
610
330
1F
100
AcDbEntity
  8
0
  6
Continuous
 62
     7
370
    25
100
AcDbCircle
 10
94.7690748225
 20
-229.4615452533
 30
0.0
 40
1.500000000000015
100
AcDbArc
 50
151.3709568249
 51
331.370956825
  0
ARC
  5
611
330
1F
100
AcDbEntity
  8
0
  6
Continuous
 62
     7
370
    25
100
AcDbCircle
 10
103.2497969815
 20
-213.9255434619
 30
0.0
 40
1.500000000000012
100
AcDbArc
 50
151.3709568249
 51
331.370956825
  0
ARC
  5
612
330
1F
100
AcDbEntity
  8
0
  6
Continuous
 62
     7
370
    25
100
AcDbCircle
 10
104.5913801479
 20
-211.4678708621
 30
0.0
 40
1.499999999999994
100
AcDbArc
 50
331.3709568249
 51
151.3709568249
  0
ARC
  5
613
330
1F
100
AcDbEntity
  8
0
  6
Continuous
 62
     7
370
    25
100
AcDbCircle
 10
11.4220953417
 20
-85.8137401198
 30
0.0
 40
1.500000000000035
100
AcDbArc
 50
61.3709568249
 51
241.3709568249
  0
ARC
  5
614
330
1F
100
AcDbEntity
  8
0
  6
Continuous
 62
     7
370
    25
100
AcDbCircle
 10
13.8797679415
 20
-87.1553232862
 30
0.0
 40
1.499999999999983
100
AcDbArc
 50
241.3709568249
 51
61.3709568249
  0
ARC
  5
615
330
1F
100
AcDbEntity
  8
0
  6
Continuous
 62
     7
370
    25
100
AcDbCircle
 10
-1.6562338499
 20
-78.6746011272
 30
0.0
 40
1.50000000000001
100
AcDbArc
 50
241.3709568249
 51
61.3709568249
  0
ARC
  5
616
330
1F
100
AcDbEntity
  8
0
  6
Continuous
 62
     7
370
    25
100
AcDbCircle
 10
-4.1139064497
 20
-77.3330179608
 30
0.0
 40
1.499999999999983
100
AcDbArc
 50
61.3709568249
 51
241.3709568249
  0
ARC
  5
617
330
1F
100
AcDbEntity
  8
0
  6
Continuous
 62
     7
370
    25
100
AcDbCircle
 10
9.8825312204
 20
-82.3073773878
 30
0.0
 40
10.00000000000012
100
AcDbArc
 50
359.2756845412
 51
38.990821773
  0
ARC
  5
618
330
1F
100
AcDbEntity
  8
0
  6
Continuous
 62
     7
370
    25
100
AcDbCircle
 10
4.8829307459
 20
-82.2441706235
 30
0.0
 40
15.00000000000056
100
AcDbArc
 50
331.3709568249
 51
359.2756845412
  0
ARC
  5
619
330
1F
100
AcDbEntity
  8
0
  6
Continuous
 62
     7
370
    25
100
AcDbCircle
 10
9.1981987058
 20
-96.9336804323
 30
0.0
 40
5.000000000000005
100
AcDbArc
 50
236.9287529032
 51
335.8131607467
  0
ARC
  5
61A
330
1F
100
AcDbEntity
  8
0
  6
Continuous
 62
     7
370
    25
100
AcDbCircle
 10
4.8829307459
 20
-82.2441706235
 30
0.0
 40
14.99999999999932
100
AcDbArc
 50
213.4662291087
 51
241.3709568249
  0
ARC
  5
61B
330
1F
100
AcDbEntity
  8
0
  6
Continuous
 62
     7
370
    25
100
AcDbCircle
 10
0.7118757651
 20
-85.0013975541
 30
0.0
 40
9.999999999999996
100
AcDbArc
 50
173.7510918769
 51
213.4662291087
  0
ARC
  5
61C
330
1F
100
AcDbEntity
  8
0
  6
Continuous
 62
     7
370
    25
100
AcDbCircle
 10
-16.8371575795
 20
-61.5261165851
 30
0.0
 40
9.999999999998629
100
AcDbArc
 50
353.7510918769
 51
16.3709568249
  0
ARC
  5
61D
330
1F
100
AcDbEntity
  8
0
  6
Continuous
 62
     7
370
    25
100
AcDbCircle
 10
-37.1318744676
 20
7.5586877809
 30
0.0
 40
9.999999999997431
100
AcDbArc
 50
16.3709568249
 51
27.7459932978
  0
ARC
  5
61E
330
1F
100
AcDbEntity
  8
0
  6
Continuous
 62
     7
370
    25
100
AcDbCircle
 10
-36.8870776109
 20
39.3130992607
 30
0.0
 40
4.999999999999927
100
AcDbArc
 50
143.1854784125
 51
207.7459932978
  0
ARC
  5
61F
330
1F
100
AcDbEntity
  8
0
  6
Continuous
 62
     7
370
    25
100
AcDbCircle
 10
-33.69087545
 20
46.9209300507
 30
0.0
 40
2.999999999999958
100
AcDbArc
 50
53.1854784125
 51
143.1854784125
  0
ARC
  5
620
330
1F
100
AcDbEntity
  8
0
  6
Continuous
 62
     7
370
    25
100
AcDbCircle
 10
-26.7519120504
 20
39.2289884721
 30
0.0
 40
5.000000000000125
100
AcDbArc
 50
7.9016370655
 51
53.1854784125
  0
ARC
  5
621
330
1F
100
AcDbEntity
  8
0
  6
Continuous
 62
     7
370
    25
100
AcDbCircle
 10
-8.420178312
 20
16.2594798264
 30
0.0
 40
10.00000000000662
100
AcDbArc
 50
187.9016370655
 51
196.3709568249
  0
ARC
  5
622
330
1F
100
AcDbEntity
  8
0
  6
Continuous
 62
     7
370
    25
100
AcDbCircle
 10
11.9465515174
 20
-53.0704622271
 30
0.0
 40
10.00000000000036
100
AcDbArc
 50
196.3709568249
 51
218.990821773
  0
ARC
  5
623
330
1F
100
AcDbEntity
  8
0
  6
Continuous
 62
     7
370
    25
100
AcDbCircle
 10
1.3133612496
 20
-88.7833352193
 30
0.0
 40
1.500000000000027
100
AcDbArc
 50
331.3709568249
 51
151.3709568249
  0
ARC
  5
624
330
1F
100
AcDbEntity
  8
0
  6
Continuous
 62
     7
370
    25
100
AcDbCircle
 10
-0.0282219168
 20
-91.241007819
 30
0.0
 40
1.500000000000021
100
AcDbArc
 50
151.3709568249
 51
331.3709568249
  0
ARC
  5
625
330
1F
100
AcDbEntity
  8
0
  6
Continuous
 62
     7
370
    25
100
AcDbCircle
 10
8.4525002422
 20
-75.7050060277
 30
0.0
 40
1.50000000000001
100
AcDbArc
 50
151.3709568249
 51
331.3709568249
  0
ARC
  5
626
330
1F
100
AcDbEntity
  8
0
  6
Continuous
 62
     7
370
    25
100
AcDbCircle
 10
9.7940834086
 20
-73.2473334279
 30
0.0
 40
1.499999999999986
100
AcDbArc
 50
331.3709568249
 51
151.3709568249
  0
ARC
  5
627
330
1F
100
AcDbEntity
  8
0
  6
Continuous
 62
     7
370
    25
100
AcDbCircle
 10
87.54928529
 20
-111.769218459
 30
0.0
 40
1.500000000000054
100
AcDbArc
 50
241.3709568249
 51
61.3709568249
  0
ARC
  5
628
330
1F
100
AcDbEntity
  8
0
  6
Continuous
 62
     7
370
    25
100
AcDbCircle
 10
85.0916126903
 20
-110.4276352927
 30
0.0
 40
1.500000000000066
100
AcDbArc
 50
61.3709568249
 51
241.370956825
  0
ARC
  5
629
330
1F
100
AcDbEntity
  8
0
  6
Continuous
 62
     7
370
    25
100
AcDbCircle
 10
100.6276144816
 20
-118.9083574516
 30
0.0
 40
1.500000000000073
100
AcDbArc
 50
61.3709568249
 51
241.3709568249
  0
ARC
  5
62A
330
1F
100
AcDbEntity
  8
0
  6
Continuous
 62
     7
370
    25
100
AcDbCircle
 10
103.0852870814
 20
-120.249940618
 30
0.0
 40
1.500000000000061
100
AcDbArc
 50
241.3709568249
 51
61.3709568249
  0
ARC
  5
62B
330
1F
100
AcDbEntity
  8
0
  6
Continuous
 62
     7
370
    25
100
AcDbCircle
 10
89.0888494113
 20
-115.275581191
 30
0.0
 40
10.00000000000016
100
AcDbArc
 50
179.2756845412
 51
218.990821773
  0
ARC
  5
62C
330
1F
100
AcDbEntity
  8
0
  6
Continuous
 62
     7
370
    25
100
AcDbCircle
 10
94.0884498858
 20
-115.3387879553
 30
0.0
 40
14.99999999999935
100
AcDbArc
 50
151.3709568249
 51
179.2756845412
  0
ARC
  5
62D
330
1F
100
AcDbEntity
  8
0
  6
Continuous
 62
     7
370
    25
100
AcDbCircle
 10
89.773181926
 20
-100.6492781465
 30
0.0
 40
5.000000000000028
100
AcDbArc
 50
56.9287529032
 51
155.8131607467
  0
ARC
  5
62E
330
1F
100
AcDbEntity
  8
0
  6
Continuous
 62
     7
370
    25
100
AcDbCircle
 10
94.0884498858
 20
-115.3387879553
 30
0.0
 40
15.00000000000015
100
AcDbArc
 50
33.4662291087
 51
61.3709568249
  0
ARC
  5
62F
330
1F
100
AcDbEntity
  8
0
  6
Continuous
 62
     7
370
    25
100
AcDbCircle
 10
98.2595048667
 20
-112.5815610248
 30
0.0
 40
10.00000000000002
100
AcDbArc
 50
353.7510918769
 51
33.4662291087
  0
ARC
  5
630
330
1F
100
AcDbEntity
  8
0
  6
Continuous
 62
     7
370
    25
100
AcDbCircle
 10
115.8085382113
 20
-136.0568419937
 30
0.0
 40
9.999999999999474
100
AcDbArc
 50
173.7510918769
 51
196.3709568249
  0
ARC
  5
631
330
1F
100
AcDbEntity
  8
0
  6
Continuous
 62
     7
370
    25
100
AcDbCircle
 10
127.6476007413
 20
-176.3579372628
 30
0.0
 40
10.00000000000343
100
AcDbArc
 50
196.370956825
 51
207.7459932978
  0
ARC
  5
632
330
1F
100
AcDbEntity
  8
0
  6
Continuous
 62
     7
370
    25
100
AcDbCircle
 10
127.4028038846
 20
-208.1123487426
 30
0.0
 40
5.00000000000011
100
AcDbArc
 50
323.1854784125
 51
27.7459932978
  0
ARC
  5
633
330
1F
100
AcDbEntity
  8
0
  6
Continuous
 62
     7
370
    25
100
AcDbCircle
 10
124.2066017238
 20
-215.7201795325
 30
0.0
 40
3.000000000000075
100
AcDbArc
 50
233.1854784125
 51
323.1854784125
  0
ARC
  5
634
330
1F
100
AcDbEntity
  8
0
  6
Continuous
 62
     7
370
    25
100
AcDbCircle
 10
117.2676383242
 20
-208.028237954
 30
0.0
 40
5.000000000000054
100
AcDbArc
 50
187.9016370655
 51
233.1854784125
  0
ARC
  5
635
330
1F
100
AcDbEntity
  8
0
  6
Continuous
 62
     7
370
    25
100
AcDbCircle
 10
98.9359045857
 20
-185.0587293083
 30
0.0
 40
9.999999999998128
100
AcDbArc
 50
7.9016370655
 51
16.3709568249
  0
ARC
  5
636
330
1F
100
AcDbEntity
  8
0
  6
Continuous
 62
     7
370
    25
100
AcDbCircle
 10
87.0248291143
 20
-144.5124963517
 30
0.0
 40
10.00000000000232
100
AcDbArc
 50
16.370956825
 51
38.990821773
  0
ARC
  5
637
330
1F
100
AcDbEntity
  8
0
  6
Continuous
 62
     7
370
    25
100
AcDbCircle
 10
97.6580193821
 20
-108.7996233595
 30
0.0
 40
1.500000000000049
100
AcDbArc
 50
151.3709568249
 51
331.3709568249
  0
ARC
  5
638
330
1F
100
AcDbEntity
  8
0
  6
Continuous
 62
     7
370
    25
100
AcDbCircle
 10
98.9996025485
 20
-106.3419507598
 30
0.0
 40
1.500000000000068
100
AcDbArc
 50
331.3709568249
 51
151.3709568249
  0
ARC
  5
639
330
1F
100
AcDbEntity
  8
0
  6
Continuous
 62
     7
370
    25
100
AcDbCircle
 10
90.5188803895
 20
-121.8779525512
 30
0.0
 40
1.500000000000099
100
AcDbArc
 50
331.3709568249
 51
151.3709568249
  0
ARC
  5
63A
330
1F
100
AcDbEntity
  8
0
  6
Continuous
 62
     7
370
    25
100
AcDbCircle
 10
89.1772972231
 20
-124.3356251509
 30
0.0
 40
1.500000000000056
100
AcDbArc
 50
151.3709568249
 51
331.370956825
  0
ARC
  5
63B
330
1F
100
AcDbEntity
  8
0
  6
Continuous
 62
     7
370
    25
100
AcDbCircle
 10
137.2497587865
 20
-96.4766407096
 30
0.0
 40
1.500000000000065
100
AcDbArc
 50
241.3709568249
 51
61.370956825
  0
ARC
  5
63C
330
1F
100
AcDbEntity
  8
0
  6
Continuous
 62
     7
370
    25
100
AcDbCircle
 10
134.7920861868
 20
-95.1350575432
 30
0.0
 40
1.500000000000054
100
AcDbArc
 50
61.3709568249
 51
241.3709568249
  0
ARC
  5
63D
330
1F
100
AcDbEntity
  8
0
  6
Continuous
 62
     7
370
    25
100
AcDbCircle
 10
150.3280879781
 20
-103.6157797022
 30
0.0
 40
1.500000000000081
100
AcDbArc
 50
61.3709568249
 51
241.3709568249
  0
ARC
  5
63E
330
1F
100
AcDbEntity
  8
0
  6
Continuous
 62
     7
370
    25
100
AcDbCircle
 10
152.7857605779
 20
-104.9573628686
 30
0.0
 40
1.500000000000053
100
AcDbArc
 50
241.3709568249
 51
61.3709568249
  0
ARC
  5
63F
330
1F
100
AcDbEntity
  8
0
  6
Continuous
 62
     7
370
    25
100
AcDbCircle
 10
138.7893229078
 20
-99.9830034415
 30
0.0
 40
10.0000000000004
100
AcDbArc
 50
179.2756845412
 51
218.990821773
  0
ARC
  5
640
330
1F
100
AcDbEntity
  8
0
  6
Continuous
 62
     7
370
    25
100
AcDbCircle
 10
143.7889233823
 20
-100.0462102059
 30
0.0
 40
14.99999999999983
100
AcDbArc
 50
151.3709568249
 51
179.2756845412
  0
ARC
  5
641
330
1F
100
AcDbEntity
  8
0
  6
Continuous
 62
     7
370
    25
100
AcDbCircle
 10
139.4736554225
 20
-85.3567003971
 30
0.0
 40
5.00000000000004
100
AcDbArc
 50
56.9287529032
 51
155.8131607467
  0
ARC
  5
642
330
1F
100
AcDbEntity
  8
0
  6
Continuous
 62
     7
370
    25
100
AcDbCircle
 10
143.7889233823
 20
-100.0462102059
 30
0.0
 40
14.99999999999995
100
AcDbArc
 50
33.4662291087
 51
61.3709568249
  0
ARC
  5
643
330
1F
100
AcDbEntity
  8
0
  6
Continuous
 62
     7
370
    25
100
AcDbCircle
 10
147.9599783632
 20
-97.2889832753
 30
0.0
 40
10.00000000000019
100
AcDbArc
 50
353.7510918769
 51
33.4662291087
  0
ARC
  5
644
330
1F
100
AcDbEntity
  8
0
  6
Continuous
 62
     7
370
    25
100
AcDbCircle
 10
165.5090117078
 20
-120.7642642442
 30
0.0
 40
10.00000000000022
100
AcDbArc
 50
173.7510918769
 51
196.3709568249
  0
ARC
  5
645
330
1F
100
AcDbEntity
  8
0
  6
Continuous
 62
     7
370
    25
100
AcDbCircle
 10
177.3480742378
 20
-161.0653595133
 30
0.0
 40
10.00000000000182
100
AcDbArc
 50
196.370956825
 51
207.7459932978
  0
ARC
  5
646
330
1F
100
AcDbEntity
  8
0
  6
Continuous
 62
     7
370
    25
100
AcDbCircle
 10
177.1032773811
 20
-192.8197709931
 30
0.0
 40
4.999999999999952
100
AcDbArc
 50
323.1854784125
 51
27.7459932978
  0
ARC
  5
647
330
1F
100
AcDbEntity
  8
0
  6
Continuous
 62
     7
370
    25
100
AcDbCircle
 10
173.9070752203
 20
-200.4276017831
 30
0.0
 40
3.000000000000052
100
AcDbArc
 50
233.1854784125
 51
323.1854784125
  0
ARC
  5
648
330
1F
100
AcDbEntity
  8
0
  6
Continuous
 62
     7
370
    25
100
AcDbCircle
 10
166.9681118207
 20
-192.7356602045
 30
0.0
 40
5.000000000000052
100
AcDbArc
 50
187.9016370655
 51
233.1854784125
  0
ARC
  5
649
330
1F
100
AcDbEntity
  8
0
  6
Continuous
 62
     7
370
    25
100
AcDbCircle
 10
148.6363780822
 20
-169.7661515588
 30
0.0
 40
9.999999999992639
100
AcDbArc
 50
7.9016370655
 51
16.3709568249
  0
ARC
  5
64A
330
1F
100
AcDbEntity
  8
0
  6
Continuous
 62
     7
370
    25
100
AcDbCircle
 10
136.7253026108
 20
-129.2199186022
 30
0.0
 40
10.00000000000394
100
AcDbArc
 50
16.370956825
 51
38.990821773
  0
ARC
  5
64B
330
1F
100
AcDbEntity
  8
0
  6
Continuous
 62
     7
370
    25
100
AcDbCircle
 10
147.3584928786
 20
-93.5070456101
 30
0.0
 40
1.500000000000059
100
AcDbArc
 50
151.3709568249
 51
331.3709568249
  0
ARC
  5
64C
330
1F
100
AcDbEntity
  8
0
  6
Continuous
 62
     7
370
    25
100
AcDbCircle
 10
148.700076045
 20
-91.0493730103
 30
0.0
 40
1.500000000000054
100
AcDbArc
 50
331.3709568249
 51
151.3709568249
  0
ARC
  5
64D
330
1F
100
AcDbEntity
  8
0
  6
Continuous
 62
     7
370
    25
100
AcDbCircle
 10
140.219353886
 20
-106.5853748017
 30
0.0
 40
1.500000000000059
100
AcDbArc
 50
331.370956825
 51
151.3709568249
  0
ARC
  5
64E
330
1F
100
AcDbEntity
  8
0
  6
Continuous
 62
     7
370
    25
100
AcDbCircle
 10
138.8777707196
 20
-109.0430474015
 30
0.0
 40
1.500000000000075
100
AcDbArc
 50
151.3709568249
 51
331.370956825
  0
ARC
  5
64F
330
1F
100
AcDbEntity
  8
0
  6
Continuous
 62
     7
370
    25
100
AcDbCircle
 10
110.8230423347
 20
-55.2285846208
 30
0.0
 40
1.50000000000003
100
AcDbArc
 50
61.3709568249
 51
241.3709568249
  0
ARC
  5
650
330
1F
100
AcDbEntity
  8
0
  6
Continuous
 62
     7
370
    25
100
AcDbCircle
 10
113.2807149345
 20
-56.5701677872
 30
0.0
 40
1.49999999999999
100
AcDbArc
 50
241.3709568249
 51
61.3709568249
  0
ARC
  5
651
330
1F
100
AcDbEntity
  8
0
  6
Continuous
 62
     7
370
    25
100
AcDbCircle
 10
97.7447131431
 20
-48.0894456282
 30
0.0
 40
1.500000000000023
100
AcDbArc
 50
241.3709568249
 51
61.3709568249
  0
ARC
  5
652
330
1F
100
AcDbEntity
  8
0
  6
Continuous
 62
     7
370
    25
100
AcDbCircle
 10
95.2870405433
 20
-46.7478624618
 30
0.0
 40
1.499999999999993
100
AcDbArc
 50
61.3709568249
 51
241.3709568249
  0
ARC
  5
653
330
1F
100
AcDbEntity
  8
0
  6
Continuous
 62
     7
370
    25
100
AcDbCircle
 10
109.2834782134
 20
-51.7222218889
 30
0.0
 40
10.0000000000002
100
AcDbArc
 50
359.2756845412
 51
38.990821773
  0
ARC
  5
654
330
1F
100
AcDbEntity
  8
0
  6
Continuous
 62
     7
370
    25
100
AcDbCircle
 10
104.2838777389
 20
-51.6590151245
 30
0.0
 40
15.00000000000054
100
AcDbArc
 50
331.3709568249
 51
359.2756845412
  0
ARC
  5
655
330
1F
100
AcDbEntity
  8
0
  6
Continuous
 62
     7
370
    25
100
AcDbCircle
 10
108.5991456988
 20
-66.3485249334
 30
0.0
 40
4.999999999999986
100
AcDbArc
 50
236.9287529032
 51
335.8131607467
  0
ARC
  5
656
330
1F
100
AcDbEntity
  8
0
  6
Continuous
 62
     7
370
    25
100
AcDbCircle
 10
104.2838777389
 20
-51.6590151245
 30
0.0
 40
15.00000000000006
100
AcDbArc
 50
213.4662291087
 51
241.3709568249
  0
ARC
  5
657
330
1F
100
AcDbEntity
  8
0
  6
Continuous
 62
     7
370
    25
100
AcDbCircle
 10
100.1128227581
 20
-54.4162420551
 30
0.0
 40
9.999999999999856
100
AcDbArc
 50
173.7510918769
 51
213.4662291087
  0
ARC
  5
658
330
1F
100
AcDbEntity
  8
0
  6
Continuous
 62
     7
370
    25
100
AcDbCircle
 10
82.5637894135
 20
-30.9409610862
 30
0.0
 40
9.999999999999194
100
AcDbArc
 50
353.7510918769
 51
16.3709568249
  0
ARC
  5
659
330
1F
100
AcDbEntity
  8
0
  6
Continuous
 62
     7
370
    25
100
AcDbCircle
 10
62.2690725254
 20
38.1438432799
 30
0.0
 40
10.00000000000186
100
AcDbArc
 50
16.3709568249
 51
27.7459932978
  0
ARC
  5
65A
330
1F
100
AcDbEntity
  8
0
  6
Continuous
 62
     7
370
    25
100
AcDbCircle
 10
62.5138693821
 20
69.8982547597
 30
0.0
 40
4.999999999999945
100
AcDbArc
 50
143.1854784125
 51
207.7459932978
  0
ARC
  5
65B
330
1F
100
AcDbEntity
  8
0
  6
Continuous
 62
     7
370
    25
100
AcDbCircle
 10
65.710071543
 20
77.5060855496
 30
0.0
 40
3.000000000000047
100
AcDbArc
 50
53.1854784125
 51
143.1854784125
  0
ARC
  5
65C
330
1F
100
AcDbEntity
  8
0
  6
Continuous
 62
     7
370
    25
100
AcDbCircle
 10
72.6490349426
 20
69.814143971
 30
0.0
 40
4.999999999999845
100
AcDbArc
 50
7.9016370655
 51
53.1854784125
  0
ARC
  5
65D
330
1F
100
AcDbEntity
  8
0
  6
Continuous
 62
     7
370
    25
100
AcDbCircle
 10
90.980768681
 20
46.8446353254
 30
0.0
 40
9.999999999999806
100
AcDbArc
 50
187.9016370655
 51
196.3709568249
  0
ARC
  5
65E
330
1F
100
AcDbEntity
  8
0
  6
Continuous
 62
     7
370
    25
100
AcDbCircle
 10
111.3474985104
 20
-22.4853067282
 30
0.0
 40
10.00000000000058
100
AcDbArc
 50
196.3709568249
 51
218.990821773
  0
ARC
  5
65F
330
1F
100
AcDbEntity
  8
0
  6
Continuous
 62
     7
370
    25
100
AcDbCircle
 10
100.7143082426
 20
-58.1981797203
 30
0.0
 40
1.500000000000012
100
AcDbArc
 50
331.3709568249
 51
151.3709568249
  0
ARC
  5
660
330
1F
100
AcDbEntity
  8
0
  6
Continuous
 62
     7
370
    25
100
AcDbCircle
 10
99.3727250762
 20
-60.6558523201
 30
0.0
 40
1.500000000000015
100
AcDbArc
 50
151.3709568249
 51
331.370956825
  0
ARC
  5
661
330
1F
100
AcDbEntity
  8
0
  6
Continuous
 62
     7
370
    25
100
AcDbCircle
 10
107.8534472352
 20
-45.1198505287
 30
0.0
 40
1.500000000000017
100
AcDbArc
 50
151.3709568249
 51
331.3709568249
  0
ARC
  5
662
330
1F
100
AcDbEntity
  8
0
  6
Continuous
 62
     7
370
    25
100
AcDbCircle
 10
109.1950304016
 20
-42.662177929
 30
0.0
 40
1.499999999999985
100
AcDbArc
 50
331.3709568249
 51
151.3709568249
  0
ARC
  5
663
330
1F
100
AcDbEntity
  8
0
  6
Continuous
 62
     7
370
    25
100
AcDbCircle
 10
160.5235158312
 20
-39.9360068714
 30
0.0
 40
1.500000000000044
100
AcDbArc
 50
61.3709568249
 51
241.3709568249
  0
ARC
  5
664
330
1F
100
AcDbEntity
  8
0
  6
Continuous
 62
     7
370
    25
100
AcDbCircle
 10
162.981188431
 20
-41.2775900378
 30
0.0
 40
1.499999999999973
100
AcDbArc
 50
241.3709568249
 51
61.3709568249
  0
ARC
  5
665
330
1F
100
AcDbEntity
  8
0
  6
Continuous
 62
     7
370
    25
100
AcDbCircle
 10
147.4451866396
 20
-32.7968678788
 30
0.0
 40
1.500000000000006
100
AcDbArc
 50
241.3709568249
 51
61.3709568249
  0
ARC
  5
666
330
1F
100
AcDbEntity
  8
0
  6
Continuous
 62
     7
370
    25
100
AcDbCircle
 10
144.9875140398
 20
-31.4552847124
 30
0.0
 40
1.499999999999984
100
AcDbArc
 50
61.3709568249
 51
241.3709568249
  0
ARC
  5
667
330
1F
100
AcDbEntity
  8
0
  6
Continuous
 62
     7
370
    25
100
AcDbCircle
 10
158.9839517099
 20
-36.4296441394
 30
0.0
 40
10.00000000000017
100
AcDbArc
 50
359.2756845412
 51
38.990821773
  0
ARC
  5
668
330
1F
100
AcDbEntity
  8
0
  6
Continuous
 62
     7
370
    25
100
AcDbCircle
 10
153.9843512354
 20
-36.3664373751
 30
0.0
 40
15.00000000000086
100
AcDbArc
 50
331.3709568249
 51
359.2756845412
  0
ARC
  5
669
330
1F
100
AcDbEntity
  8
0
  6
Continuous
 62
     7
370
    25
100
AcDbCircle
 10
158.2996191953
 20
-51.0559471839
 30
0.0
 40
4.999999999999997
100
AcDbArc
 50
236.9287529032
 51
335.8131607467
  0
ARC
  5
66A
330
1F
100
AcDbEntity
  8
0
  6
Continuous
 62
     7
370
    25
100
AcDbCircle
 10
153.9843512354
 20
-36.3664373751
 30
0.0
 40
14.99999999999959
100
AcDbArc
 50
213.4662291087
 51
241.3709568249
  0
ARC
  5
66B
330
1F
100
AcDbEntity
  8
0
  6
Continuous
 62
     7
370
    25
100
AcDbCircle
 10
149.8132962546
 20
-39.1236643057
 30
0.0
 40
9.999999999999904
100
AcDbArc
 50
173.7510918769
 51
213.4662291087
  0
ARC
  5
66C
330
1F
100
AcDbEntity
  8
0
  6
Continuous
 62
     7
370
    25
100
AcDbCircle
 10
132.26426291
 20
-15.6483833367
 30
0.0
 40
9.999999999999822
100
AcDbArc
 50
353.7510918769
 51
16.3709568249
  0
ARC
  5
66D
330
1F
100
AcDbEntity
  8
0
  6
Continuous
 62
     7
370
    25
100
AcDbCircle
 10
111.9695460219
 20
53.4364210293
 30
0.0
 40
9.999999999998058
100
AcDbArc
 50
16.3709568249
 51
27.7459932978
  0
ARC
  5
66E
330
1F
100
AcDbEntity
  8
0
  6
Continuous
 62
     7
370
    25
100
AcDbCircle
 10
112.2143428786
 20
85.1908325091
 30
0.0
 40
5.000000000000021
100
AcDbArc
 50
143.1854784125
 51
207.7459932978
  0
ARC
  5
66F
330
1F
100
AcDbEntity
  8
0
  6
Continuous
 62
     7
370
    25
100
AcDbCircle
 10
115.4105450395
 20
92.7986632991
 30
0.0
 40
3.000000000000047
100
AcDbArc
 50
53.1854784125
 51
143.1854784125
  0
ARC
  5
670
330
1F
100
AcDbEntity
  8
0
  6
Continuous
 62
     7
370
    25
100
AcDbCircle
 10
122.3495084391
 20
85.1067217205
 30
0.0
 40
4.999999999999993
100
AcDbArc
 50
7.9016370655
 51
53.1854784125
  0
ARC
  5
671
330
1F
100
AcDbEntity
  8
0
  6
Continuous
 62
     7
370
    25
100
AcDbCircle
 10
140.6812421775
 20
62.1372130748
 30
0.0
 40
9.999999999989504
100
AcDbArc
 50
187.9016370655
 51
196.370956825
  0
ARC
  5
672
330
1F
100
AcDbEntity
  8
0
  6
Continuous
 62
     7
370
    25
100
AcDbCircle
 10
161.0479720069
 20
-7.1927289787
 30
0.0
 40
9.999999999999472
100
AcDbArc
 50
196.3709568249
 51
218.990821773
  0
ARC
  5
673
330
1F
100
AcDbEntity
  8
0
  6
Continuous
 62
     7
370
    25
100
AcDbCircle
 10
150.4147817391
 20
-42.9056019709
 30
0.0
 40
1.50000000000003
100
AcDbArc
 50
331.3709568249
 51
151.3709568249
  0
ARC
  5
674
330
1F
100
AcDbEntity
  8
0
  6
Continuous
 62
     7
370
    25
100
AcDbCircle
 10
149.0731985727
 20
-45.3632745706
 30
0.0
 40
1.500000000000022
100
AcDbArc
 50
151.3709568249
 51
331.370956825
  0
ARC
  5
675
330
1F
100
AcDbEntity
  8
0
  6
Continuous
 62
     7
370
    25
100
AcDbCircle
 10
157.5539207317
 20
-29.8272727793
 30
0.0
 40
1.500000000000029
100
AcDbArc
 50
151.3709568249
 51
331.370956825
  0
ARC
  5
676
330
1F
100
AcDbEntity
  8
0
  6
Continuous
 62
     7
370
    25
100
AcDbCircle
 10
158.8955038981
 20
-27.3696001795
 30
0.0
 40
1.499999999999986
100
AcDbArc
 50
331.3709568249
 51
151.3709568249
  0
ARC
  5
677
330
1F
100
AcDbEntity
  8
0
  6
Continuous
 62
     7
370
    25
100
AcDbCircle
 10
37.8488117935
 20
-127.0617962085
 30
0.0
 40
1.50000000000007
100
AcDbArc
 50
241.3709568249
 51
61.3709568249
  0
ARC
  5
678
330
1F
100
AcDbEntity
  8
0
  6
Continuous
 62
     7
370
    25
100
AcDbCircle
 10
35.3911391938
 20
-125.7202130421
 30
0.0
 40
1.500000000000062
100
AcDbArc
 50
61.3709568249
 51
241.370956825
  0
ARC
  5
679
330
1F
100
AcDbEntity
  8
0
  6
Continuous
 62
     7
370
    25
100
AcDbCircle
 10
50.9271409851
 20
-134.2009352011
 30
0.0
 40
1.500000000000101
100
AcDbArc
 50
61.3709568249
 51
241.3709568249
  0
ARC
  5
67A
330
1F
100
AcDbEntity
  8
0
  6
Continuous
 62
     7
370
    25
100
AcDbCircle
 10
53.3848135849
 20
-135.5425183675
 30
0.0
 40
1.500000000000079
100
AcDbArc
 50
241.3709568249
 51
61.3709568249
  0
ARC
  5
67B
330
1F
100
AcDbEntity
  8
0
  6
Continuous
 62
     7
370
    25
100
AcDbCircle
 10
39.3883759148
 20
-130.5681589405
 30
0.0
 40
10.00000000000034
100
AcDbArc
 50
179.2756845412
 51
218.990821773
  0
ARC
  5
67C
330
1F
100
AcDbEntity
  8
0
  6
Continuous
 62
     7
370
    25
100
AcDbCircle
 10
44.3879763893
 20
-130.6313657048
 30
0.0
 40
14.99999999999943
100
AcDbArc
 50
151.3709568249
 51
179.2756845412
  0
ARC
  5
67D
330
1F
100
AcDbEntity
  8
0
  6
Continuous
 62
     7
370
    25
100
AcDbCircle
 10
40.0727084295
 20
-115.941855896
 30
0.0
 40
5.000000000000028
100
AcDbArc
 50
56.9287529032
 51
155.8131607467
  0
ARC
  5
67E
330
1F
100
AcDbEntity
  8
0
  6
Continuous
 62
     7
370
    25
100
AcDbCircle
 10
44.3879763893
 20
-130.6313657048
 30
0.0
 40
14.99999999999987
100
AcDbArc
 50
33.4662291087
 51
61.3709568249
  0
ARC
  5
67F
330
1F
100
AcDbEntity
  8
0
  6
Continuous
 62
     7
370
    25
100
AcDbCircle
 10
48.5590313702
 20
-127.8741387742
 30
0.0
 40
9.999999999999886
100
AcDbArc
 50
353.7510918769
 51
33.4662291087
  0
ARC
  5
680
330
1F
100
AcDbEntity
  8
0
  6
Continuous
 62
     7
370
    25
100
AcDbCircle
 10
66.1080647148
 20
-151.3494197432
 30
0.0
 40
9.999999999999176
100
AcDbArc
 50
173.7510918769
 51
196.3709568249
  0
ARC
  5
681
330
1F
100
AcDbEntity
  8
0
  6
Continuous
 62
     7
370
    25
100
AcDbCircle
 10
77.9471272448
 20
-191.6505150123
 30
0.0
 40
9.999999999998035
100
AcDbArc
 50
196.3709568249
 51
207.7459932978
  0
ARC
  5
682
330
1F
100
AcDbEntity
  8
0
  6
Continuous
 62
     7
370
    25
100
AcDbCircle
 10
77.7023303881
 20
-223.4049264921
 30
0.0
 40
5.000000000000053
100
AcDbArc
 50
323.1854784125
 51
27.7459932978
  0
ARC
  5
683
330
1F
100
AcDbEntity
  8
0
  6
Continuous
 62
     7
370
    25
100
AcDbCircle
 10
74.5061282272
 20
-231.012757282
 30
0.0
 40
3.000000000000024
100
AcDbArc
 50
233.1854784125
 51
323.1854784125
  0
ARC
  5
684
330
1F
100
AcDbEntity
  8
0
  6
Continuous
 62
     7
370
    25
100
AcDbCircle
 10
67.5671648276
 20
-223.3208157034
 30
0.0
 40
5.000000000000121
100
AcDbArc
 50
187.9016370655
 51
233.1854784125
  0
ARC
  5
685
330
1F
100
AcDbEntity
  8
0
  6
Continuous
 62
     7
370
    25
100
AcDbCircle
 10
49.2354310892
 20
-200.3513070578
 30
0.0
 40
10.00000000000508
100
AcDbArc
 50
7.9016370655
 51
16.3709568249
  0
ARC
  5
686
330
1F
100
AcDbEntity
  8
0
  6
Continuous
 62
     7
370
    25
100
AcDbCircle
 10
37.3243556178
 20
-159.8050741012
 30
0.0
 40
10.00000000000217
100
AcDbArc
 50
16.370956825
 51
38.990821773
  0
ARC
  5
687
330
1F
100
AcDbEntity
  8
0
  6
Continuous
 62
     7
370
    25
100
AcDbCircle
 10
47.9575458856
 20
-124.092201109
 30
0.0
 40
1.500000000000049
100
AcDbArc
 50
151.3709568249
 51
331.3709568249
  0
ARC
  5
688
330
1F
100
AcDbEntity
  8
0
  6
Continuous
 62
     7
370
    25
100
AcDbCircle
 10
49.299129052
 20
-121.6345285092
 30
0.0
 40
1.500000000000048
100
AcDbArc
 50
331.3709568249
 51
151.3709568249
  0
ARC
  5
689
330
1F
100
AcDbEntity
  8
0
  6
Continuous
 62
     7
370
    25
100
AcDbCircle
 10
40.818406893
 20
-137.1705303006
 30
0.0
 40
1.500000000000108
100
AcDbArc
 50
331.370956825
 51
151.3709568249
  0
ARC
  5
68A
330
1F
100
AcDbEntity
  8
0
  6
Continuous
 62
     7
370
    25
100
AcDbCircle
 10
39.4768237266
 20
-139.6282029004
 30
0.0
 40
1.500000000000053
100
AcDbArc
 50
151.3709568249
 51
331.3709568249
  0
ARC
  5
68B
330
1F
100
AcDbEntity
  8
0
  6
Continuous
 62
     7
370
    25
100
AcDbCircle
 10
61.1225688382
 20
-70.5211623703
 30
0.0
 40
1.500000000000019
100
AcDbArc
 50
61.3709568249
 51
241.3709568249
  0
ARC
  5
68C
330
1F
100
AcDbEntity
  8
0
  6
Continuous
 62
     7
370
    25
100
AcDbCircle
 10
63.580241438
 20
-71.8627455367
 30
0.0
 40
1.499999999999997
100
AcDbArc
 50
241.3709568249
 51
61.3709568249
  0
ARC
  5
68D
330
1F
100
AcDbEntity
  8
0
  6
Continuous
 62
     7
370
    25
100
AcDbCircle
 10
48.0442396466
 20
-63.3820233777
 30
0.0
 40
1.500000000000016
100
AcDbArc
 50
241.3709568249
 51
61.3709568249
  0
ARC
  5
68E
330
1F
100
AcDbEntity
  8
0
  6
Continuous
 62
     7
370
    25
100
AcDbCircle
 10
45.5865670468
 20
-62.0404402113
 30
0.0
 40
1.49999999999999
100
AcDbArc
 50
61.3709568249
 51
241.3709568249
  0
ARC
  5
68F
330
1F
100
AcDbEntity
  8
0
  6
Continuous
 62
     7
370
    25
100
AcDbCircle
 10
59.5830047169
 20
-67.0147996383
 30
0.0
 40
10.00000000000024
100
AcDbArc
 50
359.2756845412
 51
38.990821773
  0
ARC
  5
690
330
1F
100
AcDbEntity
  8
0
  6
Continuous
 62
     7
370
    25
100
AcDbCircle
 10
54.5834042424
 20
-66.951592874
 30
0.0
 40
15.00000000000043
100
AcDbArc
 50
331.3709568249
 51
359.2756845412
  0
ARC
  5
691
330
1F
100
AcDbEntity
  8
0
  6
Continuous
 62
     7
370
    25
100
AcDbCircle
 10
58.8986722023
 20
-81.6411026828
 30
0.0
 40
5.000000000000009
100
AcDbArc
 50
236.9287529032
 51
335.8131607467
  0
ARC
  5
692
330
1F
100
AcDbEntity
  8
0
  6
Continuous
 62
     7
370
    25
100
AcDbCircle
 10
54.5834042424
 20
-66.951592874
 30
0.0
 40
14.99999999999944
100
AcDbArc
 50
213.4662291087
 51
241.3709568249
  0
ARC
  5
693
330
1F
100
AcDbEntity
  8
0
  6
Continuous
 62
     7
370
    25
100
AcDbCircle
 10
50.4123492616
 20
-69.7088198046
 30
0.0
 40
10.00000000000005
100
AcDbArc
 50
173.7510918769
 51
213.4662291087
  0
ARC
  5
694
330
1F
100
AcDbEntity
  8
0
  6
Continuous
 62
     7
370
    25
100
AcDbCircle
 10
32.863315917
 20
-46.2335388357
 30
0.0
 40
9.999999999999904
100
AcDbArc
 50
353.7510918769
 51
16.3709568249
  0
ARC
  5
695
330
1F
100
AcDbEntity
  8
0
  6
Continuous
 62
     7
370
    25
100
AcDbCircle
 10
12.5685990289
 20
22.8512655304
 30
0.0
 40
10.000000000001
100
AcDbArc
 50
16.3709568249
 51
27.7459932978
  0
ARC
  5
696
330
1F
100
AcDbEntity
  8
0
  6
Continuous
 62
     7
370
    25
100
AcDbCircle
 10
12.8133958856
 20
54.6056770102
 30
0.0
 40
4.999999999999986
100
AcDbArc
 50
143.1854784125
 51
207.7459932978
  0
ARC
  5
697
330
1F
100
AcDbEntity
  8
0
  6
Continuous
 62
     7
370
    25
100
AcDbCircle
 10
16.0095980465
 20
62.2135078001
 30
0.0
 40
3.000000000000025
100
AcDbArc
 50
53.1854784125
 51
143.1854784125
  0
ARC
  5
698
330
1F
100
AcDbEntity
  8
0
  6
Continuous
 62
     7
370
    25
100
AcDbCircle
 10
22.9485614461
 20
54.5215662216
 30
0.0
 40
4.999999999999888
100
AcDbArc
 50
7.9016370655
 51
53.1854784125
  0
ARC
  5
699
330
1F
100
AcDbEntity
  8
0
  6
Continuous
 62
     7
370
    25
100
AcDbCircle
 10
41.2802951845
 20
31.5520575759
 30
0.0
 40
10.00000000000175
100
AcDbArc
 50
187.9016370655
 51
196.3709568249
  0
ARC
  5
69A
330
1F
100
AcDbEntity
  8
0
  6
Continuous
 62
     7
370
    25
100
AcDbCircle
 10
61.6470250139
 20
-37.7778844776
 30
0.0
 40
10.00000000000044
100
AcDbArc
 50
196.3709568249
 51
218.990821773
  0
ARC
  5
69B
330
1F
100
AcDbEntity
  8
0
  6
Continuous
 62
     7
370
    25
100
AcDbCircle
 10
51.0138347461
 20
-73.4907574698
 30
0.0
 40
1.500000000000023
100
AcDbArc
 50
331.3709568249
 51
151.3709568249
  0
ARC
  5
69C
330
1F
100
AcDbEntity
  8
0
  6
Continuous
 62
     7
370
    25
100
AcDbCircle
 10
49.6722515797
 20
-75.9484300696
 30
0.0
 40
1.500000000000024
100
AcDbArc
 50
151.3709568249
 51
331.3709568249
  0
ARC
  5
69D
330
1F
100
AcDbEntity
  8
0
  6
Continuous
 62
     7
370
    25
100
AcDbCircle
 10
58.1529737387
 20
-60.4124282782
 30
0.0
 40
1.500000000000012
100
AcDbArc
 50
151.3709568249
 51
331.3709568249
  0
ARC
  5
69E
330
1F
100
AcDbEntity
  8
0
  6
Continuous
 62
     7
370
    25
100
AcDbCircle
 10
59.4945569051
 20
-57.9547556784
 30
0.0
 40
1.499999999999971
100
AcDbArc
 50
331.3709568249
 51
151.3709568249
  0
ARC
  5
69F
330
1F
100
AcDbEntity
  8
0
  6
Continuous
 62
     7
370
    25
100
AcDbCircle
 10
-7.2480114492
 20
26.4513189752
 30
0.0
 40
1.500000000000048
100
AcDbArc
 50
241.3709568249
 51
61.3709568249
  0
ARC
  5
6A0
330
1F
100
AcDbEntity
  8
0
  6
Continuous
 62
     7
370
    25
100
AcDbCircle
 10
-9.705684049
 20
27.7929021416
 30
0.0
 40
1.500000000000044
100
AcDbArc
 50
61.3709568249
 51
241.3709568249
  0
ARC
  5
6A1
330
1F
100
AcDbEntity
  8
0
  6
Continuous
 62
     7
370
    25
100
AcDbCircle
 10
5.8303177424
 20
19.3121799826
 30
0.0
 40
1.500000000000072
100
AcDbArc
 50
61.3709568249
 51
241.3709568249
  0
ARC
  5
6A2
330
1F
100
AcDbEntity
  8
0
  6
Continuous
 62
     7
370
    25
100
AcDbCircle
 10
8.2879903421
 20
17.9705968162
 30
0.0
 40
1.500000000000045
100
AcDbArc
 50
241.3709568249
 51
61.3709568249
  0
ARC
  5
6A3
330
1F
100
AcDbEntity
  8
0
  6
Continuous
 62
     7
370
    25
100
AcDbCircle
 10
-5.708447328
 20
22.9449562432
 30
0.0
 40
10.00000000000007
100
AcDbArc
 50
179.2756845412
 51
218.990821773
  0
ARC
  5
6A4
330
1F
100
AcDbEntity
  8
0
  6
Continuous
 62
     7
370
    25
100
AcDbCircle
 10
-0.7088468534
 20
22.8817494789
 30
0.0
 40
14.99999999999926
100
AcDbArc
 50
151.3709568249
 51
179.2756845412
  0
ARC
  5
6A5
330
1F
100
AcDbEntity
  8
0
  6
Continuous
 62
     7
370
    25
100
AcDbCircle
 10
-5.0241148133
 20
37.5712592877
 30
0.0
 40
5.000000000000044
100
AcDbArc
 50
56.9287529032
 51
155.8131607467
  0
ARC
  5
6A6
330
1F
100
AcDbEntity
  8
0
  6
Continuous
 62
     7
370
    25
100
AcDbCircle
 10
-0.7088468534
 20
22.8817494789
 30
0.0
 40
15.00000000000047
100
AcDbArc
 50
33.4662291087
 51
61.3709568249
  0
ARC
  5
6A7
330
1F
100
AcDbEntity
  8
0
  6
Continuous
 62
     7
370
    25
100
AcDbCircle
 10
3.4622081274
 20
25.6389764095
 30
0.0
 40
10.00000000000007
100
AcDbArc
 50
353.7510918769
 51
33.4662291087
  0
ARC
  5
6A8
330
1F
100
AcDbEntity
  8
0
  6
Continuous
 62
     7
370
    25
100
AcDbCircle
 10
21.011241472
 20
2.1636954406
 30
0.0
 40
9.999999999999694
100
AcDbArc
 50
173.7510918769
 51
196.3709568249
  0
ARC
  5
6A9
330
1F
100
AcDbEntity
  8
0
  6
Continuous
 62
     7
370
    25
100
AcDbCircle
 10
32.850304002
 20
-38.1373998285
 30
0.0
 40
9.999999999998684
100
AcDbArc
 50
196.3709568249
 51
207.7459932978
  0
ARC
  5
6AA
330
1F
100
AcDbEntity
  8
0
  6
Continuous
 62
     7
370
    25
100
AcDbCircle
 10
32.6055071454
 20
-69.8918113083
 30
0.0
 40
4.999999999999957
100
AcDbArc
 50
323.1854784125
 51
27.7459932978
  0
ARC
  5
6AB
330
1F
100
AcDbEntity
  8
0
  6
Continuous
 62
     7
370
    25
100
AcDbCircle
 10
29.4093049845
 20
-77.4996420983
 30
0.0
 40
2.999999999999992
100
AcDbArc
 50
233.1854784125
 51
323.1854784125
  0
ARC
  5
6AC
330
1F
100
AcDbEntity
  8
0
  6
Continuous
 62
     7
370
    25
100
AcDbCircle
 10
22.4703415849
 20
-69.8077005197
 30
0.0
 40
4.999999999999948
100
AcDbArc
 50
187.9016370655
 51
233.1854784125
  0
ARC
  5
6AD
330
1F
100
AcDbEntity
  8
0
  6
Continuous
 62
     7
370
    25
100
AcDbCircle
 10
4.1386078464
 20
-46.838191874
 30
0.0
 40
9.999999999997689
100
AcDbArc
 50
7.9016370655
 51
16.3709568249
  0
ARC
  5
6AE
330
1F
100
AcDbEntity
  8
0
  6
Continuous
 62
     7
370
    25
100
AcDbCircle
 10
-7.772467625
 20
-6.2919589175
 30
0.0
 40
10.0000000000026
100
AcDbArc
 50
16.370956825
 51
38.990821773
  0
ARC
  5
6AF
330
1F
100
AcDbEntity
  8
0
  6
Continuous
 62
     7
370
    25
100
AcDbCircle
 10
2.8607226429
 20
29.4209140747
 30
0.0
 40
1.500000000000046
100
AcDbArc
 50
151.3709568249
 51
331.3709568249
  0
ARC
  5
6B0
330
1F
100
AcDbEntity
  8
0
  6
Continuous
 62
     7
370
    25
100
AcDbCircle
 10
4.2023058093
 20
31.8785866745
 30
0.0
 40
1.500000000000045
100
AcDbArc
 50
331.3709568249
 51
151.3709568249
  0
ARC
  5
6B1
330
1F
100
AcDbEntity
  8
0
  6
Continuous
 62
     7
370
    25
100
AcDbCircle
 10
-4.2784163497
 20
16.3425848831
 30
0.0
 40
1.500000000000082
100
AcDbArc
 50
331.370956825
 51
151.3709568249
  0
ARC
  5
6B2
330
1F
100
AcDbEntity
  8
0
  6
Continuous
 62
     7
370
    25
100
AcDbCircle
 10
-5.6199995161
 20
13.8849122833
 30
0.0
 40
1.500000000000038
100
AcDbArc
 50
151.3709568249
 51
331.3709568249
  0
ARC
  5
6B3
330
1F
100
AcDbEntity
  8
0
  6
Continuous
 62
     7
370
    25
100
AcDbCircle
 10
56.5189185845
 20
-239.3268553035
 30
0.0
 40
1.500000000000026
100
AcDbArc
 50
61.3709568249
 51
241.3709568249
  0
ARC
  5
6B4
330
1F
100
AcDbEntity
  8
0
  6
Continuous
 62
     7
370
    25
100
AcDbCircle
 10
58.9765911843
 20
-240.6684384699
 30
0.0
 40
1.499999999999983
100
AcDbArc
 50
241.3709568249
 51
61.3709568249
  0
ARC
  5
6B5
330
1F
100
AcDbEntity
  8
0
  6
Continuous
 62
     7
370
    25
100
AcDbCircle
 10
43.4405893929
 20
-232.1877163109
 30
0.0
 40
1.500000000000027
100
AcDbArc
 50
241.3709568249
 51
61.3709568249
  0
ARC
  5
6B6
330
1F
100
AcDbEntity
  8
0
  6
Continuous
 62
     7
370
    25
100
AcDbCircle
 10
40.9829167931
 20
-230.8461331445
 30
0.0
 40
1.499999999999986
100
AcDbArc
 50
61.3709568249
 51
241.3709568249
  0
ARC
  5
6B7
330
1F
100
AcDbEntity
  8
0
  6
Continuous
 62
     7
370
    25
100
AcDbCircle
 10
54.9793544632
 20
-235.8204925715
 30
0.0
 40
10.00000000000002
100
AcDbArc
 50
359.2756845412
 51
38.990821773
  0
ARC
  5
6B8
330
1F
100
AcDbEntity
  8
0
  6
Continuous
 62
     7
370
    25
100
AcDbCircle
 10
49.9797539887
 20
-235.7572858072
 30
0.0
 40
15.00000000000028
100
AcDbArc
 50
331.3709568249
 51
359.2756845412
  0
ARC
  5
6B9
330
1F
100
AcDbEntity
  8
0
  6
Continuous
 62
     7
370
    25
100
AcDbCircle
 10
54.2950219485
 20
-250.446795616
 30
0.0
 40
5.000000000000097
100
AcDbArc
 50
236.9287529032
 51
335.8131607467
  0
ARC
  5
6BA
330
1F
100
AcDbEntity
  8
0
  6
Continuous
 62
     7
370
    25
100
AcDbCircle
 10
49.9797539887
 20
-235.7572858072
 30
0.0
 40
15.00000000000015
100
AcDbArc
 50
213.4662291087
 51
241.3709568249
  0
ARC
  5
6BB
330
1F
100
AcDbEntity
  8
0
  6
Continuous
 62
     7
370
    25
100
AcDbCircle
 10
45.8086990078
 20
-238.5145127378
 30
0.0
 40
9.99999999999998
100
AcDbArc
 50
173.7510918769
 51
213.4662291087
  0
ARC
  5
6BC
330
1F
100
AcDbEntity
  8
0
  6
Continuous
 62
     7
370
    25
100
AcDbCircle
 10
28.2596656633
 20
-215.0392317688
 30
0.0
 40
9.99999999999795
100
AcDbArc
 50
353.7510918769
 51
16.3709568249
  0
ARC
  5
6BD
330
1F
100
AcDbEntity
  8
0
  6
Continuous
 62
     7
370
    25
100
AcDbCircle
 10
7.9649487752
 20
-145.9544274028
 30
0.0
 40
10.00000000000047
100
AcDbArc
 50
16.3709568249
 51
27.7459932978
  0
ARC
  5
6BE
330
1F
100
AcDbEntity
  8
0
  6
Continuous
 62
     7
370
    25
100
AcDbCircle
 10
8.2097456319
 20
-114.200015923
 30
0.0
 40
5.000000000000043
100
AcDbArc
 50
143.1854784125
 51
207.7459932978
  0
ARC
  5
6BF
330
1F
100
AcDbEntity
  8
0
  6
Continuous
 62
     7
370
    25
100
AcDbCircle
 10
11.4059477927
 20
-106.5921851331
 30
0.0
 40
2.999999999999971
100
AcDbArc
 50
53.1854784125
 51
143.1854784125
  0
ARC
  5
6C0
330
1F
100
AcDbEntity
  8
0
  6
Continuous
 62
     7
370
    25
100
AcDbCircle
 10
18.3449111923
 20
-114.2841267116
 30
0.0
 40
4.999999999999886
100
AcDbArc
 50
7.9016370655
 51
53.1854784125
  0
ARC
  5
6C1
330
1F
100
AcDbEntity
  8
0
  6
Continuous
 62
     7
370
    25
100
AcDbCircle
 10
36.6766449308
 20
-137.2536353573
 30
0.0
 40
10.00000000000356
100
AcDbArc
 50
187.9016370655
 51
196.3709568249
  0
ARC
  5
6C2
330
1F
100
AcDbEntity
  8
0
  6
Continuous
 62
     7
370
    25
100
AcDbCircle
 10
57.0433747602
 20
-206.5835774108
 30
0.0
 40
10.00000000000122
100
AcDbArc
 50
196.370956825
 51
218.990821773
  0
ARC
  5
6C3
330
1F
100
AcDbEntity
  8
0
  6
Continuous
 62
     7
370
    25
100
AcDbCircle
 10
46.4101844924
 20
-242.296450403
 30
0.0
 40
1.500000000000042
100
AcDbArc
 50
331.3709568249
 51
151.3709568249
  0
ARC
  5
6C4
330
1F
100
AcDbEntity
  8
0
  6
Continuous
 62
     7
370
    25
100
AcDbCircle
 10
45.068601326
 20
-244.7541230028
 30
0.0
 40
1.50000000000001
100
AcDbArc
 50
151.3709568249
 51
331.3709568249
  0
ARC
  5
6C5
330
1F
100
AcDbEntity
  8
0
  6
Continuous
 62
     7
370
    25
100
AcDbCircle
 10
53.549323485
 20
-229.2181212114
 30
0.0
 40
1.500000000000005
100
AcDbArc
 50
151.3709568249
 51
331.3709568249
  0
ARC
  5
6C6
330
1F
100
AcDbEntity
  8
0
  6
Continuous
 62
     7
370
    25
100
AcDbCircle
 10
54.8909066514
 20
-226.7604486116
 30
0.0
 40
1.499999999999997
100
AcDbArc
 50
331.3709568249
 51
151.3709568249
  0
ENDSEC
  0
SECTION
  2
OBJECTS
  0
DICTIONARY
  5
C
330
0
100
AcDbDictionary
281
     1
  3
ACAD_GROUP
350
D
  3
ACAD_LAYOUT
350
1A
  3
ACAD_MLINESTYLE
350
17
  3
ACAD_PLOTSETTINGS
350
19
  3
ACAD_PLOTSTYLENAME
350
E
  3
ACAD_SCALELIST
350
47
  0
DICTIONARY
  5
D
102
{ACAD_REACTORS
330
C
102
}
330
C
100
AcDbDictionary
281
     1
  0
DICTIONARY
  5
1A
102
{ACAD_REACTORS
330
C
102
}
330
C
100
AcDbDictionary
281
     1
  3
Layout1
350
1E
  3
Layout2
350
26
  3
Model
350
22
  0
DICTIONARY
  5
17
102
{ACAD_REACTORS
330
C
102
}
330
C
100
AcDbDictionary
281
     1
  3
Standard
350
18
  0
DICTIONARY
  5
19
102
{ACAD_REACTORS
330
C
102
}
330
C
100
AcDbDictionary
281
     1
  0
ACDBDICTIONARYWDFLT
  5
E
102
{ACAD_REACTORS
330
C
102
}
330
C
100
AcDbDictionary
281
     1
  3
Normal
350
F
100
AcDbDictionaryWithDefault
340
F
  0
DICTIONARY
  5
47
102
{ACAD_REACTORS
330
C
102
}
330
C
100
AcDbDictionary
281
     1
  3
A0
350
48
  3
A1
350
49
  3
A2
350
4A
  3
A3
350
4B
  3
A4
350
4C
  3
A5
350
4D
  3
A6
350
4E
  3
A7
350
4F
  3
A8
350
50
  3
A9
350
51
  3
B0
350
52
  3
B1
350
53
  3
B2
350
54
  3
B3
350
55
  3
B4
350
56
  3
B5
350
57
  3
B6
350
58
  3
B7
350
59
  3
B8
350
5A
  3
B9
350
5B
  3
C0
350
5C
  3
C1
350
5D
  3
C2
350
5E
  3
C3
350
5F
  3
C4
350
60
  3
C5
350
61
  3
C6
350
62
  3
C7
350
63
  3
C8
350
64
  3
C9
350
65
  3
D0
350
66
  3
D1
350
67
  3
D2
350
68
  0
LAYOUT
  5
1E
102
{ACAD_REACTORS
330
1A
102
}
330
1A
100
AcDbPlotSettings
  1

  2
none_device
  4

  6

 40
0.0
 41
0.0
 42
0.0
 43
0.0
 44
0.0
 45
0.0
 46
0.0
 47
0.0
 48
0.0
 49
0.0
140
0.0
141
0.0
142
1.0
143
1.0
 70
   688
 72
     1
 73
     0
 74
     5
  7

 75
    16
147
1.0
148
0.0
149
0.0
100
AcDbLayout
  1
Layout1
 70
     1
 71
     1
 10
0.0
 20
0.0
 11
420.0
 21
297.0
 12
0.0
 22
0.0
 32
0.0
 14
1.0000000000E+20
 24
1.0000000000E+20
 34
1.0000000000E+20
 15
-1.0000000000E+20
 25
-1.0000000000E+20
 35
-1.0000000000E+20
146
0.0
 13
0.0
 23
0.0
 33
0.0
 16
1.0
 26
0.0
 36
0.0
 17
0.0
 27
1.0
 37
0.0
 76
     0
330
1B
  0
LAYOUT
  5
26
102
{ACAD_REACTORS
330
1A
102
}
330
1A
100
AcDbPlotSettings
  1

  2
none_device
  4

  6

 40
0.0
 41
0.0
 42
0.0
 43
0.0
 44
0.0
 45
0.0
 46
0.0
 47
0.0
 48
0.0
 49
0.0
140
0.0
141
0.0
142
1.0
143
1.0
 70
   688
 72
     1
 73
     0
 74
     5
  7

 75
    16
147
1.0
148
0.0
149
0.0
100
AcDbLayout
  1
Layout2
 70
     1
 71
     2
 10
0.0
 20
0.0
 11
0.0
 21
0.0
 12
0.0
 22
0.0
 32
0.0
 14
0.0
 24
0.0
 34
0.0
 15
0.0
 25
0.0
 35
0.0
146
0.0
 13
0.0
 23
0.0
 33
0.0
 16
1.0
 26
0.0
 36
0.0
 17
0.0
 27
1.0
 37
0.0
 76
     0
330
23
  0
LAYOUT
  5
22
102
{ACAD_REACTORS
330
1A
102
}
330
1A
100
AcDbPlotSettings
  1

  2
none_device
  4
ANSI_A_(11.00_x_8.50_Inches)
  6

 40
6.35
 41
19.05
 42
6.35000508
 43
19.05000254
 44
279.4
 45
215.9
 46
63.4854766692
 47
130.9893557713
 48
0.0
 49
0.0
140
0.0
141
0.0
142
0.0229580539
143
1.0
 70
  1696
 72
     0
 73
     0
 74
     0
  7

 75
     0
147
0.0179189148
148
-1300.4909072572
149
0.0
100
AcDbLayout
  1
Model
 70
     1
 71
     0
 10
0.0
 20
0.0
 11
420.0
 21
297.0
 12
0.0
 22
0.0
 32
0.0
 14
-41.8870776109
 24
-255.446795616
 34
0.0
 15
281.5042243741
 25
111.0912410485
 35
0.0
146
0.0
 13
0.0
 23
0.0
 33
0.0
 16
1.0
 26
0.0
 36
0.0
 17
0.0
 27
1.0
 37
0.0
 76
     0
330
1F
331
29
  0
MLINESTYLE
  5
18
102
{ACAD_REACTORS
330
17
102
}
330
17
100
AcDbMlineStyle
  2
Standard
 70
     0
  3

 62
   256
 51
90.0
 52
90.0
 71
     2
 49
0.5
 62
   256
  6
BYLAYER
 49
-0.5
 62
   256
  6
BYLAYER
  0
ACDBPLACEHOLDER
  5
F
102
{ACAD_REACTORS
330
E
102
}
330
E
  0
SCALE
  5
48
102
{ACAD_REACTORS
330
47
102
}
330
47
100
AcDbScale
 70
     0
300
1:1
140
1.0
141
1.0
290
     1
  0
SCALE
  5
49
102
{ACAD_REACTORS
330
47
102
}
330
47
100
AcDbScale
 70
     0
300
1:2
140
1.0
141
2.0
290
     0
  0
SCALE
  5
4A
102
{ACAD_REACTORS
330
47
102
}
330
47
100
AcDbScale
 70
     0
300
1:4
140
1.0
141
4.0
290
     0
  0
SCALE
  5
4B
102
{ACAD_REACTORS
330
47
102
}
330
47
100
AcDbScale
 70
     0
300
1:5
140
1.0
141
5.0
290
     0
  0
SCALE
  5
4C
102
{ACAD_REACTORS
330
47
102
}
330
47
100
AcDbScale
 70
     0
300
1:8
140
1.0
141
8.0
290
     0
  0
SCALE
  5
4D
102
{ACAD_REACTORS
330
47
102
}
330
47
100
AcDbScale
 70
     0
300
1:10
140
1.0
141
10.0
290
     0
  0
SCALE
  5
4E
102
{ACAD_REACTORS
330
47
102
}
330
47
100
AcDbScale
 70
     0
300
1:16
140
1.0
141
16.0
290
     0
  0
SCALE
  5
4F
102
{ACAD_REACTORS
330
47
102
}
330
47
100
AcDbScale
 70
     0
300
1:20
140
1.0
141
20.0
290
     0
  0
SCALE
  5
50
102
{ACAD_REACTORS
330
47
102
}
330
47
100
AcDbScale
 70
     0
300
1:30
140
1.0
141
30.0
290
     0
  0
SCALE
  5
51
102
{ACAD_REACTORS
330
47
102
}
330
47
100
AcDbScale
 70
     0
300
1:40
140
1.0
141
40.0
290
     0
  0
SCALE
  5
52
102
{ACAD_REACTORS
330
47
102
}
330
47
100
AcDbScale
 70
     0
300
1:50
140
1.0
141
50.0
290
     0
  0
SCALE
  5
53
102
{ACAD_REACTORS
330
47
102
}
330
47
100
AcDbScale
 70
     0
300
1:100
140
1.0
141
100.0
290
     0
  0
SCALE
  5
54
102
{ACAD_REACTORS
330
47
102
}
330
47
100
AcDbScale
 70
     0
300
2:1
140
2.0
141
1.0
290
     0
  0
SCALE
  5
55
102
{ACAD_REACTORS
330
47
102
}
330
47
100
AcDbScale
 70
     0
300
4:1
140
4.0
141
1.0
290
     0
  0
SCALE
  5
56
102
{ACAD_REACTORS
330
47
102
}
330
47
100
AcDbScale
 70
     0
300
8:1
140
8.0
141
1.0
290
     0
  0
SCALE
  5
57
102
{ACAD_REACTORS
330
47
102
}
330
47
100
AcDbScale
 70
     0
300
10:1
140
10.0
141
1.0
290
     0
  0
SCALE
  5
58
102
{ACAD_REACTORS
330
47
102
}
330
47
100
AcDbScale
 70
     0
300
100:1
140
100.0
141
1.0
290
     0
  0
SCALE
  5
59
102
{ACAD_REACTORS
330
47
102
}
330
47
100
AcDbScale
 70
     0
300
1/128" = 1'-0"
140
0.0078125
141
12.0
290
     0
  0
SCALE
  5
5A
102
{ACAD_REACTORS
330
47
102
}
330
47
100
AcDbScale
 70
     0
300
1/64" = 1'-0"
140
0.015625
141
12.0
290
     0
  0
SCALE
  5
5B
102
{ACAD_REACTORS
330
47
102
}
330
47
100
AcDbScale
 70
     0
300
1/32" = 1'-0"
140
0.03125
141
12.0
290
     0
  0
SCALE
  5
5C
102
{ACAD_REACTORS
330
47
102
}
330
47
100
AcDbScale
 70
     0
300
1/16" = 1'-0"
140
0.0625
141
12.0
290
     0
  0
SCALE
  5
5D
102
{ACAD_REACTORS
330
47
102
}
330
47
100
AcDbScale
 70
     0
300
3/32" = 1'-0"
140
0.09375
141
12.0
290
     0
  0
SCALE
  5
5E
102
{ACAD_REACTORS
330
47
102
}
330
47
100
AcDbScale
 70
     0
300
1/8" = 1'-0"
140
0.125
141
12.0
290
     0
  0
SCALE
  5
5F
102
{ACAD_REACTORS
330
47
102
}
330
47
100
AcDbScale
 70
     0
300
3/16" = 1'-0"
140
0.1875
141
12.0
290
     0
  0
SCALE
  5
60
102
{ACAD_REACTORS
330
47
102
}
330
47
100
AcDbScale
 70
     0
300
1/4" = 1'-0"
140
0.25
141
12.0
290
     0
  0
SCALE
  5
61
102
{ACAD_REACTORS
330
47
102
}
330
47
100
AcDbScale
 70
     0
300
3/8" = 1'-0"
140
0.375
141
12.0
290
     0
  0
SCALE
  5
62
102
{ACAD_REACTORS
330
47
102
}
330
47
100
AcDbScale
 70
     0
300
1/2" = 1'-0"
140
0.5
141
12.0
290
     0
  0
SCALE
  5
63
102
{ACAD_REACTORS
330
47
102
}
330
47
100
AcDbScale
 70
     0
300
3/4" = 1'-0"
140
0.75
141
12.0
290
     0
  0
SCALE
  5
64
102
{ACAD_REACTORS
330
47
102
}
330
47
100
AcDbScale
 70
     0
300
1" = 1'-0"
140
1.0
141
12.0
290
     0
  0
SCALE
  5
65
102
{ACAD_REACTORS
330
47
102
}
330
47
100
AcDbScale
 70
     0
300
1-1/2" = 1'-0"
140
1.5
141
12.0
290
     0
  0
SCALE
  5
66
102
{ACAD_REACTORS
330
47
102
}
330
47
100
AcDbScale
 70
     0
300
3" = 1'-0"
140
3.0
141
12.0
290
     0
  0
SCALE
  5
67
102
{ACAD_REACTORS
330
47
102
}
330
47
100
AcDbScale
 70
     0
300
6" = 1'-0"
140
6.0
141
12.0
290
     0
  0
SCALE
  5
68
102
{ACAD_REACTORS
330
47
102
}
330
47
100
AcDbScale
 70
     0
300
1'-0" = 1'-0"
140
12.0
141
12.0
290
     0
  0
ENDSEC
  0
EOF
