  0
SECTION
  2
HEADER
  9
$ACADVER
  1
AC1014
  9
$HANDSEED
  5
FFFF
  9
$MEASUREMENT
 70
     1
  0
ENDSEC
  0
SECTION
  2
TABLES
  0
TABLE
  2
VPORT
  5
8
330
0
100
AcDbSymbolTable
 70
     4
  0
VPORT
  5
2E
330
8
100
AcDbSymbolTableRecord
100
AcDbViewportTableRecord
  2
*ACTIVE
 70
     0
 10
0.0
 20
0.0
 11
1.0
 21
1.0
 12
210.0
 22
148.5
 13
0.0
 23
0.0
 14
10.0
 24
10.0
 15
10.0
 25
10.0
 16
0.0
 26
0.0
 36
1.0
 17
0.0
 27
0.0
 37
0.0
 40
341.0
 41
1.24
 42
50.0
 43
0.0
 44
0.0
 50
0.0
 51
0.0
 71
     0
 72
   100
 73
     1
 74
     3
 75
     0
 76
     0
 77
     0
 78
     0
  0
ENDTAB
  0
TABLE
  2
LTYPE
  5
5
330
0
100
AcDbSymbolTable
 70
     1
  0
LTYPE
  5
14
330
5
100
AcDbSymbolTableRecord
100
AcDbLinetypeTableRecord
  2
BYBLOCK
 70
     0
  3

 72
    65
 73
     0
 40
0.0
  0
LTYPE
  5
15
330
5
100
AcDbSymbolTableRecord
100
AcDbLinetypeTableRecord
  2
BYLAYER
 70
     0
  3

 72
    65
 73
     0
 40
0.0
  0
LTYPE
  5
16
330
5
100
AcDbSymbolTableRecord
100
AcDbLinetypeTableRecord
  2
CONTINUOUS
 70
     0
  3
Solid line
 72
    65
 73
     0
 40
0.0
  0
ENDTAB
  0
TABLE
  2
LAYER
  5
2
100
AcDbSymbolTable
 70
2
  0
LAYER
  5
50
100
AcDbSymbolTableRecord
100
AcDbLayerTableRecord
  2
0
 70
0
  6
CONTINUOUS
  0
LAYER
  5
51
100
AcDbSymbolTableRecord
100
AcDbLayerTableRecord
  2
Layer_1
 70
0
  6
CONTINUOUS
  0
ENDTAB
  0
TABLE
  2
STYLE
  5
3
330
0
100
AcDbSymbolTable
 70
     1
  0
STYLE
  5
11
330
3
100
AcDbSymbolTableRecord
100
AcDbTextStyleTableRecord
  2
STANDARD
 70
     0
 40
0.0
 41
1.0
 50
0.0
 71
     0
 42
2.5
  3
txt
  4

  0
ENDTAB
  0
TABLE
  2
VIEW
  5
6
330
0
100
AcDbSymbolTable
 70
     0
  0
ENDTAB
  0
TABLE
  2
UCS
  5
7
330
0
100
AcDbSymbolTable
 70
     0
  0
ENDTAB
  0
TABLE
  2
APPID
  5
9
330
0
100
AcDbSymbolTable
 70
     2
  0
APPID
  5
12
330
9
100
AcDbSymbolTableRecord
100
AcDbRegAppTableRecord
  2
ACAD
 70
     0
  0
ENDTAB
  0
TABLE
  2
DIMSTYLE
  5
A
330
0
100
AcDbSymbolTable
 70
     1
  0
DIMSTYLE
105
27
330
A
100
AcDbSymbolTableRecord
100
AcDbDimStyleTableRecord
  2
ISO-25
 70
     0
  3

  4

  5

  6

  7

 40
1.0
 41
2.5
 42
0.625
 43
3.75
 44
1.25
 45
0.0
 46
0.0
 47
0.0
 48
0.0
140
2.5
141
2.5
142
0.0
143
0.03937007874016
144
1.0
145
0.0
146
1.0
147
0.625
 71
     0
 72
     0
 73
     0
 74
     0
 75
     0
 76
     0
 77
     1
 78
     8
170
     0
171
     3
172
     1
173
     0
174
     0
175
     0
176
     0
177
     0
178
     0
270
     2
271
     2
272
     2
273
     2
274
     3
340
11
275
     0
280
     0
281
     0
282
     0
283
     0
284
     8
285
     0
286
     0
287
     3
288
     0
  0
ENDTAB
  0
TABLE
  2
BLOCK_RECORD
  5
1
330
0
100
AcDbSymbolTable
 70
     1
  0
BLOCK_RECORD
  5
1F
330
1
100
AcDbSymbolTableRecord
100
AcDbBlockTableRecord
  2
*MODEL_SPACE
  0
BLOCK_RECORD
  5
1B
330
1
100
AcDbSymbolTableRecord
100
AcDbBlockTableRecord
  2
*PAPER_SPACE
  0
ENDTAB
  0
ENDSEC
  0
SECTION
  2
BLOCKS
  0
BLOCK
  5
20
330
1F
100
AcDbEntity
  8
0
100
AcDbBlockBegin
  2
*MODEL_SPACE
 70
     0
 10
0.0
 20
0.0
 30
0.0
  3
*MODEL_SPACE
  1

  0
ENDBLK
  5
21
330
1F
100
AcDbEntity
  8
0
100
AcDbBlockEnd
  0
BLOCK
  5
1C
330
1B
100
AcDbEntity
 67
     1
  8
0
100
AcDbBlockBegin
  2
*PAPER_SPACE
  1

  0
ENDBLK
  5
1D
330
1B
100
AcDbEntity
 67
     1
  8
0
100
AcDbBlockEnd
  0
ENDSEC
  0
SECTION
  2
ENTITIES
  0
LINE
  5
100
100
AcDbEntity
  8
Layer_1
 62
1
100
AcDbLine
 10
90.384854
 20
125.255591
 30
0.0
 11
90.384854
 21
125.255591
 31
0.0
  0
LINE
  5
101
100
AcDbEntity
  8
Layer_1
 62
1
100
AcDbLine
 10
90.384854
 20
125.255591
 30
0.0
 11
90.384854
 21
125.255591
 31
0.0
  0
LINE
  5
102
100
AcDbEntity
  8
Layer_1
 62
1
100
AcDbLine
 10
90.384854
 20
125.255591
 30
0.0
 11
90.384854
 21
125.255591
 31
0.0
  0
LINE
  5
103
100
AcDbEntity
  8
Layer_1
 62
1
100
AcDbLine
 10
107.884855
 20
125.255591
 30
0.0
 11
107.884855
 21
125.255591
 31
0.0
  0
LINE
  5
104
100
AcDbEntity
  8
Layer_1
 62
1
100
AcDbLine
 10
107.884855
 20
125.255591
 30
0.0
 11
107.884855
 21
125.255591
 31
0.0
  0
LINE
  5
105
100
AcDbEntity
  8
Layer_1
 62
1
100
AcDbLine
 10
107.884855
 20
125.255591
 30
0.0
 11
107.884855
 21
125.255591
 31
0.0
  0
LINE
  5
106
100
AcDbEntity
  8
Layer_1
 62
1
100
AcDbLine
 10
132.884850
 20
125.255572
 30
0.0
 11
132.884850
 21
125.255572
 31
0.0
  0
LINE
  5
107
100
AcDbEntity
  8
Layer_1
 62
1
100
AcDbLine
 10
132.884850
 20
125.255572
 30
0.0
 11
132.884850
 21
125.255572
 31
0.0
  0
LINE
  5
108
100
AcDbEntity
  8
Layer_1
 62
1
100
AcDbLine
 10
132.884850
 20
125.255572
 30
0.0
 11
132.884850
 21
125.255572
 31
0.0
  0
LINE
  5
109
100
AcDbEntity
  8
Layer_1
 62
1
100
AcDbLine
 10
68.384851
 20
153.255592
 30
0.0
 11
68.384851
 21
185.255531
 31
0.0
  0
LINE
  5
10a
100
AcDbEntity
  8
Layer_1
 62
1
100
AcDbLine
 10
68.384851
 20
185.255531
 30
0.0
 11
69.884851
 21
185.255531
 31
0.0
  0
LINE
  5
10b
100
AcDbEntity
  8
Layer_1
 62
1
100
AcDbLine
 10
69.884851
 20
185.255531
 30
0.0
 11
69.884851
 21
188.255530
 31
0.0
  0
LINE
  5
10c
100
AcDbEntity
  8
Layer_1
 62
1
100
AcDbLine
 10
69.884851
 20
188.255530
 30
0.0
 11
81.884850
 21
188.255536
 31
0.0
  0
LINE
  5
10d
100
AcDbEntity
  8
Layer_1
 62
1
100
AcDbLine
 10
81.884850
 20
188.255536
 30
0.0
 11
81.884850
 21
185.255536
 31
0.0
  0
LINE
  5
10e
100
AcDbEntity
  8
Layer_1
 62
1
100
AcDbLine
 10
81.884850
 20
185.255536
 30
0.0
 11
84.184851
 21
185.255531
 31
0.0
  0
LINE
  5
10f
100
AcDbEntity
  8
Layer_1
 62
1
100
AcDbLine
 10
84.184851
 20
185.255531
 30
0.0
 11
84.184851
 21
181.905533
 31
0.0
  0
LINE
  5
110
100
AcDbEntity
  8
Layer_1
 62
1
100
AcDbLine
 10
84.184851
 20
181.905533
 30
0.0
 11
76.634851
 21
181.905539
 31
0.0
  0
LINE
  5
111
100
AcDbEntity
  8
Layer_1
 62
1
100
AcDbLine
 10
76.634851
 20
181.905539
 30
0.0
 11
76.134852
 21
181.405540
 31
0.0
  0
LINE
  5
112
100
AcDbEntity
  8
Layer_1
 62
1
100
AcDbLine
 10
76.134852
 20
181.405540
 30
0.0
 11
76.134852
 21
177.905552
 31
0.0
  0
LINE
  5
113
100
AcDbEntity
  8
Layer_1
 62
1
100
AcDbLine
 10
76.134852
 20
177.905552
 30
0.0
 11
75.634853
 21
177.805553
 31
0.0
  0
LINE
  5
114
100
AcDbEntity
  8
Layer_1
 62
1
100
AcDbLine
 10
75.634853
 20
177.805553
 30
0.0
 11
74.734852
 21
177.805550
 31
0.0
  0
LINE
  5
115
100
AcDbEntity
  8
Layer_1
 62
1
100
AcDbLine
 10
74.734852
 20
177.805550
 30
0.0
 11
74.734852
 21
177.005549
 31
0.0
  0
LINE
  5
116
100
AcDbEntity
  8
Layer_1
 62
1
100
AcDbLine
 10
74.734852
 20
177.005549
 30
0.0
 11
75.634853
 21
177.005551
 31
0.0
  0
LINE
  5
117
100
AcDbEntity
  8
Layer_1
 62
1
100
AcDbLine
 10
75.634853
 20
177.005551
 30
0.0
 11
76.134852
 21
176.905552
 31
0.0
  0
LINE
  5
118
100
AcDbEntity
  8
Layer_1
 62
1
100
AcDbLine
 10
76.134852
 20
176.905552
 30
0.0
 11
76.134852
 21
173.255532
 31
0.0
  0
LINE
  5
119
100
AcDbEntity
  8
Layer_1
 62
1
100
AcDbLine
 10
76.134852
 20
173.255532
 30
0.0
 11
75.634853
 21
173.155527
 31
0.0
  0
LINE
  5
11a
100
AcDbEntity
  8
Layer_1
 62
1
100
AcDbLine
 10
75.634853
 20
173.155527
 30
0.0
 11
74.734852
 21
173.155549
 31
0.0
  0
LINE
  5
11b
100
AcDbEntity
  8
Layer_1
 62
1
100
AcDbLine
 10
74.734852
 20
173.155549
 30
0.0
 11
74.734852
 21
172.355548
 31
0.0
  0
LINE
  5
11c
100
AcDbEntity
  8
Layer_1
 62
1
100
AcDbLine
 10
74.734852
 20
172.355548
 30
0.0
 11
75.634853
 21
172.355525
 31
0.0
  0
LINE
  5
11d
100
AcDbEntity
  8
Layer_1
 62
1
100
AcDbLine
 10
75.634853
 20
172.355525
 30
0.0
 11
76.134852
 21
172.255531
 31
0.0
  0
LINE
  5
11e
100
AcDbEntity
  8
Layer_1
 62
1
100
AcDbLine
 10
76.134852
 20
172.255531
 30
0.0
 11
76.134852
 21
168.755538
 31
0.0
  0
LINE
  5
11f
100
AcDbEntity
  8
Layer_1
 62
1
100
AcDbLine
 10
76.134852
 20
168.755538
 30
0.0
 11
76.634851
 21
168.255525
 31
0.0
  0
LINE
  5
120
100
AcDbEntity
  8
Layer_1
 62
1
100
AcDbLine
 10
76.634851
 20
168.255525
 30
0.0
 11
84.184851
 21
168.255525
 31
0.0
  0
LINE
  5
121
100
AcDbEntity
  8
Layer_1
 62
1
100
AcDbLine
 10
84.184851
 20
168.255525
 30
0.0
 11
84.184851
 21
165.805563
 31
0.0
  0
LINE
  5
122
100
AcDbEntity
  8
Layer_1
 62
1
100
AcDbLine
 10
84.184851
 20
165.805563
 30
0.0
 11
81.734851
 21
165.805563
 31
0.0
  0
LINE
  5
123
100
AcDbEntity
  8
Layer_1
 62
1
100
AcDbLine
 10
81.734851
 20
165.805563
 30
0.0
 11
81.234850
 21
165.305549
 31
0.0
  0
LINE
  5
124
100
AcDbEntity
  8
Layer_1
 62
1
100
AcDbLine
 10
81.234850
 20
165.305549
 30
0.0
 11
81.234850
 21
161.805599
 31
0.0
  0
LINE
  5
125
100
AcDbEntity
  8
Layer_1
 62
1
100
AcDbLine
 10
81.234850
 20
161.805599
 30
0.0
 11
80.734851
 21
161.705579
 31
0.0
  0
LINE
  5
126
100
AcDbEntity
  8
Layer_1
 62
1
100
AcDbLine
 10
80.734851
 20
161.705579
 30
0.0
 11
79.834852
 21
161.705579
 31
0.0
  0
LINE
  5
127
100
AcDbEntity
  8
Layer_1
 62
1
100
AcDbLine
 10
79.834852
 20
161.705579
 30
0.0
 11
79.834852
 21
160.905592
 31
0.0
  0
LINE
  5
128
100
AcDbEntity
  8
Layer_1
 62
1
100
AcDbLine
 10
79.834852
 20
160.905592
 30
0.0
 11
80.734851
 21
160.905592
 31
0.0
  0
LINE
  5
129
100
AcDbEntity
  8
Layer_1
 62
1
100
AcDbLine
 10
80.734851
 20
160.905592
 30
0.0
 11
81.234850
 21
160.805573
 31
0.0
  0
LINE
  5
12a
100
AcDbEntity
  8
Layer_1
 62
1
100
AcDbLine
 10
81.234850
 20
160.805573
 30
0.0
 11
81.234850
 21
157.305594
 31
0.0
  0
LINE
  5
12b
100
AcDbEntity
  8
Layer_1
 62
1
100
AcDbLine
 10
81.234850
 20
157.305594
 30
0.0
 11
81.734851
 21
156.805581
 31
0.0
  0
LINE
  5
12c
100
AcDbEntity
  8
Layer_1
 62
1
100
AcDbLine
 10
81.734851
 20
156.805581
 30
0.0
 11
84.184851
 21
156.805609
 31
0.0
  0
LINE
  5
12d
100
AcDbEntity
  8
Layer_1
 62
1
100
AcDbLine
 10
84.184851
 20
156.805609
 30
0.0
 11
84.184851
 21
153.255592
 31
0.0
  0
LINE
  5
12e
100
AcDbEntity
  8
Layer_1
 62
1
100
AcDbLine
 10
84.184851
 20
153.255592
 30
0.0
 11
81.884850
 21
153.255592
 31
0.0
  0
LINE
  5
12f
100
AcDbEntity
  8
Layer_1
 62
1
100
AcDbLine
 10
81.884850
 20
153.255592
 30
0.0
 11
81.884850
 21
150.255598
 31
0.0
  0
LINE
  5
130
100
AcDbEntity
  8
Layer_1
 62
1
100
AcDbLine
 10
81.884850
 20
150.255598
 30
0.0
 11
69.884851
 21
150.255598
 31
0.0
  0
LINE
  5
131
100
AcDbEntity
  8
Layer_1
 62
1
100
AcDbLine
 10
69.884851
 20
150.255598
 30
0.0
 11
69.884851
 21
153.255592
 31
0.0
  0
LINE
  5
132
100
AcDbEntity
  8
Layer_1
 62
1
100
AcDbLine
 10
69.884851
 20
153.255592
 30
0.0
 11
68.384851
 21
153.255592
 31
0.0
  0
LINE
  5
133
100
AcDbEntity
  8
Layer_1
 62
1
100
AcDbLine
 10
68.384851
 20
153.255592
 30
0.0
 11
68.384851
 21
153.255592
 31
0.0
  0
LINE
  5
134
100
AcDbEntity
  8
Layer_1
 62
1
100
AcDbLine
 10
68.384851
 20
153.255592
 30
0.0
 11
68.384851
 21
153.255592
 31
0.0
  0
LINE
  5
135
100
AcDbEntity
  8
Layer_1
 62
1
100
AcDbLine
 10
88.384851
 20
153.255592
 30
0.0
 11
88.384851
 21
185.255531
 31
0.0
  0
LINE
  5
136
100
AcDbEntity
  8
Layer_1
 62
1
100
AcDbLine
 10
88.384851
 20
185.255531
 30
0.0
 11
89.884854
 21
185.255531
 31
0.0
  0
LINE
  5
137
100
AcDbEntity
  8
Layer_1
 62
1
100
AcDbLine
 10
89.884854
 20
185.255531
 30
0.0
 11
89.884854
 21
188.255530
 31
0.0
  0
LINE
  5
138
100
AcDbEntity
  8
Layer_1
 62
1
100
AcDbLine
 10
89.884854
 20
188.255530
 30
0.0
 11
101.884855
 21
188.255536
 31
0.0
  0
LINE
  5
139
100
AcDbEntity
  8
Layer_1
 62
1
100
AcDbLine
 10
101.884855
 20
188.255536
 30
0.0
 11
101.884855
 21
185.255536
 31
0.0
  0
LINE
  5
13a
100
AcDbEntity
  8
Layer_1
 62
1
100
AcDbLine
 10
101.884855
 20
185.255536
 30
0.0
 11
104.184856
 21
185.255531
 31
0.0
  0
LINE
  5
13b
100
AcDbEntity
  8
Layer_1
 62
1
100
AcDbLine
 10
104.184856
 20
185.255531
 30
0.0
 11
104.184856
 21
181.905533
 31
0.0
  0
LINE
  5
13c
100
AcDbEntity
  8
Layer_1
 62
1
100
AcDbLine
 10
104.184856
 20
181.905533
 30
0.0
 11
96.634850
 21
181.905539
 31
0.0
  0
LINE
  5
13d
100
AcDbEntity
  8
Layer_1
 62
1
100
AcDbLine
 10
96.634850
 20
181.905539
 30
0.0
 11
96.134851
 21
181.405540
 31
0.0
  0
LINE
  5
13e
100
AcDbEntity
  8
Layer_1
 62
1
100
AcDbLine
 10
96.134851
 20
181.405540
 30
0.0
 11
96.134851
 21
177.905552
 31
0.0
  0
LINE
  5
13f
100
AcDbEntity
  8
Layer_1
 62
1
100
AcDbLine
 10
96.134851
 20
177.905552
 30
0.0
 11
95.634852
 21
177.805553
 31
0.0
  0
LINE
  5
140
100
AcDbEntity
  8
Layer_1
 62
1
100
AcDbLine
 10
95.634852
 20
177.805553
 30
0.0
 11
94.734851
 21
177.805550
 31
0.0
  0
LINE
  5
141
100
AcDbEntity
  8
Layer_1
 62
1
100
AcDbLine
 10
94.734851
 20
177.805550
 30
0.0
 11
94.734851
 21
177.005549
 31
0.0
  0
LINE
  5
142
100
AcDbEntity
  8
Layer_1
 62
1
100
AcDbLine
 10
94.734851
 20
177.005549
 30
0.0
 11
95.634852
 21
177.005551
 31
0.0
  0
LINE
  5
143
100
AcDbEntity
  8
Layer_1
 62
1
100
AcDbLine
 10
95.634852
 20
177.005551
 30
0.0
 11
96.134851
 21
176.905552
 31
0.0
  0
LINE
  5
144
100
AcDbEntity
  8
Layer_1
 62
1
100
AcDbLine
 10
96.134851
 20
176.905552
 30
0.0
 11
96.134851
 21
173.255532
 31
0.0
  0
LINE
  5
145
100
AcDbEntity
  8
Layer_1
 62
1
100
AcDbLine
 10
96.134851
 20
173.255532
 30
0.0
 11
95.634852
 21
173.155527
 31
0.0
  0
LINE
  5
146
100
AcDbEntity
  8
Layer_1
 62
1
100
AcDbLine
 10
95.634852
 20
173.155527
 30
0.0
 11
94.734851
 21
173.155549
 31
0.0
  0
LINE
  5
147
100
AcDbEntity
  8
Layer_1
 62
1
100
AcDbLine
 10
94.734851
 20
173.155549
 30
0.0
 11
94.734851
 21
172.355548
 31
0.0
  0
LINE
  5
148
100
AcDbEntity
  8
Layer_1
 62
1
100
AcDbLine
 10
94.734851
 20
172.355548
 30
0.0
 11
95.634852
 21
172.355525
 31
0.0
  0
LINE
  5
149
100
AcDbEntity
  8
Layer_1
 62
1
100
AcDbLine
 10
95.634852
 20
172.355525
 30
0.0
 11
96.134851
 21
172.255531
 31
0.0
  0
LINE
  5
14a
100
AcDbEntity
  8
Layer_1
 62
1
100
AcDbLine
 10
96.134851
 20
172.255531
 30
0.0
 11
96.134851
 21
168.755538
 31
0.0
  0
LINE
  5
14b
100
AcDbEntity
  8
Layer_1
 62
1
100
AcDbLine
 10
96.134851
 20
168.755538
 30
0.0
 11
96.634850
 21
168.255525
 31
0.0
  0
LINE
  5
14c
100
AcDbEntity
  8
Layer_1
 62
1
100
AcDbLine
 10
96.634850
 20
168.255525
 30
0.0
 11
104.184854
 21
168.255525
 31
0.0
  0
LINE
  5
14d
100
AcDbEntity
  8
Layer_1
 62
1
100
AcDbLine
 10
104.184854
 20
168.255525
 30
0.0
 11
104.184854
 21
165.805563
 31
0.0
  0
LINE
  5
14e
100
AcDbEntity
  8
Layer_1
 62
1
100
AcDbLine
 10
104.184854
 20
165.805563
 30
0.0
 11
101.734854
 21
165.805563
 31
0.0
  0
LINE
  5
14f
100
AcDbEntity
  8
Layer_1
 62
1
100
AcDbLine
 10
101.734854
 20
165.805563
 30
0.0
 11
101.234855
 21
165.305549
 31
0.0
  0
LINE
  5
150
100
AcDbEntity
  8
Layer_1
 62
1
100
AcDbLine
 10
101.234855
 20
165.305549
 30
0.0
 11
101.234855
 21
161.805599
 31
0.0
  0
LINE
  5
151
100
AcDbEntity
  8
Layer_1
 62
1
100
AcDbLine
 10
101.234855
 20
161.805599
 30
0.0
 11
100.734853
 21
161.705579
 31
0.0
  0
LINE
  5
152
100
AcDbEntity
  8
Layer_1
 62
1
100
AcDbLine
 10
100.734853
 20
161.705579
 30
0.0
 11
99.834852
 21
161.705579
 31
0.0
  0
LINE
  5
153
100
AcDbEntity
  8
Layer_1
 62
1
100
AcDbLine
 10
99.834852
 20
161.705579
 30
0.0
 11
99.834852
 21
160.905592
 31
0.0
  0
LINE
  5
154
100
AcDbEntity
  8
Layer_1
 62
1
100
AcDbLine
 10
99.834852
 20
160.905592
 30
0.0
 11
100.734853
 21
160.905592
 31
0.0
  0
LINE
  5
155
100
AcDbEntity
  8
Layer_1
 62
1
100
AcDbLine
 10
100.734853
 20
160.905592
 30
0.0
 11
101.234855
 21
160.805573
 31
0.0
  0
LINE
  5
156
100
AcDbEntity
  8
Layer_1
 62
1
100
AcDbLine
 10
101.234855
 20
160.805573
 30
0.0
 11
101.234855
 21
157.305594
 31
0.0
  0
LINE
  5
157
100
AcDbEntity
  8
Layer_1
 62
1
100
AcDbLine
 10
101.234855
 20
157.305594
 30
0.0
 11
101.734854
 21
156.805581
 31
0.0
  0
LINE
  5
158
100
AcDbEntity
  8
Layer_1
 62
1
100
AcDbLine
 10
101.734854
 20
156.805581
 30
0.0
 11
104.184854
 21
156.805609
 31
0.0
  0
LINE
  5
159
100
AcDbEntity
  8
Layer_1
 62
1
100
AcDbLine
 10
104.184854
 20
156.805609
 30
0.0
 11
104.184854
 21
153.255592
 31
0.0
  0
LINE
  5
15a
100
AcDbEntity
  8
Layer_1
 62
1
100
AcDbLine
 10
104.184854
 20
153.255592
 30
0.0
 11
101.884855
 21
153.255592
 31
0.0
  0
LINE
  5
15b
100
AcDbEntity
  8
Layer_1
 62
1
100
AcDbLine
 10
101.884855
 20
153.255592
 30
0.0
 11
101.884855
 21
150.255598
 31
0.0
  0
LINE
  5
15c
100
AcDbEntity
  8
Layer_1
 62
1
100
AcDbLine
 10
101.884855
 20
150.255598
 30
0.0
 11
89.884854
 21
150.255598
 31
0.0
  0
LINE
  5
15d
100
AcDbEntity
  8
Layer_1
 62
1
100
AcDbLine
 10
89.884854
 20
150.255598
 30
0.0
 11
89.884854
 21
153.255592
 31
0.0
  0
LINE
  5
15e
100
AcDbEntity
  8
Layer_1
 62
1
100
AcDbLine
 10
89.884854
 20
153.255592
 30
0.0
 11
88.384851
 21
153.255592
 31
0.0
  0
LINE
  5
15f
100
AcDbEntity
  8
Layer_1
 62
1
100
AcDbLine
 10
88.384851
 20
153.255592
 30
0.0
 11
88.384851
 21
153.255592
 31
0.0
  0
LINE
  5
160
100
AcDbEntity
  8
Layer_1
 62
1
100
AcDbLine
 10
88.384851
 20
153.255592
 30
0.0
 11
88.384851
 21
153.255592
 31
0.0
  0
LINE
  5
161
100
AcDbEntity
  8
Layer_1
 62
1
100
AcDbLine
 10
108.384856
 20
153.255592
 30
0.0
 11
108.384856
 21
185.255531
 31
0.0
  0
LINE
  5
162
100
AcDbEntity
  8
Layer_1
 62
1
100
AcDbLine
 10
108.384856
 20
185.255531
 30
0.0
 11
109.884856
 21
185.255531
 31
0.0
  0
LINE
  5
163
100
AcDbEntity
  8
Layer_1
 62
1
100
AcDbLine
 10
109.884856
 20
185.255531
 30
0.0
 11
109.884856
 21
188.255530
 31
0.0
  0
LINE
  5
164
100
AcDbEntity
  8
Layer_1
 62
1
100
AcDbLine
 10
109.884856
 20
188.255530
 30
0.0
 11
121.884855
 21
188.255536
 31
0.0
  0
LINE
  5
165
100
AcDbEntity
  8
Layer_1
 62
1
100
AcDbLine
 10
121.884855
 20
188.255536
 30
0.0
 11
121.884855
 21
185.255536
 31
0.0
  0
LINE
  5
166
100
AcDbEntity
  8
Layer_1
 62
1
100
AcDbLine
 10
121.884855
 20
185.255536
 30
0.0
 11
124.184856
 21
185.255531
 31
0.0
  0
LINE
  5
167
100
AcDbEntity
  8
Layer_1
 62
1
100
AcDbLine
 10
124.184856
 20
185.255531
 30
0.0
 11
124.184856
 21
181.905533
 31
0.0
  0
LINE
  5
168
100
AcDbEntity
  8
Layer_1
 62
1
100
AcDbLine
 10
124.184856
 20
181.905533
 30
0.0
 11
116.634855
 21
181.905539
 31
0.0
  0
LINE
  5
169
100
AcDbEntity
  8
Layer_1
 62
1
100
AcDbLine
 10
116.634855
 20
181.905539
 30
0.0
 11
116.134856
 21
181.405540
 31
0.0
  0
LINE
  5
16a
100
AcDbEntity
  8
Layer_1
 62
1
100
AcDbLine
 10
116.134856
 20
181.405540
 30
0.0
 11
116.134856
 21
177.905552
 31
0.0
  0
LINE
  5
16b
100
AcDbEntity
  8
Layer_1
 62
1
100
AcDbLine
 10
116.134856
 20
177.905552
 30
0.0
 11
115.634855
 21
177.805553
 31
0.0
  0
LINE
  5
16c
100
AcDbEntity
  8
Layer_1
 62
1
100
AcDbLine
 10
115.634855
 20
177.805553
 30
0.0
 11
114.734856
 21
177.805550
 31
0.0
  0
LINE
  5
16d
100
AcDbEntity
  8
Layer_1
 62
1
100
AcDbLine
 10
114.734856
 20
177.805550
 30
0.0
 11
114.734856
 21
177.005549
 31
0.0
  0
LINE
  5
16e
100
AcDbEntity
  8
Layer_1
 62
1
100
AcDbLine
 10
114.734856
 20
177.005549
 30
0.0
 11
115.634855
 21
177.005551
 31
0.0
  0
LINE
  5
16f
100
AcDbEntity
  8
Layer_1
 62
1
100
AcDbLine
 10
115.634855
 20
177.005551
 30
0.0
 11
116.134856
 21
176.905552
 31
0.0
  0
LINE
  5
170
100
AcDbEntity
  8
Layer_1
 62
1
100
AcDbLine
 10
116.134856
 20
176.905552
 30
0.0
 11
116.134856
 21
173.255532
 31
0.0
  0
LINE
  5
171
100
AcDbEntity
  8
Layer_1
 62
1
100
AcDbLine
 10
116.134856
 20
173.255532
 30
0.0
 11
115.634855
 21
173.155527
 31
0.0
  0
LINE
  5
172
100
AcDbEntity
  8
Layer_1
 62
1
100
AcDbLine
 10
115.634855
 20
173.155527
 30
0.0
 11
114.734856
 21
173.155549
 31
0.0
  0
LINE
  5
173
100
AcDbEntity
  8
Layer_1
 62
1
100
AcDbLine
 10
114.734856
 20
173.155549
 30
0.0
 11
114.734856
 21
172.355548
 31
0.0
  0
LINE
  5
174
100
AcDbEntity
  8
Layer_1
 62
1
100
AcDbLine
 10
114.734856
 20
172.355548
 30
0.0
 11
115.634855
 21
172.355525
 31
0.0
  0
LINE
  5
175
100
AcDbEntity
  8
Layer_1
 62
1
100
AcDbLine
 10
115.634855
 20
172.355525
 30
0.0
 11
116.134856
 21
172.255531
 31
0.0
  0
LINE
  5
176
100
AcDbEntity
  8
Layer_1
 62
1
100
AcDbLine
 10
116.134856
 20
172.255531
 30
0.0
 11
116.134856
 21
168.755538
 31
0.0
  0
LINE
  5
177
100
AcDbEntity
  8
Layer_1
 62
1
100
AcDbLine
 10
116.134856
 20
168.755538
 30
0.0
 11
116.634855
 21
168.255525
 31
0.0
  0
LINE
  5
178
100
AcDbEntity
  8
Layer_1
 62
1
100
AcDbLine
 10
116.634855
 20
168.255525
 30
0.0
 11
124.184856
 21
168.255525
 31
0.0
  0
LINE
  5
179
100
AcDbEntity
  8
Layer_1
 62
1
100
AcDbLine
 10
124.184856
 20
168.255525
 30
0.0
 11
124.184856
 21
165.805563
 31
0.0
  0
LINE
  5
17a
100
AcDbEntity
  8
Layer_1
 62
1
100
AcDbLine
 10
124.184856
 20
165.805563
 30
0.0
 11
121.734857
 21
165.805563
 31
0.0
  0
LINE
  5
17b
100
AcDbEntity
  8
Layer_1
 62
1
100
AcDbLine
 10
121.734857
 20
165.805563
 30
0.0
 11
121.234855
 21
165.305549
 31
0.0
  0
LINE
  5
17c
100
AcDbEntity
  8
Layer_1
 62
1
100
AcDbLine
 10
121.234855
 20
165.305549
 30
0.0
 11
121.234855
 21
161.805599
 31
0.0
  0
LINE
  5
17d
100
AcDbEntity
  8
Layer_1
 62
1
100
AcDbLine
 10
121.234855
 20
161.805599
 30
0.0
 11
120.734856
 21
161.705579
 31
0.0
  0
LINE
  5
17e
100
AcDbEntity
  8
Layer_1
 62
1
100
AcDbLine
 10
120.734856
 20
161.705579
 30
0.0
 11
119.834855
 21
161.705579
 31
0.0
  0
LINE
  5
17f
100
AcDbEntity
  8
Layer_1
 62
1
100
AcDbLine
 10
119.834855
 20
161.705579
 30
0.0
 11
119.834855
 21
160.905592
 31
0.0
  0
LINE
  5
180
100
AcDbEntity
  8
Layer_1
 62
1
100
AcDbLine
 10
119.834855
 20
160.905592
 30
0.0
 11
120.734856
 21
160.905592
 31
0.0
  0
LINE
  5
181
100
AcDbEntity
  8
Layer_1
 62
1
100
AcDbLine
 10
120.734856
 20
160.905592
 30
0.0
 11
121.234855
 21
160.805573
 31
0.0
  0
LINE
  5
182
100
AcDbEntity
  8
Layer_1
 62
1
100
AcDbLine
 10
121.234855
 20
160.805573
 30
0.0
 11
121.234855
 21
157.305594
 31
0.0
  0
LINE
  5
183
100
AcDbEntity
  8
Layer_1
 62
1
100
AcDbLine
 10
121.234855
 20
157.305594
 30
0.0
 11
121.734857
 21
156.805581
 31
0.0
  0
LINE
  5
184
100
AcDbEntity
  8
Layer_1
 62
1
100
AcDbLine
 10
121.734857
 20
156.805581
 30
0.0
 11
124.184856
 21
156.805609
 31
0.0
  0
LINE
  5
185
100
AcDbEntity
  8
Layer_1
 62
1
100
AcDbLine
 10
124.184856
 20
156.805609
 30
0.0
 11
124.184856
 21
153.255592
 31
0.0
  0
LINE
  5
186
100
AcDbEntity
  8
Layer_1
 62
1
100
AcDbLine
 10
124.184856
 20
153.255592
 30
0.0
 11
121.884855
 21
153.255592
 31
0.0
  0
LINE
  5
187
100
AcDbEntity
  8
Layer_1
 62
1
100
AcDbLine
 10
121.884855
 20
153.255592
 30
0.0
 11
121.884855
 21
150.255598
 31
0.0
  0
LINE
  5
188
100
AcDbEntity
  8
Layer_1
 62
1
100
AcDbLine
 10
121.884855
 20
150.255598
 30
0.0
 11
109.884856
 21
150.255598
 31
0.0
  0
LINE
  5
189
100
AcDbEntity
  8
Layer_1
 62
1
100
AcDbLine
 10
109.884856
 20
150.255598
 30
0.0
 11
109.884856
 21
153.255592
 31
0.0
  0
LINE
  5
18a
100
AcDbEntity
  8
Layer_1
 62
1
100
AcDbLine
 10
109.884856
 20
153.255592
 30
0.0
 11
108.384856
 21
153.255592
 31
0.0
  0
LINE
  5
18b
100
AcDbEntity
  8
Layer_1
 62
1
100
AcDbLine
 10
108.384856
 20
153.255592
 30
0.0
 11
108.384856
 21
153.255592
 31
0.0
  0
LINE
  5
18c
100
AcDbEntity
  8
Layer_1
 62
1
100
AcDbLine
 10
108.384856
 20
153.255592
 30
0.0
 11
108.384856
 21
153.255592
 31
0.0
  0
ENDSEC
  0
SECTION
  2
OBJECTS
  0
DICTIONARY
  5
C
330
0
100
AcDbDictionary
  3
ACAD_GROUP
350
D
  3
ACAD_MLINESTYLE
350
17
  0
DICTIONARY
  5
D
330
C
100
AcDbDictionary
  0
DICTIONARY
  5
1A
330
C
100
AcDbDictionary
  0
DICTIONARY
  5
17
330
C
100
AcDbDictionary
  3
STANDARD
350
18
  0
DICTIONARY
  5
19
330
C
100
AcDbDictionary
  0
ENDSEC
  0
EOF
